G04 #@! TF.GenerationSoftware,KiCad,Pcbnew,(6.0.7)*
G04 #@! TF.CreationDate,2022-12-18T06:26:48+05:30*
G04 #@! TF.ProjectId,PowerBoard,506f7765-7242-46f6-9172-642e6b696361,rev?*
G04 #@! TF.SameCoordinates,Original*
G04 #@! TF.FileFunction,Copper,L2,Bot*
G04 #@! TF.FilePolarity,Positive*
%FSLAX46Y46*%
G04 Gerber Fmt 4.6, Leading zero omitted, Abs format (unit mm)*
G04 Created by KiCad (PCBNEW (6.0.7)) date 2022-12-18 06:26:48*
%MOMM*%
%LPD*%
G01*
G04 APERTURE LIST*
G04 Aperture macros list*
%AMRoundRect*
0 Rectangle with rounded corners*
0 $1 Rounding radius*
0 $2 $3 $4 $5 $6 $7 $8 $9 X,Y pos of 4 corners*
0 Add a 4 corners polygon primitive as box body*
4,1,4,$2,$3,$4,$5,$6,$7,$8,$9,$2,$3,0*
0 Add four circle primitives for the rounded corners*
1,1,$1+$1,$2,$3*
1,1,$1+$1,$4,$5*
1,1,$1+$1,$6,$7*
1,1,$1+$1,$8,$9*
0 Add four rect primitives between the rounded corners*
20,1,$1+$1,$2,$3,$4,$5,0*
20,1,$1+$1,$4,$5,$6,$7,0*
20,1,$1+$1,$6,$7,$8,$9,0*
20,1,$1+$1,$8,$9,$2,$3,0*%
G04 Aperture macros list end*
G04 #@! TA.AperFunction,ComponentPad*
%ADD10RoundRect,0.587500X-2.912500X0.587500X-2.912500X-0.587500X2.912500X-0.587500X2.912500X0.587500X0*%
G04 #@! TD*
G04 #@! TA.AperFunction,ComponentPad*
%ADD11C,1.620000*%
G04 #@! TD*
G04 #@! TA.AperFunction,ComponentPad*
%ADD12C,3.050000*%
G04 #@! TD*
G04 #@! TA.AperFunction,ComponentPad*
%ADD13R,1.700000X1.700000*%
G04 #@! TD*
G04 #@! TA.AperFunction,ComponentPad*
%ADD14O,1.700000X1.700000*%
G04 #@! TD*
G04 #@! TA.AperFunction,ComponentPad*
%ADD15C,1.650000*%
G04 #@! TD*
G04 #@! TA.AperFunction,ComponentPad*
%ADD16R,2.000000X1.905000*%
G04 #@! TD*
G04 #@! TA.AperFunction,ComponentPad*
%ADD17O,2.000000X1.905000*%
G04 #@! TD*
G04 #@! TA.AperFunction,ComponentPad*
%ADD18R,1.520000X1.520000*%
G04 #@! TD*
G04 #@! TA.AperFunction,ComponentPad*
%ADD19C,1.520000*%
G04 #@! TD*
G04 #@! TA.AperFunction,ComponentPad*
%ADD20RoundRect,0.587500X0.587500X2.912500X-0.587500X2.912500X-0.587500X-2.912500X0.587500X-2.912500X0*%
G04 #@! TD*
G04 #@! TA.AperFunction,ViaPad*
%ADD21C,0.800000*%
G04 #@! TD*
G04 #@! TA.AperFunction,Conductor*
%ADD22C,0.250000*%
G04 #@! TD*
G04 #@! TA.AperFunction,Conductor*
%ADD23C,0.200000*%
G04 #@! TD*
G04 #@! TA.AperFunction,Conductor*
%ADD24C,0.254000*%
G04 #@! TD*
G04 APERTURE END LIST*
D10*
X96520000Y-94050000D03*
X96520000Y-101530000D03*
D11*
X146810000Y-105410000D03*
X143810000Y-105410000D03*
D12*
X151130000Y-105410000D03*
D13*
X142448606Y-129458684D03*
D14*
X142448606Y-131998684D03*
X142448606Y-134538684D03*
X142448606Y-137078684D03*
D11*
X146810000Y-120650000D03*
X143810000Y-120650000D03*
D12*
X151130000Y-120650000D03*
D15*
X119795080Y-76535920D03*
X119795080Y-74035920D03*
X81270900Y-83990820D03*
X81270900Y-81490820D03*
D11*
X83060000Y-112776000D03*
X86060000Y-112776000D03*
D12*
X78740000Y-112776000D03*
D11*
X83060000Y-120396000D03*
X86060000Y-120396000D03*
D12*
X78740000Y-120396000D03*
D11*
X83302924Y-128270000D03*
X86302924Y-128270000D03*
D12*
X78982924Y-128270000D03*
D11*
X83302924Y-136398000D03*
X86302924Y-136398000D03*
D12*
X78982924Y-136398000D03*
D16*
X116428520Y-91800680D03*
D17*
X116428520Y-89260680D03*
X116428520Y-86720680D03*
D13*
X78740000Y-144780000D03*
D14*
X78740000Y-142240000D03*
X81280000Y-144780000D03*
X81280000Y-142240000D03*
X83820000Y-144780000D03*
X83820000Y-142240000D03*
X86360000Y-144780000D03*
X86360000Y-142240000D03*
X88900000Y-144780000D03*
X88900000Y-142240000D03*
X91440000Y-144780000D03*
X91440000Y-142240000D03*
X93980000Y-144780000D03*
X93980000Y-142240000D03*
X96520000Y-144780000D03*
X96520000Y-142240000D03*
X99060000Y-144780000D03*
X99060000Y-142240000D03*
X101600000Y-144780000D03*
X101600000Y-142240000D03*
X104140000Y-144780000D03*
X104140000Y-142240000D03*
X106680000Y-144780000D03*
X106680000Y-142240000D03*
X109220000Y-144780000D03*
X109220000Y-142240000D03*
D15*
X108360000Y-105370000D03*
X108360000Y-102870000D03*
X97750000Y-112620000D03*
X95250000Y-112620000D03*
X97750000Y-120240000D03*
X95250000Y-120240000D03*
D11*
X146810000Y-113030000D03*
X143810000Y-113030000D03*
D12*
X151130000Y-113030000D03*
D18*
X140970000Y-87630000D03*
D19*
X140970000Y-90629999D03*
X140970000Y-93629998D03*
X140970000Y-96629997D03*
D11*
X144270000Y-59690000D03*
X141270000Y-59690000D03*
D12*
X148590000Y-59690000D03*
D14*
X133350000Y-149860000D03*
X133350000Y-147320000D03*
D13*
X133350000Y-144780000D03*
D14*
X133350000Y-142240000D03*
X133350000Y-139700000D03*
X133350000Y-137160000D03*
X133350000Y-134620000D03*
D13*
X133350000Y-132080000D03*
D14*
X133350000Y-129540000D03*
X133350000Y-127000000D03*
X133350000Y-124460000D03*
X133350000Y-121920000D03*
D13*
X133350000Y-119380000D03*
D14*
X133350000Y-116840000D03*
X133350000Y-114300000D03*
X133350000Y-111760000D03*
X133350000Y-109220000D03*
D13*
X133350000Y-106680000D03*
D14*
X133350000Y-104140000D03*
X133350000Y-101600000D03*
X115570000Y-101600000D03*
X115570000Y-104140000D03*
D13*
X115570000Y-106680000D03*
D14*
X115570000Y-109220000D03*
X115570000Y-111760000D03*
X115570000Y-114300000D03*
X115570000Y-116840000D03*
D13*
X115570000Y-119380000D03*
D14*
X115570000Y-121920000D03*
X115570000Y-124460000D03*
X115570000Y-127000000D03*
X115570000Y-129540000D03*
D13*
X115570000Y-132080000D03*
D14*
X115570000Y-134620000D03*
X115570000Y-137160000D03*
X115570000Y-139700000D03*
X115570000Y-142240000D03*
D13*
X115570000Y-144780000D03*
D14*
X115570000Y-147320000D03*
X115570000Y-149860000D03*
X127000000Y-101830000D03*
D13*
X124460000Y-101830000D03*
D14*
X121920000Y-101830000D03*
D18*
X138430000Y-68580000D03*
D19*
X138430000Y-71579999D03*
X138430000Y-74579998D03*
X138430000Y-77579997D03*
D15*
X97750000Y-135480000D03*
X95250000Y-135480000D03*
X97750000Y-127860000D03*
X95250000Y-127860000D03*
D20*
X100260000Y-66040000D03*
X92780000Y-66040000D03*
X126930000Y-66040000D03*
X119450000Y-66040000D03*
D21*
X102318820Y-76426060D03*
X124139960Y-86362540D03*
X108991400Y-70582960D03*
X108805980Y-82991960D03*
X103720900Y-75504040D03*
X106260900Y-70535800D03*
X125188980Y-91579700D03*
D22*
X90170000Y-143510000D02*
X90170000Y-140970000D01*
X93980000Y-140970000D02*
X93980000Y-142240000D01*
X91440000Y-139700000D02*
X92710000Y-139700000D01*
X90170000Y-140970000D02*
X91440000Y-139700000D01*
X92710000Y-139700000D02*
X93980000Y-140970000D01*
X88900000Y-144780000D02*
X90170000Y-143510000D01*
X117523260Y-81375110D02*
X117523260Y-83556970D01*
X108991400Y-70582960D02*
X108991400Y-72843250D01*
X120328830Y-86362540D02*
X122915680Y-86362540D01*
X108991400Y-72843250D02*
X117523260Y-81375110D01*
X117523260Y-83556970D02*
X120328830Y-86362540D01*
X124139960Y-86362540D02*
X122915680Y-86362540D01*
X129740660Y-131653280D02*
X131853940Y-129540000D01*
X92615001Y-143415001D02*
X92615001Y-145154003D01*
X92615001Y-145154003D02*
X100761020Y-153300022D01*
X131853940Y-129540000D02*
X133350000Y-129540000D01*
X129740660Y-150260162D02*
X129740660Y-131653280D01*
X100761020Y-153300022D02*
X126700802Y-153300022D01*
X91440000Y-142240000D02*
X92615001Y-143415001D01*
X126700802Y-153300022D02*
X129740660Y-150260162D01*
X105391009Y-152850011D02*
X126514402Y-152850011D01*
X128988820Y-150375592D02*
X128988820Y-129682240D01*
X96520000Y-142240000D02*
X97884999Y-143604999D01*
X126514402Y-152850011D02*
X128988820Y-150375592D01*
X97884999Y-143604999D02*
X97884999Y-145344001D01*
X97884999Y-145344001D02*
X105391009Y-152850011D01*
X131671060Y-127000000D02*
X133350000Y-127000000D01*
X128988820Y-129682240D02*
X131671060Y-127000000D01*
X107480998Y-152400000D02*
X126328002Y-152400000D01*
X128493520Y-150234482D02*
X128493520Y-127637540D01*
X128493520Y-127637540D02*
X131671060Y-124460000D01*
X100424999Y-143604999D02*
X100424999Y-145344001D01*
X131671060Y-124460000D02*
X133350000Y-124460000D01*
X100424999Y-145344001D02*
X107480998Y-152400000D01*
X99060000Y-142240000D02*
X100424999Y-143604999D01*
X126328002Y-152400000D02*
X128493520Y-150234482D01*
X118676420Y-125663960D02*
X117340380Y-127000000D01*
X118676420Y-101071680D02*
X118676420Y-125663960D01*
X117340380Y-127000000D02*
X115570000Y-127000000D01*
X109205979Y-83391959D02*
X109205979Y-91601239D01*
X108805980Y-82991960D02*
X109205979Y-83391959D01*
X109205979Y-91601239D02*
X118676420Y-101071680D01*
X100481153Y-153750033D02*
X133549367Y-153750033D01*
X138430000Y-148869400D02*
X138430000Y-144317720D01*
X78740000Y-145880000D02*
X80180000Y-147320000D01*
X94051120Y-147320000D02*
X100481153Y-153750033D01*
X78740000Y-144780000D02*
X78740000Y-145880000D01*
X143548606Y-129458684D02*
X142448606Y-129458684D01*
X144353280Y-138394440D02*
X144353280Y-130263358D01*
X80180000Y-147320000D02*
X94051120Y-147320000D01*
X138430000Y-144317720D02*
X144353280Y-138394440D01*
D23*
X114782600Y-140487400D02*
X115570000Y-139700000D01*
D22*
X133549367Y-153750033D02*
X138430000Y-148869400D01*
X144353280Y-130263358D02*
X143548606Y-129458684D01*
X116428520Y-86720680D02*
X117678520Y-86720680D01*
X119126429Y-88168589D02*
X119126429Y-143763571D01*
X116428520Y-81734660D02*
X116428520Y-86720680D01*
X110223300Y-75504040D02*
X110210600Y-75516740D01*
X117678520Y-86720680D02*
X119126429Y-88168589D01*
X119126429Y-143763571D02*
X115570000Y-147320000D01*
X110210600Y-75516740D02*
X116428520Y-81734660D01*
X103720900Y-75504040D02*
X110223300Y-75504040D01*
X106680000Y-126895860D02*
X111655860Y-121920000D01*
X111655860Y-121920000D02*
X115570000Y-121920000D01*
X106680000Y-142240000D02*
X106680000Y-126895860D01*
D23*
X133350000Y-139700000D02*
X137287000Y-139700000D01*
X142448316Y-134538684D02*
X142448606Y-134538684D01*
X137287000Y-139700000D02*
X142448316Y-134538684D01*
D22*
X124509581Y-91179701D02*
X116878530Y-83548650D01*
X116878530Y-83548650D02*
X116878530Y-81522860D01*
X109368730Y-74013060D02*
X107188000Y-74013060D01*
X107188000Y-74013060D02*
X106260900Y-73085960D01*
X116878530Y-81522860D02*
X109368730Y-74013060D01*
X106260900Y-73085960D02*
X106260900Y-70535800D01*
X124788981Y-91179701D02*
X124509581Y-91179701D01*
X125188980Y-91579700D02*
X124788981Y-91179701D01*
D24*
X152935000Y-104160298D02*
X152353542Y-103578840D01*
X151559651Y-103250000D01*
X150700349Y-103250000D01*
X149906458Y-103578840D01*
X149298840Y-104186458D01*
X148970000Y-104980349D01*
X148970000Y-105839651D01*
X149298840Y-106633542D01*
X149906458Y-107241160D01*
X150700349Y-107570000D01*
X151559651Y-107570000D01*
X152353542Y-107241160D01*
X152960000Y-106634702D01*
X152960000Y-111805298D01*
X152353542Y-111198840D01*
X151559651Y-110870000D01*
X150700349Y-110870000D01*
X149906458Y-111198840D01*
X149298840Y-111806458D01*
X148970000Y-112600349D01*
X148970000Y-113459651D01*
X149298840Y-114253542D01*
X149906458Y-114861160D01*
X150700349Y-115190000D01*
X151559651Y-115190000D01*
X152353542Y-114861160D01*
X152960000Y-114254702D01*
X152960000Y-119425298D01*
X152353542Y-118818840D01*
X151559651Y-118490000D01*
X150700349Y-118490000D01*
X149906458Y-118818840D01*
X149298840Y-119426458D01*
X148970000Y-120220349D01*
X148970000Y-121079651D01*
X149298840Y-121873542D01*
X149906458Y-122481160D01*
X150700349Y-122810000D01*
X151559651Y-122810000D01*
X152353542Y-122481160D01*
X152960000Y-121874702D01*
X152960000Y-154230000D01*
X134144201Y-154230000D01*
X138323771Y-150050431D01*
X146990000Y-150050431D01*
X146990000Y-150939569D01*
X147330259Y-151761026D01*
X147958974Y-152389741D01*
X148780431Y-152730000D01*
X149669569Y-152730000D01*
X150491026Y-152389741D01*
X151119741Y-151761026D01*
X151460000Y-150939569D01*
X151460000Y-150050431D01*
X151119741Y-149228974D01*
X150491026Y-148600259D01*
X149669569Y-148260000D01*
X148780431Y-148260000D01*
X147958974Y-148600259D01*
X147330259Y-149228974D01*
X146990000Y-150050431D01*
X138323771Y-150050431D01*
X138914476Y-149459727D01*
X138977929Y-149417329D01*
X139020327Y-149353876D01*
X139020329Y-149353874D01*
X139145903Y-149165938D01*
X139145904Y-149165937D01*
X139190000Y-148944252D01*
X139190000Y-148944248D01*
X139204888Y-148869401D01*
X139190000Y-148794554D01*
X139190000Y-144632521D01*
X144837753Y-138984769D01*
X144901209Y-138942369D01*
X145069184Y-138690977D01*
X145113280Y-138469292D01*
X145113280Y-138469287D01*
X145128168Y-138394440D01*
X145113280Y-138319593D01*
X145113280Y-130338205D01*
X145128168Y-130263358D01*
X145113280Y-130188511D01*
X145113280Y-130188506D01*
X145069184Y-129966821D01*
X144901209Y-129715429D01*
X144837753Y-129673029D01*
X144138937Y-128974214D01*
X144096535Y-128910755D01*
X143946046Y-128810201D01*
X143946046Y-128608684D01*
X143896763Y-128360919D01*
X143756415Y-128150875D01*
X143546371Y-128010527D01*
X143298606Y-127961244D01*
X141598606Y-127961244D01*
X141350841Y-128010527D01*
X141140797Y-128150875D01*
X141000449Y-128360919D01*
X140951166Y-128608684D01*
X140951166Y-130308684D01*
X141000449Y-130556449D01*
X141140797Y-130766493D01*
X141350841Y-130906841D01*
X141454314Y-130927423D01*
X141176961Y-131231760D01*
X141007130Y-131641794D01*
X141128451Y-131871684D01*
X142321606Y-131871684D01*
X142321606Y-131851684D01*
X142575606Y-131851684D01*
X142575606Y-131871684D01*
X142595606Y-131871684D01*
X142595606Y-132125684D01*
X142575606Y-132125684D01*
X142575606Y-132145684D01*
X142321606Y-132145684D01*
X142321606Y-132125684D01*
X141128451Y-132125684D01*
X141007130Y-132355574D01*
X141176961Y-132765608D01*
X141567248Y-133193867D01*
X141697084Y-133254841D01*
X141377981Y-133468059D01*
X141049767Y-133959266D01*
X140934514Y-134538684D01*
X141013214Y-134934339D01*
X136982554Y-138965000D01*
X134644882Y-138965000D01*
X134420625Y-138629375D01*
X134122239Y-138430000D01*
X134420625Y-138230625D01*
X134748839Y-137739418D01*
X134864092Y-137160000D01*
X134748839Y-136580582D01*
X134420625Y-136089375D01*
X134122239Y-135890000D01*
X134420625Y-135690625D01*
X134748839Y-135199418D01*
X134864092Y-134620000D01*
X134748839Y-134040582D01*
X134420625Y-133549375D01*
X134398967Y-133534904D01*
X134559698Y-133468327D01*
X134738327Y-133289699D01*
X134835000Y-133056310D01*
X134835000Y-132365750D01*
X134676250Y-132207000D01*
X133477000Y-132207000D01*
X133477000Y-132227000D01*
X133223000Y-132227000D01*
X133223000Y-132207000D01*
X132023750Y-132207000D01*
X131865000Y-132365750D01*
X131865000Y-133056310D01*
X131961673Y-133289699D01*
X132140302Y-133468327D01*
X132301033Y-133534904D01*
X132279375Y-133549375D01*
X131951161Y-134040582D01*
X131835908Y-134620000D01*
X131951161Y-135199418D01*
X132279375Y-135690625D01*
X132577761Y-135890000D01*
X132279375Y-136089375D01*
X131951161Y-136580582D01*
X131835908Y-137160000D01*
X131951161Y-137739418D01*
X132279375Y-138230625D01*
X132577761Y-138430000D01*
X132279375Y-138629375D01*
X131951161Y-139120582D01*
X131835908Y-139700000D01*
X131951161Y-140279418D01*
X132279375Y-140770625D01*
X132577761Y-140970000D01*
X132279375Y-141169375D01*
X131951161Y-141660582D01*
X131835908Y-142240000D01*
X131951161Y-142819418D01*
X132279375Y-143310625D01*
X132301033Y-143325096D01*
X132140302Y-143391673D01*
X131961673Y-143570301D01*
X131865000Y-143803690D01*
X131865000Y-144494250D01*
X132023750Y-144653000D01*
X133223000Y-144653000D01*
X133223000Y-144633000D01*
X133477000Y-144633000D01*
X133477000Y-144653000D01*
X134676250Y-144653000D01*
X134835000Y-144494250D01*
X134835000Y-143803690D01*
X134738327Y-143570301D01*
X134559698Y-143391673D01*
X134398967Y-143325096D01*
X134420625Y-143310625D01*
X134748839Y-142819418D01*
X134864092Y-142240000D01*
X134748839Y-141660582D01*
X134420625Y-141169375D01*
X134122239Y-140970000D01*
X134420625Y-140770625D01*
X134644882Y-140435000D01*
X137214616Y-140435000D01*
X137287000Y-140449398D01*
X137359384Y-140435000D01*
X137359388Y-140435000D01*
X137573783Y-140392354D01*
X137816905Y-140229905D01*
X137857911Y-140168535D01*
X140936712Y-137089735D01*
X141049767Y-137658102D01*
X141377981Y-138149309D01*
X141869188Y-138477523D01*
X142302350Y-138563684D01*
X142594862Y-138563684D01*
X143028024Y-138477523D01*
X143519231Y-138149309D01*
X143593280Y-138038487D01*
X143593280Y-138079638D01*
X137945528Y-143727391D01*
X137882072Y-143769791D01*
X137839672Y-143833247D01*
X137839671Y-143833248D01*
X137714097Y-144021183D01*
X137655112Y-144317720D01*
X137670001Y-144392572D01*
X137670000Y-148554597D01*
X133234566Y-152990033D01*
X128085592Y-152990033D01*
X130225134Y-150850490D01*
X130288589Y-150808091D01*
X130456564Y-150556699D01*
X130500660Y-150335014D01*
X130500660Y-150335010D01*
X130515548Y-150260162D01*
X130500660Y-150185315D01*
X130500660Y-147320000D01*
X131835908Y-147320000D01*
X131951161Y-147899418D01*
X132279375Y-148390625D01*
X132577761Y-148590000D01*
X132279375Y-148789375D01*
X131951161Y-149280582D01*
X131835908Y-149860000D01*
X131951161Y-150439418D01*
X132279375Y-150930625D01*
X132770582Y-151258839D01*
X133203744Y-151345000D01*
X133496256Y-151345000D01*
X133929418Y-151258839D01*
X134420625Y-150930625D01*
X134748839Y-150439418D01*
X134864092Y-149860000D01*
X134748839Y-149280582D01*
X134420625Y-148789375D01*
X134122239Y-148590000D01*
X134420625Y-148390625D01*
X134748839Y-147899418D01*
X134864092Y-147320000D01*
X134748839Y-146740582D01*
X134420625Y-146249375D01*
X134398967Y-146234904D01*
X134559698Y-146168327D01*
X134738327Y-145989699D01*
X134835000Y-145756310D01*
X134835000Y-145065750D01*
X134676250Y-144907000D01*
X133477000Y-144907000D01*
X133477000Y-144927000D01*
X133223000Y-144927000D01*
X133223000Y-144907000D01*
X132023750Y-144907000D01*
X131865000Y-145065750D01*
X131865000Y-145756310D01*
X131961673Y-145989699D01*
X132140302Y-146168327D01*
X132301033Y-146234904D01*
X132279375Y-146249375D01*
X131951161Y-146740582D01*
X131835908Y-147320000D01*
X130500660Y-147320000D01*
X130500660Y-131968081D01*
X132110643Y-130358099D01*
X132279375Y-130610625D01*
X132301033Y-130625096D01*
X132140302Y-130691673D01*
X131961673Y-130870301D01*
X131865000Y-131103690D01*
X131865000Y-131794250D01*
X132023750Y-131953000D01*
X133223000Y-131953000D01*
X133223000Y-131933000D01*
X133477000Y-131933000D01*
X133477000Y-131953000D01*
X134676250Y-131953000D01*
X134835000Y-131794250D01*
X134835000Y-131103690D01*
X134738327Y-130870301D01*
X134559698Y-130691673D01*
X134398967Y-130625096D01*
X134420625Y-130610625D01*
X134748839Y-130119418D01*
X134864092Y-129540000D01*
X134748839Y-128960582D01*
X134420625Y-128469375D01*
X134122239Y-128270000D01*
X134420625Y-128070625D01*
X134748839Y-127579418D01*
X134864092Y-127000000D01*
X134748839Y-126420582D01*
X134420625Y-125929375D01*
X134122239Y-125730000D01*
X134420625Y-125530625D01*
X134748839Y-125039418D01*
X134864092Y-124460000D01*
X134748839Y-123880582D01*
X134420625Y-123389375D01*
X134122239Y-123190000D01*
X134420625Y-122990625D01*
X134748839Y-122499418D01*
X134864092Y-121920000D01*
X134748839Y-121340582D01*
X134420625Y-120849375D01*
X134398967Y-120834904D01*
X134559698Y-120768327D01*
X134738327Y-120589699D01*
X134832406Y-120362572D01*
X142365000Y-120362572D01*
X142365000Y-120937428D01*
X142584988Y-121468527D01*
X142991473Y-121875012D01*
X143522572Y-122095000D01*
X144097428Y-122095000D01*
X144628527Y-121875012D01*
X144838551Y-121664988D01*
X145974617Y-121664988D01*
X146049980Y-121912144D01*
X146590834Y-122106916D01*
X147165055Y-122079886D01*
X147570020Y-121912144D01*
X147645383Y-121664988D01*
X146810000Y-120829605D01*
X145974617Y-121664988D01*
X144838551Y-121664988D01*
X145035012Y-121468527D01*
X145255000Y-120937428D01*
X145255000Y-120430834D01*
X145353084Y-120430834D01*
X145380114Y-121005055D01*
X145547856Y-121410020D01*
X145795012Y-121485383D01*
X146630395Y-120650000D01*
X146989605Y-120650000D01*
X147824988Y-121485383D01*
X148072144Y-121410020D01*
X148266916Y-120869166D01*
X148239886Y-120294945D01*
X148072144Y-119889980D01*
X147824988Y-119814617D01*
X146989605Y-120650000D01*
X146630395Y-120650000D01*
X145795012Y-119814617D01*
X145547856Y-119889980D01*
X145353084Y-120430834D01*
X145255000Y-120430834D01*
X145255000Y-120362572D01*
X145035012Y-119831473D01*
X144838551Y-119635012D01*
X145974617Y-119635012D01*
X146810000Y-120470395D01*
X147645383Y-119635012D01*
X147570020Y-119387856D01*
X147029166Y-119193084D01*
X146454945Y-119220114D01*
X146049980Y-119387856D01*
X145974617Y-119635012D01*
X144838551Y-119635012D01*
X144628527Y-119424988D01*
X144097428Y-119205000D01*
X143522572Y-119205000D01*
X142991473Y-119424988D01*
X142584988Y-119831473D01*
X142365000Y-120362572D01*
X134832406Y-120362572D01*
X134835000Y-120356310D01*
X134835000Y-119665750D01*
X134676250Y-119507000D01*
X133477000Y-119507000D01*
X133477000Y-119527000D01*
X133223000Y-119527000D01*
X133223000Y-119507000D01*
X132023750Y-119507000D01*
X131865000Y-119665750D01*
X131865000Y-120356310D01*
X131961673Y-120589699D01*
X132140302Y-120768327D01*
X132301033Y-120834904D01*
X132279375Y-120849375D01*
X131951161Y-121340582D01*
X131835908Y-121920000D01*
X131951161Y-122499418D01*
X132279375Y-122990625D01*
X132577761Y-123190000D01*
X132279375Y-123389375D01*
X132071822Y-123700000D01*
X131745906Y-123700000D01*
X131671059Y-123685112D01*
X131596212Y-123700000D01*
X131596208Y-123700000D01*
X131374523Y-123744096D01*
X131123131Y-123912071D01*
X131080731Y-123975527D01*
X128009048Y-127047211D01*
X127945592Y-127089611D01*
X127903192Y-127153067D01*
X127903191Y-127153068D01*
X127777617Y-127341003D01*
X127718632Y-127637540D01*
X127733521Y-127712392D01*
X127733520Y-145601238D01*
X127425400Y-145395359D01*
X127021407Y-145315000D01*
X126748593Y-145315000D01*
X126344600Y-145395359D01*
X125886471Y-145701471D01*
X125580359Y-146159600D01*
X125472867Y-146700000D01*
X125580359Y-147240400D01*
X125886471Y-147698529D01*
X126344600Y-148004641D01*
X126748593Y-148085000D01*
X127021407Y-148085000D01*
X127425400Y-148004641D01*
X127733520Y-147798762D01*
X127733520Y-148274035D01*
X127336182Y-148195000D01*
X127033818Y-148195000D01*
X126586073Y-148284062D01*
X126078327Y-148623327D01*
X125739062Y-149131073D01*
X125619928Y-149730000D01*
X125739062Y-150328927D01*
X126078327Y-150836673D01*
X126520846Y-151132355D01*
X126013201Y-151640000D01*
X107795801Y-151640000D01*
X102272466Y-146116666D01*
X102670625Y-145850625D01*
X102870000Y-145552239D01*
X103069375Y-145850625D01*
X103560582Y-146178839D01*
X103993744Y-146265000D01*
X104286256Y-146265000D01*
X104719418Y-146178839D01*
X105210625Y-145850625D01*
X105410000Y-145552239D01*
X105609375Y-145850625D01*
X106100582Y-146178839D01*
X106533744Y-146265000D01*
X106826256Y-146265000D01*
X107259418Y-146178839D01*
X107750625Y-145850625D01*
X107963843Y-145531522D01*
X108024817Y-145661358D01*
X108453076Y-146051645D01*
X108863110Y-146221476D01*
X109093000Y-146100155D01*
X109093000Y-144907000D01*
X109347000Y-144907000D01*
X109347000Y-146100155D01*
X109576890Y-146221476D01*
X109986924Y-146051645D01*
X110415183Y-145661358D01*
X110661486Y-145136892D01*
X110540819Y-144907000D01*
X109347000Y-144907000D01*
X109093000Y-144907000D01*
X109073000Y-144907000D01*
X109073000Y-144653000D01*
X109093000Y-144653000D01*
X109093000Y-144633000D01*
X109347000Y-144633000D01*
X109347000Y-144653000D01*
X110540819Y-144653000D01*
X110661486Y-144423108D01*
X110415183Y-143898642D01*
X109990214Y-143511353D01*
X110290625Y-143310625D01*
X110618839Y-142819418D01*
X110734092Y-142240000D01*
X110618839Y-141660582D01*
X110290625Y-141169375D01*
X109799418Y-140841161D01*
X109366256Y-140755000D01*
X109073744Y-140755000D01*
X108640582Y-140841161D01*
X108149375Y-141169375D01*
X107950000Y-141467761D01*
X107750625Y-141169375D01*
X107440000Y-140961822D01*
X107440000Y-127210661D01*
X111970662Y-122680000D01*
X114291822Y-122680000D01*
X114499375Y-122990625D01*
X114797761Y-123190000D01*
X114499375Y-123389375D01*
X114171161Y-123880582D01*
X114055908Y-124460000D01*
X114171161Y-125039418D01*
X114499375Y-125530625D01*
X114797761Y-125730000D01*
X114499375Y-125929375D01*
X114171161Y-126420582D01*
X114055908Y-127000000D01*
X114171161Y-127579418D01*
X114499375Y-128070625D01*
X114797761Y-128270000D01*
X114499375Y-128469375D01*
X114171161Y-128960582D01*
X114055908Y-129540000D01*
X114171161Y-130119418D01*
X114499375Y-130610625D01*
X114521033Y-130625096D01*
X114360302Y-130691673D01*
X114181673Y-130870301D01*
X114085000Y-131103690D01*
X114085000Y-131794250D01*
X114243750Y-131953000D01*
X115443000Y-131953000D01*
X115443000Y-131933000D01*
X115697000Y-131933000D01*
X115697000Y-131953000D01*
X116896250Y-131953000D01*
X117055000Y-131794250D01*
X117055000Y-131103690D01*
X116958327Y-130870301D01*
X116779698Y-130691673D01*
X116618967Y-130625096D01*
X116640625Y-130610625D01*
X116968839Y-130119418D01*
X117084092Y-129540000D01*
X116968839Y-128960582D01*
X116640625Y-128469375D01*
X116342239Y-128270000D01*
X116640625Y-128070625D01*
X116848178Y-127760000D01*
X117265533Y-127760000D01*
X117340380Y-127774888D01*
X117415227Y-127760000D01*
X117415232Y-127760000D01*
X117636917Y-127715904D01*
X117888309Y-127547929D01*
X117930711Y-127484470D01*
X118366430Y-127048752D01*
X118366430Y-143448768D01*
X117055000Y-144760198D01*
X117055000Y-144652998D01*
X116896252Y-144652998D01*
X117055000Y-144494250D01*
X117055000Y-143803690D01*
X116958327Y-143570301D01*
X116779698Y-143391673D01*
X116618967Y-143325096D01*
X116640625Y-143310625D01*
X116968839Y-142819418D01*
X117084092Y-142240000D01*
X116968839Y-141660582D01*
X116640625Y-141169375D01*
X116342239Y-140970000D01*
X116640625Y-140770625D01*
X116968839Y-140279418D01*
X117084092Y-139700000D01*
X116968839Y-139120582D01*
X116640625Y-138629375D01*
X116342239Y-138430000D01*
X116640625Y-138230625D01*
X116968839Y-137739418D01*
X117084092Y-137160000D01*
X116968839Y-136580582D01*
X116640625Y-136089375D01*
X116342239Y-135890000D01*
X116640625Y-135690625D01*
X116968839Y-135199418D01*
X117084092Y-134620000D01*
X116968839Y-134040582D01*
X116640625Y-133549375D01*
X116618967Y-133534904D01*
X116779698Y-133468327D01*
X116958327Y-133289699D01*
X117055000Y-133056310D01*
X117055000Y-132365750D01*
X116896250Y-132207000D01*
X115697000Y-132207000D01*
X115697000Y-132227000D01*
X115443000Y-132227000D01*
X115443000Y-132207000D01*
X114243750Y-132207000D01*
X114085000Y-132365750D01*
X114085000Y-133056310D01*
X114181673Y-133289699D01*
X114360302Y-133468327D01*
X114521033Y-133534904D01*
X114499375Y-133549375D01*
X114171161Y-134040582D01*
X114055908Y-134620000D01*
X114171161Y-135199418D01*
X114499375Y-135690625D01*
X114797761Y-135890000D01*
X114499375Y-136089375D01*
X114171161Y-136580582D01*
X114055908Y-137160000D01*
X114171161Y-137739418D01*
X114499375Y-138230625D01*
X114797761Y-138430000D01*
X114499375Y-138629375D01*
X114171161Y-139120582D01*
X114055908Y-139700000D01*
X114140520Y-140125377D01*
X114090246Y-140200618D01*
X114033202Y-140487400D01*
X114090246Y-140774182D01*
X114252695Y-141017305D01*
X114493483Y-141178194D01*
X114171161Y-141660582D01*
X114055908Y-142240000D01*
X114171161Y-142819418D01*
X114499375Y-143310625D01*
X114521033Y-143325096D01*
X114360302Y-143391673D01*
X114181673Y-143570301D01*
X114085000Y-143803690D01*
X114085000Y-144494250D01*
X114243750Y-144653000D01*
X115443000Y-144653000D01*
X115443000Y-144633000D01*
X115697000Y-144633000D01*
X115697000Y-144653000D01*
X115717000Y-144653000D01*
X115717000Y-144907000D01*
X115697000Y-144907000D01*
X115697000Y-144927000D01*
X115443000Y-144927000D01*
X115443000Y-144907000D01*
X114243750Y-144907000D01*
X114085000Y-145065750D01*
X114085000Y-145756310D01*
X114181673Y-145989699D01*
X114360302Y-146168327D01*
X114521033Y-146234904D01*
X114499375Y-146249375D01*
X114171161Y-146740582D01*
X114055908Y-147320000D01*
X114171161Y-147899418D01*
X114499375Y-148390625D01*
X114797761Y-148590000D01*
X114499375Y-148789375D01*
X114171161Y-149280582D01*
X114055908Y-149860000D01*
X114171161Y-150439418D01*
X114499375Y-150930625D01*
X114990582Y-151258839D01*
X115423744Y-151345000D01*
X115716256Y-151345000D01*
X116149418Y-151258839D01*
X116640625Y-150930625D01*
X116968839Y-150439418D01*
X117084092Y-149860000D01*
X117058234Y-149730000D01*
X120169928Y-149730000D01*
X120289062Y-150328927D01*
X120628327Y-150836673D01*
X121136073Y-151175938D01*
X121583818Y-151265000D01*
X121886182Y-151265000D01*
X122333927Y-151175938D01*
X122841673Y-150836673D01*
X123180938Y-150328927D01*
X123300072Y-149730000D01*
X123180938Y-149131073D01*
X122841673Y-148623327D01*
X122333927Y-148284062D01*
X121886182Y-148195000D01*
X121583818Y-148195000D01*
X121136073Y-148284062D01*
X120628327Y-148623327D01*
X120289062Y-149131073D01*
X120169928Y-149730000D01*
X117058234Y-149730000D01*
X116968839Y-149280582D01*
X116640625Y-148789375D01*
X116342239Y-148590000D01*
X116640625Y-148390625D01*
X116968839Y-147899418D01*
X117084092Y-147320000D01*
X117011209Y-146953592D01*
X117264801Y-146700000D01*
X120622867Y-146700000D01*
X120730359Y-147240400D01*
X121036471Y-147698529D01*
X121494600Y-148004641D01*
X121898593Y-148085000D01*
X122171407Y-148085000D01*
X122575400Y-148004641D01*
X123033529Y-147698529D01*
X123339641Y-147240400D01*
X123447133Y-146700000D01*
X123339641Y-146159600D01*
X123033529Y-145701471D01*
X122575400Y-145395359D01*
X122171407Y-145315000D01*
X121898593Y-145315000D01*
X121494600Y-145395359D01*
X121036471Y-145701471D01*
X120730359Y-146159600D01*
X120622867Y-146700000D01*
X117264801Y-146700000D01*
X119610902Y-144353900D01*
X119674358Y-144311500D01*
X119842333Y-144060108D01*
X119886429Y-143838423D01*
X119886429Y-143838419D01*
X119901317Y-143763572D01*
X119886429Y-143688725D01*
X119886429Y-109220000D01*
X131835908Y-109220000D01*
X131951161Y-109799418D01*
X132279375Y-110290625D01*
X132577761Y-110490000D01*
X132279375Y-110689375D01*
X131951161Y-111180582D01*
X131835908Y-111760000D01*
X131951161Y-112339418D01*
X132279375Y-112830625D01*
X132577761Y-113030000D01*
X132279375Y-113229375D01*
X131951161Y-113720582D01*
X131835908Y-114300000D01*
X131951161Y-114879418D01*
X132279375Y-115370625D01*
X132577761Y-115570000D01*
X132279375Y-115769375D01*
X131951161Y-116260582D01*
X131835908Y-116840000D01*
X131951161Y-117419418D01*
X132279375Y-117910625D01*
X132301033Y-117925096D01*
X132140302Y-117991673D01*
X131961673Y-118170301D01*
X131865000Y-118403690D01*
X131865000Y-119094250D01*
X132023750Y-119253000D01*
X133223000Y-119253000D01*
X133223000Y-119233000D01*
X133477000Y-119233000D01*
X133477000Y-119253000D01*
X134676250Y-119253000D01*
X134835000Y-119094250D01*
X134835000Y-118403690D01*
X134738327Y-118170301D01*
X134559698Y-117991673D01*
X134398967Y-117925096D01*
X134420625Y-117910625D01*
X134748839Y-117419418D01*
X134864092Y-116840000D01*
X134748839Y-116260582D01*
X134420625Y-115769375D01*
X134122239Y-115570000D01*
X134420625Y-115370625D01*
X134748839Y-114879418D01*
X134864092Y-114300000D01*
X134748839Y-113720582D01*
X134420625Y-113229375D01*
X134122239Y-113030000D01*
X134420625Y-112830625D01*
X134479460Y-112742572D01*
X142365000Y-112742572D01*
X142365000Y-113317428D01*
X142584988Y-113848527D01*
X142991473Y-114255012D01*
X143522572Y-114475000D01*
X144097428Y-114475000D01*
X144628527Y-114255012D01*
X144838551Y-114044988D01*
X145974617Y-114044988D01*
X146049980Y-114292144D01*
X146590834Y-114486916D01*
X147165055Y-114459886D01*
X147570020Y-114292144D01*
X147645383Y-114044988D01*
X146810000Y-113209605D01*
X145974617Y-114044988D01*
X144838551Y-114044988D01*
X145035012Y-113848527D01*
X145255000Y-113317428D01*
X145255000Y-112810834D01*
X145353084Y-112810834D01*
X145380114Y-113385055D01*
X145547856Y-113790020D01*
X145795012Y-113865383D01*
X146630395Y-113030000D01*
X146989605Y-113030000D01*
X147824988Y-113865383D01*
X148072144Y-113790020D01*
X148266916Y-113249166D01*
X148239886Y-112674945D01*
X148072144Y-112269980D01*
X147824988Y-112194617D01*
X146989605Y-113030000D01*
X146630395Y-113030000D01*
X145795012Y-112194617D01*
X145547856Y-112269980D01*
X145353084Y-112810834D01*
X145255000Y-112810834D01*
X145255000Y-112742572D01*
X145035012Y-112211473D01*
X144838551Y-112015012D01*
X145974617Y-112015012D01*
X146810000Y-112850395D01*
X147645383Y-112015012D01*
X147570020Y-111767856D01*
X147029166Y-111573084D01*
X146454945Y-111600114D01*
X146049980Y-111767856D01*
X145974617Y-112015012D01*
X144838551Y-112015012D01*
X144628527Y-111804988D01*
X144097428Y-111585000D01*
X143522572Y-111585000D01*
X142991473Y-111804988D01*
X142584988Y-112211473D01*
X142365000Y-112742572D01*
X134479460Y-112742572D01*
X134748839Y-112339418D01*
X134864092Y-111760000D01*
X134748839Y-111180582D01*
X134420625Y-110689375D01*
X134122239Y-110490000D01*
X134420625Y-110290625D01*
X134748839Y-109799418D01*
X134864092Y-109220000D01*
X134748839Y-108640582D01*
X134420625Y-108149375D01*
X134398967Y-108134904D01*
X134559698Y-108068327D01*
X134738327Y-107889699D01*
X134835000Y-107656310D01*
X134835000Y-106965750D01*
X134676250Y-106807000D01*
X133477000Y-106807000D01*
X133477000Y-106827000D01*
X133223000Y-106827000D01*
X133223000Y-106807000D01*
X132023750Y-106807000D01*
X131865000Y-106965750D01*
X131865000Y-107656310D01*
X131961673Y-107889699D01*
X132140302Y-108068327D01*
X132301033Y-108134904D01*
X132279375Y-108149375D01*
X131951161Y-108640582D01*
X131835908Y-109220000D01*
X119886429Y-109220000D01*
X119886429Y-101830000D01*
X120405908Y-101830000D01*
X120521161Y-102409418D01*
X120849375Y-102900625D01*
X121340582Y-103228839D01*
X121773744Y-103315000D01*
X122066256Y-103315000D01*
X122499418Y-103228839D01*
X122990625Y-102900625D01*
X123005096Y-102878968D01*
X123071673Y-103039699D01*
X123250302Y-103218327D01*
X123483691Y-103315000D01*
X124174250Y-103315000D01*
X124333000Y-103156250D01*
X124333000Y-101957000D01*
X124313000Y-101957000D01*
X124313000Y-101703000D01*
X124333000Y-101703000D01*
X124333000Y-100503750D01*
X124587000Y-100503750D01*
X124587000Y-101703000D01*
X124607000Y-101703000D01*
X124607000Y-101957000D01*
X124587000Y-101957000D01*
X124587000Y-103156250D01*
X124745750Y-103315000D01*
X125436309Y-103315000D01*
X125669698Y-103218327D01*
X125848327Y-103039699D01*
X125914904Y-102878968D01*
X125929375Y-102900625D01*
X126420582Y-103228839D01*
X126853744Y-103315000D01*
X127146256Y-103315000D01*
X127579418Y-103228839D01*
X128070625Y-102900625D01*
X128398839Y-102409418D01*
X128514092Y-101830000D01*
X128468343Y-101600000D01*
X131835908Y-101600000D01*
X131951161Y-102179418D01*
X132279375Y-102670625D01*
X132577761Y-102870000D01*
X132279375Y-103069375D01*
X131951161Y-103560582D01*
X131835908Y-104140000D01*
X131951161Y-104719418D01*
X132279375Y-105210625D01*
X132301033Y-105225096D01*
X132140302Y-105291673D01*
X131961673Y-105470301D01*
X131865000Y-105703690D01*
X131865000Y-106394250D01*
X132023750Y-106553000D01*
X133223000Y-106553000D01*
X133223000Y-106533000D01*
X133477000Y-106533000D01*
X133477000Y-106553000D01*
X134676250Y-106553000D01*
X134835000Y-106394250D01*
X134835000Y-105703690D01*
X134738327Y-105470301D01*
X134559698Y-105291673D01*
X134398967Y-105225096D01*
X134420625Y-105210625D01*
X134479460Y-105122572D01*
X142365000Y-105122572D01*
X142365000Y-105697428D01*
X142584988Y-106228527D01*
X142991473Y-106635012D01*
X143522572Y-106855000D01*
X144097428Y-106855000D01*
X144628527Y-106635012D01*
X144838551Y-106424988D01*
X145974617Y-106424988D01*
X146049980Y-106672144D01*
X146590834Y-106866916D01*
X147165055Y-106839886D01*
X147570020Y-106672144D01*
X147645383Y-106424988D01*
X146810000Y-105589605D01*
X145974617Y-106424988D01*
X144838551Y-106424988D01*
X145035012Y-106228527D01*
X145255000Y-105697428D01*
X145255000Y-105190834D01*
X145353084Y-105190834D01*
X145380114Y-105765055D01*
X145547856Y-106170020D01*
X145795012Y-106245383D01*
X146630395Y-105410000D01*
X146989605Y-105410000D01*
X147824988Y-106245383D01*
X148072144Y-106170020D01*
X148266916Y-105629166D01*
X148239886Y-105054945D01*
X148072144Y-104649980D01*
X147824988Y-104574617D01*
X146989605Y-105410000D01*
X146630395Y-105410000D01*
X145795012Y-104574617D01*
X145547856Y-104649980D01*
X145353084Y-105190834D01*
X145255000Y-105190834D01*
X145255000Y-105122572D01*
X145035012Y-104591473D01*
X144838551Y-104395012D01*
X145974617Y-104395012D01*
X146810000Y-105230395D01*
X147645383Y-104395012D01*
X147570020Y-104147856D01*
X147029166Y-103953084D01*
X146454945Y-103980114D01*
X146049980Y-104147856D01*
X145974617Y-104395012D01*
X144838551Y-104395012D01*
X144628527Y-104184988D01*
X144097428Y-103965000D01*
X143522572Y-103965000D01*
X142991473Y-104184988D01*
X142584988Y-104591473D01*
X142365000Y-105122572D01*
X134479460Y-105122572D01*
X134748839Y-104719418D01*
X134864092Y-104140000D01*
X134748839Y-103560582D01*
X134420625Y-103069375D01*
X134122239Y-102870000D01*
X134420625Y-102670625D01*
X134748839Y-102179418D01*
X134864092Y-101600000D01*
X134748839Y-101020582D01*
X134420625Y-100529375D01*
X133929418Y-100201161D01*
X133496256Y-100115000D01*
X133203744Y-100115000D01*
X132770582Y-100201161D01*
X132279375Y-100529375D01*
X131951161Y-101020582D01*
X131835908Y-101600000D01*
X128468343Y-101600000D01*
X128398839Y-101250582D01*
X128070625Y-100759375D01*
X127579418Y-100431161D01*
X127146256Y-100345000D01*
X126853744Y-100345000D01*
X126420582Y-100431161D01*
X125929375Y-100759375D01*
X125914904Y-100781032D01*
X125848327Y-100620301D01*
X125669698Y-100441673D01*
X125436309Y-100345000D01*
X124745750Y-100345000D01*
X124587000Y-100503750D01*
X124333000Y-100503750D01*
X124174250Y-100345000D01*
X123483691Y-100345000D01*
X123250302Y-100441673D01*
X123071673Y-100620301D01*
X123005096Y-100781032D01*
X122990625Y-100759375D01*
X122499418Y-100431161D01*
X122066256Y-100345000D01*
X121773744Y-100345000D01*
X121340582Y-100431161D01*
X120849375Y-100759375D01*
X120521161Y-101250582D01*
X120405908Y-101830000D01*
X119886429Y-101830000D01*
X119886429Y-96352514D01*
X139575000Y-96352514D01*
X139575000Y-96907480D01*
X139787376Y-97420201D01*
X140179796Y-97812621D01*
X140692517Y-98024997D01*
X141247483Y-98024997D01*
X141760204Y-97812621D01*
X142152624Y-97420201D01*
X142365000Y-96907480D01*
X142365000Y-96352514D01*
X142152624Y-95839793D01*
X141760204Y-95447373D01*
X141247483Y-95234997D01*
X140692517Y-95234997D01*
X140179796Y-95447373D01*
X139787376Y-95839793D01*
X139575000Y-96352514D01*
X119886429Y-96352514D01*
X119886429Y-94608762D01*
X140170841Y-94608762D01*
X140240059Y-94850740D01*
X140762780Y-95037153D01*
X141317049Y-95009339D01*
X141699941Y-94850740D01*
X141769159Y-94608762D01*
X140970000Y-93809603D01*
X140170841Y-94608762D01*
X119886429Y-94608762D01*
X119886429Y-93422778D01*
X139562845Y-93422778D01*
X139590659Y-93977047D01*
X139749258Y-94359939D01*
X139991236Y-94429157D01*
X140790395Y-93629998D01*
X141149605Y-93629998D01*
X141948764Y-94429157D01*
X142190742Y-94359939D01*
X142299375Y-94055321D01*
X143155000Y-94055321D01*
X143155000Y-94904677D01*
X143480034Y-95689379D01*
X144080619Y-96289964D01*
X144865321Y-96614998D01*
X145714677Y-96614998D01*
X146499379Y-96289964D01*
X147099964Y-95689379D01*
X147424998Y-94904677D01*
X147424998Y-94055321D01*
X147099964Y-93270619D01*
X146499379Y-92670034D01*
X145714677Y-92345000D01*
X144865321Y-92345000D01*
X144080619Y-92670034D01*
X143480034Y-93270619D01*
X143155000Y-94055321D01*
X142299375Y-94055321D01*
X142377155Y-93837218D01*
X142349341Y-93282949D01*
X142190742Y-92900057D01*
X141948764Y-92830839D01*
X141149605Y-93629998D01*
X140790395Y-93629998D01*
X139991236Y-92830839D01*
X139749258Y-92900057D01*
X139562845Y-93422778D01*
X119886429Y-93422778D01*
X119886429Y-92651234D01*
X140170841Y-92651234D01*
X140970000Y-93450393D01*
X141769159Y-92651234D01*
X141699941Y-92409256D01*
X141177220Y-92222843D01*
X140622951Y-92250657D01*
X140240059Y-92409256D01*
X140170841Y-92651234D01*
X119886429Y-92651234D01*
X119886429Y-88243437D01*
X119901317Y-88168589D01*
X119886429Y-88093741D01*
X119886429Y-88093737D01*
X119842333Y-87872052D01*
X119674358Y-87620660D01*
X119610902Y-87578260D01*
X118268851Y-86236210D01*
X118226449Y-86172751D01*
X117975057Y-86004776D01*
X117896495Y-85989149D01*
X117620543Y-85576157D01*
X117188520Y-85287489D01*
X117188520Y-84933441D01*
X123919251Y-91664173D01*
X123961652Y-91727630D01*
X124025108Y-91770030D01*
X124194395Y-91883145D01*
X124311549Y-92165980D01*
X124602700Y-92457131D01*
X124983106Y-92614700D01*
X125394854Y-92614700D01*
X125775260Y-92457131D01*
X126066411Y-92165980D01*
X126223980Y-91785574D01*
X126223980Y-91608763D01*
X140170841Y-91608763D01*
X140240059Y-91850741D01*
X140762780Y-92037154D01*
X141317049Y-92009340D01*
X141699941Y-91850741D01*
X141769159Y-91608763D01*
X140970000Y-90809604D01*
X140170841Y-91608763D01*
X126223980Y-91608763D01*
X126223980Y-91373826D01*
X126066411Y-90993420D01*
X125775260Y-90702269D01*
X125394854Y-90544700D01*
X125206598Y-90544700D01*
X125085518Y-90463797D01*
X124879308Y-90422779D01*
X139562845Y-90422779D01*
X139590659Y-90977048D01*
X139749258Y-91359940D01*
X139991236Y-91429158D01*
X140790395Y-90629999D01*
X141149605Y-90629999D01*
X141948764Y-91429158D01*
X142190742Y-91359940D01*
X142377155Y-90837219D01*
X142349341Y-90282950D01*
X142190742Y-89900058D01*
X141948764Y-89830840D01*
X141149605Y-90629999D01*
X140790395Y-90629999D01*
X139991236Y-89830840D01*
X139749258Y-89900058D01*
X139562845Y-90422779D01*
X124879308Y-90422779D01*
X124863833Y-90419701D01*
X124863828Y-90419701D01*
X124814589Y-90409907D01*
X124055917Y-89651235D01*
X140170841Y-89651235D01*
X140970000Y-90450394D01*
X141769159Y-89651235D01*
X141699941Y-89409257D01*
X141548725Y-89355330D01*
X143155000Y-89355330D01*
X143155000Y-90204686D01*
X143480034Y-90989388D01*
X144080619Y-91589973D01*
X144865321Y-91915007D01*
X145714677Y-91915007D01*
X146499379Y-91589973D01*
X147099964Y-90989388D01*
X147424998Y-90204686D01*
X147424998Y-89355330D01*
X147099964Y-88570628D01*
X146499379Y-87970043D01*
X145714677Y-87645009D01*
X144865321Y-87645009D01*
X144080619Y-87970043D01*
X143480034Y-88570628D01*
X143155000Y-89355330D01*
X141548725Y-89355330D01*
X141177220Y-89222844D01*
X140622951Y-89250658D01*
X140240059Y-89409257D01*
X140170841Y-89651235D01*
X124055917Y-89651235D01*
X121527222Y-87122540D01*
X123436249Y-87122540D01*
X123553680Y-87239971D01*
X123934086Y-87397540D01*
X124345834Y-87397540D01*
X124726240Y-87239971D01*
X125017391Y-86948820D01*
X125050039Y-86870000D01*
X139562560Y-86870000D01*
X139562560Y-88390000D01*
X139611843Y-88637765D01*
X139752191Y-88847809D01*
X139962235Y-88988157D01*
X140210000Y-89037440D01*
X141730000Y-89037440D01*
X141977765Y-88988157D01*
X142187809Y-88847809D01*
X142328157Y-88637765D01*
X142377440Y-88390000D01*
X142377440Y-86870000D01*
X142328157Y-86622235D01*
X142187809Y-86412191D01*
X141977765Y-86271843D01*
X141730000Y-86222560D01*
X140210000Y-86222560D01*
X139962235Y-86271843D01*
X139752191Y-86412191D01*
X139611843Y-86622235D01*
X139562560Y-86870000D01*
X125050039Y-86870000D01*
X125174960Y-86568414D01*
X125174960Y-86156666D01*
X125017391Y-85776260D01*
X124726240Y-85485109D01*
X124345834Y-85327540D01*
X123934086Y-85327540D01*
X123553680Y-85485109D01*
X123436249Y-85602540D01*
X120643632Y-85602540D01*
X118283260Y-83242169D01*
X118283260Y-81449956D01*
X118298148Y-81375109D01*
X118283260Y-81300262D01*
X118283260Y-81300258D01*
X118239164Y-81078573D01*
X118071189Y-80827181D01*
X118007733Y-80784781D01*
X115108242Y-77885290D01*
X116335080Y-77885290D01*
X116335080Y-78386550D01*
X116526903Y-78849653D01*
X116881347Y-79204097D01*
X117344450Y-79395920D01*
X117845710Y-79395920D01*
X118308813Y-79204097D01*
X118663257Y-78849653D01*
X118855080Y-78386550D01*
X118855080Y-77885290D01*
X118721076Y-77561773D01*
X118948832Y-77561773D01*
X119026036Y-77810483D01*
X119572330Y-78007763D01*
X120152536Y-77980968D01*
X120564124Y-77810483D01*
X120641328Y-77561773D01*
X119795080Y-76715525D01*
X118948832Y-77561773D01*
X118721076Y-77561773D01*
X118663257Y-77422187D01*
X118557521Y-77316451D01*
X118769227Y-77382168D01*
X119615475Y-76535920D01*
X119974685Y-76535920D01*
X120820933Y-77382168D01*
X121069643Y-77304964D01*
X121070527Y-77302514D01*
X137035000Y-77302514D01*
X137035000Y-77857480D01*
X137247376Y-78370201D01*
X137639796Y-78762621D01*
X138152517Y-78974997D01*
X138707483Y-78974997D01*
X139220204Y-78762621D01*
X139612624Y-78370201D01*
X139825000Y-77857480D01*
X139825000Y-77302514D01*
X139612624Y-76789793D01*
X139220204Y-76397373D01*
X138707483Y-76184997D01*
X138152517Y-76184997D01*
X137639796Y-76397373D01*
X137247376Y-76789793D01*
X137035000Y-77302514D01*
X121070527Y-77302514D01*
X121266923Y-76758670D01*
X121240128Y-76178464D01*
X121069643Y-75766876D01*
X120820933Y-75689672D01*
X119974685Y-76535920D01*
X119615475Y-76535920D01*
X118769227Y-75689672D01*
X118520517Y-75766876D01*
X118323237Y-76313170D01*
X118350032Y-76893376D01*
X118502474Y-77261404D01*
X118308813Y-77067743D01*
X117845710Y-76875920D01*
X117344450Y-76875920D01*
X116881347Y-77067743D01*
X116526903Y-77422187D01*
X116335080Y-77885290D01*
X115108242Y-77885290D01*
X110968460Y-73745508D01*
X118335080Y-73745508D01*
X118335080Y-74326332D01*
X118557352Y-74862944D01*
X118968056Y-75273648D01*
X119016050Y-75293528D01*
X118948832Y-75510067D01*
X119795080Y-76356315D01*
X120592633Y-75558762D01*
X137630841Y-75558762D01*
X137700059Y-75800740D01*
X138222780Y-75987153D01*
X138777049Y-75959339D01*
X139159941Y-75800740D01*
X139229159Y-75558762D01*
X138430000Y-74759603D01*
X137630841Y-75558762D01*
X120592633Y-75558762D01*
X120641328Y-75510067D01*
X120574110Y-75293528D01*
X120622104Y-75273648D01*
X121032808Y-74862944D01*
X121235841Y-74372778D01*
X137022845Y-74372778D01*
X137050659Y-74927047D01*
X137209258Y-75309939D01*
X137451236Y-75379157D01*
X138250395Y-74579998D01*
X138609605Y-74579998D01*
X139408764Y-75379157D01*
X139650742Y-75309939D01*
X139759375Y-75005321D01*
X140615000Y-75005321D01*
X140615000Y-75854677D01*
X140940034Y-76639379D01*
X141540619Y-77239964D01*
X142325321Y-77564998D01*
X143174677Y-77564998D01*
X143959379Y-77239964D01*
X144559964Y-76639379D01*
X144884998Y-75854677D01*
X144884998Y-75005321D01*
X144559964Y-74220619D01*
X143959379Y-73620034D01*
X143174677Y-73295000D01*
X142325321Y-73295000D01*
X141540619Y-73620034D01*
X140940034Y-74220619D01*
X140615000Y-75005321D01*
X139759375Y-75005321D01*
X139837155Y-74787218D01*
X139809341Y-74232949D01*
X139650742Y-73850057D01*
X139408764Y-73780839D01*
X138609605Y-74579998D01*
X138250395Y-74579998D01*
X137451236Y-73780839D01*
X137209258Y-73850057D01*
X137022845Y-74372778D01*
X121235841Y-74372778D01*
X121255080Y-74326332D01*
X121255080Y-73745508D01*
X121195320Y-73601234D01*
X137630841Y-73601234D01*
X138430000Y-74400393D01*
X139229159Y-73601234D01*
X139159941Y-73359256D01*
X138637220Y-73172843D01*
X138082951Y-73200657D01*
X137700059Y-73359256D01*
X137630841Y-73601234D01*
X121195320Y-73601234D01*
X121032808Y-73208896D01*
X120622104Y-72798192D01*
X120085492Y-72575920D01*
X119504668Y-72575920D01*
X118968056Y-72798192D01*
X118557352Y-73208896D01*
X118335080Y-73745508D01*
X110968460Y-73745508D01*
X109781715Y-72558763D01*
X137630841Y-72558763D01*
X137700059Y-72800741D01*
X138222780Y-72987154D01*
X138777049Y-72959340D01*
X139159941Y-72800741D01*
X139229159Y-72558763D01*
X138430000Y-71759604D01*
X137630841Y-72558763D01*
X109781715Y-72558763D01*
X109751400Y-72528449D01*
X109751400Y-71372779D01*
X137022845Y-71372779D01*
X137050659Y-71927048D01*
X137209258Y-72309940D01*
X137451236Y-72379158D01*
X138250395Y-71579999D01*
X138609605Y-71579999D01*
X139408764Y-72379158D01*
X139650742Y-72309940D01*
X139837155Y-71787219D01*
X139809341Y-71232950D01*
X139650742Y-70850058D01*
X139408764Y-70780840D01*
X138609605Y-71579999D01*
X138250395Y-71579999D01*
X137451236Y-70780840D01*
X137209258Y-70850058D01*
X137022845Y-71372779D01*
X109751400Y-71372779D01*
X109751400Y-71286671D01*
X109868831Y-71169240D01*
X110026400Y-70788834D01*
X110026400Y-70601235D01*
X137630841Y-70601235D01*
X138430000Y-71400394D01*
X139229159Y-70601235D01*
X139159941Y-70359257D01*
X139008725Y-70305330D01*
X140615000Y-70305330D01*
X140615000Y-71154686D01*
X140940034Y-71939388D01*
X141540619Y-72539973D01*
X142325321Y-72865007D01*
X143174677Y-72865007D01*
X143959379Y-72539973D01*
X144559964Y-71939388D01*
X144884998Y-71154686D01*
X144884998Y-70305330D01*
X144559964Y-69520628D01*
X143959379Y-68920043D01*
X143174677Y-68595009D01*
X142325321Y-68595009D01*
X141540619Y-68920043D01*
X140940034Y-69520628D01*
X140615000Y-70305330D01*
X139008725Y-70305330D01*
X138637220Y-70172844D01*
X138082951Y-70200658D01*
X137700059Y-70359257D01*
X137630841Y-70601235D01*
X110026400Y-70601235D01*
X110026400Y-70377086D01*
X109868831Y-69996680D01*
X109577680Y-69705529D01*
X109197274Y-69547960D01*
X108785526Y-69547960D01*
X108405120Y-69705529D01*
X108113969Y-69996680D01*
X107956400Y-70377086D01*
X107956400Y-70788834D01*
X108113969Y-71169240D01*
X108231400Y-71286671D01*
X108231401Y-72768398D01*
X108216512Y-72843250D01*
X108275497Y-73139787D01*
X108351184Y-73253060D01*
X107502802Y-73253060D01*
X107020900Y-72771158D01*
X107020900Y-71239511D01*
X107138331Y-71122080D01*
X107295900Y-70741674D01*
X107295900Y-70329926D01*
X107138331Y-69949520D01*
X106847180Y-69658369D01*
X106466774Y-69500800D01*
X106055026Y-69500800D01*
X105674620Y-69658369D01*
X105383469Y-69949520D01*
X105225900Y-70329926D01*
X105225900Y-70741674D01*
X105383469Y-71122080D01*
X105500901Y-71239512D01*
X105500900Y-73011113D01*
X105486012Y-73085960D01*
X105500900Y-73160807D01*
X105500900Y-73160811D01*
X105544996Y-73382496D01*
X105712971Y-73633889D01*
X105776429Y-73676291D01*
X106597673Y-74497535D01*
X106640071Y-74560989D01*
X106703524Y-74603387D01*
X106703526Y-74603389D01*
X106828902Y-74687162D01*
X106891463Y-74728964D01*
X106967255Y-74744040D01*
X104424611Y-74744040D01*
X104307180Y-74626609D01*
X103926774Y-74469040D01*
X103515026Y-74469040D01*
X103134620Y-74626609D01*
X102843469Y-74917760D01*
X102685900Y-75298166D01*
X102685900Y-75709914D01*
X102843469Y-76090320D01*
X103134620Y-76381471D01*
X103515026Y-76539040D01*
X103926774Y-76539040D01*
X104307180Y-76381471D01*
X104424611Y-76264040D01*
X109883099Y-76264040D01*
X115668520Y-82049462D01*
X115668521Y-85287488D01*
X115236497Y-85576157D01*
X114885629Y-86101269D01*
X114762420Y-86720680D01*
X114885629Y-87340091D01*
X115236497Y-87865203D01*
X115437994Y-87999839D01*
X115052547Y-88393756D01*
X114837957Y-88887700D01*
X114957926Y-89133680D01*
X116301520Y-89133680D01*
X116301520Y-89113680D01*
X116555520Y-89113680D01*
X116555520Y-89133680D01*
X117899114Y-89133680D01*
X118019083Y-88887700D01*
X117804493Y-88393756D01*
X117419046Y-87999839D01*
X117620543Y-87865203D01*
X117671692Y-87788653D01*
X118366429Y-88483391D01*
X118366429Y-99686887D01*
X109965979Y-91286438D01*
X109965979Y-90848180D01*
X114781080Y-90848180D01*
X114781080Y-92753180D01*
X114830363Y-93000945D01*
X114970711Y-93210989D01*
X115180755Y-93351337D01*
X115428520Y-93400620D01*
X117428520Y-93400620D01*
X117676285Y-93351337D01*
X117886329Y-93210989D01*
X118026677Y-93000945D01*
X118075960Y-92753180D01*
X118075960Y-90848180D01*
X118026677Y-90600415D01*
X117886329Y-90390371D01*
X117681377Y-90253425D01*
X117804493Y-90127604D01*
X118019083Y-89633660D01*
X117899114Y-89387680D01*
X116555520Y-89387680D01*
X116555520Y-89407680D01*
X116301520Y-89407680D01*
X116301520Y-89387680D01*
X114957926Y-89387680D01*
X114837957Y-89633660D01*
X115052547Y-90127604D01*
X115175663Y-90253425D01*
X114970711Y-90390371D01*
X114830363Y-90600415D01*
X114781080Y-90848180D01*
X109965979Y-90848180D01*
X109965979Y-83466805D01*
X109980867Y-83391958D01*
X109965979Y-83317111D01*
X109965979Y-83317107D01*
X109921883Y-83095422D01*
X109840980Y-82974342D01*
X109840980Y-82786086D01*
X109683411Y-82405680D01*
X109392260Y-82114529D01*
X109011854Y-81956960D01*
X108600106Y-81956960D01*
X108219700Y-82114529D01*
X107928549Y-82405680D01*
X107770980Y-82786086D01*
X107770980Y-83197834D01*
X107928549Y-83578240D01*
X108219700Y-83869391D01*
X108445979Y-83963119D01*
X108445980Y-91526387D01*
X108431091Y-91601239D01*
X108490076Y-91897776D01*
X108583206Y-92037154D01*
X108658051Y-92149168D01*
X108721507Y-92191568D01*
X117916420Y-101386482D01*
X117916421Y-125349157D01*
X117025579Y-126240000D01*
X116848178Y-126240000D01*
X116640625Y-125929375D01*
X116342239Y-125730000D01*
X116640625Y-125530625D01*
X116968839Y-125039418D01*
X117084092Y-124460000D01*
X116968839Y-123880582D01*
X116640625Y-123389375D01*
X116342239Y-123190000D01*
X116640625Y-122990625D01*
X116968839Y-122499418D01*
X117084092Y-121920000D01*
X116968839Y-121340582D01*
X116640625Y-120849375D01*
X116618967Y-120834904D01*
X116779698Y-120768327D01*
X116958327Y-120589699D01*
X117055000Y-120356310D01*
X117055000Y-119665750D01*
X116896250Y-119507000D01*
X115697000Y-119507000D01*
X115697000Y-119527000D01*
X115443000Y-119527000D01*
X115443000Y-119507000D01*
X114243750Y-119507000D01*
X114085000Y-119665750D01*
X114085000Y-120356310D01*
X114181673Y-120589699D01*
X114360302Y-120768327D01*
X114521033Y-120834904D01*
X114499375Y-120849375D01*
X114291822Y-121160000D01*
X111730708Y-121160000D01*
X111655860Y-121145112D01*
X111581012Y-121160000D01*
X111581008Y-121160000D01*
X111407465Y-121194520D01*
X111359322Y-121204096D01*
X111266897Y-121265853D01*
X111107931Y-121372071D01*
X111065531Y-121435527D01*
X106195528Y-126305531D01*
X106132072Y-126347931D01*
X106089672Y-126411387D01*
X106089671Y-126411388D01*
X105964097Y-126599323D01*
X105905112Y-126895860D01*
X105920001Y-126970712D01*
X105920000Y-140961822D01*
X105609375Y-141169375D01*
X105410000Y-141467761D01*
X105210625Y-141169375D01*
X104719418Y-140841161D01*
X104286256Y-140755000D01*
X103993744Y-140755000D01*
X103560582Y-140841161D01*
X103069375Y-141169375D01*
X102856157Y-141488478D01*
X102795183Y-141358642D01*
X102366924Y-140968355D01*
X101956890Y-140798524D01*
X101727000Y-140919845D01*
X101727000Y-142113000D01*
X101747000Y-142113000D01*
X101747000Y-142367000D01*
X101727000Y-142367000D01*
X101727000Y-142387000D01*
X101473000Y-142387000D01*
X101473000Y-142367000D01*
X101453000Y-142367000D01*
X101453000Y-142113000D01*
X101473000Y-142113000D01*
X101473000Y-140919845D01*
X101243110Y-140798524D01*
X100833076Y-140968355D01*
X100404817Y-141358642D01*
X100343843Y-141488478D01*
X100130625Y-141169375D01*
X99639418Y-140841161D01*
X99206256Y-140755000D01*
X98913744Y-140755000D01*
X98480582Y-140841161D01*
X97989375Y-141169375D01*
X97790000Y-141467761D01*
X97590625Y-141169375D01*
X97099418Y-140841161D01*
X96666256Y-140755000D01*
X96373744Y-140755000D01*
X95940582Y-140841161D01*
X95449375Y-141169375D01*
X95236157Y-141488478D01*
X95175183Y-141358642D01*
X94746924Y-140968355D01*
X94336890Y-140798524D01*
X94107000Y-140919845D01*
X94107000Y-142113000D01*
X94127000Y-142113000D01*
X94127000Y-142367000D01*
X94107000Y-142367000D01*
X94107000Y-142387000D01*
X93853000Y-142387000D01*
X93853000Y-142367000D01*
X93833000Y-142367000D01*
X93833000Y-142113000D01*
X93853000Y-142113000D01*
X93853000Y-140919845D01*
X93623110Y-140798524D01*
X93213076Y-140968355D01*
X92784817Y-141358642D01*
X92723843Y-141488478D01*
X92510625Y-141169375D01*
X92019418Y-140841161D01*
X91586256Y-140755000D01*
X91293744Y-140755000D01*
X90860582Y-140841161D01*
X90369375Y-141169375D01*
X90170000Y-141467761D01*
X89970625Y-141169375D01*
X89479418Y-140841161D01*
X89046256Y-140755000D01*
X88753744Y-140755000D01*
X88320582Y-140841161D01*
X87829375Y-141169375D01*
X87630000Y-141467761D01*
X87430625Y-141169375D01*
X86939418Y-140841161D01*
X86506256Y-140755000D01*
X86213744Y-140755000D01*
X85780582Y-140841161D01*
X85289375Y-141169375D01*
X85076157Y-141488478D01*
X85015183Y-141358642D01*
X84586924Y-140968355D01*
X84176890Y-140798524D01*
X83947000Y-140919845D01*
X83947000Y-142113000D01*
X83967000Y-142113000D01*
X83967000Y-142367000D01*
X83947000Y-142367000D01*
X83947000Y-142387000D01*
X83693000Y-142387000D01*
X83693000Y-142367000D01*
X83673000Y-142367000D01*
X83673000Y-142113000D01*
X83693000Y-142113000D01*
X83693000Y-140919845D01*
X83463110Y-140798524D01*
X83053076Y-140968355D01*
X82624817Y-141358642D01*
X82563843Y-141488478D01*
X82350625Y-141169375D01*
X81859418Y-140841161D01*
X81426256Y-140755000D01*
X81133744Y-140755000D01*
X80700582Y-140841161D01*
X80209375Y-141169375D01*
X80010000Y-141467761D01*
X79810625Y-141169375D01*
X79319418Y-140841161D01*
X78886256Y-140755000D01*
X78593744Y-140755000D01*
X78160582Y-140841161D01*
X77669375Y-141169375D01*
X77341161Y-141660582D01*
X77225908Y-142240000D01*
X77341161Y-142819418D01*
X77669375Y-143310625D01*
X77687619Y-143322816D01*
X77642235Y-143331843D01*
X77432191Y-143472191D01*
X77291843Y-143682235D01*
X77242560Y-143930000D01*
X77242560Y-145630000D01*
X77291843Y-145877765D01*
X77432191Y-146087809D01*
X77642235Y-146228157D01*
X77890000Y-146277440D01*
X78091518Y-146277440D01*
X78192072Y-146427929D01*
X78255528Y-146470329D01*
X79589670Y-147804472D01*
X79632071Y-147867929D01*
X79883463Y-148035904D01*
X80105148Y-148080000D01*
X80105152Y-148080000D01*
X80180000Y-148094888D01*
X80254848Y-148080000D01*
X93736319Y-148080000D01*
X99886318Y-154230000D01*
X76910000Y-154230000D01*
X76910000Y-150685431D01*
X78410000Y-150685431D01*
X78410000Y-151574569D01*
X78750259Y-152396026D01*
X79378974Y-153024741D01*
X80200431Y-153365000D01*
X81089569Y-153365000D01*
X81911026Y-153024741D01*
X82539741Y-152396026D01*
X82880000Y-151574569D01*
X82880000Y-150685431D01*
X82539741Y-149863974D01*
X81911026Y-149235259D01*
X81089569Y-148895000D01*
X80200431Y-148895000D01*
X79378974Y-149235259D01*
X78750259Y-149863974D01*
X78410000Y-150685431D01*
X76910000Y-150685431D01*
X76910000Y-137037871D01*
X77151764Y-137621542D01*
X77759382Y-138229160D01*
X78553273Y-138558000D01*
X79412575Y-138558000D01*
X80206466Y-138229160D01*
X80814084Y-137621542D01*
X81142924Y-136827651D01*
X81142924Y-136110572D01*
X81857924Y-136110572D01*
X81857924Y-136685428D01*
X82077912Y-137216527D01*
X82484397Y-137623012D01*
X83015496Y-137843000D01*
X83590352Y-137843000D01*
X84121451Y-137623012D01*
X84331475Y-137412988D01*
X85467541Y-137412988D01*
X85542904Y-137660144D01*
X86083758Y-137854916D01*
X86657979Y-137827886D01*
X87062944Y-137660144D01*
X87138307Y-137412988D01*
X86302924Y-136577605D01*
X85467541Y-137412988D01*
X84331475Y-137412988D01*
X84527936Y-137216527D01*
X84747924Y-136685428D01*
X84747924Y-136178834D01*
X84846008Y-136178834D01*
X84873038Y-136753055D01*
X85040780Y-137158020D01*
X85287936Y-137233383D01*
X86123319Y-136398000D01*
X86482529Y-136398000D01*
X87317912Y-137233383D01*
X87565068Y-137158020D01*
X87759840Y-136617166D01*
X87754601Y-136505853D01*
X94403752Y-136505853D01*
X94480956Y-136754563D01*
X95027250Y-136951843D01*
X95607456Y-136925048D01*
X96019044Y-136754563D01*
X96096248Y-136505853D01*
X95250000Y-135659605D01*
X94403752Y-136505853D01*
X87754601Y-136505853D01*
X87732810Y-136042945D01*
X87565068Y-135637980D01*
X87317912Y-135562617D01*
X86482529Y-136398000D01*
X86123319Y-136398000D01*
X85287936Y-135562617D01*
X85040780Y-135637980D01*
X84846008Y-136178834D01*
X84747924Y-136178834D01*
X84747924Y-136110572D01*
X84527936Y-135579473D01*
X84331475Y-135383012D01*
X85467541Y-135383012D01*
X86302924Y-136218395D01*
X87138307Y-135383012D01*
X87099960Y-135257250D01*
X93778157Y-135257250D01*
X93804952Y-135837456D01*
X93975437Y-136249044D01*
X94224147Y-136326248D01*
X95070395Y-135480000D01*
X95429605Y-135480000D01*
X96275853Y-136326248D01*
X96492392Y-136259030D01*
X96512272Y-136307024D01*
X96922976Y-136717728D01*
X97459588Y-136940000D01*
X98040412Y-136940000D01*
X98497367Y-136750723D01*
X98281823Y-136966267D01*
X98090000Y-137429370D01*
X98090000Y-137930630D01*
X98281823Y-138393733D01*
X98636267Y-138748177D01*
X99099370Y-138940000D01*
X99600630Y-138940000D01*
X100063733Y-138748177D01*
X100418177Y-138393733D01*
X100610000Y-137930630D01*
X100610000Y-137429370D01*
X100418177Y-136966267D01*
X100063733Y-136611823D01*
X99600630Y-136420000D01*
X99099370Y-136420000D01*
X98715924Y-136578828D01*
X98987728Y-136307024D01*
X99210000Y-135770412D01*
X99210000Y-135189588D01*
X98987728Y-134652976D01*
X98577024Y-134242272D01*
X98040412Y-134020000D01*
X97459588Y-134020000D01*
X96922976Y-134242272D01*
X96512272Y-134652976D01*
X96492392Y-134700970D01*
X96275853Y-134633752D01*
X95429605Y-135480000D01*
X95070395Y-135480000D01*
X94224147Y-134633752D01*
X93975437Y-134710956D01*
X93778157Y-135257250D01*
X87099960Y-135257250D01*
X87062944Y-135135856D01*
X86522090Y-134941084D01*
X85947869Y-134968114D01*
X85542904Y-135135856D01*
X85467541Y-135383012D01*
X84331475Y-135383012D01*
X84121451Y-135172988D01*
X83590352Y-134953000D01*
X83015496Y-134953000D01*
X82484397Y-135172988D01*
X82077912Y-135579473D01*
X81857924Y-136110572D01*
X81142924Y-136110572D01*
X81142924Y-135968349D01*
X80814084Y-135174458D01*
X80206466Y-134566840D01*
X79934401Y-134454147D01*
X94403752Y-134454147D01*
X95250000Y-135300395D01*
X96096248Y-134454147D01*
X96019044Y-134205437D01*
X95472750Y-134008157D01*
X94892544Y-134034952D01*
X94480956Y-134205437D01*
X94403752Y-134454147D01*
X79934401Y-134454147D01*
X79412575Y-134238000D01*
X78553273Y-134238000D01*
X77759382Y-134566840D01*
X77151764Y-135174458D01*
X76910000Y-135758129D01*
X76910000Y-128909871D01*
X77151764Y-129493542D01*
X77759382Y-130101160D01*
X78553273Y-130430000D01*
X79412575Y-130430000D01*
X80206466Y-130101160D01*
X80814084Y-129493542D01*
X81142924Y-128699651D01*
X81142924Y-127982572D01*
X81857924Y-127982572D01*
X81857924Y-128557428D01*
X82077912Y-129088527D01*
X82484397Y-129495012D01*
X83015496Y-129715000D01*
X83590352Y-129715000D01*
X84121451Y-129495012D01*
X84331475Y-129284988D01*
X85467541Y-129284988D01*
X85542904Y-129532144D01*
X86083758Y-129726916D01*
X86657979Y-129699886D01*
X87062944Y-129532144D01*
X87138307Y-129284988D01*
X86302924Y-128449605D01*
X85467541Y-129284988D01*
X84331475Y-129284988D01*
X84527936Y-129088527D01*
X84747924Y-128557428D01*
X84747924Y-128050834D01*
X84846008Y-128050834D01*
X84873038Y-128625055D01*
X85040780Y-129030020D01*
X85287936Y-129105383D01*
X86123319Y-128270000D01*
X86482529Y-128270000D01*
X87317912Y-129105383D01*
X87565068Y-129030020D01*
X87616985Y-128885853D01*
X94403752Y-128885853D01*
X94480956Y-129134563D01*
X95027250Y-129331843D01*
X95607456Y-129305048D01*
X96019044Y-129134563D01*
X96096248Y-128885853D01*
X95250000Y-128039605D01*
X94403752Y-128885853D01*
X87616985Y-128885853D01*
X87759840Y-128489166D01*
X87732810Y-127914945D01*
X87617785Y-127637250D01*
X93778157Y-127637250D01*
X93804952Y-128217456D01*
X93975437Y-128629044D01*
X94224147Y-128706248D01*
X95070395Y-127860000D01*
X95429605Y-127860000D01*
X96275853Y-128706248D01*
X96492392Y-128639030D01*
X96512272Y-128687024D01*
X96922976Y-129097728D01*
X97459588Y-129320000D01*
X98040412Y-129320000D01*
X98497367Y-129130723D01*
X98281823Y-129346267D01*
X98090000Y-129809370D01*
X98090000Y-130310630D01*
X98281823Y-130773733D01*
X98636267Y-131128177D01*
X99099370Y-131320000D01*
X99600630Y-131320000D01*
X100063733Y-131128177D01*
X100418177Y-130773733D01*
X100610000Y-130310630D01*
X100610000Y-129809370D01*
X100418177Y-129346267D01*
X100063733Y-128991823D01*
X99600630Y-128800000D01*
X99099370Y-128800000D01*
X98715924Y-128958828D01*
X98987728Y-128687024D01*
X99210000Y-128150412D01*
X99210000Y-127569588D01*
X98987728Y-127032976D01*
X98577024Y-126622272D01*
X98040412Y-126400000D01*
X97459588Y-126400000D01*
X96922976Y-126622272D01*
X96512272Y-127032976D01*
X96492392Y-127080970D01*
X96275853Y-127013752D01*
X95429605Y-127860000D01*
X95070395Y-127860000D01*
X94224147Y-127013752D01*
X93975437Y-127090956D01*
X93778157Y-127637250D01*
X87617785Y-127637250D01*
X87565068Y-127509980D01*
X87317912Y-127434617D01*
X86482529Y-128270000D01*
X86123319Y-128270000D01*
X85287936Y-127434617D01*
X85040780Y-127509980D01*
X84846008Y-128050834D01*
X84747924Y-128050834D01*
X84747924Y-127982572D01*
X84527936Y-127451473D01*
X84331475Y-127255012D01*
X85467541Y-127255012D01*
X86302924Y-128090395D01*
X87138307Y-127255012D01*
X87062944Y-127007856D01*
X86580579Y-126834147D01*
X94403752Y-126834147D01*
X95250000Y-127680395D01*
X96096248Y-126834147D01*
X96019044Y-126585437D01*
X95472750Y-126388157D01*
X94892544Y-126414952D01*
X94480956Y-126585437D01*
X94403752Y-126834147D01*
X86580579Y-126834147D01*
X86522090Y-126813084D01*
X85947869Y-126840114D01*
X85542904Y-127007856D01*
X85467541Y-127255012D01*
X84331475Y-127255012D01*
X84121451Y-127044988D01*
X83590352Y-126825000D01*
X83015496Y-126825000D01*
X82484397Y-127044988D01*
X82077912Y-127451473D01*
X81857924Y-127982572D01*
X81142924Y-127982572D01*
X81142924Y-127840349D01*
X80814084Y-127046458D01*
X80206466Y-126438840D01*
X79412575Y-126110000D01*
X78553273Y-126110000D01*
X77759382Y-126438840D01*
X77151764Y-127046458D01*
X76910000Y-127630129D01*
X76910000Y-121620702D01*
X77516458Y-122227160D01*
X78310349Y-122556000D01*
X79169651Y-122556000D01*
X79963542Y-122227160D01*
X80571160Y-121619542D01*
X80900000Y-120825651D01*
X80900000Y-120108572D01*
X81615000Y-120108572D01*
X81615000Y-120683428D01*
X81834988Y-121214527D01*
X82241473Y-121621012D01*
X82772572Y-121841000D01*
X83347428Y-121841000D01*
X83878527Y-121621012D01*
X84088551Y-121410988D01*
X85224617Y-121410988D01*
X85299980Y-121658144D01*
X85840834Y-121852916D01*
X86415055Y-121825886D01*
X86820020Y-121658144D01*
X86895383Y-121410988D01*
X86750248Y-121265853D01*
X94403752Y-121265853D01*
X94480956Y-121514563D01*
X95027250Y-121711843D01*
X95607456Y-121685048D01*
X96019044Y-121514563D01*
X96096248Y-121265853D01*
X95250000Y-120419605D01*
X94403752Y-121265853D01*
X86750248Y-121265853D01*
X86060000Y-120575605D01*
X85224617Y-121410988D01*
X84088551Y-121410988D01*
X84285012Y-121214527D01*
X84505000Y-120683428D01*
X84505000Y-120176834D01*
X84603084Y-120176834D01*
X84630114Y-120751055D01*
X84797856Y-121156020D01*
X85045012Y-121231383D01*
X85880395Y-120396000D01*
X86239605Y-120396000D01*
X87074988Y-121231383D01*
X87322144Y-121156020D01*
X87516916Y-120615166D01*
X87489886Y-120040945D01*
X87480072Y-120017250D01*
X93778157Y-120017250D01*
X93804952Y-120597456D01*
X93975437Y-121009044D01*
X94224147Y-121086248D01*
X95070395Y-120240000D01*
X95429605Y-120240000D01*
X96275853Y-121086248D01*
X96492392Y-121019030D01*
X96512272Y-121067024D01*
X96922976Y-121477728D01*
X97459588Y-121700000D01*
X98040412Y-121700000D01*
X98497367Y-121510723D01*
X98281823Y-121726267D01*
X98090000Y-122189370D01*
X98090000Y-122690630D01*
X98281823Y-123153733D01*
X98636267Y-123508177D01*
X99099370Y-123700000D01*
X99600630Y-123700000D01*
X100063733Y-123508177D01*
X100418177Y-123153733D01*
X100610000Y-122690630D01*
X100610000Y-122189370D01*
X100418177Y-121726267D01*
X100063733Y-121371823D01*
X99600630Y-121180000D01*
X99099370Y-121180000D01*
X98715924Y-121338828D01*
X98987728Y-121067024D01*
X99210000Y-120530412D01*
X99210000Y-119949588D01*
X98987728Y-119412976D01*
X98577024Y-119002272D01*
X98040412Y-118780000D01*
X97459588Y-118780000D01*
X96922976Y-119002272D01*
X96512272Y-119412976D01*
X96492392Y-119460970D01*
X96275853Y-119393752D01*
X95429605Y-120240000D01*
X95070395Y-120240000D01*
X94224147Y-119393752D01*
X93975437Y-119470956D01*
X93778157Y-120017250D01*
X87480072Y-120017250D01*
X87322144Y-119635980D01*
X87074988Y-119560617D01*
X86239605Y-120396000D01*
X85880395Y-120396000D01*
X85045012Y-119560617D01*
X84797856Y-119635980D01*
X84603084Y-120176834D01*
X84505000Y-120176834D01*
X84505000Y-120108572D01*
X84285012Y-119577473D01*
X84088551Y-119381012D01*
X85224617Y-119381012D01*
X86060000Y-120216395D01*
X86895383Y-119381012D01*
X86844503Y-119214147D01*
X94403752Y-119214147D01*
X95250000Y-120060395D01*
X96096248Y-119214147D01*
X96019044Y-118965437D01*
X95472750Y-118768157D01*
X94892544Y-118794952D01*
X94480956Y-118965437D01*
X94403752Y-119214147D01*
X86844503Y-119214147D01*
X86820020Y-119133856D01*
X86279166Y-118939084D01*
X85704945Y-118966114D01*
X85299980Y-119133856D01*
X85224617Y-119381012D01*
X84088551Y-119381012D01*
X83878527Y-119170988D01*
X83347428Y-118951000D01*
X82772572Y-118951000D01*
X82241473Y-119170988D01*
X81834988Y-119577473D01*
X81615000Y-120108572D01*
X80900000Y-120108572D01*
X80900000Y-119966349D01*
X80571160Y-119172458D01*
X79963542Y-118564840D01*
X79169651Y-118236000D01*
X78310349Y-118236000D01*
X77516458Y-118564840D01*
X76910000Y-119171298D01*
X76910000Y-114000702D01*
X77516458Y-114607160D01*
X78310349Y-114936000D01*
X79169651Y-114936000D01*
X79963542Y-114607160D01*
X80571160Y-113999542D01*
X80900000Y-113205651D01*
X80900000Y-112488572D01*
X81615000Y-112488572D01*
X81615000Y-113063428D01*
X81834988Y-113594527D01*
X82241473Y-114001012D01*
X82772572Y-114221000D01*
X83347428Y-114221000D01*
X83878527Y-114001012D01*
X84088551Y-113790988D01*
X85224617Y-113790988D01*
X85299980Y-114038144D01*
X85840834Y-114232916D01*
X86415055Y-114205886D01*
X86820020Y-114038144D01*
X86895383Y-113790988D01*
X86750248Y-113645853D01*
X94403752Y-113645853D01*
X94480956Y-113894563D01*
X95027250Y-114091843D01*
X95607456Y-114065048D01*
X96019044Y-113894563D01*
X96096248Y-113645853D01*
X95250000Y-112799605D01*
X94403752Y-113645853D01*
X86750248Y-113645853D01*
X86060000Y-112955605D01*
X85224617Y-113790988D01*
X84088551Y-113790988D01*
X84285012Y-113594527D01*
X84505000Y-113063428D01*
X84505000Y-112556834D01*
X84603084Y-112556834D01*
X84630114Y-113131055D01*
X84797856Y-113536020D01*
X85045012Y-113611383D01*
X85880395Y-112776000D01*
X86239605Y-112776000D01*
X87074988Y-113611383D01*
X87322144Y-113536020D01*
X87516916Y-112995166D01*
X87489886Y-112420945D01*
X87480072Y-112397250D01*
X93778157Y-112397250D01*
X93804952Y-112977456D01*
X93975437Y-113389044D01*
X94224147Y-113466248D01*
X95070395Y-112620000D01*
X95429605Y-112620000D01*
X96275853Y-113466248D01*
X96492392Y-113399030D01*
X96512272Y-113447024D01*
X96922976Y-113857728D01*
X97459588Y-114080000D01*
X98040412Y-114080000D01*
X98497367Y-113890723D01*
X98281823Y-114106267D01*
X98090000Y-114569370D01*
X98090000Y-115070630D01*
X98281823Y-115533733D01*
X98636267Y-115888177D01*
X99099370Y-116080000D01*
X99600630Y-116080000D01*
X100063733Y-115888177D01*
X100418177Y-115533733D01*
X100610000Y-115070630D01*
X100610000Y-114569370D01*
X100418177Y-114106267D01*
X100063733Y-113751823D01*
X99600630Y-113560000D01*
X99099370Y-113560000D01*
X98715924Y-113718828D01*
X98987728Y-113447024D01*
X99210000Y-112910412D01*
X99210000Y-112329588D01*
X98987728Y-111792976D01*
X98577024Y-111382272D01*
X98040412Y-111160000D01*
X97459588Y-111160000D01*
X96922976Y-111382272D01*
X96512272Y-111792976D01*
X96492392Y-111840970D01*
X96275853Y-111773752D01*
X95429605Y-112620000D01*
X95070395Y-112620000D01*
X94224147Y-111773752D01*
X93975437Y-111850956D01*
X93778157Y-112397250D01*
X87480072Y-112397250D01*
X87322144Y-112015980D01*
X87074988Y-111940617D01*
X86239605Y-112776000D01*
X85880395Y-112776000D01*
X85045012Y-111940617D01*
X84797856Y-112015980D01*
X84603084Y-112556834D01*
X84505000Y-112556834D01*
X84505000Y-112488572D01*
X84285012Y-111957473D01*
X84088551Y-111761012D01*
X85224617Y-111761012D01*
X86060000Y-112596395D01*
X86895383Y-111761012D01*
X86844503Y-111594147D01*
X94403752Y-111594147D01*
X95250000Y-112440395D01*
X96096248Y-111594147D01*
X96019044Y-111345437D01*
X95472750Y-111148157D01*
X94892544Y-111174952D01*
X94480956Y-111345437D01*
X94403752Y-111594147D01*
X86844503Y-111594147D01*
X86820020Y-111513856D01*
X86279166Y-111319084D01*
X85704945Y-111346114D01*
X85299980Y-111513856D01*
X85224617Y-111761012D01*
X84088551Y-111761012D01*
X83878527Y-111550988D01*
X83347428Y-111331000D01*
X82772572Y-111331000D01*
X82241473Y-111550988D01*
X81834988Y-111957473D01*
X81615000Y-112488572D01*
X80900000Y-112488572D01*
X80900000Y-112346349D01*
X80571160Y-111552458D01*
X79963542Y-110944840D01*
X79169651Y-110616000D01*
X78310349Y-110616000D01*
X77516458Y-110944840D01*
X76910000Y-111551298D01*
X76910000Y-109220000D01*
X114055908Y-109220000D01*
X114171161Y-109799418D01*
X114499375Y-110290625D01*
X114797761Y-110490000D01*
X114499375Y-110689375D01*
X114171161Y-111180582D01*
X114055908Y-111760000D01*
X114171161Y-112339418D01*
X114499375Y-112830625D01*
X114797761Y-113030000D01*
X114499375Y-113229375D01*
X114171161Y-113720582D01*
X114055908Y-114300000D01*
X114171161Y-114879418D01*
X114499375Y-115370625D01*
X114797761Y-115570000D01*
X114499375Y-115769375D01*
X114171161Y-116260582D01*
X114055908Y-116840000D01*
X114171161Y-117419418D01*
X114499375Y-117910625D01*
X114521033Y-117925096D01*
X114360302Y-117991673D01*
X114181673Y-118170301D01*
X114085000Y-118403690D01*
X114085000Y-119094250D01*
X114243750Y-119253000D01*
X115443000Y-119253000D01*
X115443000Y-119233000D01*
X115697000Y-119233000D01*
X115697000Y-119253000D01*
X116896250Y-119253000D01*
X117055000Y-119094250D01*
X117055000Y-118403690D01*
X116958327Y-118170301D01*
X116779698Y-117991673D01*
X116618967Y-117925096D01*
X116640625Y-117910625D01*
X116968839Y-117419418D01*
X117084092Y-116840000D01*
X116968839Y-116260582D01*
X116640625Y-115769375D01*
X116342239Y-115570000D01*
X116640625Y-115370625D01*
X116968839Y-114879418D01*
X117084092Y-114300000D01*
X116968839Y-113720582D01*
X116640625Y-113229375D01*
X116342239Y-113030000D01*
X116640625Y-112830625D01*
X116968839Y-112339418D01*
X117084092Y-111760000D01*
X116968839Y-111180582D01*
X116640625Y-110689375D01*
X116342239Y-110490000D01*
X116640625Y-110290625D01*
X116968839Y-109799418D01*
X117084092Y-109220000D01*
X116968839Y-108640582D01*
X116640625Y-108149375D01*
X116618967Y-108134904D01*
X116779698Y-108068327D01*
X116958327Y-107889699D01*
X117055000Y-107656310D01*
X117055000Y-106965750D01*
X116896250Y-106807000D01*
X115697000Y-106807000D01*
X115697000Y-106827000D01*
X115443000Y-106827000D01*
X115443000Y-106807000D01*
X114243750Y-106807000D01*
X114085000Y-106965750D01*
X114085000Y-107656310D01*
X114181673Y-107889699D01*
X114360302Y-108068327D01*
X114521033Y-108134904D01*
X114499375Y-108149375D01*
X114171161Y-108640582D01*
X114055908Y-109220000D01*
X76910000Y-109220000D01*
X76910000Y-105910322D01*
X79670000Y-105910322D01*
X79670000Y-106759678D01*
X79995034Y-107544380D01*
X80595620Y-108144966D01*
X81380322Y-108470000D01*
X82229678Y-108470000D01*
X83014380Y-108144966D01*
X83614966Y-107544380D01*
X83940000Y-106759678D01*
X83940000Y-106719370D01*
X104900000Y-106719370D01*
X104900000Y-107220630D01*
X105091823Y-107683733D01*
X105446267Y-108038177D01*
X105909370Y-108230000D01*
X106410630Y-108230000D01*
X106873733Y-108038177D01*
X107228177Y-107683733D01*
X107420000Y-107220630D01*
X107420000Y-106719370D01*
X107261172Y-106335924D01*
X107532976Y-106607728D01*
X108069588Y-106830000D01*
X108650412Y-106830000D01*
X109187024Y-106607728D01*
X109597728Y-106197024D01*
X109820000Y-105660412D01*
X109820000Y-105079588D01*
X109597728Y-104542976D01*
X109187024Y-104132272D01*
X109157397Y-104120000D01*
X109187024Y-104107728D01*
X109597728Y-103697024D01*
X109820000Y-103160412D01*
X109820000Y-102579588D01*
X109597728Y-102042976D01*
X109187024Y-101632272D01*
X109109113Y-101600000D01*
X114055908Y-101600000D01*
X114171161Y-102179418D01*
X114499375Y-102670625D01*
X114797761Y-102870000D01*
X114499375Y-103069375D01*
X114171161Y-103560582D01*
X114055908Y-104140000D01*
X114171161Y-104719418D01*
X114499375Y-105210625D01*
X114521033Y-105225096D01*
X114360302Y-105291673D01*
X114181673Y-105470301D01*
X114085000Y-105703690D01*
X114085000Y-106394250D01*
X114243750Y-106553000D01*
X115443000Y-106553000D01*
X115443000Y-106533000D01*
X115697000Y-106533000D01*
X115697000Y-106553000D01*
X116896250Y-106553000D01*
X117055000Y-106394250D01*
X117055000Y-105703690D01*
X116958327Y-105470301D01*
X116779698Y-105291673D01*
X116618967Y-105225096D01*
X116640625Y-105210625D01*
X116968839Y-104719418D01*
X117084092Y-104140000D01*
X116968839Y-103560582D01*
X116640625Y-103069375D01*
X116342239Y-102870000D01*
X116640625Y-102670625D01*
X116968839Y-102179418D01*
X117084092Y-101600000D01*
X116968839Y-101020582D01*
X116640625Y-100529375D01*
X116149418Y-100201161D01*
X115716256Y-100115000D01*
X115423744Y-100115000D01*
X114990582Y-100201161D01*
X114499375Y-100529375D01*
X114171161Y-101020582D01*
X114055908Y-101600000D01*
X109109113Y-101600000D01*
X108650412Y-101410000D01*
X108069588Y-101410000D01*
X107532976Y-101632272D01*
X107122272Y-102042976D01*
X106900000Y-102579588D01*
X106900000Y-103160412D01*
X107122272Y-103697024D01*
X107532976Y-104107728D01*
X107562603Y-104120000D01*
X107532976Y-104132272D01*
X107122272Y-104542976D01*
X106900000Y-105079588D01*
X106900000Y-105660412D01*
X107089277Y-106117367D01*
X106873733Y-105901823D01*
X106410630Y-105710000D01*
X105909370Y-105710000D01*
X105446267Y-105901823D01*
X105091823Y-106256267D01*
X104900000Y-106719370D01*
X83940000Y-106719370D01*
X83940000Y-105910322D01*
X83614966Y-105125620D01*
X83014380Y-104525034D01*
X82229678Y-104200000D01*
X81380322Y-104200000D01*
X80595620Y-104525034D01*
X79995034Y-105125620D01*
X79670000Y-105910322D01*
X76910000Y-105910322D01*
X76910000Y-101815750D01*
X92385000Y-101815750D01*
X92385000Y-102831309D01*
X92481673Y-103064698D01*
X92660301Y-103243327D01*
X92893690Y-103340000D01*
X96234250Y-103340000D01*
X96393000Y-103181250D01*
X96393000Y-101657000D01*
X96647000Y-101657000D01*
X96647000Y-103181250D01*
X96805750Y-103340000D01*
X100146310Y-103340000D01*
X100379699Y-103243327D01*
X100558327Y-103064698D01*
X100655000Y-102831309D01*
X100655000Y-101815750D01*
X100496250Y-101657000D01*
X96647000Y-101657000D01*
X96393000Y-101657000D01*
X92543750Y-101657000D01*
X92385000Y-101815750D01*
X76910000Y-101815750D01*
X76910000Y-100228691D01*
X92385000Y-100228691D01*
X92385000Y-101244250D01*
X92543750Y-101403000D01*
X96393000Y-101403000D01*
X96393000Y-99878750D01*
X96647000Y-99878750D01*
X96647000Y-101403000D01*
X100496250Y-101403000D01*
X100655000Y-101244250D01*
X100655000Y-100228691D01*
X100558327Y-99995302D01*
X100379699Y-99816673D01*
X100146310Y-99720000D01*
X96805750Y-99720000D01*
X96647000Y-99878750D01*
X96393000Y-99878750D01*
X96234250Y-99720000D01*
X92893690Y-99720000D01*
X92660301Y-99816673D01*
X92481673Y-99995302D01*
X92385000Y-100228691D01*
X76910000Y-100228691D01*
X76910000Y-93462500D01*
X92372560Y-93462500D01*
X92372560Y-94637500D01*
X92466564Y-95110091D01*
X92734266Y-95510734D01*
X93134909Y-95778436D01*
X93607500Y-95872440D01*
X99432500Y-95872440D01*
X99905091Y-95778436D01*
X100305734Y-95510734D01*
X100573436Y-95110091D01*
X100667440Y-94637500D01*
X100667440Y-93462500D01*
X100573436Y-92989909D01*
X100305734Y-92589266D01*
X99905091Y-92321564D01*
X99432500Y-92227560D01*
X93607500Y-92227560D01*
X93134909Y-92321564D01*
X92734266Y-92589266D01*
X92466564Y-92989909D01*
X92372560Y-93462500D01*
X76910000Y-93462500D01*
X76910000Y-88820322D01*
X79670000Y-88820322D01*
X79670000Y-89669678D01*
X79995034Y-90454380D01*
X80595620Y-91054966D01*
X81380322Y-91380000D01*
X82229678Y-91380000D01*
X83014380Y-91054966D01*
X83614966Y-90454380D01*
X83940000Y-89669678D01*
X83940000Y-88820322D01*
X83614966Y-88035620D01*
X83014380Y-87435034D01*
X82229678Y-87110000D01*
X81380322Y-87110000D01*
X80595620Y-87435034D01*
X79995034Y-88035620D01*
X79670000Y-88820322D01*
X76910000Y-88820322D01*
X76910000Y-85340190D01*
X77810900Y-85340190D01*
X77810900Y-85841450D01*
X78002723Y-86304553D01*
X78357167Y-86658997D01*
X78820270Y-86850820D01*
X79321530Y-86850820D01*
X79784633Y-86658997D01*
X80139077Y-86304553D01*
X80330900Y-85841450D01*
X80330900Y-85340190D01*
X80196896Y-85016673D01*
X80424652Y-85016673D01*
X80501856Y-85265383D01*
X81048150Y-85462663D01*
X81628356Y-85435868D01*
X82039944Y-85265383D01*
X82117148Y-85016673D01*
X81270900Y-84170425D01*
X80424652Y-85016673D01*
X80196896Y-85016673D01*
X80139077Y-84877087D01*
X80033341Y-84771351D01*
X80245047Y-84837068D01*
X81091295Y-83990820D01*
X81450505Y-83990820D01*
X82296753Y-84837068D01*
X82545463Y-84759864D01*
X82742743Y-84213570D01*
X82715948Y-83633364D01*
X82545463Y-83221776D01*
X82296753Y-83144572D01*
X81450505Y-83990820D01*
X81091295Y-83990820D01*
X80245047Y-83144572D01*
X79996337Y-83221776D01*
X79799057Y-83768070D01*
X79825852Y-84348276D01*
X79978294Y-84716304D01*
X79784633Y-84522643D01*
X79321530Y-84330820D01*
X78820270Y-84330820D01*
X78357167Y-84522643D01*
X78002723Y-84877087D01*
X77810900Y-85340190D01*
X76910000Y-85340190D01*
X76910000Y-81200408D01*
X79810900Y-81200408D01*
X79810900Y-81781232D01*
X80033172Y-82317844D01*
X80443876Y-82728548D01*
X80491870Y-82748428D01*
X80424652Y-82964967D01*
X81270900Y-83811215D01*
X82117148Y-82964967D01*
X82049930Y-82748428D01*
X82097924Y-82728548D01*
X82508628Y-82317844D01*
X82730900Y-81781232D01*
X82730900Y-81200408D01*
X82508628Y-80663796D01*
X82097924Y-80253092D01*
X81561312Y-80030820D01*
X80980488Y-80030820D01*
X80443876Y-80253092D01*
X80033172Y-80663796D01*
X79810900Y-81200408D01*
X76910000Y-81200408D01*
X76910000Y-63127500D01*
X90957560Y-63127500D01*
X90957560Y-68952500D01*
X91051564Y-69425091D01*
X91319266Y-69825734D01*
X91719909Y-70093436D01*
X92192500Y-70187440D01*
X93367500Y-70187440D01*
X93840091Y-70093436D01*
X94240734Y-69825734D01*
X94508436Y-69425091D01*
X94602440Y-68952500D01*
X94602440Y-66325750D01*
X98450000Y-66325750D01*
X98450000Y-69666310D01*
X98546673Y-69899699D01*
X98725302Y-70078327D01*
X98958691Y-70175000D01*
X99974250Y-70175000D01*
X100133000Y-70016250D01*
X100133000Y-66167000D01*
X100387000Y-66167000D01*
X100387000Y-70016250D01*
X100545750Y-70175000D01*
X101561309Y-70175000D01*
X101794698Y-70078327D01*
X101973327Y-69899699D01*
X102070000Y-69666310D01*
X102070000Y-66325750D01*
X117640000Y-66325750D01*
X117640000Y-69666310D01*
X117736673Y-69899699D01*
X117915302Y-70078327D01*
X118148691Y-70175000D01*
X119164250Y-70175000D01*
X119323000Y-70016250D01*
X119323000Y-66167000D01*
X119577000Y-66167000D01*
X119577000Y-70016250D01*
X119735750Y-70175000D01*
X120751309Y-70175000D01*
X120984698Y-70078327D01*
X121163327Y-69899699D01*
X121260000Y-69666310D01*
X121260000Y-66325750D01*
X121101250Y-66167000D01*
X119577000Y-66167000D01*
X119323000Y-66167000D01*
X117798750Y-66167000D01*
X117640000Y-66325750D01*
X102070000Y-66325750D01*
X101911250Y-66167000D01*
X100387000Y-66167000D01*
X100133000Y-66167000D01*
X98608750Y-66167000D01*
X98450000Y-66325750D01*
X94602440Y-66325750D01*
X94602440Y-63127500D01*
X94508436Y-62654909D01*
X94347259Y-62413690D01*
X98450000Y-62413690D01*
X98450000Y-65754250D01*
X98608750Y-65913000D01*
X100133000Y-65913000D01*
X100133000Y-62063750D01*
X100387000Y-62063750D01*
X100387000Y-65913000D01*
X101911250Y-65913000D01*
X102070000Y-65754250D01*
X102070000Y-62413690D01*
X117640000Y-62413690D01*
X117640000Y-65754250D01*
X117798750Y-65913000D01*
X119323000Y-65913000D01*
X119323000Y-62063750D01*
X119577000Y-62063750D01*
X119577000Y-65913000D01*
X121101250Y-65913000D01*
X121260000Y-65754250D01*
X121260000Y-63127500D01*
X125107560Y-63127500D01*
X125107560Y-68952500D01*
X125201564Y-69425091D01*
X125469266Y-69825734D01*
X125869909Y-70093436D01*
X126342500Y-70187440D01*
X127517500Y-70187440D01*
X127990091Y-70093436D01*
X128390734Y-69825734D01*
X128658436Y-69425091D01*
X128752440Y-68952500D01*
X128752440Y-67820000D01*
X137022560Y-67820000D01*
X137022560Y-69340000D01*
X137071843Y-69587765D01*
X137212191Y-69797809D01*
X137422235Y-69938157D01*
X137670000Y-69987440D01*
X139190000Y-69987440D01*
X139437765Y-69938157D01*
X139647809Y-69797809D01*
X139788157Y-69587765D01*
X139837440Y-69340000D01*
X139837440Y-67820000D01*
X139788157Y-67572235D01*
X139647809Y-67362191D01*
X139437765Y-67221843D01*
X139190000Y-67172560D01*
X137670000Y-67172560D01*
X137422235Y-67221843D01*
X137212191Y-67362191D01*
X137071843Y-67572235D01*
X137022560Y-67820000D01*
X128752440Y-67820000D01*
X128752440Y-63127500D01*
X128658436Y-62654909D01*
X128390734Y-62254266D01*
X127990091Y-61986564D01*
X127517500Y-61892560D01*
X126342500Y-61892560D01*
X125869909Y-61986564D01*
X125469266Y-62254266D01*
X125201564Y-62654909D01*
X125107560Y-63127500D01*
X121260000Y-63127500D01*
X121260000Y-62413690D01*
X121163327Y-62180301D01*
X120984698Y-62001673D01*
X120751309Y-61905000D01*
X119735750Y-61905000D01*
X119577000Y-62063750D01*
X119323000Y-62063750D01*
X119164250Y-61905000D01*
X118148691Y-61905000D01*
X117915302Y-62001673D01*
X117736673Y-62180301D01*
X117640000Y-62413690D01*
X102070000Y-62413690D01*
X101973327Y-62180301D01*
X101794698Y-62001673D01*
X101561309Y-61905000D01*
X100545750Y-61905000D01*
X100387000Y-62063750D01*
X100133000Y-62063750D01*
X99974250Y-61905000D01*
X98958691Y-61905000D01*
X98725302Y-62001673D01*
X98546673Y-62180301D01*
X98450000Y-62413690D01*
X94347259Y-62413690D01*
X94240734Y-62254266D01*
X93840091Y-61986564D01*
X93367500Y-61892560D01*
X92192500Y-61892560D01*
X91719909Y-61986564D01*
X91319266Y-62254266D01*
X91051564Y-62654909D01*
X90957560Y-63127500D01*
X76910000Y-63127500D01*
X76910000Y-59402572D01*
X139825000Y-59402572D01*
X139825000Y-59977428D01*
X140044988Y-60508527D01*
X140451473Y-60915012D01*
X140982572Y-61135000D01*
X141557428Y-61135000D01*
X142088527Y-60915012D01*
X142298551Y-60704988D01*
X143434617Y-60704988D01*
X143509980Y-60952144D01*
X144050834Y-61146916D01*
X144625055Y-61119886D01*
X145030020Y-60952144D01*
X145105383Y-60704988D01*
X144270000Y-59869605D01*
X143434617Y-60704988D01*
X142298551Y-60704988D01*
X142495012Y-60508527D01*
X142715000Y-59977428D01*
X142715000Y-59470834D01*
X142813084Y-59470834D01*
X142840114Y-60045055D01*
X143007856Y-60450020D01*
X143255012Y-60525383D01*
X144090395Y-59690000D01*
X144449605Y-59690000D01*
X145284988Y-60525383D01*
X145532144Y-60450020D01*
X145726916Y-59909166D01*
X145699886Y-59334945D01*
X145668988Y-59260349D01*
X146430000Y-59260349D01*
X146430000Y-60119651D01*
X146758840Y-60913542D01*
X147366458Y-61521160D01*
X148160349Y-61850000D01*
X149019651Y-61850000D01*
X149813542Y-61521160D01*
X150421160Y-60913542D01*
X150750000Y-60119651D01*
X150750000Y-59260349D01*
X150421160Y-58466458D01*
X149813542Y-57858840D01*
X149019651Y-57530000D01*
X148160349Y-57530000D01*
X147366458Y-57858840D01*
X146758840Y-58466458D01*
X146430000Y-59260349D01*
X145668988Y-59260349D01*
X145532144Y-58929980D01*
X145284988Y-58854617D01*
X144449605Y-59690000D01*
X144090395Y-59690000D01*
X143255012Y-58854617D01*
X143007856Y-58929980D01*
X142813084Y-59470834D01*
X142715000Y-59470834D01*
X142715000Y-59402572D01*
X142495012Y-58871473D01*
X142298551Y-58675012D01*
X143434617Y-58675012D01*
X144270000Y-59510395D01*
X145105383Y-58675012D01*
X145030020Y-58427856D01*
X144489166Y-58233084D01*
X143914945Y-58260114D01*
X143509980Y-58427856D01*
X143434617Y-58675012D01*
X142298551Y-58675012D01*
X142088527Y-58464988D01*
X141557428Y-58245000D01*
X140982572Y-58245000D01*
X140451473Y-58464988D01*
X140044988Y-58871473D01*
X139825000Y-59402572D01*
X76910000Y-59402572D01*
X76910000Y-50990431D01*
X78410000Y-50990431D01*
X78410000Y-51879569D01*
X78750259Y-52701026D01*
X79378974Y-53329741D01*
X80200431Y-53670000D01*
X81089569Y-53670000D01*
X81911026Y-53329741D01*
X82539741Y-52701026D01*
X82880000Y-51879569D01*
X82880000Y-50990431D01*
X82842676Y-50900322D01*
X85840000Y-50900322D01*
X85840000Y-51749678D01*
X86165034Y-52534380D01*
X86765620Y-53134966D01*
X87550322Y-53460000D01*
X88399678Y-53460000D01*
X89184380Y-53134966D01*
X89784966Y-52534380D01*
X90110000Y-51749678D01*
X90110000Y-50900322D01*
X102930000Y-50900322D01*
X102930000Y-51749678D01*
X103255034Y-52534380D01*
X103855620Y-53134966D01*
X104640322Y-53460000D01*
X105489678Y-53460000D01*
X106274380Y-53134966D01*
X106874966Y-52534380D01*
X107200000Y-51749678D01*
X107200000Y-50900322D01*
X112510000Y-50900322D01*
X112510000Y-51749678D01*
X112835034Y-52534380D01*
X113435620Y-53134966D01*
X114220322Y-53460000D01*
X115069678Y-53460000D01*
X115854380Y-53134966D01*
X116454966Y-52534380D01*
X116780000Y-51749678D01*
X116780000Y-50900322D01*
X129600000Y-50900322D01*
X129600000Y-51749678D01*
X129925034Y-52534380D01*
X130525620Y-53134966D01*
X131310322Y-53460000D01*
X132159678Y-53460000D01*
X132944380Y-53134966D01*
X133544966Y-52534380D01*
X133870000Y-51749678D01*
X133870000Y-50990431D01*
X146355000Y-50990431D01*
X146355000Y-51879569D01*
X146695259Y-52701026D01*
X147323974Y-53329741D01*
X148145431Y-53670000D01*
X149034569Y-53670000D01*
X149856026Y-53329741D01*
X150484741Y-52701026D01*
X150825000Y-51879569D01*
X150825000Y-50990431D01*
X150484741Y-50168974D01*
X149856026Y-49540259D01*
X149034569Y-49200000D01*
X148145431Y-49200000D01*
X147323974Y-49540259D01*
X146695259Y-50168974D01*
X146355000Y-50990431D01*
X133870000Y-50990431D01*
X133870000Y-50900322D01*
X133544966Y-50115620D01*
X132944380Y-49515034D01*
X132159678Y-49190000D01*
X131310322Y-49190000D01*
X130525620Y-49515034D01*
X129925034Y-50115620D01*
X129600000Y-50900322D01*
X116780000Y-50900322D01*
X116454966Y-50115620D01*
X115854380Y-49515034D01*
X115069678Y-49190000D01*
X114220322Y-49190000D01*
X113435620Y-49515034D01*
X112835034Y-50115620D01*
X112510000Y-50900322D01*
X107200000Y-50900322D01*
X106874966Y-50115620D01*
X106274380Y-49515034D01*
X105489678Y-49190000D01*
X104640322Y-49190000D01*
X103855620Y-49515034D01*
X103255034Y-50115620D01*
X102930000Y-50900322D01*
X90110000Y-50900322D01*
X89784966Y-50115620D01*
X89184380Y-49515034D01*
X88399678Y-49190000D01*
X87550322Y-49190000D01*
X86765620Y-49515034D01*
X86165034Y-50115620D01*
X85840000Y-50900322D01*
X82842676Y-50900322D01*
X82539741Y-50168974D01*
X81911026Y-49540259D01*
X81089569Y-49200000D01*
X80200431Y-49200000D01*
X79378974Y-49540259D01*
X78750259Y-50168974D01*
X78410000Y-50990431D01*
X76910000Y-50990431D01*
X76910000Y-47725000D01*
X152935001Y-47725000D01*
X152935000Y-104160298D01*
X152935000Y-104160298D02*
X152935001Y-47725000D01*
G04 #@! TA.AperFunction,Conductor*
G36*
X152935000Y-104160298D02*
G01*
X152353542Y-103578840D01*
X151559651Y-103250000D01*
X150700349Y-103250000D01*
X149906458Y-103578840D01*
X149298840Y-104186458D01*
X148970000Y-104980349D01*
X148970000Y-105839651D01*
X149298840Y-106633542D01*
X149906458Y-107241160D01*
X150700349Y-107570000D01*
X151559651Y-107570000D01*
X152353542Y-107241160D01*
X152960000Y-106634702D01*
X152960000Y-111805298D01*
X152353542Y-111198840D01*
X151559651Y-110870000D01*
X150700349Y-110870000D01*
X149906458Y-111198840D01*
X149298840Y-111806458D01*
X148970000Y-112600349D01*
X148970000Y-113459651D01*
X149298840Y-114253542D01*
X149906458Y-114861160D01*
X150700349Y-115190000D01*
X151559651Y-115190000D01*
X152353542Y-114861160D01*
X152960000Y-114254702D01*
X152960000Y-119425298D01*
X152353542Y-118818840D01*
X151559651Y-118490000D01*
X150700349Y-118490000D01*
X149906458Y-118818840D01*
X149298840Y-119426458D01*
X148970000Y-120220349D01*
X148970000Y-121079651D01*
X149298840Y-121873542D01*
X149906458Y-122481160D01*
X150700349Y-122810000D01*
X151559651Y-122810000D01*
X152353542Y-122481160D01*
X152960000Y-121874702D01*
X152960000Y-154230000D01*
X134144201Y-154230000D01*
X138323771Y-150050431D01*
X146990000Y-150050431D01*
X146990000Y-150939569D01*
X147330259Y-151761026D01*
X147958974Y-152389741D01*
X148780431Y-152730000D01*
X149669569Y-152730000D01*
X150491026Y-152389741D01*
X151119741Y-151761026D01*
X151460000Y-150939569D01*
X151460000Y-150050431D01*
X151119741Y-149228974D01*
X150491026Y-148600259D01*
X149669569Y-148260000D01*
X148780431Y-148260000D01*
X147958974Y-148600259D01*
X147330259Y-149228974D01*
X146990000Y-150050431D01*
X138323771Y-150050431D01*
X138914476Y-149459727D01*
X138977929Y-149417329D01*
X139020327Y-149353876D01*
X139020329Y-149353874D01*
X139145903Y-149165938D01*
X139145904Y-149165937D01*
X139190000Y-148944252D01*
X139190000Y-148944248D01*
X139204888Y-148869401D01*
X139190000Y-148794554D01*
X139190000Y-144632521D01*
X144837753Y-138984769D01*
X144901209Y-138942369D01*
X145069184Y-138690977D01*
X145113280Y-138469292D01*
X145113280Y-138469287D01*
X145128168Y-138394440D01*
X145113280Y-138319593D01*
X145113280Y-130338205D01*
X145128168Y-130263358D01*
X145113280Y-130188511D01*
X145113280Y-130188506D01*
X145069184Y-129966821D01*
X144901209Y-129715429D01*
X144837753Y-129673029D01*
X144138937Y-128974214D01*
X144096535Y-128910755D01*
X143946046Y-128810201D01*
X143946046Y-128608684D01*
X143896763Y-128360919D01*
X143756415Y-128150875D01*
X143546371Y-128010527D01*
X143298606Y-127961244D01*
X141598606Y-127961244D01*
X141350841Y-128010527D01*
X141140797Y-128150875D01*
X141000449Y-128360919D01*
X140951166Y-128608684D01*
X140951166Y-130308684D01*
X141000449Y-130556449D01*
X141140797Y-130766493D01*
X141350841Y-130906841D01*
X141454314Y-130927423D01*
X141176961Y-131231760D01*
X141007130Y-131641794D01*
X141128451Y-131871684D01*
X142321606Y-131871684D01*
X142321606Y-131851684D01*
X142575606Y-131851684D01*
X142575606Y-131871684D01*
X142595606Y-131871684D01*
X142595606Y-132125684D01*
X142575606Y-132125684D01*
X142575606Y-132145684D01*
X142321606Y-132145684D01*
X142321606Y-132125684D01*
X141128451Y-132125684D01*
X141007130Y-132355574D01*
X141176961Y-132765608D01*
X141567248Y-133193867D01*
X141697084Y-133254841D01*
X141377981Y-133468059D01*
X141049767Y-133959266D01*
X140934514Y-134538684D01*
X141013214Y-134934339D01*
X136982554Y-138965000D01*
X134644882Y-138965000D01*
X134420625Y-138629375D01*
X134122239Y-138430000D01*
X134420625Y-138230625D01*
X134748839Y-137739418D01*
X134864092Y-137160000D01*
X134748839Y-136580582D01*
X134420625Y-136089375D01*
X134122239Y-135890000D01*
X134420625Y-135690625D01*
X134748839Y-135199418D01*
X134864092Y-134620000D01*
X134748839Y-134040582D01*
X134420625Y-133549375D01*
X134398967Y-133534904D01*
X134559698Y-133468327D01*
X134738327Y-133289699D01*
X134835000Y-133056310D01*
X134835000Y-132365750D01*
X134676250Y-132207000D01*
X133477000Y-132207000D01*
X133477000Y-132227000D01*
X133223000Y-132227000D01*
X133223000Y-132207000D01*
X132023750Y-132207000D01*
X131865000Y-132365750D01*
X131865000Y-133056310D01*
X131961673Y-133289699D01*
X132140302Y-133468327D01*
X132301033Y-133534904D01*
X132279375Y-133549375D01*
X131951161Y-134040582D01*
X131835908Y-134620000D01*
X131951161Y-135199418D01*
X132279375Y-135690625D01*
X132577761Y-135890000D01*
X132279375Y-136089375D01*
X131951161Y-136580582D01*
X131835908Y-137160000D01*
X131951161Y-137739418D01*
X132279375Y-138230625D01*
X132577761Y-138430000D01*
X132279375Y-138629375D01*
X131951161Y-139120582D01*
X131835908Y-139700000D01*
X131951161Y-140279418D01*
X132279375Y-140770625D01*
X132577761Y-140970000D01*
X132279375Y-141169375D01*
X131951161Y-141660582D01*
X131835908Y-142240000D01*
X131951161Y-142819418D01*
X132279375Y-143310625D01*
X132301033Y-143325096D01*
X132140302Y-143391673D01*
X131961673Y-143570301D01*
X131865000Y-143803690D01*
X131865000Y-144494250D01*
X132023750Y-144653000D01*
X133223000Y-144653000D01*
X133223000Y-144633000D01*
X133477000Y-144633000D01*
X133477000Y-144653000D01*
X134676250Y-144653000D01*
X134835000Y-144494250D01*
X134835000Y-143803690D01*
X134738327Y-143570301D01*
X134559698Y-143391673D01*
X134398967Y-143325096D01*
X134420625Y-143310625D01*
X134748839Y-142819418D01*
X134864092Y-142240000D01*
X134748839Y-141660582D01*
X134420625Y-141169375D01*
X134122239Y-140970000D01*
X134420625Y-140770625D01*
X134644882Y-140435000D01*
X137214616Y-140435000D01*
X137287000Y-140449398D01*
X137359384Y-140435000D01*
X137359388Y-140435000D01*
X137573783Y-140392354D01*
X137816905Y-140229905D01*
X137857911Y-140168535D01*
X140936712Y-137089735D01*
X141049767Y-137658102D01*
X141377981Y-138149309D01*
X141869188Y-138477523D01*
X142302350Y-138563684D01*
X142594862Y-138563684D01*
X143028024Y-138477523D01*
X143519231Y-138149309D01*
X143593280Y-138038487D01*
X143593280Y-138079638D01*
X137945528Y-143727391D01*
X137882072Y-143769791D01*
X137839672Y-143833247D01*
X137839671Y-143833248D01*
X137714097Y-144021183D01*
X137655112Y-144317720D01*
X137670001Y-144392572D01*
X137670000Y-148554597D01*
X133234566Y-152990033D01*
X128085592Y-152990033D01*
X130225134Y-150850490D01*
X130288589Y-150808091D01*
X130456564Y-150556699D01*
X130500660Y-150335014D01*
X130500660Y-150335010D01*
X130515548Y-150260162D01*
X130500660Y-150185315D01*
X130500660Y-147320000D01*
X131835908Y-147320000D01*
X131951161Y-147899418D01*
X132279375Y-148390625D01*
X132577761Y-148590000D01*
X132279375Y-148789375D01*
X131951161Y-149280582D01*
X131835908Y-149860000D01*
X131951161Y-150439418D01*
X132279375Y-150930625D01*
X132770582Y-151258839D01*
X133203744Y-151345000D01*
X133496256Y-151345000D01*
X133929418Y-151258839D01*
X134420625Y-150930625D01*
X134748839Y-150439418D01*
X134864092Y-149860000D01*
X134748839Y-149280582D01*
X134420625Y-148789375D01*
X134122239Y-148590000D01*
X134420625Y-148390625D01*
X134748839Y-147899418D01*
X134864092Y-147320000D01*
X134748839Y-146740582D01*
X134420625Y-146249375D01*
X134398967Y-146234904D01*
X134559698Y-146168327D01*
X134738327Y-145989699D01*
X134835000Y-145756310D01*
X134835000Y-145065750D01*
X134676250Y-144907000D01*
X133477000Y-144907000D01*
X133477000Y-144927000D01*
X133223000Y-144927000D01*
X133223000Y-144907000D01*
X132023750Y-144907000D01*
X131865000Y-145065750D01*
X131865000Y-145756310D01*
X131961673Y-145989699D01*
X132140302Y-146168327D01*
X132301033Y-146234904D01*
X132279375Y-146249375D01*
X131951161Y-146740582D01*
X131835908Y-147320000D01*
X130500660Y-147320000D01*
X130500660Y-131968081D01*
X132110643Y-130358099D01*
X132279375Y-130610625D01*
X132301033Y-130625096D01*
X132140302Y-130691673D01*
X131961673Y-130870301D01*
X131865000Y-131103690D01*
X131865000Y-131794250D01*
X132023750Y-131953000D01*
X133223000Y-131953000D01*
X133223000Y-131933000D01*
X133477000Y-131933000D01*
X133477000Y-131953000D01*
X134676250Y-131953000D01*
X134835000Y-131794250D01*
X134835000Y-131103690D01*
X134738327Y-130870301D01*
X134559698Y-130691673D01*
X134398967Y-130625096D01*
X134420625Y-130610625D01*
X134748839Y-130119418D01*
X134864092Y-129540000D01*
X134748839Y-128960582D01*
X134420625Y-128469375D01*
X134122239Y-128270000D01*
X134420625Y-128070625D01*
X134748839Y-127579418D01*
X134864092Y-127000000D01*
X134748839Y-126420582D01*
X134420625Y-125929375D01*
X134122239Y-125730000D01*
X134420625Y-125530625D01*
X134748839Y-125039418D01*
X134864092Y-124460000D01*
X134748839Y-123880582D01*
X134420625Y-123389375D01*
X134122239Y-123190000D01*
X134420625Y-122990625D01*
X134748839Y-122499418D01*
X134864092Y-121920000D01*
X134748839Y-121340582D01*
X134420625Y-120849375D01*
X134398967Y-120834904D01*
X134559698Y-120768327D01*
X134738327Y-120589699D01*
X134832406Y-120362572D01*
X142365000Y-120362572D01*
X142365000Y-120937428D01*
X142584988Y-121468527D01*
X142991473Y-121875012D01*
X143522572Y-122095000D01*
X144097428Y-122095000D01*
X144628527Y-121875012D01*
X144838551Y-121664988D01*
X145974617Y-121664988D01*
X146049980Y-121912144D01*
X146590834Y-122106916D01*
X147165055Y-122079886D01*
X147570020Y-121912144D01*
X147645383Y-121664988D01*
X146810000Y-120829605D01*
X145974617Y-121664988D01*
X144838551Y-121664988D01*
X145035012Y-121468527D01*
X145255000Y-120937428D01*
X145255000Y-120430834D01*
X145353084Y-120430834D01*
X145380114Y-121005055D01*
X145547856Y-121410020D01*
X145795012Y-121485383D01*
X146630395Y-120650000D01*
X146989605Y-120650000D01*
X147824988Y-121485383D01*
X148072144Y-121410020D01*
X148266916Y-120869166D01*
X148239886Y-120294945D01*
X148072144Y-119889980D01*
X147824988Y-119814617D01*
X146989605Y-120650000D01*
X146630395Y-120650000D01*
X145795012Y-119814617D01*
X145547856Y-119889980D01*
X145353084Y-120430834D01*
X145255000Y-120430834D01*
X145255000Y-120362572D01*
X145035012Y-119831473D01*
X144838551Y-119635012D01*
X145974617Y-119635012D01*
X146810000Y-120470395D01*
X147645383Y-119635012D01*
X147570020Y-119387856D01*
X147029166Y-119193084D01*
X146454945Y-119220114D01*
X146049980Y-119387856D01*
X145974617Y-119635012D01*
X144838551Y-119635012D01*
X144628527Y-119424988D01*
X144097428Y-119205000D01*
X143522572Y-119205000D01*
X142991473Y-119424988D01*
X142584988Y-119831473D01*
X142365000Y-120362572D01*
X134832406Y-120362572D01*
X134835000Y-120356310D01*
X134835000Y-119665750D01*
X134676250Y-119507000D01*
X133477000Y-119507000D01*
X133477000Y-119527000D01*
X133223000Y-119527000D01*
X133223000Y-119507000D01*
X132023750Y-119507000D01*
X131865000Y-119665750D01*
X131865000Y-120356310D01*
X131961673Y-120589699D01*
X132140302Y-120768327D01*
X132301033Y-120834904D01*
X132279375Y-120849375D01*
X131951161Y-121340582D01*
X131835908Y-121920000D01*
X131951161Y-122499418D01*
X132279375Y-122990625D01*
X132577761Y-123190000D01*
X132279375Y-123389375D01*
X132071822Y-123700000D01*
X131745906Y-123700000D01*
X131671059Y-123685112D01*
X131596212Y-123700000D01*
X131596208Y-123700000D01*
X131374523Y-123744096D01*
X131123131Y-123912071D01*
X131080731Y-123975527D01*
X128009048Y-127047211D01*
X127945592Y-127089611D01*
X127903192Y-127153067D01*
X127903191Y-127153068D01*
X127777617Y-127341003D01*
X127718632Y-127637540D01*
X127733521Y-127712392D01*
X127733520Y-145601238D01*
X127425400Y-145395359D01*
X127021407Y-145315000D01*
X126748593Y-145315000D01*
X126344600Y-145395359D01*
X125886471Y-145701471D01*
X125580359Y-146159600D01*
X125472867Y-146700000D01*
X125580359Y-147240400D01*
X125886471Y-147698529D01*
X126344600Y-148004641D01*
X126748593Y-148085000D01*
X127021407Y-148085000D01*
X127425400Y-148004641D01*
X127733520Y-147798762D01*
X127733520Y-148274035D01*
X127336182Y-148195000D01*
X127033818Y-148195000D01*
X126586073Y-148284062D01*
X126078327Y-148623327D01*
X125739062Y-149131073D01*
X125619928Y-149730000D01*
X125739062Y-150328927D01*
X126078327Y-150836673D01*
X126520846Y-151132355D01*
X126013201Y-151640000D01*
X107795801Y-151640000D01*
X102272466Y-146116666D01*
X102670625Y-145850625D01*
X102870000Y-145552239D01*
X103069375Y-145850625D01*
X103560582Y-146178839D01*
X103993744Y-146265000D01*
X104286256Y-146265000D01*
X104719418Y-146178839D01*
X105210625Y-145850625D01*
X105410000Y-145552239D01*
X105609375Y-145850625D01*
X106100582Y-146178839D01*
X106533744Y-146265000D01*
X106826256Y-146265000D01*
X107259418Y-146178839D01*
X107750625Y-145850625D01*
X107963843Y-145531522D01*
X108024817Y-145661358D01*
X108453076Y-146051645D01*
X108863110Y-146221476D01*
X109093000Y-146100155D01*
X109093000Y-144907000D01*
X109347000Y-144907000D01*
X109347000Y-146100155D01*
X109576890Y-146221476D01*
X109986924Y-146051645D01*
X110415183Y-145661358D01*
X110661486Y-145136892D01*
X110540819Y-144907000D01*
X109347000Y-144907000D01*
X109093000Y-144907000D01*
X109073000Y-144907000D01*
X109073000Y-144653000D01*
X109093000Y-144653000D01*
X109093000Y-144633000D01*
X109347000Y-144633000D01*
X109347000Y-144653000D01*
X110540819Y-144653000D01*
X110661486Y-144423108D01*
X110415183Y-143898642D01*
X109990214Y-143511353D01*
X110290625Y-143310625D01*
X110618839Y-142819418D01*
X110734092Y-142240000D01*
X110618839Y-141660582D01*
X110290625Y-141169375D01*
X109799418Y-140841161D01*
X109366256Y-140755000D01*
X109073744Y-140755000D01*
X108640582Y-140841161D01*
X108149375Y-141169375D01*
X107950000Y-141467761D01*
X107750625Y-141169375D01*
X107440000Y-140961822D01*
X107440000Y-127210661D01*
X111970662Y-122680000D01*
X114291822Y-122680000D01*
X114499375Y-122990625D01*
X114797761Y-123190000D01*
X114499375Y-123389375D01*
X114171161Y-123880582D01*
X114055908Y-124460000D01*
X114171161Y-125039418D01*
X114499375Y-125530625D01*
X114797761Y-125730000D01*
X114499375Y-125929375D01*
X114171161Y-126420582D01*
X114055908Y-127000000D01*
X114171161Y-127579418D01*
X114499375Y-128070625D01*
X114797761Y-128270000D01*
X114499375Y-128469375D01*
X114171161Y-128960582D01*
X114055908Y-129540000D01*
X114171161Y-130119418D01*
X114499375Y-130610625D01*
X114521033Y-130625096D01*
X114360302Y-130691673D01*
X114181673Y-130870301D01*
X114085000Y-131103690D01*
X114085000Y-131794250D01*
X114243750Y-131953000D01*
X115443000Y-131953000D01*
X115443000Y-131933000D01*
X115697000Y-131933000D01*
X115697000Y-131953000D01*
X116896250Y-131953000D01*
X117055000Y-131794250D01*
X117055000Y-131103690D01*
X116958327Y-130870301D01*
X116779698Y-130691673D01*
X116618967Y-130625096D01*
X116640625Y-130610625D01*
X116968839Y-130119418D01*
X117084092Y-129540000D01*
X116968839Y-128960582D01*
X116640625Y-128469375D01*
X116342239Y-128270000D01*
X116640625Y-128070625D01*
X116848178Y-127760000D01*
X117265533Y-127760000D01*
X117340380Y-127774888D01*
X117415227Y-127760000D01*
X117415232Y-127760000D01*
X117636917Y-127715904D01*
X117888309Y-127547929D01*
X117930711Y-127484470D01*
X118366430Y-127048752D01*
X118366430Y-143448768D01*
X117055000Y-144760198D01*
X117055000Y-144652998D01*
X116896252Y-144652998D01*
X117055000Y-144494250D01*
X117055000Y-143803690D01*
X116958327Y-143570301D01*
X116779698Y-143391673D01*
X116618967Y-143325096D01*
X116640625Y-143310625D01*
X116968839Y-142819418D01*
X117084092Y-142240000D01*
X116968839Y-141660582D01*
X116640625Y-141169375D01*
X116342239Y-140970000D01*
X116640625Y-140770625D01*
X116968839Y-140279418D01*
X117084092Y-139700000D01*
X116968839Y-139120582D01*
X116640625Y-138629375D01*
X116342239Y-138430000D01*
X116640625Y-138230625D01*
X116968839Y-137739418D01*
X117084092Y-137160000D01*
X116968839Y-136580582D01*
X116640625Y-136089375D01*
X116342239Y-135890000D01*
X116640625Y-135690625D01*
X116968839Y-135199418D01*
X117084092Y-134620000D01*
X116968839Y-134040582D01*
X116640625Y-133549375D01*
X116618967Y-133534904D01*
X116779698Y-133468327D01*
X116958327Y-133289699D01*
X117055000Y-133056310D01*
X117055000Y-132365750D01*
X116896250Y-132207000D01*
X115697000Y-132207000D01*
X115697000Y-132227000D01*
X115443000Y-132227000D01*
X115443000Y-132207000D01*
X114243750Y-132207000D01*
X114085000Y-132365750D01*
X114085000Y-133056310D01*
X114181673Y-133289699D01*
X114360302Y-133468327D01*
X114521033Y-133534904D01*
X114499375Y-133549375D01*
X114171161Y-134040582D01*
X114055908Y-134620000D01*
X114171161Y-135199418D01*
X114499375Y-135690625D01*
X114797761Y-135890000D01*
X114499375Y-136089375D01*
X114171161Y-136580582D01*
X114055908Y-137160000D01*
X114171161Y-137739418D01*
X114499375Y-138230625D01*
X114797761Y-138430000D01*
X114499375Y-138629375D01*
X114171161Y-139120582D01*
X114055908Y-139700000D01*
X114140520Y-140125377D01*
X114090246Y-140200618D01*
X114033202Y-140487400D01*
X114090246Y-140774182D01*
X114252695Y-141017305D01*
X114493483Y-141178194D01*
X114171161Y-141660582D01*
X114055908Y-142240000D01*
X114171161Y-142819418D01*
X114499375Y-143310625D01*
X114521033Y-143325096D01*
X114360302Y-143391673D01*
X114181673Y-143570301D01*
X114085000Y-143803690D01*
X114085000Y-144494250D01*
X114243750Y-144653000D01*
X115443000Y-144653000D01*
X115443000Y-144633000D01*
X115697000Y-144633000D01*
X115697000Y-144653000D01*
X115717000Y-144653000D01*
X115717000Y-144907000D01*
X115697000Y-144907000D01*
X115697000Y-144927000D01*
X115443000Y-144927000D01*
X115443000Y-144907000D01*
X114243750Y-144907000D01*
X114085000Y-145065750D01*
X114085000Y-145756310D01*
X114181673Y-145989699D01*
X114360302Y-146168327D01*
X114521033Y-146234904D01*
X114499375Y-146249375D01*
X114171161Y-146740582D01*
X114055908Y-147320000D01*
X114171161Y-147899418D01*
X114499375Y-148390625D01*
X114797761Y-148590000D01*
X114499375Y-148789375D01*
X114171161Y-149280582D01*
X114055908Y-149860000D01*
X114171161Y-150439418D01*
X114499375Y-150930625D01*
X114990582Y-151258839D01*
X115423744Y-151345000D01*
X115716256Y-151345000D01*
X116149418Y-151258839D01*
X116640625Y-150930625D01*
X116968839Y-150439418D01*
X117084092Y-149860000D01*
X117058234Y-149730000D01*
X120169928Y-149730000D01*
X120289062Y-150328927D01*
X120628327Y-150836673D01*
X121136073Y-151175938D01*
X121583818Y-151265000D01*
X121886182Y-151265000D01*
X122333927Y-151175938D01*
X122841673Y-150836673D01*
X123180938Y-150328927D01*
X123300072Y-149730000D01*
X123180938Y-149131073D01*
X122841673Y-148623327D01*
X122333927Y-148284062D01*
X121886182Y-148195000D01*
X121583818Y-148195000D01*
X121136073Y-148284062D01*
X120628327Y-148623327D01*
X120289062Y-149131073D01*
X120169928Y-149730000D01*
X117058234Y-149730000D01*
X116968839Y-149280582D01*
X116640625Y-148789375D01*
X116342239Y-148590000D01*
X116640625Y-148390625D01*
X116968839Y-147899418D01*
X117084092Y-147320000D01*
X117011209Y-146953592D01*
X117264801Y-146700000D01*
X120622867Y-146700000D01*
X120730359Y-147240400D01*
X121036471Y-147698529D01*
X121494600Y-148004641D01*
X121898593Y-148085000D01*
X122171407Y-148085000D01*
X122575400Y-148004641D01*
X123033529Y-147698529D01*
X123339641Y-147240400D01*
X123447133Y-146700000D01*
X123339641Y-146159600D01*
X123033529Y-145701471D01*
X122575400Y-145395359D01*
X122171407Y-145315000D01*
X121898593Y-145315000D01*
X121494600Y-145395359D01*
X121036471Y-145701471D01*
X120730359Y-146159600D01*
X120622867Y-146700000D01*
X117264801Y-146700000D01*
X119610902Y-144353900D01*
X119674358Y-144311500D01*
X119842333Y-144060108D01*
X119886429Y-143838423D01*
X119886429Y-143838419D01*
X119901317Y-143763572D01*
X119886429Y-143688725D01*
X119886429Y-109220000D01*
X131835908Y-109220000D01*
X131951161Y-109799418D01*
X132279375Y-110290625D01*
X132577761Y-110490000D01*
X132279375Y-110689375D01*
X131951161Y-111180582D01*
X131835908Y-111760000D01*
X131951161Y-112339418D01*
X132279375Y-112830625D01*
X132577761Y-113030000D01*
X132279375Y-113229375D01*
X131951161Y-113720582D01*
X131835908Y-114300000D01*
X131951161Y-114879418D01*
X132279375Y-115370625D01*
X132577761Y-115570000D01*
X132279375Y-115769375D01*
X131951161Y-116260582D01*
X131835908Y-116840000D01*
X131951161Y-117419418D01*
X132279375Y-117910625D01*
X132301033Y-117925096D01*
X132140302Y-117991673D01*
X131961673Y-118170301D01*
X131865000Y-118403690D01*
X131865000Y-119094250D01*
X132023750Y-119253000D01*
X133223000Y-119253000D01*
X133223000Y-119233000D01*
X133477000Y-119233000D01*
X133477000Y-119253000D01*
X134676250Y-119253000D01*
X134835000Y-119094250D01*
X134835000Y-118403690D01*
X134738327Y-118170301D01*
X134559698Y-117991673D01*
X134398967Y-117925096D01*
X134420625Y-117910625D01*
X134748839Y-117419418D01*
X134864092Y-116840000D01*
X134748839Y-116260582D01*
X134420625Y-115769375D01*
X134122239Y-115570000D01*
X134420625Y-115370625D01*
X134748839Y-114879418D01*
X134864092Y-114300000D01*
X134748839Y-113720582D01*
X134420625Y-113229375D01*
X134122239Y-113030000D01*
X134420625Y-112830625D01*
X134479460Y-112742572D01*
X142365000Y-112742572D01*
X142365000Y-113317428D01*
X142584988Y-113848527D01*
X142991473Y-114255012D01*
X143522572Y-114475000D01*
X144097428Y-114475000D01*
X144628527Y-114255012D01*
X144838551Y-114044988D01*
X145974617Y-114044988D01*
X146049980Y-114292144D01*
X146590834Y-114486916D01*
X147165055Y-114459886D01*
X147570020Y-114292144D01*
X147645383Y-114044988D01*
X146810000Y-113209605D01*
X145974617Y-114044988D01*
X144838551Y-114044988D01*
X145035012Y-113848527D01*
X145255000Y-113317428D01*
X145255000Y-112810834D01*
X145353084Y-112810834D01*
X145380114Y-113385055D01*
X145547856Y-113790020D01*
X145795012Y-113865383D01*
X146630395Y-113030000D01*
X146989605Y-113030000D01*
X147824988Y-113865383D01*
X148072144Y-113790020D01*
X148266916Y-113249166D01*
X148239886Y-112674945D01*
X148072144Y-112269980D01*
X147824988Y-112194617D01*
X146989605Y-113030000D01*
X146630395Y-113030000D01*
X145795012Y-112194617D01*
X145547856Y-112269980D01*
X145353084Y-112810834D01*
X145255000Y-112810834D01*
X145255000Y-112742572D01*
X145035012Y-112211473D01*
X144838551Y-112015012D01*
X145974617Y-112015012D01*
X146810000Y-112850395D01*
X147645383Y-112015012D01*
X147570020Y-111767856D01*
X147029166Y-111573084D01*
X146454945Y-111600114D01*
X146049980Y-111767856D01*
X145974617Y-112015012D01*
X144838551Y-112015012D01*
X144628527Y-111804988D01*
X144097428Y-111585000D01*
X143522572Y-111585000D01*
X142991473Y-111804988D01*
X142584988Y-112211473D01*
X142365000Y-112742572D01*
X134479460Y-112742572D01*
X134748839Y-112339418D01*
X134864092Y-111760000D01*
X134748839Y-111180582D01*
X134420625Y-110689375D01*
X134122239Y-110490000D01*
X134420625Y-110290625D01*
X134748839Y-109799418D01*
X134864092Y-109220000D01*
X134748839Y-108640582D01*
X134420625Y-108149375D01*
X134398967Y-108134904D01*
X134559698Y-108068327D01*
X134738327Y-107889699D01*
X134835000Y-107656310D01*
X134835000Y-106965750D01*
X134676250Y-106807000D01*
X133477000Y-106807000D01*
X133477000Y-106827000D01*
X133223000Y-106827000D01*
X133223000Y-106807000D01*
X132023750Y-106807000D01*
X131865000Y-106965750D01*
X131865000Y-107656310D01*
X131961673Y-107889699D01*
X132140302Y-108068327D01*
X132301033Y-108134904D01*
X132279375Y-108149375D01*
X131951161Y-108640582D01*
X131835908Y-109220000D01*
X119886429Y-109220000D01*
X119886429Y-101830000D01*
X120405908Y-101830000D01*
X120521161Y-102409418D01*
X120849375Y-102900625D01*
X121340582Y-103228839D01*
X121773744Y-103315000D01*
X122066256Y-103315000D01*
X122499418Y-103228839D01*
X122990625Y-102900625D01*
X123005096Y-102878968D01*
X123071673Y-103039699D01*
X123250302Y-103218327D01*
X123483691Y-103315000D01*
X124174250Y-103315000D01*
X124333000Y-103156250D01*
X124333000Y-101957000D01*
X124313000Y-101957000D01*
X124313000Y-101703000D01*
X124333000Y-101703000D01*
X124333000Y-100503750D01*
X124587000Y-100503750D01*
X124587000Y-101703000D01*
X124607000Y-101703000D01*
X124607000Y-101957000D01*
X124587000Y-101957000D01*
X124587000Y-103156250D01*
X124745750Y-103315000D01*
X125436309Y-103315000D01*
X125669698Y-103218327D01*
X125848327Y-103039699D01*
X125914904Y-102878968D01*
X125929375Y-102900625D01*
X126420582Y-103228839D01*
X126853744Y-103315000D01*
X127146256Y-103315000D01*
X127579418Y-103228839D01*
X128070625Y-102900625D01*
X128398839Y-102409418D01*
X128514092Y-101830000D01*
X128468343Y-101600000D01*
X131835908Y-101600000D01*
X131951161Y-102179418D01*
X132279375Y-102670625D01*
X132577761Y-102870000D01*
X132279375Y-103069375D01*
X131951161Y-103560582D01*
X131835908Y-104140000D01*
X131951161Y-104719418D01*
X132279375Y-105210625D01*
X132301033Y-105225096D01*
X132140302Y-105291673D01*
X131961673Y-105470301D01*
X131865000Y-105703690D01*
X131865000Y-106394250D01*
X132023750Y-106553000D01*
X133223000Y-106553000D01*
X133223000Y-106533000D01*
X133477000Y-106533000D01*
X133477000Y-106553000D01*
X134676250Y-106553000D01*
X134835000Y-106394250D01*
X134835000Y-105703690D01*
X134738327Y-105470301D01*
X134559698Y-105291673D01*
X134398967Y-105225096D01*
X134420625Y-105210625D01*
X134479460Y-105122572D01*
X142365000Y-105122572D01*
X142365000Y-105697428D01*
X142584988Y-106228527D01*
X142991473Y-106635012D01*
X143522572Y-106855000D01*
X144097428Y-106855000D01*
X144628527Y-106635012D01*
X144838551Y-106424988D01*
X145974617Y-106424988D01*
X146049980Y-106672144D01*
X146590834Y-106866916D01*
X147165055Y-106839886D01*
X147570020Y-106672144D01*
X147645383Y-106424988D01*
X146810000Y-105589605D01*
X145974617Y-106424988D01*
X144838551Y-106424988D01*
X145035012Y-106228527D01*
X145255000Y-105697428D01*
X145255000Y-105190834D01*
X145353084Y-105190834D01*
X145380114Y-105765055D01*
X145547856Y-106170020D01*
X145795012Y-106245383D01*
X146630395Y-105410000D01*
X146989605Y-105410000D01*
X147824988Y-106245383D01*
X148072144Y-106170020D01*
X148266916Y-105629166D01*
X148239886Y-105054945D01*
X148072144Y-104649980D01*
X147824988Y-104574617D01*
X146989605Y-105410000D01*
X146630395Y-105410000D01*
X145795012Y-104574617D01*
X145547856Y-104649980D01*
X145353084Y-105190834D01*
X145255000Y-105190834D01*
X145255000Y-105122572D01*
X145035012Y-104591473D01*
X144838551Y-104395012D01*
X145974617Y-104395012D01*
X146810000Y-105230395D01*
X147645383Y-104395012D01*
X147570020Y-104147856D01*
X147029166Y-103953084D01*
X146454945Y-103980114D01*
X146049980Y-104147856D01*
X145974617Y-104395012D01*
X144838551Y-104395012D01*
X144628527Y-104184988D01*
X144097428Y-103965000D01*
X143522572Y-103965000D01*
X142991473Y-104184988D01*
X142584988Y-104591473D01*
X142365000Y-105122572D01*
X134479460Y-105122572D01*
X134748839Y-104719418D01*
X134864092Y-104140000D01*
X134748839Y-103560582D01*
X134420625Y-103069375D01*
X134122239Y-102870000D01*
X134420625Y-102670625D01*
X134748839Y-102179418D01*
X134864092Y-101600000D01*
X134748839Y-101020582D01*
X134420625Y-100529375D01*
X133929418Y-100201161D01*
X133496256Y-100115000D01*
X133203744Y-100115000D01*
X132770582Y-100201161D01*
X132279375Y-100529375D01*
X131951161Y-101020582D01*
X131835908Y-101600000D01*
X128468343Y-101600000D01*
X128398839Y-101250582D01*
X128070625Y-100759375D01*
X127579418Y-100431161D01*
X127146256Y-100345000D01*
X126853744Y-100345000D01*
X126420582Y-100431161D01*
X125929375Y-100759375D01*
X125914904Y-100781032D01*
X125848327Y-100620301D01*
X125669698Y-100441673D01*
X125436309Y-100345000D01*
X124745750Y-100345000D01*
X124587000Y-100503750D01*
X124333000Y-100503750D01*
X124174250Y-100345000D01*
X123483691Y-100345000D01*
X123250302Y-100441673D01*
X123071673Y-100620301D01*
X123005096Y-100781032D01*
X122990625Y-100759375D01*
X122499418Y-100431161D01*
X122066256Y-100345000D01*
X121773744Y-100345000D01*
X121340582Y-100431161D01*
X120849375Y-100759375D01*
X120521161Y-101250582D01*
X120405908Y-101830000D01*
X119886429Y-101830000D01*
X119886429Y-96352514D01*
X139575000Y-96352514D01*
X139575000Y-96907480D01*
X139787376Y-97420201D01*
X140179796Y-97812621D01*
X140692517Y-98024997D01*
X141247483Y-98024997D01*
X141760204Y-97812621D01*
X142152624Y-97420201D01*
X142365000Y-96907480D01*
X142365000Y-96352514D01*
X142152624Y-95839793D01*
X141760204Y-95447373D01*
X141247483Y-95234997D01*
X140692517Y-95234997D01*
X140179796Y-95447373D01*
X139787376Y-95839793D01*
X139575000Y-96352514D01*
X119886429Y-96352514D01*
X119886429Y-94608762D01*
X140170841Y-94608762D01*
X140240059Y-94850740D01*
X140762780Y-95037153D01*
X141317049Y-95009339D01*
X141699941Y-94850740D01*
X141769159Y-94608762D01*
X140970000Y-93809603D01*
X140170841Y-94608762D01*
X119886429Y-94608762D01*
X119886429Y-93422778D01*
X139562845Y-93422778D01*
X139590659Y-93977047D01*
X139749258Y-94359939D01*
X139991236Y-94429157D01*
X140790395Y-93629998D01*
X141149605Y-93629998D01*
X141948764Y-94429157D01*
X142190742Y-94359939D01*
X142299375Y-94055321D01*
X143155000Y-94055321D01*
X143155000Y-94904677D01*
X143480034Y-95689379D01*
X144080619Y-96289964D01*
X144865321Y-96614998D01*
X145714677Y-96614998D01*
X146499379Y-96289964D01*
X147099964Y-95689379D01*
X147424998Y-94904677D01*
X147424998Y-94055321D01*
X147099964Y-93270619D01*
X146499379Y-92670034D01*
X145714677Y-92345000D01*
X144865321Y-92345000D01*
X144080619Y-92670034D01*
X143480034Y-93270619D01*
X143155000Y-94055321D01*
X142299375Y-94055321D01*
X142377155Y-93837218D01*
X142349341Y-93282949D01*
X142190742Y-92900057D01*
X141948764Y-92830839D01*
X141149605Y-93629998D01*
X140790395Y-93629998D01*
X139991236Y-92830839D01*
X139749258Y-92900057D01*
X139562845Y-93422778D01*
X119886429Y-93422778D01*
X119886429Y-92651234D01*
X140170841Y-92651234D01*
X140970000Y-93450393D01*
X141769159Y-92651234D01*
X141699941Y-92409256D01*
X141177220Y-92222843D01*
X140622951Y-92250657D01*
X140240059Y-92409256D01*
X140170841Y-92651234D01*
X119886429Y-92651234D01*
X119886429Y-88243437D01*
X119901317Y-88168589D01*
X119886429Y-88093741D01*
X119886429Y-88093737D01*
X119842333Y-87872052D01*
X119674358Y-87620660D01*
X119610902Y-87578260D01*
X118268851Y-86236210D01*
X118226449Y-86172751D01*
X117975057Y-86004776D01*
X117896495Y-85989149D01*
X117620543Y-85576157D01*
X117188520Y-85287489D01*
X117188520Y-84933441D01*
X123919251Y-91664173D01*
X123961652Y-91727630D01*
X124025108Y-91770030D01*
X124194395Y-91883145D01*
X124311549Y-92165980D01*
X124602700Y-92457131D01*
X124983106Y-92614700D01*
X125394854Y-92614700D01*
X125775260Y-92457131D01*
X126066411Y-92165980D01*
X126223980Y-91785574D01*
X126223980Y-91608763D01*
X140170841Y-91608763D01*
X140240059Y-91850741D01*
X140762780Y-92037154D01*
X141317049Y-92009340D01*
X141699941Y-91850741D01*
X141769159Y-91608763D01*
X140970000Y-90809604D01*
X140170841Y-91608763D01*
X126223980Y-91608763D01*
X126223980Y-91373826D01*
X126066411Y-90993420D01*
X125775260Y-90702269D01*
X125394854Y-90544700D01*
X125206598Y-90544700D01*
X125085518Y-90463797D01*
X124879308Y-90422779D01*
X139562845Y-90422779D01*
X139590659Y-90977048D01*
X139749258Y-91359940D01*
X139991236Y-91429158D01*
X140790395Y-90629999D01*
X141149605Y-90629999D01*
X141948764Y-91429158D01*
X142190742Y-91359940D01*
X142377155Y-90837219D01*
X142349341Y-90282950D01*
X142190742Y-89900058D01*
X141948764Y-89830840D01*
X141149605Y-90629999D01*
X140790395Y-90629999D01*
X139991236Y-89830840D01*
X139749258Y-89900058D01*
X139562845Y-90422779D01*
X124879308Y-90422779D01*
X124863833Y-90419701D01*
X124863828Y-90419701D01*
X124814589Y-90409907D01*
X124055917Y-89651235D01*
X140170841Y-89651235D01*
X140970000Y-90450394D01*
X141769159Y-89651235D01*
X141699941Y-89409257D01*
X141548725Y-89355330D01*
X143155000Y-89355330D01*
X143155000Y-90204686D01*
X143480034Y-90989388D01*
X144080619Y-91589973D01*
X144865321Y-91915007D01*
X145714677Y-91915007D01*
X146499379Y-91589973D01*
X147099964Y-90989388D01*
X147424998Y-90204686D01*
X147424998Y-89355330D01*
X147099964Y-88570628D01*
X146499379Y-87970043D01*
X145714677Y-87645009D01*
X144865321Y-87645009D01*
X144080619Y-87970043D01*
X143480034Y-88570628D01*
X143155000Y-89355330D01*
X141548725Y-89355330D01*
X141177220Y-89222844D01*
X140622951Y-89250658D01*
X140240059Y-89409257D01*
X140170841Y-89651235D01*
X124055917Y-89651235D01*
X121527222Y-87122540D01*
X123436249Y-87122540D01*
X123553680Y-87239971D01*
X123934086Y-87397540D01*
X124345834Y-87397540D01*
X124726240Y-87239971D01*
X125017391Y-86948820D01*
X125050039Y-86870000D01*
X139562560Y-86870000D01*
X139562560Y-88390000D01*
X139611843Y-88637765D01*
X139752191Y-88847809D01*
X139962235Y-88988157D01*
X140210000Y-89037440D01*
X141730000Y-89037440D01*
X141977765Y-88988157D01*
X142187809Y-88847809D01*
X142328157Y-88637765D01*
X142377440Y-88390000D01*
X142377440Y-86870000D01*
X142328157Y-86622235D01*
X142187809Y-86412191D01*
X141977765Y-86271843D01*
X141730000Y-86222560D01*
X140210000Y-86222560D01*
X139962235Y-86271843D01*
X139752191Y-86412191D01*
X139611843Y-86622235D01*
X139562560Y-86870000D01*
X125050039Y-86870000D01*
X125174960Y-86568414D01*
X125174960Y-86156666D01*
X125017391Y-85776260D01*
X124726240Y-85485109D01*
X124345834Y-85327540D01*
X123934086Y-85327540D01*
X123553680Y-85485109D01*
X123436249Y-85602540D01*
X120643632Y-85602540D01*
X118283260Y-83242169D01*
X118283260Y-81449956D01*
X118298148Y-81375109D01*
X118283260Y-81300262D01*
X118283260Y-81300258D01*
X118239164Y-81078573D01*
X118071189Y-80827181D01*
X118007733Y-80784781D01*
X115108242Y-77885290D01*
X116335080Y-77885290D01*
X116335080Y-78386550D01*
X116526903Y-78849653D01*
X116881347Y-79204097D01*
X117344450Y-79395920D01*
X117845710Y-79395920D01*
X118308813Y-79204097D01*
X118663257Y-78849653D01*
X118855080Y-78386550D01*
X118855080Y-77885290D01*
X118721076Y-77561773D01*
X118948832Y-77561773D01*
X119026036Y-77810483D01*
X119572330Y-78007763D01*
X120152536Y-77980968D01*
X120564124Y-77810483D01*
X120641328Y-77561773D01*
X119795080Y-76715525D01*
X118948832Y-77561773D01*
X118721076Y-77561773D01*
X118663257Y-77422187D01*
X118557521Y-77316451D01*
X118769227Y-77382168D01*
X119615475Y-76535920D01*
X119974685Y-76535920D01*
X120820933Y-77382168D01*
X121069643Y-77304964D01*
X121070527Y-77302514D01*
X137035000Y-77302514D01*
X137035000Y-77857480D01*
X137247376Y-78370201D01*
X137639796Y-78762621D01*
X138152517Y-78974997D01*
X138707483Y-78974997D01*
X139220204Y-78762621D01*
X139612624Y-78370201D01*
X139825000Y-77857480D01*
X139825000Y-77302514D01*
X139612624Y-76789793D01*
X139220204Y-76397373D01*
X138707483Y-76184997D01*
X138152517Y-76184997D01*
X137639796Y-76397373D01*
X137247376Y-76789793D01*
X137035000Y-77302514D01*
X121070527Y-77302514D01*
X121266923Y-76758670D01*
X121240128Y-76178464D01*
X121069643Y-75766876D01*
X120820933Y-75689672D01*
X119974685Y-76535920D01*
X119615475Y-76535920D01*
X118769227Y-75689672D01*
X118520517Y-75766876D01*
X118323237Y-76313170D01*
X118350032Y-76893376D01*
X118502474Y-77261404D01*
X118308813Y-77067743D01*
X117845710Y-76875920D01*
X117344450Y-76875920D01*
X116881347Y-77067743D01*
X116526903Y-77422187D01*
X116335080Y-77885290D01*
X115108242Y-77885290D01*
X110968460Y-73745508D01*
X118335080Y-73745508D01*
X118335080Y-74326332D01*
X118557352Y-74862944D01*
X118968056Y-75273648D01*
X119016050Y-75293528D01*
X118948832Y-75510067D01*
X119795080Y-76356315D01*
X120592633Y-75558762D01*
X137630841Y-75558762D01*
X137700059Y-75800740D01*
X138222780Y-75987153D01*
X138777049Y-75959339D01*
X139159941Y-75800740D01*
X139229159Y-75558762D01*
X138430000Y-74759603D01*
X137630841Y-75558762D01*
X120592633Y-75558762D01*
X120641328Y-75510067D01*
X120574110Y-75293528D01*
X120622104Y-75273648D01*
X121032808Y-74862944D01*
X121235841Y-74372778D01*
X137022845Y-74372778D01*
X137050659Y-74927047D01*
X137209258Y-75309939D01*
X137451236Y-75379157D01*
X138250395Y-74579998D01*
X138609605Y-74579998D01*
X139408764Y-75379157D01*
X139650742Y-75309939D01*
X139759375Y-75005321D01*
X140615000Y-75005321D01*
X140615000Y-75854677D01*
X140940034Y-76639379D01*
X141540619Y-77239964D01*
X142325321Y-77564998D01*
X143174677Y-77564998D01*
X143959379Y-77239964D01*
X144559964Y-76639379D01*
X144884998Y-75854677D01*
X144884998Y-75005321D01*
X144559964Y-74220619D01*
X143959379Y-73620034D01*
X143174677Y-73295000D01*
X142325321Y-73295000D01*
X141540619Y-73620034D01*
X140940034Y-74220619D01*
X140615000Y-75005321D01*
X139759375Y-75005321D01*
X139837155Y-74787218D01*
X139809341Y-74232949D01*
X139650742Y-73850057D01*
X139408764Y-73780839D01*
X138609605Y-74579998D01*
X138250395Y-74579998D01*
X137451236Y-73780839D01*
X137209258Y-73850057D01*
X137022845Y-74372778D01*
X121235841Y-74372778D01*
X121255080Y-74326332D01*
X121255080Y-73745508D01*
X121195320Y-73601234D01*
X137630841Y-73601234D01*
X138430000Y-74400393D01*
X139229159Y-73601234D01*
X139159941Y-73359256D01*
X138637220Y-73172843D01*
X138082951Y-73200657D01*
X137700059Y-73359256D01*
X137630841Y-73601234D01*
X121195320Y-73601234D01*
X121032808Y-73208896D01*
X120622104Y-72798192D01*
X120085492Y-72575920D01*
X119504668Y-72575920D01*
X118968056Y-72798192D01*
X118557352Y-73208896D01*
X118335080Y-73745508D01*
X110968460Y-73745508D01*
X109781715Y-72558763D01*
X137630841Y-72558763D01*
X137700059Y-72800741D01*
X138222780Y-72987154D01*
X138777049Y-72959340D01*
X139159941Y-72800741D01*
X139229159Y-72558763D01*
X138430000Y-71759604D01*
X137630841Y-72558763D01*
X109781715Y-72558763D01*
X109751400Y-72528449D01*
X109751400Y-71372779D01*
X137022845Y-71372779D01*
X137050659Y-71927048D01*
X137209258Y-72309940D01*
X137451236Y-72379158D01*
X138250395Y-71579999D01*
X138609605Y-71579999D01*
X139408764Y-72379158D01*
X139650742Y-72309940D01*
X139837155Y-71787219D01*
X139809341Y-71232950D01*
X139650742Y-70850058D01*
X139408764Y-70780840D01*
X138609605Y-71579999D01*
X138250395Y-71579999D01*
X137451236Y-70780840D01*
X137209258Y-70850058D01*
X137022845Y-71372779D01*
X109751400Y-71372779D01*
X109751400Y-71286671D01*
X109868831Y-71169240D01*
X110026400Y-70788834D01*
X110026400Y-70601235D01*
X137630841Y-70601235D01*
X138430000Y-71400394D01*
X139229159Y-70601235D01*
X139159941Y-70359257D01*
X139008725Y-70305330D01*
X140615000Y-70305330D01*
X140615000Y-71154686D01*
X140940034Y-71939388D01*
X141540619Y-72539973D01*
X142325321Y-72865007D01*
X143174677Y-72865007D01*
X143959379Y-72539973D01*
X144559964Y-71939388D01*
X144884998Y-71154686D01*
X144884998Y-70305330D01*
X144559964Y-69520628D01*
X143959379Y-68920043D01*
X143174677Y-68595009D01*
X142325321Y-68595009D01*
X141540619Y-68920043D01*
X140940034Y-69520628D01*
X140615000Y-70305330D01*
X139008725Y-70305330D01*
X138637220Y-70172844D01*
X138082951Y-70200658D01*
X137700059Y-70359257D01*
X137630841Y-70601235D01*
X110026400Y-70601235D01*
X110026400Y-70377086D01*
X109868831Y-69996680D01*
X109577680Y-69705529D01*
X109197274Y-69547960D01*
X108785526Y-69547960D01*
X108405120Y-69705529D01*
X108113969Y-69996680D01*
X107956400Y-70377086D01*
X107956400Y-70788834D01*
X108113969Y-71169240D01*
X108231400Y-71286671D01*
X108231401Y-72768398D01*
X108216512Y-72843250D01*
X108275497Y-73139787D01*
X108351184Y-73253060D01*
X107502802Y-73253060D01*
X107020900Y-72771158D01*
X107020900Y-71239511D01*
X107138331Y-71122080D01*
X107295900Y-70741674D01*
X107295900Y-70329926D01*
X107138331Y-69949520D01*
X106847180Y-69658369D01*
X106466774Y-69500800D01*
X106055026Y-69500800D01*
X105674620Y-69658369D01*
X105383469Y-69949520D01*
X105225900Y-70329926D01*
X105225900Y-70741674D01*
X105383469Y-71122080D01*
X105500901Y-71239512D01*
X105500900Y-73011113D01*
X105486012Y-73085960D01*
X105500900Y-73160807D01*
X105500900Y-73160811D01*
X105544996Y-73382496D01*
X105712971Y-73633889D01*
X105776429Y-73676291D01*
X106597673Y-74497535D01*
X106640071Y-74560989D01*
X106703524Y-74603387D01*
X106703526Y-74603389D01*
X106828902Y-74687162D01*
X106891463Y-74728964D01*
X106967255Y-74744040D01*
X104424611Y-74744040D01*
X104307180Y-74626609D01*
X103926774Y-74469040D01*
X103515026Y-74469040D01*
X103134620Y-74626609D01*
X102843469Y-74917760D01*
X102685900Y-75298166D01*
X102685900Y-75709914D01*
X102843469Y-76090320D01*
X103134620Y-76381471D01*
X103515026Y-76539040D01*
X103926774Y-76539040D01*
X104307180Y-76381471D01*
X104424611Y-76264040D01*
X109883099Y-76264040D01*
X115668520Y-82049462D01*
X115668521Y-85287488D01*
X115236497Y-85576157D01*
X114885629Y-86101269D01*
X114762420Y-86720680D01*
X114885629Y-87340091D01*
X115236497Y-87865203D01*
X115437994Y-87999839D01*
X115052547Y-88393756D01*
X114837957Y-88887700D01*
X114957926Y-89133680D01*
X116301520Y-89133680D01*
X116301520Y-89113680D01*
X116555520Y-89113680D01*
X116555520Y-89133680D01*
X117899114Y-89133680D01*
X118019083Y-88887700D01*
X117804493Y-88393756D01*
X117419046Y-87999839D01*
X117620543Y-87865203D01*
X117671692Y-87788653D01*
X118366429Y-88483391D01*
X118366429Y-99686887D01*
X109965979Y-91286438D01*
X109965979Y-90848180D01*
X114781080Y-90848180D01*
X114781080Y-92753180D01*
X114830363Y-93000945D01*
X114970711Y-93210989D01*
X115180755Y-93351337D01*
X115428520Y-93400620D01*
X117428520Y-93400620D01*
X117676285Y-93351337D01*
X117886329Y-93210989D01*
X118026677Y-93000945D01*
X118075960Y-92753180D01*
X118075960Y-90848180D01*
X118026677Y-90600415D01*
X117886329Y-90390371D01*
X117681377Y-90253425D01*
X117804493Y-90127604D01*
X118019083Y-89633660D01*
X117899114Y-89387680D01*
X116555520Y-89387680D01*
X116555520Y-89407680D01*
X116301520Y-89407680D01*
X116301520Y-89387680D01*
X114957926Y-89387680D01*
X114837957Y-89633660D01*
X115052547Y-90127604D01*
X115175663Y-90253425D01*
X114970711Y-90390371D01*
X114830363Y-90600415D01*
X114781080Y-90848180D01*
X109965979Y-90848180D01*
X109965979Y-83466805D01*
X109980867Y-83391958D01*
X109965979Y-83317111D01*
X109965979Y-83317107D01*
X109921883Y-83095422D01*
X109840980Y-82974342D01*
X109840980Y-82786086D01*
X109683411Y-82405680D01*
X109392260Y-82114529D01*
X109011854Y-81956960D01*
X108600106Y-81956960D01*
X108219700Y-82114529D01*
X107928549Y-82405680D01*
X107770980Y-82786086D01*
X107770980Y-83197834D01*
X107928549Y-83578240D01*
X108219700Y-83869391D01*
X108445979Y-83963119D01*
X108445980Y-91526387D01*
X108431091Y-91601239D01*
X108490076Y-91897776D01*
X108583206Y-92037154D01*
X108658051Y-92149168D01*
X108721507Y-92191568D01*
X117916420Y-101386482D01*
X117916421Y-125349157D01*
X117025579Y-126240000D01*
X116848178Y-126240000D01*
X116640625Y-125929375D01*
X116342239Y-125730000D01*
X116640625Y-125530625D01*
X116968839Y-125039418D01*
X117084092Y-124460000D01*
X116968839Y-123880582D01*
X116640625Y-123389375D01*
X116342239Y-123190000D01*
X116640625Y-122990625D01*
X116968839Y-122499418D01*
X117084092Y-121920000D01*
X116968839Y-121340582D01*
X116640625Y-120849375D01*
X116618967Y-120834904D01*
X116779698Y-120768327D01*
X116958327Y-120589699D01*
X117055000Y-120356310D01*
X117055000Y-119665750D01*
X116896250Y-119507000D01*
X115697000Y-119507000D01*
X115697000Y-119527000D01*
X115443000Y-119527000D01*
X115443000Y-119507000D01*
X114243750Y-119507000D01*
X114085000Y-119665750D01*
X114085000Y-120356310D01*
X114181673Y-120589699D01*
X114360302Y-120768327D01*
X114521033Y-120834904D01*
X114499375Y-120849375D01*
X114291822Y-121160000D01*
X111730708Y-121160000D01*
X111655860Y-121145112D01*
X111581012Y-121160000D01*
X111581008Y-121160000D01*
X111407465Y-121194520D01*
X111359322Y-121204096D01*
X111266897Y-121265853D01*
X111107931Y-121372071D01*
X111065531Y-121435527D01*
X106195528Y-126305531D01*
X106132072Y-126347931D01*
X106089672Y-126411387D01*
X106089671Y-126411388D01*
X105964097Y-126599323D01*
X105905112Y-126895860D01*
X105920001Y-126970712D01*
X105920000Y-140961822D01*
X105609375Y-141169375D01*
X105410000Y-141467761D01*
X105210625Y-141169375D01*
X104719418Y-140841161D01*
X104286256Y-140755000D01*
X103993744Y-140755000D01*
X103560582Y-140841161D01*
X103069375Y-141169375D01*
X102856157Y-141488478D01*
X102795183Y-141358642D01*
X102366924Y-140968355D01*
X101956890Y-140798524D01*
X101727000Y-140919845D01*
X101727000Y-142113000D01*
X101747000Y-142113000D01*
X101747000Y-142367000D01*
X101727000Y-142367000D01*
X101727000Y-142387000D01*
X101473000Y-142387000D01*
X101473000Y-142367000D01*
X101453000Y-142367000D01*
X101453000Y-142113000D01*
X101473000Y-142113000D01*
X101473000Y-140919845D01*
X101243110Y-140798524D01*
X100833076Y-140968355D01*
X100404817Y-141358642D01*
X100343843Y-141488478D01*
X100130625Y-141169375D01*
X99639418Y-140841161D01*
X99206256Y-140755000D01*
X98913744Y-140755000D01*
X98480582Y-140841161D01*
X97989375Y-141169375D01*
X97790000Y-141467761D01*
X97590625Y-141169375D01*
X97099418Y-140841161D01*
X96666256Y-140755000D01*
X96373744Y-140755000D01*
X95940582Y-140841161D01*
X95449375Y-141169375D01*
X95236157Y-141488478D01*
X95175183Y-141358642D01*
X94746924Y-140968355D01*
X94336890Y-140798524D01*
X94107000Y-140919845D01*
X94107000Y-142113000D01*
X94127000Y-142113000D01*
X94127000Y-142367000D01*
X94107000Y-142367000D01*
X94107000Y-142387000D01*
X93853000Y-142387000D01*
X93853000Y-142367000D01*
X93833000Y-142367000D01*
X93833000Y-142113000D01*
X93853000Y-142113000D01*
X93853000Y-140919845D01*
X93623110Y-140798524D01*
X93213076Y-140968355D01*
X92784817Y-141358642D01*
X92723843Y-141488478D01*
X92510625Y-141169375D01*
X92019418Y-140841161D01*
X91586256Y-140755000D01*
X91293744Y-140755000D01*
X90860582Y-140841161D01*
X90369375Y-141169375D01*
X90170000Y-141467761D01*
X89970625Y-141169375D01*
X89479418Y-140841161D01*
X89046256Y-140755000D01*
X88753744Y-140755000D01*
X88320582Y-140841161D01*
X87829375Y-141169375D01*
X87630000Y-141467761D01*
X87430625Y-141169375D01*
X86939418Y-140841161D01*
X86506256Y-140755000D01*
X86213744Y-140755000D01*
X85780582Y-140841161D01*
X85289375Y-141169375D01*
X85076157Y-141488478D01*
X85015183Y-141358642D01*
X84586924Y-140968355D01*
X84176890Y-140798524D01*
X83947000Y-140919845D01*
X83947000Y-142113000D01*
X83967000Y-142113000D01*
X83967000Y-142367000D01*
X83947000Y-142367000D01*
X83947000Y-142387000D01*
X83693000Y-142387000D01*
X83693000Y-142367000D01*
X83673000Y-142367000D01*
X83673000Y-142113000D01*
X83693000Y-142113000D01*
X83693000Y-140919845D01*
X83463110Y-140798524D01*
X83053076Y-140968355D01*
X82624817Y-141358642D01*
X82563843Y-141488478D01*
X82350625Y-141169375D01*
X81859418Y-140841161D01*
X81426256Y-140755000D01*
X81133744Y-140755000D01*
X80700582Y-140841161D01*
X80209375Y-141169375D01*
X80010000Y-141467761D01*
X79810625Y-141169375D01*
X79319418Y-140841161D01*
X78886256Y-140755000D01*
X78593744Y-140755000D01*
X78160582Y-140841161D01*
X77669375Y-141169375D01*
X77341161Y-141660582D01*
X77225908Y-142240000D01*
X77341161Y-142819418D01*
X77669375Y-143310625D01*
X77687619Y-143322816D01*
X77642235Y-143331843D01*
X77432191Y-143472191D01*
X77291843Y-143682235D01*
X77242560Y-143930000D01*
X77242560Y-145630000D01*
X77291843Y-145877765D01*
X77432191Y-146087809D01*
X77642235Y-146228157D01*
X77890000Y-146277440D01*
X78091518Y-146277440D01*
X78192072Y-146427929D01*
X78255528Y-146470329D01*
X79589670Y-147804472D01*
X79632071Y-147867929D01*
X79883463Y-148035904D01*
X80105148Y-148080000D01*
X80105152Y-148080000D01*
X80180000Y-148094888D01*
X80254848Y-148080000D01*
X93736319Y-148080000D01*
X99886318Y-154230000D01*
X76910000Y-154230000D01*
X76910000Y-150685431D01*
X78410000Y-150685431D01*
X78410000Y-151574569D01*
X78750259Y-152396026D01*
X79378974Y-153024741D01*
X80200431Y-153365000D01*
X81089569Y-153365000D01*
X81911026Y-153024741D01*
X82539741Y-152396026D01*
X82880000Y-151574569D01*
X82880000Y-150685431D01*
X82539741Y-149863974D01*
X81911026Y-149235259D01*
X81089569Y-148895000D01*
X80200431Y-148895000D01*
X79378974Y-149235259D01*
X78750259Y-149863974D01*
X78410000Y-150685431D01*
X76910000Y-150685431D01*
X76910000Y-137037871D01*
X77151764Y-137621542D01*
X77759382Y-138229160D01*
X78553273Y-138558000D01*
X79412575Y-138558000D01*
X80206466Y-138229160D01*
X80814084Y-137621542D01*
X81142924Y-136827651D01*
X81142924Y-136110572D01*
X81857924Y-136110572D01*
X81857924Y-136685428D01*
X82077912Y-137216527D01*
X82484397Y-137623012D01*
X83015496Y-137843000D01*
X83590352Y-137843000D01*
X84121451Y-137623012D01*
X84331475Y-137412988D01*
X85467541Y-137412988D01*
X85542904Y-137660144D01*
X86083758Y-137854916D01*
X86657979Y-137827886D01*
X87062944Y-137660144D01*
X87138307Y-137412988D01*
X86302924Y-136577605D01*
X85467541Y-137412988D01*
X84331475Y-137412988D01*
X84527936Y-137216527D01*
X84747924Y-136685428D01*
X84747924Y-136178834D01*
X84846008Y-136178834D01*
X84873038Y-136753055D01*
X85040780Y-137158020D01*
X85287936Y-137233383D01*
X86123319Y-136398000D01*
X86482529Y-136398000D01*
X87317912Y-137233383D01*
X87565068Y-137158020D01*
X87759840Y-136617166D01*
X87754601Y-136505853D01*
X94403752Y-136505853D01*
X94480956Y-136754563D01*
X95027250Y-136951843D01*
X95607456Y-136925048D01*
X96019044Y-136754563D01*
X96096248Y-136505853D01*
X95250000Y-135659605D01*
X94403752Y-136505853D01*
X87754601Y-136505853D01*
X87732810Y-136042945D01*
X87565068Y-135637980D01*
X87317912Y-135562617D01*
X86482529Y-136398000D01*
X86123319Y-136398000D01*
X85287936Y-135562617D01*
X85040780Y-135637980D01*
X84846008Y-136178834D01*
X84747924Y-136178834D01*
X84747924Y-136110572D01*
X84527936Y-135579473D01*
X84331475Y-135383012D01*
X85467541Y-135383012D01*
X86302924Y-136218395D01*
X87138307Y-135383012D01*
X87099960Y-135257250D01*
X93778157Y-135257250D01*
X93804952Y-135837456D01*
X93975437Y-136249044D01*
X94224147Y-136326248D01*
X95070395Y-135480000D01*
X95429605Y-135480000D01*
X96275853Y-136326248D01*
X96492392Y-136259030D01*
X96512272Y-136307024D01*
X96922976Y-136717728D01*
X97459588Y-136940000D01*
X98040412Y-136940000D01*
X98497367Y-136750723D01*
X98281823Y-136966267D01*
X98090000Y-137429370D01*
X98090000Y-137930630D01*
X98281823Y-138393733D01*
X98636267Y-138748177D01*
X99099370Y-138940000D01*
X99600630Y-138940000D01*
X100063733Y-138748177D01*
X100418177Y-138393733D01*
X100610000Y-137930630D01*
X100610000Y-137429370D01*
X100418177Y-136966267D01*
X100063733Y-136611823D01*
X99600630Y-136420000D01*
X99099370Y-136420000D01*
X98715924Y-136578828D01*
X98987728Y-136307024D01*
X99210000Y-135770412D01*
X99210000Y-135189588D01*
X98987728Y-134652976D01*
X98577024Y-134242272D01*
X98040412Y-134020000D01*
X97459588Y-134020000D01*
X96922976Y-134242272D01*
X96512272Y-134652976D01*
X96492392Y-134700970D01*
X96275853Y-134633752D01*
X95429605Y-135480000D01*
X95070395Y-135480000D01*
X94224147Y-134633752D01*
X93975437Y-134710956D01*
X93778157Y-135257250D01*
X87099960Y-135257250D01*
X87062944Y-135135856D01*
X86522090Y-134941084D01*
X85947869Y-134968114D01*
X85542904Y-135135856D01*
X85467541Y-135383012D01*
X84331475Y-135383012D01*
X84121451Y-135172988D01*
X83590352Y-134953000D01*
X83015496Y-134953000D01*
X82484397Y-135172988D01*
X82077912Y-135579473D01*
X81857924Y-136110572D01*
X81142924Y-136110572D01*
X81142924Y-135968349D01*
X80814084Y-135174458D01*
X80206466Y-134566840D01*
X79934401Y-134454147D01*
X94403752Y-134454147D01*
X95250000Y-135300395D01*
X96096248Y-134454147D01*
X96019044Y-134205437D01*
X95472750Y-134008157D01*
X94892544Y-134034952D01*
X94480956Y-134205437D01*
X94403752Y-134454147D01*
X79934401Y-134454147D01*
X79412575Y-134238000D01*
X78553273Y-134238000D01*
X77759382Y-134566840D01*
X77151764Y-135174458D01*
X76910000Y-135758129D01*
X76910000Y-128909871D01*
X77151764Y-129493542D01*
X77759382Y-130101160D01*
X78553273Y-130430000D01*
X79412575Y-130430000D01*
X80206466Y-130101160D01*
X80814084Y-129493542D01*
X81142924Y-128699651D01*
X81142924Y-127982572D01*
X81857924Y-127982572D01*
X81857924Y-128557428D01*
X82077912Y-129088527D01*
X82484397Y-129495012D01*
X83015496Y-129715000D01*
X83590352Y-129715000D01*
X84121451Y-129495012D01*
X84331475Y-129284988D01*
X85467541Y-129284988D01*
X85542904Y-129532144D01*
X86083758Y-129726916D01*
X86657979Y-129699886D01*
X87062944Y-129532144D01*
X87138307Y-129284988D01*
X86302924Y-128449605D01*
X85467541Y-129284988D01*
X84331475Y-129284988D01*
X84527936Y-129088527D01*
X84747924Y-128557428D01*
X84747924Y-128050834D01*
X84846008Y-128050834D01*
X84873038Y-128625055D01*
X85040780Y-129030020D01*
X85287936Y-129105383D01*
X86123319Y-128270000D01*
X86482529Y-128270000D01*
X87317912Y-129105383D01*
X87565068Y-129030020D01*
X87616985Y-128885853D01*
X94403752Y-128885853D01*
X94480956Y-129134563D01*
X95027250Y-129331843D01*
X95607456Y-129305048D01*
X96019044Y-129134563D01*
X96096248Y-128885853D01*
X95250000Y-128039605D01*
X94403752Y-128885853D01*
X87616985Y-128885853D01*
X87759840Y-128489166D01*
X87732810Y-127914945D01*
X87617785Y-127637250D01*
X93778157Y-127637250D01*
X93804952Y-128217456D01*
X93975437Y-128629044D01*
X94224147Y-128706248D01*
X95070395Y-127860000D01*
X95429605Y-127860000D01*
X96275853Y-128706248D01*
X96492392Y-128639030D01*
X96512272Y-128687024D01*
X96922976Y-129097728D01*
X97459588Y-129320000D01*
X98040412Y-129320000D01*
X98497367Y-129130723D01*
X98281823Y-129346267D01*
X98090000Y-129809370D01*
X98090000Y-130310630D01*
X98281823Y-130773733D01*
X98636267Y-131128177D01*
X99099370Y-131320000D01*
X99600630Y-131320000D01*
X100063733Y-131128177D01*
X100418177Y-130773733D01*
X100610000Y-130310630D01*
X100610000Y-129809370D01*
X100418177Y-129346267D01*
X100063733Y-128991823D01*
X99600630Y-128800000D01*
X99099370Y-128800000D01*
X98715924Y-128958828D01*
X98987728Y-128687024D01*
X99210000Y-128150412D01*
X99210000Y-127569588D01*
X98987728Y-127032976D01*
X98577024Y-126622272D01*
X98040412Y-126400000D01*
X97459588Y-126400000D01*
X96922976Y-126622272D01*
X96512272Y-127032976D01*
X96492392Y-127080970D01*
X96275853Y-127013752D01*
X95429605Y-127860000D01*
X95070395Y-127860000D01*
X94224147Y-127013752D01*
X93975437Y-127090956D01*
X93778157Y-127637250D01*
X87617785Y-127637250D01*
X87565068Y-127509980D01*
X87317912Y-127434617D01*
X86482529Y-128270000D01*
X86123319Y-128270000D01*
X85287936Y-127434617D01*
X85040780Y-127509980D01*
X84846008Y-128050834D01*
X84747924Y-128050834D01*
X84747924Y-127982572D01*
X84527936Y-127451473D01*
X84331475Y-127255012D01*
X85467541Y-127255012D01*
X86302924Y-128090395D01*
X87138307Y-127255012D01*
X87062944Y-127007856D01*
X86580579Y-126834147D01*
X94403752Y-126834147D01*
X95250000Y-127680395D01*
X96096248Y-126834147D01*
X96019044Y-126585437D01*
X95472750Y-126388157D01*
X94892544Y-126414952D01*
X94480956Y-126585437D01*
X94403752Y-126834147D01*
X86580579Y-126834147D01*
X86522090Y-126813084D01*
X85947869Y-126840114D01*
X85542904Y-127007856D01*
X85467541Y-127255012D01*
X84331475Y-127255012D01*
X84121451Y-127044988D01*
X83590352Y-126825000D01*
X83015496Y-126825000D01*
X82484397Y-127044988D01*
X82077912Y-127451473D01*
X81857924Y-127982572D01*
X81142924Y-127982572D01*
X81142924Y-127840349D01*
X80814084Y-127046458D01*
X80206466Y-126438840D01*
X79412575Y-126110000D01*
X78553273Y-126110000D01*
X77759382Y-126438840D01*
X77151764Y-127046458D01*
X76910000Y-127630129D01*
X76910000Y-121620702D01*
X77516458Y-122227160D01*
X78310349Y-122556000D01*
X79169651Y-122556000D01*
X79963542Y-122227160D01*
X80571160Y-121619542D01*
X80900000Y-120825651D01*
X80900000Y-120108572D01*
X81615000Y-120108572D01*
X81615000Y-120683428D01*
X81834988Y-121214527D01*
X82241473Y-121621012D01*
X82772572Y-121841000D01*
X83347428Y-121841000D01*
X83878527Y-121621012D01*
X84088551Y-121410988D01*
X85224617Y-121410988D01*
X85299980Y-121658144D01*
X85840834Y-121852916D01*
X86415055Y-121825886D01*
X86820020Y-121658144D01*
X86895383Y-121410988D01*
X86750248Y-121265853D01*
X94403752Y-121265853D01*
X94480956Y-121514563D01*
X95027250Y-121711843D01*
X95607456Y-121685048D01*
X96019044Y-121514563D01*
X96096248Y-121265853D01*
X95250000Y-120419605D01*
X94403752Y-121265853D01*
X86750248Y-121265853D01*
X86060000Y-120575605D01*
X85224617Y-121410988D01*
X84088551Y-121410988D01*
X84285012Y-121214527D01*
X84505000Y-120683428D01*
X84505000Y-120176834D01*
X84603084Y-120176834D01*
X84630114Y-120751055D01*
X84797856Y-121156020D01*
X85045012Y-121231383D01*
X85880395Y-120396000D01*
X86239605Y-120396000D01*
X87074988Y-121231383D01*
X87322144Y-121156020D01*
X87516916Y-120615166D01*
X87489886Y-120040945D01*
X87480072Y-120017250D01*
X93778157Y-120017250D01*
X93804952Y-120597456D01*
X93975437Y-121009044D01*
X94224147Y-121086248D01*
X95070395Y-120240000D01*
X95429605Y-120240000D01*
X96275853Y-121086248D01*
X96492392Y-121019030D01*
X96512272Y-121067024D01*
X96922976Y-121477728D01*
X97459588Y-121700000D01*
X98040412Y-121700000D01*
X98497367Y-121510723D01*
X98281823Y-121726267D01*
X98090000Y-122189370D01*
X98090000Y-122690630D01*
X98281823Y-123153733D01*
X98636267Y-123508177D01*
X99099370Y-123700000D01*
X99600630Y-123700000D01*
X100063733Y-123508177D01*
X100418177Y-123153733D01*
X100610000Y-122690630D01*
X100610000Y-122189370D01*
X100418177Y-121726267D01*
X100063733Y-121371823D01*
X99600630Y-121180000D01*
X99099370Y-121180000D01*
X98715924Y-121338828D01*
X98987728Y-121067024D01*
X99210000Y-120530412D01*
X99210000Y-119949588D01*
X98987728Y-119412976D01*
X98577024Y-119002272D01*
X98040412Y-118780000D01*
X97459588Y-118780000D01*
X96922976Y-119002272D01*
X96512272Y-119412976D01*
X96492392Y-119460970D01*
X96275853Y-119393752D01*
X95429605Y-120240000D01*
X95070395Y-120240000D01*
X94224147Y-119393752D01*
X93975437Y-119470956D01*
X93778157Y-120017250D01*
X87480072Y-120017250D01*
X87322144Y-119635980D01*
X87074988Y-119560617D01*
X86239605Y-120396000D01*
X85880395Y-120396000D01*
X85045012Y-119560617D01*
X84797856Y-119635980D01*
X84603084Y-120176834D01*
X84505000Y-120176834D01*
X84505000Y-120108572D01*
X84285012Y-119577473D01*
X84088551Y-119381012D01*
X85224617Y-119381012D01*
X86060000Y-120216395D01*
X86895383Y-119381012D01*
X86844503Y-119214147D01*
X94403752Y-119214147D01*
X95250000Y-120060395D01*
X96096248Y-119214147D01*
X96019044Y-118965437D01*
X95472750Y-118768157D01*
X94892544Y-118794952D01*
X94480956Y-118965437D01*
X94403752Y-119214147D01*
X86844503Y-119214147D01*
X86820020Y-119133856D01*
X86279166Y-118939084D01*
X85704945Y-118966114D01*
X85299980Y-119133856D01*
X85224617Y-119381012D01*
X84088551Y-119381012D01*
X83878527Y-119170988D01*
X83347428Y-118951000D01*
X82772572Y-118951000D01*
X82241473Y-119170988D01*
X81834988Y-119577473D01*
X81615000Y-120108572D01*
X80900000Y-120108572D01*
X80900000Y-119966349D01*
X80571160Y-119172458D01*
X79963542Y-118564840D01*
X79169651Y-118236000D01*
X78310349Y-118236000D01*
X77516458Y-118564840D01*
X76910000Y-119171298D01*
X76910000Y-114000702D01*
X77516458Y-114607160D01*
X78310349Y-114936000D01*
X79169651Y-114936000D01*
X79963542Y-114607160D01*
X80571160Y-113999542D01*
X80900000Y-113205651D01*
X80900000Y-112488572D01*
X81615000Y-112488572D01*
X81615000Y-113063428D01*
X81834988Y-113594527D01*
X82241473Y-114001012D01*
X82772572Y-114221000D01*
X83347428Y-114221000D01*
X83878527Y-114001012D01*
X84088551Y-113790988D01*
X85224617Y-113790988D01*
X85299980Y-114038144D01*
X85840834Y-114232916D01*
X86415055Y-114205886D01*
X86820020Y-114038144D01*
X86895383Y-113790988D01*
X86750248Y-113645853D01*
X94403752Y-113645853D01*
X94480956Y-113894563D01*
X95027250Y-114091843D01*
X95607456Y-114065048D01*
X96019044Y-113894563D01*
X96096248Y-113645853D01*
X95250000Y-112799605D01*
X94403752Y-113645853D01*
X86750248Y-113645853D01*
X86060000Y-112955605D01*
X85224617Y-113790988D01*
X84088551Y-113790988D01*
X84285012Y-113594527D01*
X84505000Y-113063428D01*
X84505000Y-112556834D01*
X84603084Y-112556834D01*
X84630114Y-113131055D01*
X84797856Y-113536020D01*
X85045012Y-113611383D01*
X85880395Y-112776000D01*
X86239605Y-112776000D01*
X87074988Y-113611383D01*
X87322144Y-113536020D01*
X87516916Y-112995166D01*
X87489886Y-112420945D01*
X87480072Y-112397250D01*
X93778157Y-112397250D01*
X93804952Y-112977456D01*
X93975437Y-113389044D01*
X94224147Y-113466248D01*
X95070395Y-112620000D01*
X95429605Y-112620000D01*
X96275853Y-113466248D01*
X96492392Y-113399030D01*
X96512272Y-113447024D01*
X96922976Y-113857728D01*
X97459588Y-114080000D01*
X98040412Y-114080000D01*
X98497367Y-113890723D01*
X98281823Y-114106267D01*
X98090000Y-114569370D01*
X98090000Y-115070630D01*
X98281823Y-115533733D01*
X98636267Y-115888177D01*
X99099370Y-116080000D01*
X99600630Y-116080000D01*
X100063733Y-115888177D01*
X100418177Y-115533733D01*
X100610000Y-115070630D01*
X100610000Y-114569370D01*
X100418177Y-114106267D01*
X100063733Y-113751823D01*
X99600630Y-113560000D01*
X99099370Y-113560000D01*
X98715924Y-113718828D01*
X98987728Y-113447024D01*
X99210000Y-112910412D01*
X99210000Y-112329588D01*
X98987728Y-111792976D01*
X98577024Y-111382272D01*
X98040412Y-111160000D01*
X97459588Y-111160000D01*
X96922976Y-111382272D01*
X96512272Y-111792976D01*
X96492392Y-111840970D01*
X96275853Y-111773752D01*
X95429605Y-112620000D01*
X95070395Y-112620000D01*
X94224147Y-111773752D01*
X93975437Y-111850956D01*
X93778157Y-112397250D01*
X87480072Y-112397250D01*
X87322144Y-112015980D01*
X87074988Y-111940617D01*
X86239605Y-112776000D01*
X85880395Y-112776000D01*
X85045012Y-111940617D01*
X84797856Y-112015980D01*
X84603084Y-112556834D01*
X84505000Y-112556834D01*
X84505000Y-112488572D01*
X84285012Y-111957473D01*
X84088551Y-111761012D01*
X85224617Y-111761012D01*
X86060000Y-112596395D01*
X86895383Y-111761012D01*
X86844503Y-111594147D01*
X94403752Y-111594147D01*
X95250000Y-112440395D01*
X96096248Y-111594147D01*
X96019044Y-111345437D01*
X95472750Y-111148157D01*
X94892544Y-111174952D01*
X94480956Y-111345437D01*
X94403752Y-111594147D01*
X86844503Y-111594147D01*
X86820020Y-111513856D01*
X86279166Y-111319084D01*
X85704945Y-111346114D01*
X85299980Y-111513856D01*
X85224617Y-111761012D01*
X84088551Y-111761012D01*
X83878527Y-111550988D01*
X83347428Y-111331000D01*
X82772572Y-111331000D01*
X82241473Y-111550988D01*
X81834988Y-111957473D01*
X81615000Y-112488572D01*
X80900000Y-112488572D01*
X80900000Y-112346349D01*
X80571160Y-111552458D01*
X79963542Y-110944840D01*
X79169651Y-110616000D01*
X78310349Y-110616000D01*
X77516458Y-110944840D01*
X76910000Y-111551298D01*
X76910000Y-109220000D01*
X114055908Y-109220000D01*
X114171161Y-109799418D01*
X114499375Y-110290625D01*
X114797761Y-110490000D01*
X114499375Y-110689375D01*
X114171161Y-111180582D01*
X114055908Y-111760000D01*
X114171161Y-112339418D01*
X114499375Y-112830625D01*
X114797761Y-113030000D01*
X114499375Y-113229375D01*
X114171161Y-113720582D01*
X114055908Y-114300000D01*
X114171161Y-114879418D01*
X114499375Y-115370625D01*
X114797761Y-115570000D01*
X114499375Y-115769375D01*
X114171161Y-116260582D01*
X114055908Y-116840000D01*
X114171161Y-117419418D01*
X114499375Y-117910625D01*
X114521033Y-117925096D01*
X114360302Y-117991673D01*
X114181673Y-118170301D01*
X114085000Y-118403690D01*
X114085000Y-119094250D01*
X114243750Y-119253000D01*
X115443000Y-119253000D01*
X115443000Y-119233000D01*
X115697000Y-119233000D01*
X115697000Y-119253000D01*
X116896250Y-119253000D01*
X117055000Y-119094250D01*
X117055000Y-118403690D01*
X116958327Y-118170301D01*
X116779698Y-117991673D01*
X116618967Y-117925096D01*
X116640625Y-117910625D01*
X116968839Y-117419418D01*
X117084092Y-116840000D01*
X116968839Y-116260582D01*
X116640625Y-115769375D01*
X116342239Y-115570000D01*
X116640625Y-115370625D01*
X116968839Y-114879418D01*
X117084092Y-114300000D01*
X116968839Y-113720582D01*
X116640625Y-113229375D01*
X116342239Y-113030000D01*
X116640625Y-112830625D01*
X116968839Y-112339418D01*
X117084092Y-111760000D01*
X116968839Y-111180582D01*
X116640625Y-110689375D01*
X116342239Y-110490000D01*
X116640625Y-110290625D01*
X116968839Y-109799418D01*
X117084092Y-109220000D01*
X116968839Y-108640582D01*
X116640625Y-108149375D01*
X116618967Y-108134904D01*
X116779698Y-108068327D01*
X116958327Y-107889699D01*
X117055000Y-107656310D01*
X117055000Y-106965750D01*
X116896250Y-106807000D01*
X115697000Y-106807000D01*
X115697000Y-106827000D01*
X115443000Y-106827000D01*
X115443000Y-106807000D01*
X114243750Y-106807000D01*
X114085000Y-106965750D01*
X114085000Y-107656310D01*
X114181673Y-107889699D01*
X114360302Y-108068327D01*
X114521033Y-108134904D01*
X114499375Y-108149375D01*
X114171161Y-108640582D01*
X114055908Y-109220000D01*
X76910000Y-109220000D01*
X76910000Y-105910322D01*
X79670000Y-105910322D01*
X79670000Y-106759678D01*
X79995034Y-107544380D01*
X80595620Y-108144966D01*
X81380322Y-108470000D01*
X82229678Y-108470000D01*
X83014380Y-108144966D01*
X83614966Y-107544380D01*
X83940000Y-106759678D01*
X83940000Y-106719370D01*
X104900000Y-106719370D01*
X104900000Y-107220630D01*
X105091823Y-107683733D01*
X105446267Y-108038177D01*
X105909370Y-108230000D01*
X106410630Y-108230000D01*
X106873733Y-108038177D01*
X107228177Y-107683733D01*
X107420000Y-107220630D01*
X107420000Y-106719370D01*
X107261172Y-106335924D01*
X107532976Y-106607728D01*
X108069588Y-106830000D01*
X108650412Y-106830000D01*
X109187024Y-106607728D01*
X109597728Y-106197024D01*
X109820000Y-105660412D01*
X109820000Y-105079588D01*
X109597728Y-104542976D01*
X109187024Y-104132272D01*
X109157397Y-104120000D01*
X109187024Y-104107728D01*
X109597728Y-103697024D01*
X109820000Y-103160412D01*
X109820000Y-102579588D01*
X109597728Y-102042976D01*
X109187024Y-101632272D01*
X109109113Y-101600000D01*
X114055908Y-101600000D01*
X114171161Y-102179418D01*
X114499375Y-102670625D01*
X114797761Y-102870000D01*
X114499375Y-103069375D01*
X114171161Y-103560582D01*
X114055908Y-104140000D01*
X114171161Y-104719418D01*
X114499375Y-105210625D01*
X114521033Y-105225096D01*
X114360302Y-105291673D01*
X114181673Y-105470301D01*
X114085000Y-105703690D01*
X114085000Y-106394250D01*
X114243750Y-106553000D01*
X115443000Y-106553000D01*
X115443000Y-106533000D01*
X115697000Y-106533000D01*
X115697000Y-106553000D01*
X116896250Y-106553000D01*
X117055000Y-106394250D01*
X117055000Y-105703690D01*
X116958327Y-105470301D01*
X116779698Y-105291673D01*
X116618967Y-105225096D01*
X116640625Y-105210625D01*
X116968839Y-104719418D01*
X117084092Y-104140000D01*
X116968839Y-103560582D01*
X116640625Y-103069375D01*
X116342239Y-102870000D01*
X116640625Y-102670625D01*
X116968839Y-102179418D01*
X117084092Y-101600000D01*
X116968839Y-101020582D01*
X116640625Y-100529375D01*
X116149418Y-100201161D01*
X115716256Y-100115000D01*
X115423744Y-100115000D01*
X114990582Y-100201161D01*
X114499375Y-100529375D01*
X114171161Y-101020582D01*
X114055908Y-101600000D01*
X109109113Y-101600000D01*
X108650412Y-101410000D01*
X108069588Y-101410000D01*
X107532976Y-101632272D01*
X107122272Y-102042976D01*
X106900000Y-102579588D01*
X106900000Y-103160412D01*
X107122272Y-103697024D01*
X107532976Y-104107728D01*
X107562603Y-104120000D01*
X107532976Y-104132272D01*
X107122272Y-104542976D01*
X106900000Y-105079588D01*
X106900000Y-105660412D01*
X107089277Y-106117367D01*
X106873733Y-105901823D01*
X106410630Y-105710000D01*
X105909370Y-105710000D01*
X105446267Y-105901823D01*
X105091823Y-106256267D01*
X104900000Y-106719370D01*
X83940000Y-106719370D01*
X83940000Y-105910322D01*
X83614966Y-105125620D01*
X83014380Y-104525034D01*
X82229678Y-104200000D01*
X81380322Y-104200000D01*
X80595620Y-104525034D01*
X79995034Y-105125620D01*
X79670000Y-105910322D01*
X76910000Y-105910322D01*
X76910000Y-101815750D01*
X92385000Y-101815750D01*
X92385000Y-102831309D01*
X92481673Y-103064698D01*
X92660301Y-103243327D01*
X92893690Y-103340000D01*
X96234250Y-103340000D01*
X96393000Y-103181250D01*
X96393000Y-101657000D01*
X96647000Y-101657000D01*
X96647000Y-103181250D01*
X96805750Y-103340000D01*
X100146310Y-103340000D01*
X100379699Y-103243327D01*
X100558327Y-103064698D01*
X100655000Y-102831309D01*
X100655000Y-101815750D01*
X100496250Y-101657000D01*
X96647000Y-101657000D01*
X96393000Y-101657000D01*
X92543750Y-101657000D01*
X92385000Y-101815750D01*
X76910000Y-101815750D01*
X76910000Y-100228691D01*
X92385000Y-100228691D01*
X92385000Y-101244250D01*
X92543750Y-101403000D01*
X96393000Y-101403000D01*
X96393000Y-99878750D01*
X96647000Y-99878750D01*
X96647000Y-101403000D01*
X100496250Y-101403000D01*
X100655000Y-101244250D01*
X100655000Y-100228691D01*
X100558327Y-99995302D01*
X100379699Y-99816673D01*
X100146310Y-99720000D01*
X96805750Y-99720000D01*
X96647000Y-99878750D01*
X96393000Y-99878750D01*
X96234250Y-99720000D01*
X92893690Y-99720000D01*
X92660301Y-99816673D01*
X92481673Y-99995302D01*
X92385000Y-100228691D01*
X76910000Y-100228691D01*
X76910000Y-93462500D01*
X92372560Y-93462500D01*
X92372560Y-94637500D01*
X92466564Y-95110091D01*
X92734266Y-95510734D01*
X93134909Y-95778436D01*
X93607500Y-95872440D01*
X99432500Y-95872440D01*
X99905091Y-95778436D01*
X100305734Y-95510734D01*
X100573436Y-95110091D01*
X100667440Y-94637500D01*
X100667440Y-93462500D01*
X100573436Y-92989909D01*
X100305734Y-92589266D01*
X99905091Y-92321564D01*
X99432500Y-92227560D01*
X93607500Y-92227560D01*
X93134909Y-92321564D01*
X92734266Y-92589266D01*
X92466564Y-92989909D01*
X92372560Y-93462500D01*
X76910000Y-93462500D01*
X76910000Y-88820322D01*
X79670000Y-88820322D01*
X79670000Y-89669678D01*
X79995034Y-90454380D01*
X80595620Y-91054966D01*
X81380322Y-91380000D01*
X82229678Y-91380000D01*
X83014380Y-91054966D01*
X83614966Y-90454380D01*
X83940000Y-89669678D01*
X83940000Y-88820322D01*
X83614966Y-88035620D01*
X83014380Y-87435034D01*
X82229678Y-87110000D01*
X81380322Y-87110000D01*
X80595620Y-87435034D01*
X79995034Y-88035620D01*
X79670000Y-88820322D01*
X76910000Y-88820322D01*
X76910000Y-85340190D01*
X77810900Y-85340190D01*
X77810900Y-85841450D01*
X78002723Y-86304553D01*
X78357167Y-86658997D01*
X78820270Y-86850820D01*
X79321530Y-86850820D01*
X79784633Y-86658997D01*
X80139077Y-86304553D01*
X80330900Y-85841450D01*
X80330900Y-85340190D01*
X80196896Y-85016673D01*
X80424652Y-85016673D01*
X80501856Y-85265383D01*
X81048150Y-85462663D01*
X81628356Y-85435868D01*
X82039944Y-85265383D01*
X82117148Y-85016673D01*
X81270900Y-84170425D01*
X80424652Y-85016673D01*
X80196896Y-85016673D01*
X80139077Y-84877087D01*
X80033341Y-84771351D01*
X80245047Y-84837068D01*
X81091295Y-83990820D01*
X81450505Y-83990820D01*
X82296753Y-84837068D01*
X82545463Y-84759864D01*
X82742743Y-84213570D01*
X82715948Y-83633364D01*
X82545463Y-83221776D01*
X82296753Y-83144572D01*
X81450505Y-83990820D01*
X81091295Y-83990820D01*
X80245047Y-83144572D01*
X79996337Y-83221776D01*
X79799057Y-83768070D01*
X79825852Y-84348276D01*
X79978294Y-84716304D01*
X79784633Y-84522643D01*
X79321530Y-84330820D01*
X78820270Y-84330820D01*
X78357167Y-84522643D01*
X78002723Y-84877087D01*
X77810900Y-85340190D01*
X76910000Y-85340190D01*
X76910000Y-81200408D01*
X79810900Y-81200408D01*
X79810900Y-81781232D01*
X80033172Y-82317844D01*
X80443876Y-82728548D01*
X80491870Y-82748428D01*
X80424652Y-82964967D01*
X81270900Y-83811215D01*
X82117148Y-82964967D01*
X82049930Y-82748428D01*
X82097924Y-82728548D01*
X82508628Y-82317844D01*
X82730900Y-81781232D01*
X82730900Y-81200408D01*
X82508628Y-80663796D01*
X82097924Y-80253092D01*
X81561312Y-80030820D01*
X80980488Y-80030820D01*
X80443876Y-80253092D01*
X80033172Y-80663796D01*
X79810900Y-81200408D01*
X76910000Y-81200408D01*
X76910000Y-63127500D01*
X90957560Y-63127500D01*
X90957560Y-68952500D01*
X91051564Y-69425091D01*
X91319266Y-69825734D01*
X91719909Y-70093436D01*
X92192500Y-70187440D01*
X93367500Y-70187440D01*
X93840091Y-70093436D01*
X94240734Y-69825734D01*
X94508436Y-69425091D01*
X94602440Y-68952500D01*
X94602440Y-66325750D01*
X98450000Y-66325750D01*
X98450000Y-69666310D01*
X98546673Y-69899699D01*
X98725302Y-70078327D01*
X98958691Y-70175000D01*
X99974250Y-70175000D01*
X100133000Y-70016250D01*
X100133000Y-66167000D01*
X100387000Y-66167000D01*
X100387000Y-70016250D01*
X100545750Y-70175000D01*
X101561309Y-70175000D01*
X101794698Y-70078327D01*
X101973327Y-69899699D01*
X102070000Y-69666310D01*
X102070000Y-66325750D01*
X117640000Y-66325750D01*
X117640000Y-69666310D01*
X117736673Y-69899699D01*
X117915302Y-70078327D01*
X118148691Y-70175000D01*
X119164250Y-70175000D01*
X119323000Y-70016250D01*
X119323000Y-66167000D01*
X119577000Y-66167000D01*
X119577000Y-70016250D01*
X119735750Y-70175000D01*
X120751309Y-70175000D01*
X120984698Y-70078327D01*
X121163327Y-69899699D01*
X121260000Y-69666310D01*
X121260000Y-66325750D01*
X121101250Y-66167000D01*
X119577000Y-66167000D01*
X119323000Y-66167000D01*
X117798750Y-66167000D01*
X117640000Y-66325750D01*
X102070000Y-66325750D01*
X101911250Y-66167000D01*
X100387000Y-66167000D01*
X100133000Y-66167000D01*
X98608750Y-66167000D01*
X98450000Y-66325750D01*
X94602440Y-66325750D01*
X94602440Y-63127500D01*
X94508436Y-62654909D01*
X94347259Y-62413690D01*
X98450000Y-62413690D01*
X98450000Y-65754250D01*
X98608750Y-65913000D01*
X100133000Y-65913000D01*
X100133000Y-62063750D01*
X100387000Y-62063750D01*
X100387000Y-65913000D01*
X101911250Y-65913000D01*
X102070000Y-65754250D01*
X102070000Y-62413690D01*
X117640000Y-62413690D01*
X117640000Y-65754250D01*
X117798750Y-65913000D01*
X119323000Y-65913000D01*
X119323000Y-62063750D01*
X119577000Y-62063750D01*
X119577000Y-65913000D01*
X121101250Y-65913000D01*
X121260000Y-65754250D01*
X121260000Y-63127500D01*
X125107560Y-63127500D01*
X125107560Y-68952500D01*
X125201564Y-69425091D01*
X125469266Y-69825734D01*
X125869909Y-70093436D01*
X126342500Y-70187440D01*
X127517500Y-70187440D01*
X127990091Y-70093436D01*
X128390734Y-69825734D01*
X128658436Y-69425091D01*
X128752440Y-68952500D01*
X128752440Y-67820000D01*
X137022560Y-67820000D01*
X137022560Y-69340000D01*
X137071843Y-69587765D01*
X137212191Y-69797809D01*
X137422235Y-69938157D01*
X137670000Y-69987440D01*
X139190000Y-69987440D01*
X139437765Y-69938157D01*
X139647809Y-69797809D01*
X139788157Y-69587765D01*
X139837440Y-69340000D01*
X139837440Y-67820000D01*
X139788157Y-67572235D01*
X139647809Y-67362191D01*
X139437765Y-67221843D01*
X139190000Y-67172560D01*
X137670000Y-67172560D01*
X137422235Y-67221843D01*
X137212191Y-67362191D01*
X137071843Y-67572235D01*
X137022560Y-67820000D01*
X128752440Y-67820000D01*
X128752440Y-63127500D01*
X128658436Y-62654909D01*
X128390734Y-62254266D01*
X127990091Y-61986564D01*
X127517500Y-61892560D01*
X126342500Y-61892560D01*
X125869909Y-61986564D01*
X125469266Y-62254266D01*
X125201564Y-62654909D01*
X125107560Y-63127500D01*
X121260000Y-63127500D01*
X121260000Y-62413690D01*
X121163327Y-62180301D01*
X120984698Y-62001673D01*
X120751309Y-61905000D01*
X119735750Y-61905000D01*
X119577000Y-62063750D01*
X119323000Y-62063750D01*
X119164250Y-61905000D01*
X118148691Y-61905000D01*
X117915302Y-62001673D01*
X117736673Y-62180301D01*
X117640000Y-62413690D01*
X102070000Y-62413690D01*
X101973327Y-62180301D01*
X101794698Y-62001673D01*
X101561309Y-61905000D01*
X100545750Y-61905000D01*
X100387000Y-62063750D01*
X100133000Y-62063750D01*
X99974250Y-61905000D01*
X98958691Y-61905000D01*
X98725302Y-62001673D01*
X98546673Y-62180301D01*
X98450000Y-62413690D01*
X94347259Y-62413690D01*
X94240734Y-62254266D01*
X93840091Y-61986564D01*
X93367500Y-61892560D01*
X92192500Y-61892560D01*
X91719909Y-61986564D01*
X91319266Y-62254266D01*
X91051564Y-62654909D01*
X90957560Y-63127500D01*
X76910000Y-63127500D01*
X76910000Y-59402572D01*
X139825000Y-59402572D01*
X139825000Y-59977428D01*
X140044988Y-60508527D01*
X140451473Y-60915012D01*
X140982572Y-61135000D01*
X141557428Y-61135000D01*
X142088527Y-60915012D01*
X142298551Y-60704988D01*
X143434617Y-60704988D01*
X143509980Y-60952144D01*
X144050834Y-61146916D01*
X144625055Y-61119886D01*
X145030020Y-60952144D01*
X145105383Y-60704988D01*
X144270000Y-59869605D01*
X143434617Y-60704988D01*
X142298551Y-60704988D01*
X142495012Y-60508527D01*
X142715000Y-59977428D01*
X142715000Y-59470834D01*
X142813084Y-59470834D01*
X142840114Y-60045055D01*
X143007856Y-60450020D01*
X143255012Y-60525383D01*
X144090395Y-59690000D01*
X144449605Y-59690000D01*
X145284988Y-60525383D01*
X145532144Y-60450020D01*
X145726916Y-59909166D01*
X145699886Y-59334945D01*
X145668988Y-59260349D01*
X146430000Y-59260349D01*
X146430000Y-60119651D01*
X146758840Y-60913542D01*
X147366458Y-61521160D01*
X148160349Y-61850000D01*
X149019651Y-61850000D01*
X149813542Y-61521160D01*
X150421160Y-60913542D01*
X150750000Y-60119651D01*
X150750000Y-59260349D01*
X150421160Y-58466458D01*
X149813542Y-57858840D01*
X149019651Y-57530000D01*
X148160349Y-57530000D01*
X147366458Y-57858840D01*
X146758840Y-58466458D01*
X146430000Y-59260349D01*
X145668988Y-59260349D01*
X145532144Y-58929980D01*
X145284988Y-58854617D01*
X144449605Y-59690000D01*
X144090395Y-59690000D01*
X143255012Y-58854617D01*
X143007856Y-58929980D01*
X142813084Y-59470834D01*
X142715000Y-59470834D01*
X142715000Y-59402572D01*
X142495012Y-58871473D01*
X142298551Y-58675012D01*
X143434617Y-58675012D01*
X144270000Y-59510395D01*
X145105383Y-58675012D01*
X145030020Y-58427856D01*
X144489166Y-58233084D01*
X143914945Y-58260114D01*
X143509980Y-58427856D01*
X143434617Y-58675012D01*
X142298551Y-58675012D01*
X142088527Y-58464988D01*
X141557428Y-58245000D01*
X140982572Y-58245000D01*
X140451473Y-58464988D01*
X140044988Y-58871473D01*
X139825000Y-59402572D01*
X76910000Y-59402572D01*
X76910000Y-50990431D01*
X78410000Y-50990431D01*
X78410000Y-51879569D01*
X78750259Y-52701026D01*
X79378974Y-53329741D01*
X80200431Y-53670000D01*
X81089569Y-53670000D01*
X81911026Y-53329741D01*
X82539741Y-52701026D01*
X82880000Y-51879569D01*
X82880000Y-50990431D01*
X82842676Y-50900322D01*
X85840000Y-50900322D01*
X85840000Y-51749678D01*
X86165034Y-52534380D01*
X86765620Y-53134966D01*
X87550322Y-53460000D01*
X88399678Y-53460000D01*
X89184380Y-53134966D01*
X89784966Y-52534380D01*
X90110000Y-51749678D01*
X90110000Y-50900322D01*
X102930000Y-50900322D01*
X102930000Y-51749678D01*
X103255034Y-52534380D01*
X103855620Y-53134966D01*
X104640322Y-53460000D01*
X105489678Y-53460000D01*
X106274380Y-53134966D01*
X106874966Y-52534380D01*
X107200000Y-51749678D01*
X107200000Y-50900322D01*
X112510000Y-50900322D01*
X112510000Y-51749678D01*
X112835034Y-52534380D01*
X113435620Y-53134966D01*
X114220322Y-53460000D01*
X115069678Y-53460000D01*
X115854380Y-53134966D01*
X116454966Y-52534380D01*
X116780000Y-51749678D01*
X116780000Y-50900322D01*
X129600000Y-50900322D01*
X129600000Y-51749678D01*
X129925034Y-52534380D01*
X130525620Y-53134966D01*
X131310322Y-53460000D01*
X132159678Y-53460000D01*
X132944380Y-53134966D01*
X133544966Y-52534380D01*
X133870000Y-51749678D01*
X133870000Y-50990431D01*
X146355000Y-50990431D01*
X146355000Y-51879569D01*
X146695259Y-52701026D01*
X147323974Y-53329741D01*
X148145431Y-53670000D01*
X149034569Y-53670000D01*
X149856026Y-53329741D01*
X150484741Y-52701026D01*
X150825000Y-51879569D01*
X150825000Y-50990431D01*
X150484741Y-50168974D01*
X149856026Y-49540259D01*
X149034569Y-49200000D01*
X148145431Y-49200000D01*
X147323974Y-49540259D01*
X146695259Y-50168974D01*
X146355000Y-50990431D01*
X133870000Y-50990431D01*
X133870000Y-50900322D01*
X133544966Y-50115620D01*
X132944380Y-49515034D01*
X132159678Y-49190000D01*
X131310322Y-49190000D01*
X130525620Y-49515034D01*
X129925034Y-50115620D01*
X129600000Y-50900322D01*
X116780000Y-50900322D01*
X116454966Y-50115620D01*
X115854380Y-49515034D01*
X115069678Y-49190000D01*
X114220322Y-49190000D01*
X113435620Y-49515034D01*
X112835034Y-50115620D01*
X112510000Y-50900322D01*
X107200000Y-50900322D01*
X106874966Y-50115620D01*
X106274380Y-49515034D01*
X105489678Y-49190000D01*
X104640322Y-49190000D01*
X103855620Y-49515034D01*
X103255034Y-50115620D01*
X102930000Y-50900322D01*
X90110000Y-50900322D01*
X89784966Y-50115620D01*
X89184380Y-49515034D01*
X88399678Y-49190000D01*
X87550322Y-49190000D01*
X86765620Y-49515034D01*
X86165034Y-50115620D01*
X85840000Y-50900322D01*
X82842676Y-50900322D01*
X82539741Y-50168974D01*
X81911026Y-49540259D01*
X81089569Y-49200000D01*
X80200431Y-49200000D01*
X79378974Y-49540259D01*
X78750259Y-50168974D01*
X78410000Y-50990431D01*
X76910000Y-50990431D01*
X76910000Y-47725000D01*
X152935001Y-47725000D01*
X152935000Y-104160298D01*
G37*
G04 #@! TD.AperFunction*
X89027000Y-144653000D02*
X89047000Y-144653000D01*
X89047000Y-144907000D01*
X89027000Y-144907000D01*
X89027000Y-146100155D01*
X89256890Y-146221476D01*
X89666924Y-146051645D01*
X90095183Y-145661358D01*
X90156157Y-145531522D01*
X90369375Y-145850625D01*
X90860582Y-146178839D01*
X91293744Y-146265000D01*
X91586256Y-146265000D01*
X92019418Y-146178839D01*
X92346492Y-145960295D01*
X92946197Y-146560000D01*
X80494802Y-146560000D01*
X80032704Y-146097902D01*
X80047809Y-146087809D01*
X80188157Y-145877765D01*
X80197184Y-145832381D01*
X80209375Y-145850625D01*
X80700582Y-146178839D01*
X81133744Y-146265000D01*
X81426256Y-146265000D01*
X81859418Y-146178839D01*
X82350625Y-145850625D01*
X82550000Y-145552239D01*
X82749375Y-145850625D01*
X83240582Y-146178839D01*
X83673744Y-146265000D01*
X83966256Y-146265000D01*
X84399418Y-146178839D01*
X84890625Y-145850625D01*
X85090000Y-145552239D01*
X85289375Y-145850625D01*
X85780582Y-146178839D01*
X86213744Y-146265000D01*
X86506256Y-146265000D01*
X86939418Y-146178839D01*
X87430625Y-145850625D01*
X87643843Y-145531522D01*
X87704817Y-145661358D01*
X88133076Y-146051645D01*
X88543110Y-146221476D01*
X88773000Y-146100155D01*
X88773000Y-144907000D01*
X88753000Y-144907000D01*
X88753000Y-144653000D01*
X88773000Y-144653000D01*
X88773000Y-144633000D01*
X89027000Y-144633000D01*
X89027000Y-144653000D01*
X89027000Y-144653000D02*
X89027000Y-144633000D01*
G04 #@! TA.AperFunction,Conductor*
G36*
X89027000Y-144653000D02*
G01*
X89047000Y-144653000D01*
X89047000Y-144907000D01*
X89027000Y-144907000D01*
X89027000Y-146100155D01*
X89256890Y-146221476D01*
X89666924Y-146051645D01*
X90095183Y-145661358D01*
X90156157Y-145531522D01*
X90369375Y-145850625D01*
X90860582Y-146178839D01*
X91293744Y-146265000D01*
X91586256Y-146265000D01*
X92019418Y-146178839D01*
X92346492Y-145960295D01*
X92946197Y-146560000D01*
X80494802Y-146560000D01*
X80032704Y-146097902D01*
X80047809Y-146087809D01*
X80188157Y-145877765D01*
X80197184Y-145832381D01*
X80209375Y-145850625D01*
X80700582Y-146178839D01*
X81133744Y-146265000D01*
X81426256Y-146265000D01*
X81859418Y-146178839D01*
X82350625Y-145850625D01*
X82550000Y-145552239D01*
X82749375Y-145850625D01*
X83240582Y-146178839D01*
X83673744Y-146265000D01*
X83966256Y-146265000D01*
X84399418Y-146178839D01*
X84890625Y-145850625D01*
X85090000Y-145552239D01*
X85289375Y-145850625D01*
X85780582Y-146178839D01*
X86213744Y-146265000D01*
X86506256Y-146265000D01*
X86939418Y-146178839D01*
X87430625Y-145850625D01*
X87643843Y-145531522D01*
X87704817Y-145661358D01*
X88133076Y-146051645D01*
X88543110Y-146221476D01*
X88773000Y-146100155D01*
X88773000Y-144907000D01*
X88753000Y-144907000D01*
X88753000Y-144653000D01*
X88773000Y-144653000D01*
X88773000Y-144633000D01*
X89027000Y-144633000D01*
X89027000Y-144653000D01*
G37*
G04 #@! TD.AperFunction*
M02*
