M48
; DRILL file {KiCad (6.0.7)} date Sun Dec 18 06:28:11 2022
; FORMAT={-:-/ absolute / metric / decimal}
; #@! TF.CreationDate,2022-12-18T06:28:11+05:30
; #@! TF.GenerationSoftware,Kicad,Pcbnew,(6.0.7)
; #@! TF.FileFunction,Plated,1,2,PTH
FMAT,2
METRIC
; #@! TA.AperFunction,Plated,PTH,ViaDrill
T1C0.400
; #@! TA.AperFunction,Plated,PTH,ComponentDrill
T2C1.000
; #@! TA.AperFunction,Plated,PTH,ComponentDrill
T3C1.020
; #@! TA.AperFunction,Plated,PTH,ComponentDrill
T4C1.070
; #@! TA.AperFunction,Plated,PTH,ComponentDrill
T5C1.100
; #@! TA.AperFunction,Plated,PTH,ComponentDrill
T6C3.050
%
G90
G05
T1
X102.319Y-76.426
X103.721Y-75.504
X106.261Y-70.536
X108.806Y-82.992
X108.991Y-70.583
X124.14Y-86.363
X125.189Y-91.58
T2
X78.74Y-142.24
X78.74Y-144.78
X81.28Y-142.24
X81.28Y-144.78
X83.82Y-142.24
X83.82Y-144.78
X86.36Y-142.24
X86.36Y-144.78
X88.9Y-142.24
X88.9Y-144.78
X91.44Y-142.24
X91.44Y-144.78
X93.98Y-142.24
X93.98Y-144.78
X96.52Y-142.24
X96.52Y-144.78
X99.06Y-142.24
X99.06Y-144.78
X101.6Y-142.24
X101.6Y-144.78
X104.14Y-142.24
X104.14Y-144.78
X106.68Y-142.24
X106.68Y-144.78
X109.22Y-142.24
X109.22Y-144.78
X142.449Y-129.459
X142.449Y-131.999
X142.449Y-134.539
X142.449Y-137.079
T3
X115.57Y-101.6
X115.57Y-104.14
X115.57Y-106.68
X115.57Y-109.22
X115.57Y-111.76
X115.57Y-114.3
X115.57Y-116.84
X115.57Y-119.38
X115.57Y-121.92
X115.57Y-124.46
X115.57Y-127.0
X115.57Y-129.54
X115.57Y-132.08
X115.57Y-134.62
X115.57Y-137.16
X115.57Y-139.7
X115.57Y-142.24
X115.57Y-144.78
X115.57Y-147.32
X115.57Y-149.86
X121.92Y-101.83
X124.46Y-101.83
X127.0Y-101.83
X133.35Y-101.6
X133.35Y-104.14
X133.35Y-106.68
X133.35Y-109.22
X133.35Y-111.76
X133.35Y-114.3
X133.35Y-116.84
X133.35Y-119.38
X133.35Y-121.92
X133.35Y-124.46
X133.35Y-127.0
X133.35Y-129.54
X133.35Y-132.08
X133.35Y-134.62
X133.35Y-137.16
X133.35Y-139.7
X133.35Y-142.24
X133.35Y-144.78
X133.35Y-147.32
X133.35Y-149.86
X138.43Y-68.58
X138.43Y-71.58
X138.43Y-74.58
X138.43Y-77.58
X140.97Y-87.63
X140.97Y-90.63
X140.97Y-93.63
X140.97Y-96.63
T4
X83.06Y-112.776
X83.06Y-120.396
X83.303Y-128.27
X83.303Y-136.398
X86.06Y-112.776
X86.06Y-120.396
X86.303Y-128.27
X86.303Y-136.398
X141.27Y-59.69
X143.81Y-105.41
X143.81Y-113.03
X143.81Y-120.65
X144.27Y-59.69
X146.81Y-105.41
X146.81Y-113.03
X146.81Y-120.65
T5
X81.271Y-81.491
X81.271Y-83.991
X95.25Y-112.62
X95.25Y-120.24
X95.25Y-127.86
X95.25Y-135.48
X97.75Y-112.62
X97.75Y-120.24
X97.75Y-127.86
X97.75Y-135.48
X108.36Y-102.87
X108.36Y-105.37
X116.429Y-86.721
X116.429Y-89.261
X116.429Y-91.801
X119.795Y-74.036
X119.795Y-76.536
T6
X78.74Y-112.776
X78.74Y-120.396
X78.983Y-128.27
X78.983Y-136.398
X148.59Y-59.69
X151.13Y-105.41
X151.13Y-113.03
X151.13Y-120.65
T2
G00X92.78Y-68.14
M15
G01X92.78Y-63.94
M16
G05
G00X98.62Y-94.05
M15
G01X94.42Y-94.05
M16
G05
G00X98.62Y-101.53
M15
G01X94.42Y-101.53
M16
G05
G00X100.26Y-68.14
M15
G01X100.26Y-63.94
M16
G05
G00X119.45Y-68.14
M15
G01X119.45Y-63.94
M16
G05
G00X126.93Y-68.14
M15
G01X126.93Y-63.94
M16
G05
T0
M30
