G04 #@! TF.GenerationSoftware,KiCad,Pcbnew,(6.0.7)*
G04 #@! TF.CreationDate,2022-12-18T06:26:48+05:30*
G04 #@! TF.ProjectId,PowerBoard,506f7765-7242-46f6-9172-642e6b696361,rev?*
G04 #@! TF.SameCoordinates,Original*
G04 #@! TF.FileFunction,Soldermask,Top*
G04 #@! TF.FilePolarity,Negative*
%FSLAX46Y46*%
G04 Gerber Fmt 4.6, Leading zero omitted, Abs format (unit mm)*
G04 Created by KiCad (PCBNEW (6.0.7)) date 2022-12-18 06:26:48*
%MOMM*%
%LPD*%
G01*
G04 APERTURE LIST*
G04 Aperture macros list*
%AMRoundRect*
0 Rectangle with rounded corners*
0 $1 Rounding radius*
0 $2 $3 $4 $5 $6 $7 $8 $9 X,Y pos of 4 corners*
0 Add a 4 corners polygon primitive as box body*
4,1,4,$2,$3,$4,$5,$6,$7,$8,$9,$2,$3,0*
0 Add four circle primitives for the rounded corners*
1,1,$1+$1,$2,$3*
1,1,$1+$1,$4,$5*
1,1,$1+$1,$6,$7*
1,1,$1+$1,$8,$9*
0 Add four rect primitives between the rounded corners*
20,1,$1+$1,$2,$3,$4,$5,0*
20,1,$1+$1,$4,$5,$6,$7,0*
20,1,$1+$1,$6,$7,$8,$9,0*
20,1,$1+$1,$8,$9,$2,$3,0*%
G04 Aperture macros list end*
%ADD10C,0.100000*%
%ADD11RoundRect,0.288500X-0.237500X0.287500X-0.237500X-0.287500X0.237500X-0.287500X0.237500X0.287500X0*%
%ADD12C,3.102000*%
%ADD13RoundRect,0.638500X-2.912500X0.587500X-2.912500X-0.587500X2.912500X-0.587500X2.912500X0.587500X0*%
%ADD14C,1.722000*%
%ADD15C,3.152000*%
%ADD16RoundRect,0.051000X-0.850000X-0.850000X0.850000X-0.850000X0.850000X0.850000X-0.850000X0.850000X0*%
%ADD17O,1.802000X1.802000*%
%ADD18C,1.352000*%
%ADD19C,1.752000*%
%ADD20RoundRect,0.288500X0.287500X0.237500X-0.287500X0.237500X-0.287500X-0.237500X0.287500X-0.237500X0*%
%ADD21RoundRect,0.051000X1.000000X-0.952500X1.000000X0.952500X-1.000000X0.952500X-1.000000X-0.952500X0*%
%ADD22O,2.102000X2.007000*%
%ADD23RoundRect,0.051000X0.850000X-0.850000X0.850000X0.850000X-0.850000X0.850000X-0.850000X-0.850000X0*%
%ADD24RoundRect,0.288500X-0.287500X-0.237500X0.287500X-0.237500X0.287500X0.237500X-0.287500X0.237500X0*%
%ADD25RoundRect,0.288500X0.237500X-0.287500X0.237500X0.287500X-0.237500X0.287500X-0.237500X-0.287500X0*%
%ADD26C,3.101999*%
%ADD27RoundRect,0.051000X0.760000X-0.760000X0.760000X0.760000X-0.760000X0.760000X-0.760000X-0.760000X0*%
%ADD28C,1.622000*%
%ADD29RoundRect,0.051000X0.350000X0.500000X-0.350000X0.500000X-0.350000X-0.500000X0.350000X-0.500000X0*%
%ADD30RoundRect,0.269750X0.256250X-0.218750X0.256250X0.218750X-0.256250X0.218750X-0.256250X-0.218750X0*%
%ADD31RoundRect,0.269750X-0.218750X-0.256250X0.218750X-0.256250X0.218750X0.256250X-0.218750X0.256250X0*%
%ADD32C,3.302000*%
%ADD33RoundRect,0.051000X0.300000X-0.775000X0.300000X0.775000X-0.300000X0.775000X-0.300000X-0.775000X0*%
%ADD34RoundRect,0.051000X0.775000X0.300000X-0.775000X0.300000X-0.775000X-0.300000X0.775000X-0.300000X0*%
%ADD35RoundRect,0.051000X-0.202500X-0.495000X0.202500X-0.495000X0.202500X0.495000X-0.202500X0.495000X0*%
%ADD36RoundRect,0.051000X-0.202500X-0.255000X0.202500X-0.255000X0.202500X0.255000X-0.202500X0.255000X0*%
%ADD37RoundRect,0.051000X-1.117500X0.862500X-1.117500X-0.862500X1.117500X-0.862500X1.117500X0.862500X0*%
%ADD38RoundRect,0.051000X-0.038500X-0.125000X0.038500X-0.125000X0.038500X0.125000X-0.038500X0.125000X0*%
%ADD39O,1.902000X1.902000*%
%ADD40O,1.602000X1.602000*%
%ADD41RoundRect,0.051000X1.750000X0.850000X-1.750000X0.850000X-1.750000X-0.850000X1.750000X-0.850000X0*%
%ADD42RoundRect,0.051000X0.850000X0.850000X-0.850000X0.850000X-0.850000X-0.850000X0.850000X-0.850000X0*%
%ADD43RoundRect,0.051000X-0.850000X1.750000X-0.850000X-1.750000X0.850000X-1.750000X0.850000X1.750000X0*%
%ADD44RoundRect,0.051000X-0.175000X-0.190000X0.175000X-0.190000X0.175000X0.190000X-0.175000X0.190000X0*%
%ADD45RoundRect,0.051000X-0.139700X0.666750X-0.139700X-0.666750X0.139700X-0.666750X0.139700X0.666750X0*%
%ADD46RoundRect,0.638500X0.587500X2.912500X-0.587500X2.912500X-0.587500X-2.912500X0.587500X-2.912500X0*%
%ADD47RoundRect,0.301000X0.450000X-0.325000X0.450000X0.325000X-0.450000X0.325000X-0.450000X-0.325000X0*%
%ADD48RoundRect,0.269750X0.218750X0.256250X-0.218750X0.256250X-0.218750X-0.256250X0.218750X-0.256250X0*%
G04 APERTURE END LIST*
D10*
G36*
X91590000Y-105470000D02*
G01*
X83590000Y-113470000D01*
X82065000Y-111945000D01*
X90065000Y-103945000D01*
X91590000Y-105470000D01*
G37*
X91590000Y-105470000D02*
X83590000Y-113470000D01*
X82065000Y-111945000D01*
X90065000Y-103945000D01*
X91590000Y-105470000D01*
G36*
X139680000Y-83150000D02*
G01*
X137100000Y-83150000D01*
X137100000Y-76470000D01*
X139680000Y-76470000D01*
X139680000Y-83150000D01*
G37*
X139680000Y-83150000D02*
X137100000Y-83150000D01*
X137100000Y-76470000D01*
X139680000Y-76470000D01*
X139680000Y-83150000D01*
G36*
X142430000Y-66440000D02*
G01*
X140070000Y-66440000D01*
X140070000Y-58550000D01*
X142430000Y-58550000D01*
X142430000Y-66440000D01*
G37*
X142430000Y-66440000D02*
X140070000Y-66440000D01*
X140070000Y-58550000D01*
X142430000Y-58550000D01*
X142430000Y-66440000D01*
G36*
X144427952Y-104311931D02*
G01*
X142692032Y-106035972D01*
X139770000Y-102950000D01*
X139785920Y-99925959D01*
X144427952Y-104311931D01*
G37*
X144427952Y-104311931D02*
X142692032Y-106035972D01*
X139770000Y-102950000D01*
X139785920Y-99925959D01*
X144427952Y-104311931D01*
G36*
X144960000Y-121810000D02*
G01*
X142620000Y-121810000D01*
X142620000Y-103740000D01*
X144960000Y-103740000D01*
X144960000Y-121810000D01*
G37*
X144960000Y-121810000D02*
X142620000Y-121810000D01*
X142620000Y-103740000D01*
X144960000Y-103740000D01*
X144960000Y-121810000D01*
G36*
X130700000Y-68190000D02*
G01*
X130670000Y-75020000D01*
X128360000Y-75020000D01*
X128360000Y-66050000D01*
X130700000Y-68190000D01*
G37*
X130700000Y-68190000D02*
X130670000Y-75020000D01*
X128360000Y-75020000D01*
X128360000Y-66050000D01*
X130700000Y-68190000D01*
G36*
X91390000Y-105920000D02*
G01*
X89250000Y-105920000D01*
X89250000Y-97940000D01*
X91390000Y-97940000D01*
X91390000Y-105920000D01*
G37*
X91390000Y-105920000D02*
X89250000Y-105920000D01*
X89250000Y-97940000D01*
X91390000Y-97940000D01*
X91390000Y-105920000D01*
G36*
X142340000Y-66330000D02*
G01*
X138356483Y-70295307D01*
X136826483Y-68395307D01*
X138970000Y-66280000D01*
X140590000Y-64810000D01*
X142340000Y-66330000D01*
G37*
X142340000Y-66330000D02*
X138356483Y-70295307D01*
X136826483Y-68395307D01*
X138970000Y-66280000D01*
X140590000Y-64810000D01*
X142340000Y-66330000D01*
G36*
X128420000Y-69000000D02*
G01*
X128390000Y-69000000D01*
X127890000Y-68500000D01*
X127890000Y-65840000D01*
X128420000Y-65840000D01*
X128420000Y-69000000D01*
G37*
X128420000Y-69000000D02*
X128390000Y-69000000D01*
X127890000Y-68500000D01*
X127890000Y-65840000D01*
X128420000Y-65840000D01*
X128420000Y-69000000D01*
G36*
X84450000Y-137560000D02*
G01*
X82130000Y-137560000D01*
X82130000Y-111670000D01*
X84450000Y-111670000D01*
X84450000Y-137560000D01*
G37*
X84450000Y-137560000D02*
X82130000Y-137560000D01*
X82130000Y-111670000D01*
X84450000Y-111670000D01*
X84450000Y-137560000D01*
G36*
X136700000Y-84930000D02*
G01*
X133120000Y-84930000D01*
X133120000Y-82620000D01*
X136700000Y-82620000D01*
X136700000Y-84930000D01*
G37*
X136700000Y-84930000D02*
X133120000Y-84930000D01*
X133120000Y-82620000D01*
X136700000Y-82620000D01*
X136700000Y-84930000D01*
G36*
X138300000Y-83940000D02*
G01*
X138390000Y-82880000D01*
X139360000Y-82880000D01*
X138300000Y-83940000D01*
G37*
X138300000Y-83940000D02*
X138390000Y-82880000D01*
X139360000Y-82880000D01*
X138300000Y-83940000D01*
G36*
X130500000Y-87850000D02*
G01*
X128230000Y-87330000D01*
X128210000Y-85630000D01*
X130500000Y-85630000D01*
X130500000Y-87850000D01*
G37*
X130500000Y-87850000D02*
X128230000Y-87330000D01*
X128210000Y-85630000D01*
X130500000Y-85630000D01*
X130500000Y-87850000D01*
G36*
X142280000Y-102000000D02*
G01*
X140490000Y-102000000D01*
X139930000Y-102560000D01*
X139810000Y-102560000D01*
X139810000Y-95500000D01*
X142280000Y-95500000D01*
X142280000Y-102000000D01*
G37*
X142280000Y-102000000D02*
X140490000Y-102000000D01*
X139930000Y-102560000D01*
X139810000Y-102560000D01*
X139810000Y-95500000D01*
X142280000Y-95500000D01*
X142280000Y-102000000D01*
G36*
X130350000Y-85730000D02*
G01*
X127960000Y-85730000D01*
X127960000Y-82180000D01*
X130350000Y-82180000D01*
X130350000Y-85730000D01*
G37*
X130350000Y-85730000D02*
X127960000Y-85730000D01*
X127960000Y-82180000D01*
X130350000Y-82180000D01*
X130350000Y-85730000D01*
G36*
X142560000Y-87590000D02*
G01*
X140870000Y-89280000D01*
X136730000Y-85200000D01*
X136580000Y-81540000D01*
X142560000Y-87590000D01*
G37*
X142560000Y-87590000D02*
X140870000Y-89280000D01*
X136730000Y-85200000D01*
X136580000Y-81540000D01*
X142560000Y-87590000D01*
G36*
X91590000Y-105470000D02*
G01*
X83590000Y-113470000D01*
X82065000Y-111945000D01*
X90065000Y-103945000D01*
X91590000Y-105470000D01*
G37*
X91590000Y-105470000D02*
X83590000Y-113470000D01*
X82065000Y-111945000D01*
X90065000Y-103945000D01*
X91590000Y-105470000D01*
G36*
X139680000Y-83150000D02*
G01*
X137100000Y-83150000D01*
X137100000Y-76470000D01*
X139680000Y-76470000D01*
X139680000Y-83150000D01*
G37*
X139680000Y-83150000D02*
X137100000Y-83150000D01*
X137100000Y-76470000D01*
X139680000Y-76470000D01*
X139680000Y-83150000D01*
G36*
X142430000Y-66440000D02*
G01*
X140070000Y-66440000D01*
X140070000Y-58550000D01*
X142430000Y-58550000D01*
X142430000Y-66440000D01*
G37*
X142430000Y-66440000D02*
X140070000Y-66440000D01*
X140070000Y-58550000D01*
X142430000Y-58550000D01*
X142430000Y-66440000D01*
G36*
X144427952Y-104311931D02*
G01*
X142692032Y-106035972D01*
X139770000Y-102950000D01*
X139785920Y-99925959D01*
X144427952Y-104311931D01*
G37*
X144427952Y-104311931D02*
X142692032Y-106035972D01*
X139770000Y-102950000D01*
X139785920Y-99925959D01*
X144427952Y-104311931D01*
G36*
X144960000Y-121810000D02*
G01*
X142620000Y-121810000D01*
X142620000Y-103740000D01*
X144960000Y-103740000D01*
X144960000Y-121810000D01*
G37*
X144960000Y-121810000D02*
X142620000Y-121810000D01*
X142620000Y-103740000D01*
X144960000Y-103740000D01*
X144960000Y-121810000D01*
G36*
X130700000Y-68190000D02*
G01*
X130670000Y-75020000D01*
X128360000Y-75020000D01*
X128360000Y-66050000D01*
X130700000Y-68190000D01*
G37*
X130700000Y-68190000D02*
X130670000Y-75020000D01*
X128360000Y-75020000D01*
X128360000Y-66050000D01*
X130700000Y-68190000D01*
G36*
X91390000Y-105920000D02*
G01*
X89250000Y-105920000D01*
X89250000Y-97940000D01*
X91390000Y-97940000D01*
X91390000Y-105920000D01*
G37*
X91390000Y-105920000D02*
X89250000Y-105920000D01*
X89250000Y-97940000D01*
X91390000Y-97940000D01*
X91390000Y-105920000D01*
G36*
X142340000Y-66330000D02*
G01*
X138356483Y-70295307D01*
X136826483Y-68395307D01*
X138970000Y-66280000D01*
X140590000Y-64810000D01*
X142340000Y-66330000D01*
G37*
X142340000Y-66330000D02*
X138356483Y-70295307D01*
X136826483Y-68395307D01*
X138970000Y-66280000D01*
X140590000Y-64810000D01*
X142340000Y-66330000D01*
G36*
X128420000Y-69000000D02*
G01*
X128390000Y-69000000D01*
X127890000Y-68500000D01*
X127890000Y-65840000D01*
X128420000Y-65840000D01*
X128420000Y-69000000D01*
G37*
X128420000Y-69000000D02*
X128390000Y-69000000D01*
X127890000Y-68500000D01*
X127890000Y-65840000D01*
X128420000Y-65840000D01*
X128420000Y-69000000D01*
G36*
X84450000Y-137560000D02*
G01*
X82130000Y-137560000D01*
X82130000Y-111670000D01*
X84450000Y-111670000D01*
X84450000Y-137560000D01*
G37*
X84450000Y-137560000D02*
X82130000Y-137560000D01*
X82130000Y-111670000D01*
X84450000Y-111670000D01*
X84450000Y-137560000D01*
G36*
X136700000Y-84930000D02*
G01*
X133120000Y-84930000D01*
X133120000Y-82620000D01*
X136700000Y-82620000D01*
X136700000Y-84930000D01*
G37*
X136700000Y-84930000D02*
X133120000Y-84930000D01*
X133120000Y-82620000D01*
X136700000Y-82620000D01*
X136700000Y-84930000D01*
G36*
X138300000Y-83940000D02*
G01*
X138390000Y-82880000D01*
X139360000Y-82880000D01*
X138300000Y-83940000D01*
G37*
X138300000Y-83940000D02*
X138390000Y-82880000D01*
X139360000Y-82880000D01*
X138300000Y-83940000D01*
G36*
X130500000Y-87850000D02*
G01*
X128230000Y-87330000D01*
X128210000Y-85630000D01*
X130500000Y-85630000D01*
X130500000Y-87850000D01*
G37*
X130500000Y-87850000D02*
X128230000Y-87330000D01*
X128210000Y-85630000D01*
X130500000Y-85630000D01*
X130500000Y-87850000D01*
G36*
X142280000Y-102000000D02*
G01*
X140490000Y-102000000D01*
X139930000Y-102560000D01*
X139810000Y-102560000D01*
X139810000Y-95500000D01*
X142280000Y-95500000D01*
X142280000Y-102000000D01*
G37*
X142280000Y-102000000D02*
X140490000Y-102000000D01*
X139930000Y-102560000D01*
X139810000Y-102560000D01*
X139810000Y-95500000D01*
X142280000Y-95500000D01*
X142280000Y-102000000D01*
G36*
X130350000Y-85730000D02*
G01*
X127960000Y-85730000D01*
X127960000Y-82180000D01*
X130350000Y-82180000D01*
X130350000Y-85730000D01*
G37*
X130350000Y-85730000D02*
X127960000Y-85730000D01*
X127960000Y-82180000D01*
X130350000Y-82180000D01*
X130350000Y-85730000D01*
G36*
X142560000Y-87590000D02*
G01*
X140870000Y-89280000D01*
X136730000Y-85200000D01*
X136580000Y-81540000D01*
X142560000Y-87590000D01*
G37*
X142560000Y-87590000D02*
X140870000Y-89280000D01*
X136730000Y-85200000D01*
X136580000Y-81540000D01*
X142560000Y-87590000D01*
D11*
X86360000Y-80405000D03*
X86360000Y-82155000D03*
D12*
X81805000Y-89245000D03*
X81805000Y-106335000D03*
D13*
X96520000Y-94050000D03*
X96520000Y-101530000D03*
D14*
X146810000Y-105410000D03*
X143810000Y-105410000D03*
D15*
X151130000Y-105410000D03*
D16*
X142448606Y-129458684D03*
D17*
X142448606Y-131998684D03*
X142448606Y-134538684D03*
X142448606Y-137078684D03*
D14*
X146810000Y-120650000D03*
X143810000Y-120650000D03*
D15*
X151130000Y-120650000D03*
D18*
X117595080Y-78135920D03*
D19*
X119795080Y-76535920D03*
X119795080Y-74035920D03*
D18*
X79070900Y-85590820D03*
D19*
X81270900Y-83990820D03*
X81270900Y-81490820D03*
D14*
X83060000Y-112776000D03*
X86060000Y-112776000D03*
D15*
X78740000Y-112776000D03*
D14*
X83060000Y-120396000D03*
X86060000Y-120396000D03*
D15*
X78740000Y-120396000D03*
D14*
X83302924Y-128270000D03*
X86302924Y-128270000D03*
D15*
X78982924Y-128270000D03*
D14*
X83302924Y-136398000D03*
X86302924Y-136398000D03*
D15*
X78982924Y-136398000D03*
D20*
X126605000Y-72390000D03*
X124855000Y-72390000D03*
D21*
X116428520Y-91800680D03*
D22*
X116428520Y-89260680D03*
X116428520Y-86720680D03*
D23*
X78740000Y-144780000D03*
D17*
X78740000Y-142240000D03*
X81280000Y-144780000D03*
X81280000Y-142240000D03*
X83820000Y-144780000D03*
X83820000Y-142240000D03*
X86360000Y-144780000D03*
X86360000Y-142240000D03*
X88900000Y-144780000D03*
X88900000Y-142240000D03*
X91440000Y-144780000D03*
X91440000Y-142240000D03*
X93980000Y-144780000D03*
X93980000Y-142240000D03*
X96520000Y-144780000D03*
X96520000Y-142240000D03*
X99060000Y-144780000D03*
X99060000Y-142240000D03*
X101600000Y-144780000D03*
X101600000Y-142240000D03*
X104140000Y-144780000D03*
X104140000Y-142240000D03*
X106680000Y-144780000D03*
X106680000Y-142240000D03*
X109220000Y-144780000D03*
X109220000Y-142240000D03*
D24*
X104535000Y-119380000D03*
X106285000Y-119380000D03*
D25*
X145064806Y-132139624D03*
X145064806Y-130389624D03*
D18*
X106160000Y-106970000D03*
D19*
X108360000Y-105370000D03*
X108360000Y-102870000D03*
D18*
X99350000Y-114820000D03*
D19*
X97750000Y-112620000D03*
X95250000Y-112620000D03*
D18*
X99350000Y-122440000D03*
D19*
X97750000Y-120240000D03*
X95250000Y-120240000D03*
D25*
X103505000Y-129145000D03*
X103505000Y-127395000D03*
D14*
X146810000Y-113030000D03*
X143810000Y-113030000D03*
D15*
X151130000Y-113030000D03*
D26*
X145289999Y-94479999D03*
X145289999Y-89780008D03*
D27*
X140970000Y-87630000D03*
D28*
X140970000Y-90629999D03*
X140970000Y-93629998D03*
X140970000Y-96629997D03*
D14*
X144270000Y-59690000D03*
X141270000Y-59690000D03*
D15*
X148590000Y-59690000D03*
D24*
X124855000Y-90170000D03*
X126605000Y-90170000D03*
D25*
X123190000Y-83425000D03*
X123190000Y-81675000D03*
D29*
X101920000Y-124390000D03*
X103820000Y-124390000D03*
X102870000Y-121990000D03*
D30*
X106464100Y-94871640D03*
X106464100Y-93296640D03*
D31*
X106550360Y-84411820D03*
X108125360Y-84411820D03*
D32*
X149283420Y-150540720D03*
X80647540Y-51396900D03*
X80639920Y-151117300D03*
X148559520Y-51513740D03*
D33*
X98425000Y-83980000D03*
X99695000Y-83980000D03*
X100965000Y-83980000D03*
X102235000Y-83980000D03*
X102235000Y-78580000D03*
X100965000Y-78580000D03*
X99695000Y-78580000D03*
X98425000Y-78580000D03*
D34*
X131488160Y-87642700D03*
X131488160Y-86372700D03*
X131488160Y-85102700D03*
X131488160Y-83832700D03*
X126088160Y-83832700D03*
X126088160Y-85102700D03*
X126088160Y-86372700D03*
X126088160Y-87642700D03*
D35*
X130120520Y-78343240D03*
X129460520Y-78343240D03*
X128800520Y-78343240D03*
X128140520Y-78343240D03*
D36*
X128140520Y-81453240D03*
X128800520Y-81453240D03*
X129460520Y-81453240D03*
X130120520Y-81453240D03*
D37*
X129130520Y-80336240D03*
D38*
X127972520Y-81073240D03*
X130284520Y-81073240D03*
D35*
X94032000Y-80404000D03*
X93372000Y-80404000D03*
X92712000Y-80404000D03*
X92052000Y-80404000D03*
D36*
X92052000Y-83514000D03*
X92712000Y-83514000D03*
X93372000Y-83514000D03*
X94032000Y-83514000D03*
D37*
X93042000Y-82397000D03*
D38*
X91884000Y-83134000D03*
X94196000Y-83134000D03*
D39*
X121735000Y-149730000D03*
D40*
X126885000Y-146700000D03*
D39*
X127185000Y-149730000D03*
D40*
X122035000Y-146700000D03*
D41*
X134250000Y-149860000D03*
D17*
X133350000Y-149860000D03*
X133350000Y-147320000D03*
D41*
X134250000Y-147320000D03*
D42*
X133350000Y-144780000D03*
D41*
X134250000Y-144780000D03*
X134250000Y-142240000D03*
D17*
X133350000Y-142240000D03*
D41*
X134250000Y-139700000D03*
D17*
X133350000Y-139700000D03*
D41*
X134250000Y-137160000D03*
D17*
X133350000Y-137160000D03*
D41*
X134250000Y-134620000D03*
D17*
X133350000Y-134620000D03*
D41*
X134250000Y-132080000D03*
D42*
X133350000Y-132080000D03*
D41*
X134250000Y-129540000D03*
D17*
X133350000Y-129540000D03*
D41*
X134250000Y-127000000D03*
D17*
X133350000Y-127000000D03*
X133350000Y-124460000D03*
D41*
X134250000Y-124460000D03*
D17*
X133350000Y-121920000D03*
D41*
X134250000Y-121920000D03*
D42*
X133350000Y-119380000D03*
D41*
X134250000Y-119380000D03*
X134250000Y-116840000D03*
D17*
X133350000Y-116840000D03*
X133350000Y-114300000D03*
D41*
X134250000Y-114300000D03*
X134250000Y-111760000D03*
D17*
X133350000Y-111760000D03*
X133350000Y-109220000D03*
D41*
X134250000Y-109220000D03*
D42*
X133350000Y-106680000D03*
D41*
X134250000Y-106680000D03*
D17*
X133350000Y-104140000D03*
D41*
X134250000Y-104140000D03*
X134250000Y-101600000D03*
D17*
X133350000Y-101600000D03*
D41*
X114670000Y-101600000D03*
D17*
X115570000Y-101600000D03*
D41*
X114670000Y-104140000D03*
D17*
X115570000Y-104140000D03*
D41*
X114670000Y-106680000D03*
D42*
X115570000Y-106680000D03*
D17*
X115570000Y-109220000D03*
D41*
X114670000Y-109220000D03*
D17*
X115570000Y-111760000D03*
D41*
X114670000Y-111760000D03*
X114670000Y-114300000D03*
D17*
X115570000Y-114300000D03*
X115570000Y-116840000D03*
D41*
X114670000Y-116840000D03*
X114670000Y-119380000D03*
D42*
X115570000Y-119380000D03*
D41*
X114670000Y-121920000D03*
D17*
X115570000Y-121920000D03*
D41*
X114670000Y-124460000D03*
D17*
X115570000Y-124460000D03*
X115570000Y-127000000D03*
D41*
X114670000Y-127000000D03*
D17*
X115570000Y-129540000D03*
D41*
X114670000Y-129540000D03*
X114670000Y-132080000D03*
D42*
X115570000Y-132080000D03*
D17*
X115570000Y-134620000D03*
D41*
X114670000Y-134620000D03*
X114670000Y-137160000D03*
D17*
X115570000Y-137160000D03*
D41*
X114670000Y-139700000D03*
D17*
X115570000Y-139700000D03*
X115570000Y-142240000D03*
D41*
X114670000Y-142240000D03*
X114670000Y-144780000D03*
D42*
X115570000Y-144780000D03*
D41*
X114670000Y-147320000D03*
D17*
X115570000Y-147320000D03*
D41*
X114670000Y-149860000D03*
D17*
X115570000Y-149860000D03*
D43*
X127000000Y-100930000D03*
D17*
X127000000Y-101830000D03*
D43*
X124460000Y-100930000D03*
D42*
X124460000Y-101830000D03*
D43*
X121920000Y-100930000D03*
D17*
X121920000Y-101830000D03*
D44*
X146560406Y-133638444D03*
X146560406Y-134138444D03*
X146825406Y-134653444D03*
X147325406Y-134653444D03*
X147825406Y-134653444D03*
X148090406Y-134138444D03*
X148090406Y-133638444D03*
X147825406Y-133123444D03*
X147325406Y-133123444D03*
X146825406Y-133123444D03*
D45*
X108950001Y-72713850D03*
X108449999Y-72713850D03*
X107950000Y-72713850D03*
X107450001Y-72713850D03*
X106949999Y-72713850D03*
X106949999Y-77146150D03*
X107450001Y-77146150D03*
X107950000Y-77146150D03*
X108449999Y-77146150D03*
X108950001Y-77146150D03*
D26*
X142749999Y-70730008D03*
X142749999Y-75429999D03*
D27*
X138430000Y-68580000D03*
D28*
X138430000Y-71579999D03*
X138430000Y-74579998D03*
X138430000Y-77579997D03*
D18*
X99350000Y-137680000D03*
D19*
X97750000Y-135480000D03*
X95250000Y-135480000D03*
D18*
X99350000Y-130060000D03*
D19*
X97750000Y-127860000D03*
X95250000Y-127860000D03*
D12*
X87975000Y-51325000D03*
X105065000Y-51325000D03*
D46*
X100260000Y-66040000D03*
X92780000Y-66040000D03*
D12*
X131735000Y-51325000D03*
X114645000Y-51325000D03*
D46*
X126930000Y-66040000D03*
X119450000Y-66040000D03*
D47*
X102235000Y-119135000D03*
X102235000Y-117085000D03*
D11*
X106545380Y-86254620D03*
X106545380Y-88004620D03*
D20*
X129145000Y-75417680D03*
X127395000Y-75417680D03*
D25*
X101600000Y-129780000D03*
X101600000Y-128030000D03*
D20*
X131290000Y-90170000D03*
X129540000Y-90170000D03*
D24*
X145388686Y-136339544D03*
X147138686Y-136339544D03*
X104791540Y-90043000D03*
X106541540Y-90043000D03*
D25*
X107810300Y-81606360D03*
X107810300Y-79856360D03*
D20*
X106466580Y-91612720D03*
X104716580Y-91612720D03*
D24*
X129663220Y-92217240D03*
X131413220Y-92217240D03*
D11*
X88900000Y-77865000D03*
X88900000Y-79615000D03*
D48*
X106197500Y-117475000D03*
X104622500Y-117475000D03*
X131262220Y-94043500D03*
X129687220Y-94043500D03*
D11*
X122864880Y-87461120D03*
X122864880Y-89211120D03*
D20*
X116767580Y-82671920D03*
X115017580Y-82671920D03*
X116798060Y-80711040D03*
X115048060Y-80711040D03*
X116930140Y-96278700D03*
X115180140Y-96278700D03*
X148746506Y-138965904D03*
X146996506Y-138965904D03*
X101837460Y-74081640D03*
X100087460Y-74081640D03*
D24*
X98185000Y-76200000D03*
X99935000Y-76200000D03*
G36*
X147541934Y-134421113D02*
G01*
X147543075Y-134419813D01*
X147544315Y-134419798D01*
X147573197Y-134428841D01*
X147606392Y-134419094D01*
X147608335Y-134419566D01*
X147608917Y-134420623D01*
X147609010Y-134421088D01*
X147625279Y-134417852D01*
X147627173Y-134418495D01*
X147627563Y-134420457D01*
X147626780Y-134421477D01*
X147615786Y-134428824D01*
X147605173Y-134444706D01*
X147601406Y-134463643D01*
X147601406Y-134843245D01*
X147605173Y-134862182D01*
X147615786Y-134878064D01*
X147626782Y-134885412D01*
X147627667Y-134887206D01*
X147626556Y-134888869D01*
X147625281Y-134889037D01*
X147608878Y-134885775D01*
X147607737Y-134887075D01*
X147606497Y-134887090D01*
X147577615Y-134878047D01*
X147544420Y-134887794D01*
X147542477Y-134887322D01*
X147541895Y-134886265D01*
X147541802Y-134885800D01*
X147525533Y-134889036D01*
X147523639Y-134888393D01*
X147523249Y-134886431D01*
X147524032Y-134885411D01*
X147535026Y-134878064D01*
X147545639Y-134862182D01*
X147549406Y-134843245D01*
X147549406Y-134463643D01*
X147545639Y-134444706D01*
X147535026Y-134428824D01*
X147524030Y-134421476D01*
X147523145Y-134419682D01*
X147524256Y-134418019D01*
X147525531Y-134417851D01*
X147541934Y-134421113D01*
G37*
G36*
X147041934Y-134421113D02*
G01*
X147043075Y-134419813D01*
X147044315Y-134419798D01*
X147073197Y-134428841D01*
X147106392Y-134419094D01*
X147108335Y-134419566D01*
X147108917Y-134420623D01*
X147109010Y-134421088D01*
X147125279Y-134417852D01*
X147127173Y-134418495D01*
X147127563Y-134420457D01*
X147126780Y-134421477D01*
X147115786Y-134428824D01*
X147105173Y-134444706D01*
X147101406Y-134463643D01*
X147101406Y-134843245D01*
X147105173Y-134862182D01*
X147115786Y-134878064D01*
X147126782Y-134885412D01*
X147127667Y-134887206D01*
X147126556Y-134888869D01*
X147125281Y-134889037D01*
X147108878Y-134885775D01*
X147107737Y-134887075D01*
X147106497Y-134887090D01*
X147077615Y-134878047D01*
X147044420Y-134887794D01*
X147042477Y-134887322D01*
X147041895Y-134886265D01*
X147041802Y-134885800D01*
X147025533Y-134889036D01*
X147023639Y-134888393D01*
X147023249Y-134886431D01*
X147024032Y-134885411D01*
X147035026Y-134878064D01*
X147045639Y-134862182D01*
X147049406Y-134843245D01*
X147049406Y-134463643D01*
X147045639Y-134444706D01*
X147035026Y-134428824D01*
X147024030Y-134421476D01*
X147023145Y-134419682D01*
X147024256Y-134418019D01*
X147025531Y-134417851D01*
X147041934Y-134421113D01*
G37*
G36*
X147865751Y-134285971D02*
G01*
X147866406Y-134287451D01*
X147866406Y-134328245D01*
X147870173Y-134347182D01*
X147880786Y-134363064D01*
X147896668Y-134373677D01*
X147915605Y-134377444D01*
X148176401Y-134377444D01*
X148178133Y-134378444D01*
X148178133Y-134380444D01*
X148176964Y-134381363D01*
X148109952Y-134401039D01*
X148064546Y-134453442D01*
X148053360Y-134504862D01*
X148052015Y-134506342D01*
X148050061Y-134505917D01*
X148049406Y-134504437D01*
X148049406Y-134463643D01*
X148045639Y-134444706D01*
X148035026Y-134428824D01*
X148019144Y-134418211D01*
X148000207Y-134414444D01*
X147739411Y-134414444D01*
X147737679Y-134413444D01*
X147737679Y-134411444D01*
X147738848Y-134410525D01*
X147805860Y-134390849D01*
X147851266Y-134338446D01*
X147862452Y-134287026D01*
X147863797Y-134285546D01*
X147865751Y-134285971D01*
G37*
G36*
X146788325Y-134286883D02*
G01*
X146808002Y-134353897D01*
X146860405Y-134399303D01*
X146911830Y-134410490D01*
X146913310Y-134411835D01*
X146912885Y-134413789D01*
X146911405Y-134414444D01*
X146650605Y-134414444D01*
X146631668Y-134418211D01*
X146615786Y-134428824D01*
X146605173Y-134444706D01*
X146601406Y-134463643D01*
X146601406Y-134504442D01*
X146600406Y-134506174D01*
X146598406Y-134506174D01*
X146597487Y-134505005D01*
X146577810Y-134437991D01*
X146525407Y-134392585D01*
X146473982Y-134381398D01*
X146472502Y-134380053D01*
X146472927Y-134378099D01*
X146474407Y-134377444D01*
X146735207Y-134377444D01*
X146754144Y-134373677D01*
X146770026Y-134363064D01*
X146780639Y-134347182D01*
X146784406Y-134328245D01*
X146784406Y-134287446D01*
X146785406Y-134285714D01*
X146787406Y-134285714D01*
X146788325Y-134286883D01*
G37*
G36*
X148310831Y-133852296D02*
G01*
X148310999Y-133853570D01*
X148308873Y-133864256D01*
X148308872Y-133912629D01*
X148310998Y-133923317D01*
X148310355Y-133925211D01*
X148308393Y-133925601D01*
X148307373Y-133924818D01*
X148300026Y-133913824D01*
X148284144Y-133903211D01*
X148265207Y-133899444D01*
X147915605Y-133899444D01*
X147896668Y-133903211D01*
X147880786Y-133913824D01*
X147873438Y-133924819D01*
X147871644Y-133925704D01*
X147869981Y-133924592D01*
X147869813Y-133923318D01*
X147871939Y-133912632D01*
X147871940Y-133864259D01*
X147869814Y-133853571D01*
X147870457Y-133851677D01*
X147872419Y-133851287D01*
X147873439Y-133852070D01*
X147880786Y-133863064D01*
X147896668Y-133873677D01*
X147915605Y-133877444D01*
X148265207Y-133877444D01*
X148284144Y-133873677D01*
X148300026Y-133863064D01*
X148307374Y-133852069D01*
X148309168Y-133851184D01*
X148310831Y-133852296D01*
G37*
G36*
X146780831Y-133852296D02*
G01*
X146780999Y-133853570D01*
X146778873Y-133864256D01*
X146778872Y-133912629D01*
X146780998Y-133923317D01*
X146780355Y-133925211D01*
X146778393Y-133925601D01*
X146777373Y-133924818D01*
X146770026Y-133913824D01*
X146754144Y-133903211D01*
X146735207Y-133899444D01*
X146385605Y-133899444D01*
X146366668Y-133903211D01*
X146350786Y-133913824D01*
X146343438Y-133924819D01*
X146341644Y-133925704D01*
X146339981Y-133924592D01*
X146339813Y-133923318D01*
X146341939Y-133912632D01*
X146341940Y-133864259D01*
X146339814Y-133853571D01*
X146340457Y-133851677D01*
X146342419Y-133851287D01*
X146343439Y-133852070D01*
X146350786Y-133863064D01*
X146366668Y-133873677D01*
X146385605Y-133877444D01*
X146735207Y-133877444D01*
X146754144Y-133873677D01*
X146770026Y-133863064D01*
X146777374Y-133852069D01*
X146779168Y-133851184D01*
X146780831Y-133852296D01*
G37*
G36*
X146600751Y-133270971D02*
G01*
X146601406Y-133272451D01*
X146601406Y-133313245D01*
X146605173Y-133332182D01*
X146615786Y-133348064D01*
X146631668Y-133358677D01*
X146650605Y-133362444D01*
X146911401Y-133362444D01*
X146913133Y-133363444D01*
X146913133Y-133365444D01*
X146911964Y-133366363D01*
X146844952Y-133386039D01*
X146799546Y-133438442D01*
X146788360Y-133489862D01*
X146787015Y-133491342D01*
X146785061Y-133490917D01*
X146784406Y-133489437D01*
X146784406Y-133448643D01*
X146780639Y-133429706D01*
X146770026Y-133413824D01*
X146754144Y-133403211D01*
X146735207Y-133399444D01*
X146474411Y-133399444D01*
X146472679Y-133398444D01*
X146472679Y-133396444D01*
X146473848Y-133395525D01*
X146540860Y-133375849D01*
X146586266Y-133323446D01*
X146597452Y-133272026D01*
X146598797Y-133270546D01*
X146600751Y-133270971D01*
G37*
G36*
X148053325Y-133271883D02*
G01*
X148073002Y-133338897D01*
X148125405Y-133384303D01*
X148176830Y-133395490D01*
X148178310Y-133396835D01*
X148177885Y-133398789D01*
X148176405Y-133399444D01*
X147915605Y-133399444D01*
X147896668Y-133403211D01*
X147880786Y-133413824D01*
X147870173Y-133429706D01*
X147866406Y-133448643D01*
X147866406Y-133489442D01*
X147865406Y-133491174D01*
X147863406Y-133491174D01*
X147862487Y-133490005D01*
X147842810Y-133422991D01*
X147790407Y-133377585D01*
X147738982Y-133366398D01*
X147737502Y-133365053D01*
X147737927Y-133363099D01*
X147739407Y-133362444D01*
X148000207Y-133362444D01*
X148019144Y-133358677D01*
X148035026Y-133348064D01*
X148045639Y-133332182D01*
X148049406Y-133313245D01*
X148049406Y-133272446D01*
X148050406Y-133270714D01*
X148052406Y-133270714D01*
X148053325Y-133271883D01*
G37*
G36*
X147041934Y-132891113D02*
G01*
X147043075Y-132889813D01*
X147044315Y-132889798D01*
X147073197Y-132898841D01*
X147106392Y-132889094D01*
X147108335Y-132889566D01*
X147108917Y-132890623D01*
X147109010Y-132891088D01*
X147125279Y-132887852D01*
X147127173Y-132888495D01*
X147127563Y-132890457D01*
X147126780Y-132891477D01*
X147115786Y-132898824D01*
X147105173Y-132914706D01*
X147101406Y-132933643D01*
X147101406Y-133313245D01*
X147105173Y-133332182D01*
X147115786Y-133348064D01*
X147126782Y-133355412D01*
X147127667Y-133357206D01*
X147126556Y-133358869D01*
X147125281Y-133359037D01*
X147108878Y-133355775D01*
X147107737Y-133357075D01*
X147106497Y-133357090D01*
X147077615Y-133348047D01*
X147044420Y-133357794D01*
X147042477Y-133357322D01*
X147041895Y-133356265D01*
X147041802Y-133355800D01*
X147025533Y-133359036D01*
X147023639Y-133358393D01*
X147023249Y-133356431D01*
X147024032Y-133355411D01*
X147035026Y-133348064D01*
X147045639Y-133332182D01*
X147049406Y-133313245D01*
X147049406Y-132933643D01*
X147045639Y-132914706D01*
X147035026Y-132898824D01*
X147024030Y-132891476D01*
X147023145Y-132889682D01*
X147024256Y-132888019D01*
X147025531Y-132887851D01*
X147041934Y-132891113D01*
G37*
G36*
X147541934Y-132891113D02*
G01*
X147543075Y-132889813D01*
X147544315Y-132889798D01*
X147573197Y-132898841D01*
X147606392Y-132889094D01*
X147608335Y-132889566D01*
X147608917Y-132890623D01*
X147609010Y-132891088D01*
X147625279Y-132887852D01*
X147627173Y-132888495D01*
X147627563Y-132890457D01*
X147626780Y-132891477D01*
X147615786Y-132898824D01*
X147605173Y-132914706D01*
X147601406Y-132933643D01*
X147601406Y-133313245D01*
X147605173Y-133332182D01*
X147615786Y-133348064D01*
X147626782Y-133355412D01*
X147627667Y-133357206D01*
X147626556Y-133358869D01*
X147625281Y-133359037D01*
X147608878Y-133355775D01*
X147607737Y-133357075D01*
X147606497Y-133357090D01*
X147577615Y-133348047D01*
X147544420Y-133357794D01*
X147542477Y-133357322D01*
X147541895Y-133356265D01*
X147541802Y-133355800D01*
X147525533Y-133359036D01*
X147523639Y-133358393D01*
X147523249Y-133356431D01*
X147524032Y-133355411D01*
X147535026Y-133348064D01*
X147545639Y-133332182D01*
X147549406Y-133313245D01*
X147549406Y-132933643D01*
X147545639Y-132914706D01*
X147535026Y-132898824D01*
X147524030Y-132891476D01*
X147523145Y-132889682D01*
X147524256Y-132888019D01*
X147525531Y-132887851D01*
X147541934Y-132891113D01*
G37*
G36*
X92460232Y-83309500D02*
G01*
X92460500Y-83310500D01*
X92460500Y-83768801D01*
X92464267Y-83787738D01*
X92471614Y-83798733D01*
X92471745Y-83800729D01*
X92470082Y-83801840D01*
X92468840Y-83801507D01*
X92455048Y-83792291D01*
X92454594Y-83792970D01*
X92452800Y-83793855D01*
X92451648Y-83793394D01*
X92431059Y-83776186D01*
X92362344Y-83767552D01*
X92310922Y-83792151D01*
X92309344Y-83792029D01*
X92304841Y-83795038D01*
X92304593Y-83795179D01*
X92299712Y-83797514D01*
X92297932Y-83799569D01*
X92297532Y-83799923D01*
X92295161Y-83801508D01*
X92293165Y-83801639D01*
X92292053Y-83799976D01*
X92292386Y-83798734D01*
X92299733Y-83787738D01*
X92303500Y-83768801D01*
X92303500Y-83310500D01*
X92304500Y-83308768D01*
X92305500Y-83308500D01*
X92458500Y-83308500D01*
X92460232Y-83309500D01*
G37*
G36*
X93780232Y-83309500D02*
G01*
X93780500Y-83310500D01*
X93780500Y-83768801D01*
X93784267Y-83787738D01*
X93791614Y-83798733D01*
X93791745Y-83800729D01*
X93790082Y-83801840D01*
X93788840Y-83801507D01*
X93775048Y-83792291D01*
X93774594Y-83792970D01*
X93772800Y-83793855D01*
X93771648Y-83793394D01*
X93751059Y-83776186D01*
X93682344Y-83767552D01*
X93630922Y-83792151D01*
X93629344Y-83792029D01*
X93624841Y-83795038D01*
X93624593Y-83795179D01*
X93619712Y-83797514D01*
X93617932Y-83799569D01*
X93617532Y-83799923D01*
X93615161Y-83801508D01*
X93613165Y-83801639D01*
X93612053Y-83799976D01*
X93612386Y-83798734D01*
X93619733Y-83787738D01*
X93623500Y-83768801D01*
X93623500Y-83310500D01*
X93624500Y-83308768D01*
X93625500Y-83308500D01*
X93778500Y-83308500D01*
X93780232Y-83309500D01*
G37*
G36*
X93120232Y-83309500D02*
G01*
X93120500Y-83310500D01*
X93120500Y-83768801D01*
X93124267Y-83787738D01*
X93131614Y-83798733D01*
X93131745Y-83800729D01*
X93130082Y-83801840D01*
X93128840Y-83801507D01*
X93115048Y-83792291D01*
X93114594Y-83792970D01*
X93112800Y-83793855D01*
X93111648Y-83793394D01*
X93091059Y-83776186D01*
X93022344Y-83767552D01*
X92970922Y-83792151D01*
X92969344Y-83792029D01*
X92964841Y-83795038D01*
X92964593Y-83795179D01*
X92959712Y-83797514D01*
X92957932Y-83799569D01*
X92957532Y-83799923D01*
X92955161Y-83801508D01*
X92953165Y-83801639D01*
X92952053Y-83799976D01*
X92952386Y-83798734D01*
X92959733Y-83787738D01*
X92963500Y-83768801D01*
X92963500Y-83310500D01*
X92964500Y-83308768D01*
X92965500Y-83308500D01*
X93118500Y-83308500D01*
X93120232Y-83309500D01*
G37*
G36*
X129208752Y-81248740D02*
G01*
X129209020Y-81249740D01*
X129209020Y-81708041D01*
X129212787Y-81726978D01*
X129220134Y-81737973D01*
X129220265Y-81739969D01*
X129218602Y-81741080D01*
X129217360Y-81740747D01*
X129203568Y-81731531D01*
X129203114Y-81732210D01*
X129201320Y-81733095D01*
X129200168Y-81732634D01*
X129179579Y-81715426D01*
X129110864Y-81706792D01*
X129059442Y-81731391D01*
X129057864Y-81731269D01*
X129053361Y-81734278D01*
X129053113Y-81734419D01*
X129048232Y-81736754D01*
X129046452Y-81738809D01*
X129046052Y-81739163D01*
X129043681Y-81740748D01*
X129041685Y-81740879D01*
X129040573Y-81739216D01*
X129040906Y-81737974D01*
X129048253Y-81726978D01*
X129052020Y-81708041D01*
X129052020Y-81249740D01*
X129053020Y-81248008D01*
X129054020Y-81247740D01*
X129207020Y-81247740D01*
X129208752Y-81248740D01*
G37*
G36*
X129868752Y-81248740D02*
G01*
X129869020Y-81249740D01*
X129869020Y-81708041D01*
X129872787Y-81726978D01*
X129880134Y-81737973D01*
X129880265Y-81739969D01*
X129878602Y-81741080D01*
X129877360Y-81740747D01*
X129863568Y-81731531D01*
X129863114Y-81732210D01*
X129861320Y-81733095D01*
X129860168Y-81732634D01*
X129839579Y-81715426D01*
X129770864Y-81706792D01*
X129719442Y-81731391D01*
X129717864Y-81731269D01*
X129713361Y-81734278D01*
X129713113Y-81734419D01*
X129708232Y-81736754D01*
X129706452Y-81738809D01*
X129706052Y-81739163D01*
X129703681Y-81740748D01*
X129701685Y-81740879D01*
X129700573Y-81739216D01*
X129700906Y-81737974D01*
X129708253Y-81726978D01*
X129712020Y-81708041D01*
X129712020Y-81249740D01*
X129713020Y-81248008D01*
X129714020Y-81247740D01*
X129867020Y-81247740D01*
X129868752Y-81248740D01*
G37*
G36*
X128548752Y-81248740D02*
G01*
X128549020Y-81249740D01*
X128549020Y-81708041D01*
X128552787Y-81726978D01*
X128560134Y-81737973D01*
X128560265Y-81739969D01*
X128558602Y-81741080D01*
X128557360Y-81740747D01*
X128543568Y-81731531D01*
X128543114Y-81732210D01*
X128541320Y-81733095D01*
X128540168Y-81732634D01*
X128519579Y-81715426D01*
X128450864Y-81706792D01*
X128399442Y-81731391D01*
X128397864Y-81731269D01*
X128393361Y-81734278D01*
X128393113Y-81734419D01*
X128388232Y-81736754D01*
X128386452Y-81738809D01*
X128386052Y-81739163D01*
X128383681Y-81740748D01*
X128381685Y-81740879D01*
X128380573Y-81739216D01*
X128380906Y-81737974D01*
X128388253Y-81726978D01*
X128392020Y-81708041D01*
X128392020Y-81249740D01*
X128393020Y-81248008D01*
X128394020Y-81247740D01*
X128547020Y-81247740D01*
X128548752Y-81248740D01*
G37*
G36*
X93615160Y-79876493D02*
G01*
X93628952Y-79885709D01*
X93629406Y-79885030D01*
X93631200Y-79884145D01*
X93632352Y-79884606D01*
X93652941Y-79901814D01*
X93721656Y-79910448D01*
X93773078Y-79885849D01*
X93774656Y-79885971D01*
X93779159Y-79882962D01*
X93779407Y-79882821D01*
X93784288Y-79880486D01*
X93786068Y-79878431D01*
X93786468Y-79878077D01*
X93788839Y-79876492D01*
X93790835Y-79876361D01*
X93791947Y-79878024D01*
X93791614Y-79879266D01*
X93784267Y-79890262D01*
X93780500Y-79909199D01*
X93780500Y-80898801D01*
X93784267Y-80917738D01*
X93791614Y-80928733D01*
X93791745Y-80930729D01*
X93790082Y-80931840D01*
X93788840Y-80931507D01*
X93775048Y-80922291D01*
X93774594Y-80922970D01*
X93772800Y-80923855D01*
X93771648Y-80923394D01*
X93751059Y-80906186D01*
X93682344Y-80897552D01*
X93630922Y-80922151D01*
X93629344Y-80922029D01*
X93624841Y-80925038D01*
X93624593Y-80925179D01*
X93619712Y-80927514D01*
X93617932Y-80929569D01*
X93617532Y-80929923D01*
X93615161Y-80931508D01*
X93613165Y-80931639D01*
X93612053Y-80929976D01*
X93612386Y-80928734D01*
X93619733Y-80917738D01*
X93623500Y-80898801D01*
X93623500Y-79909199D01*
X93619733Y-79890262D01*
X93612386Y-79879267D01*
X93612255Y-79877271D01*
X93613918Y-79876160D01*
X93615160Y-79876493D01*
G37*
G36*
X92955160Y-79876493D02*
G01*
X92968952Y-79885709D01*
X92969406Y-79885030D01*
X92971200Y-79884145D01*
X92972352Y-79884606D01*
X92992941Y-79901814D01*
X93061656Y-79910448D01*
X93113078Y-79885849D01*
X93114656Y-79885971D01*
X93119159Y-79882962D01*
X93119407Y-79882821D01*
X93124288Y-79880486D01*
X93126068Y-79878431D01*
X93126468Y-79878077D01*
X93128839Y-79876492D01*
X93130835Y-79876361D01*
X93131947Y-79878024D01*
X93131614Y-79879266D01*
X93124267Y-79890262D01*
X93120500Y-79909199D01*
X93120500Y-80898801D01*
X93124267Y-80917738D01*
X93131614Y-80928733D01*
X93131745Y-80930729D01*
X93130082Y-80931840D01*
X93128840Y-80931507D01*
X93115048Y-80922291D01*
X93114594Y-80922970D01*
X93112800Y-80923855D01*
X93111648Y-80923394D01*
X93091059Y-80906186D01*
X93022344Y-80897552D01*
X92970922Y-80922151D01*
X92969344Y-80922029D01*
X92964841Y-80925038D01*
X92964593Y-80925179D01*
X92959712Y-80927514D01*
X92957932Y-80929569D01*
X92957532Y-80929923D01*
X92955161Y-80931508D01*
X92953165Y-80931639D01*
X92952053Y-80929976D01*
X92952386Y-80928734D01*
X92959733Y-80917738D01*
X92963500Y-80898801D01*
X92963500Y-79909199D01*
X92959733Y-79890262D01*
X92952386Y-79879267D01*
X92952255Y-79877271D01*
X92953918Y-79876160D01*
X92955160Y-79876493D01*
G37*
G36*
X92295160Y-79876493D02*
G01*
X92308952Y-79885709D01*
X92309406Y-79885030D01*
X92311200Y-79884145D01*
X92312352Y-79884606D01*
X92332941Y-79901814D01*
X92401656Y-79910448D01*
X92453078Y-79885849D01*
X92454656Y-79885971D01*
X92459159Y-79882962D01*
X92459407Y-79882821D01*
X92464288Y-79880486D01*
X92466068Y-79878431D01*
X92466468Y-79878077D01*
X92468839Y-79876492D01*
X92470835Y-79876361D01*
X92471947Y-79878024D01*
X92471614Y-79879266D01*
X92464267Y-79890262D01*
X92460500Y-79909199D01*
X92460500Y-80898801D01*
X92464267Y-80917738D01*
X92471614Y-80928733D01*
X92471745Y-80930729D01*
X92470082Y-80931840D01*
X92468840Y-80931507D01*
X92455048Y-80922291D01*
X92454594Y-80922970D01*
X92452800Y-80923855D01*
X92451648Y-80923394D01*
X92431059Y-80906186D01*
X92362344Y-80897552D01*
X92310922Y-80922151D01*
X92309344Y-80922029D01*
X92304841Y-80925038D01*
X92304593Y-80925179D01*
X92299712Y-80927514D01*
X92297932Y-80929569D01*
X92297532Y-80929923D01*
X92295161Y-80931508D01*
X92293165Y-80931639D01*
X92292053Y-80929976D01*
X92292386Y-80928734D01*
X92299733Y-80917738D01*
X92303500Y-80898801D01*
X92303500Y-79909199D01*
X92299733Y-79890262D01*
X92292386Y-79879267D01*
X92292255Y-79877271D01*
X92293918Y-79876160D01*
X92295160Y-79876493D01*
G37*
G36*
X129043680Y-77815733D02*
G01*
X129057472Y-77824949D01*
X129057926Y-77824270D01*
X129059720Y-77823385D01*
X129060872Y-77823846D01*
X129081461Y-77841054D01*
X129150176Y-77849688D01*
X129201598Y-77825089D01*
X129203176Y-77825211D01*
X129207679Y-77822202D01*
X129207927Y-77822061D01*
X129212808Y-77819726D01*
X129214588Y-77817671D01*
X129214988Y-77817317D01*
X129217359Y-77815732D01*
X129219355Y-77815601D01*
X129220467Y-77817264D01*
X129220134Y-77818506D01*
X129212787Y-77829502D01*
X129209020Y-77848439D01*
X129209020Y-78838041D01*
X129212787Y-78856978D01*
X129220134Y-78867973D01*
X129220265Y-78869969D01*
X129218602Y-78871080D01*
X129217360Y-78870747D01*
X129203568Y-78861531D01*
X129203114Y-78862210D01*
X129201320Y-78863095D01*
X129200168Y-78862634D01*
X129179579Y-78845426D01*
X129110864Y-78836792D01*
X129059442Y-78861391D01*
X129057864Y-78861269D01*
X129053361Y-78864278D01*
X129053113Y-78864419D01*
X129048232Y-78866754D01*
X129046452Y-78868809D01*
X129046052Y-78869163D01*
X129043681Y-78870748D01*
X129041685Y-78870879D01*
X129040573Y-78869216D01*
X129040906Y-78867974D01*
X129048253Y-78856978D01*
X129052020Y-78838041D01*
X129052020Y-77848439D01*
X129048253Y-77829502D01*
X129040906Y-77818507D01*
X129040775Y-77816511D01*
X129042438Y-77815400D01*
X129043680Y-77815733D01*
G37*
G36*
X128383680Y-77815733D02*
G01*
X128397472Y-77824949D01*
X128397926Y-77824270D01*
X128399720Y-77823385D01*
X128400872Y-77823846D01*
X128421461Y-77841054D01*
X128490176Y-77849688D01*
X128541598Y-77825089D01*
X128543176Y-77825211D01*
X128547679Y-77822202D01*
X128547927Y-77822061D01*
X128552808Y-77819726D01*
X128554588Y-77817671D01*
X128554988Y-77817317D01*
X128557359Y-77815732D01*
X128559355Y-77815601D01*
X128560467Y-77817264D01*
X128560134Y-77818506D01*
X128552787Y-77829502D01*
X128549020Y-77848439D01*
X128549020Y-78838041D01*
X128552787Y-78856978D01*
X128560134Y-78867973D01*
X128560265Y-78869969D01*
X128558602Y-78871080D01*
X128557360Y-78870747D01*
X128543568Y-78861531D01*
X128543114Y-78862210D01*
X128541320Y-78863095D01*
X128540168Y-78862634D01*
X128519579Y-78845426D01*
X128450864Y-78836792D01*
X128399442Y-78861391D01*
X128397864Y-78861269D01*
X128393361Y-78864278D01*
X128393113Y-78864419D01*
X128388232Y-78866754D01*
X128386452Y-78868809D01*
X128386052Y-78869163D01*
X128383681Y-78870748D01*
X128381685Y-78870879D01*
X128380573Y-78869216D01*
X128380906Y-78867974D01*
X128388253Y-78856978D01*
X128392020Y-78838041D01*
X128392020Y-77848439D01*
X128388253Y-77829502D01*
X128380906Y-77818507D01*
X128380775Y-77816511D01*
X128382438Y-77815400D01*
X128383680Y-77815733D01*
G37*
G36*
X129703680Y-77815733D02*
G01*
X129717472Y-77824949D01*
X129717926Y-77824270D01*
X129719720Y-77823385D01*
X129720872Y-77823846D01*
X129741461Y-77841054D01*
X129810176Y-77849688D01*
X129861598Y-77825089D01*
X129863176Y-77825211D01*
X129867679Y-77822202D01*
X129867927Y-77822061D01*
X129872808Y-77819726D01*
X129874588Y-77817671D01*
X129874988Y-77817317D01*
X129877359Y-77815732D01*
X129879355Y-77815601D01*
X129880467Y-77817264D01*
X129880134Y-77818506D01*
X129872787Y-77829502D01*
X129869020Y-77848439D01*
X129869020Y-78838041D01*
X129872787Y-78856978D01*
X129880134Y-78867973D01*
X129880265Y-78869969D01*
X129878602Y-78871080D01*
X129877360Y-78870747D01*
X129863568Y-78861531D01*
X129863114Y-78862210D01*
X129861320Y-78863095D01*
X129860168Y-78862634D01*
X129839579Y-78845426D01*
X129770864Y-78836792D01*
X129719442Y-78861391D01*
X129717864Y-78861269D01*
X129713361Y-78864278D01*
X129713113Y-78864419D01*
X129708232Y-78866754D01*
X129706452Y-78868809D01*
X129706052Y-78869163D01*
X129703681Y-78870748D01*
X129701685Y-78870879D01*
X129700573Y-78869216D01*
X129700906Y-78867974D01*
X129708253Y-78856978D01*
X129712020Y-78838041D01*
X129712020Y-77848439D01*
X129708253Y-77829502D01*
X129700906Y-77818507D01*
X129700775Y-77816511D01*
X129702438Y-77815400D01*
X129703680Y-77815733D01*
G37*
G36*
X108630358Y-76446892D02*
G01*
X108631424Y-76447604D01*
X108697788Y-76468385D01*
X108768589Y-76447595D01*
X108769642Y-76446892D01*
X108771638Y-76446761D01*
X108772749Y-76448425D01*
X108772416Y-76449666D01*
X108765068Y-76460662D01*
X108761301Y-76479599D01*
X108761301Y-77812701D01*
X108765068Y-77831638D01*
X108772416Y-77842634D01*
X108772547Y-77844629D01*
X108770884Y-77845741D01*
X108769642Y-77845408D01*
X108768576Y-77844696D01*
X108702212Y-77823915D01*
X108631411Y-77844705D01*
X108630358Y-77845408D01*
X108628362Y-77845539D01*
X108627251Y-77843875D01*
X108627584Y-77842634D01*
X108634932Y-77831638D01*
X108638699Y-77812701D01*
X108638699Y-76479599D01*
X108634932Y-76460662D01*
X108627584Y-76449666D01*
X108627453Y-76447671D01*
X108629116Y-76446559D01*
X108630358Y-76446892D01*
G37*
G36*
X107130358Y-76446892D02*
G01*
X107131424Y-76447604D01*
X107197788Y-76468385D01*
X107268589Y-76447595D01*
X107269642Y-76446892D01*
X107271638Y-76446761D01*
X107272749Y-76448425D01*
X107272416Y-76449666D01*
X107265068Y-76460662D01*
X107261301Y-76479599D01*
X107261301Y-77812701D01*
X107265068Y-77831638D01*
X107272416Y-77842634D01*
X107272547Y-77844629D01*
X107270884Y-77845741D01*
X107269642Y-77845408D01*
X107268576Y-77844696D01*
X107202212Y-77823915D01*
X107131411Y-77844705D01*
X107130358Y-77845408D01*
X107128362Y-77845539D01*
X107127251Y-77843875D01*
X107127584Y-77842634D01*
X107134932Y-77831638D01*
X107138699Y-77812701D01*
X107138699Y-76479599D01*
X107134932Y-76460662D01*
X107127584Y-76449666D01*
X107127453Y-76447671D01*
X107129116Y-76446559D01*
X107130358Y-76446892D01*
G37*
G36*
X107630361Y-76446893D02*
G01*
X107631426Y-76447604D01*
X107697790Y-76468384D01*
X107768591Y-76447594D01*
X107769640Y-76446893D01*
X107771635Y-76446762D01*
X107772747Y-76448425D01*
X107772414Y-76449667D01*
X107765067Y-76460662D01*
X107761300Y-76479599D01*
X107761300Y-77812701D01*
X107765067Y-77831638D01*
X107772414Y-77842633D01*
X107772545Y-77844629D01*
X107770882Y-77845740D01*
X107769640Y-77845407D01*
X107768577Y-77844697D01*
X107702214Y-77823916D01*
X107631412Y-77844705D01*
X107630361Y-77845407D01*
X107628365Y-77845538D01*
X107627254Y-77843875D01*
X107627587Y-77842633D01*
X107634934Y-77831638D01*
X107638701Y-77812701D01*
X107638701Y-76479599D01*
X107634934Y-76460662D01*
X107627587Y-76449667D01*
X107627456Y-76447671D01*
X107629119Y-76446560D01*
X107630361Y-76446893D01*
G37*
G36*
X108130360Y-76446893D02*
G01*
X108131425Y-76447604D01*
X108197789Y-76468384D01*
X108268590Y-76447594D01*
X108269639Y-76446893D01*
X108271634Y-76446762D01*
X108272746Y-76448425D01*
X108272413Y-76449667D01*
X108265066Y-76460662D01*
X108261299Y-76479599D01*
X108261299Y-77812701D01*
X108265066Y-77831638D01*
X108272413Y-77842633D01*
X108272544Y-77844629D01*
X108270881Y-77845740D01*
X108269639Y-77845407D01*
X108268576Y-77844697D01*
X108202213Y-77823916D01*
X108131411Y-77844705D01*
X108130360Y-77845407D01*
X108128364Y-77845538D01*
X108127253Y-77843875D01*
X108127586Y-77842633D01*
X108134933Y-77831638D01*
X108138700Y-77812701D01*
X108138700Y-76479599D01*
X108134933Y-76460662D01*
X108127586Y-76449667D01*
X108127455Y-76447671D01*
X108129118Y-76446560D01*
X108130360Y-76446893D01*
G37*
G36*
X108630358Y-72014592D02*
G01*
X108631424Y-72015304D01*
X108697788Y-72036085D01*
X108768589Y-72015295D01*
X108769642Y-72014592D01*
X108771638Y-72014461D01*
X108772749Y-72016125D01*
X108772416Y-72017366D01*
X108765068Y-72028362D01*
X108761301Y-72047299D01*
X108761301Y-73380401D01*
X108765068Y-73399338D01*
X108772416Y-73410334D01*
X108772547Y-73412329D01*
X108770884Y-73413441D01*
X108769642Y-73413108D01*
X108768576Y-73412396D01*
X108702212Y-73391615D01*
X108631411Y-73412405D01*
X108630358Y-73413108D01*
X108628362Y-73413239D01*
X108627251Y-73411575D01*
X108627584Y-73410334D01*
X108634932Y-73399338D01*
X108638699Y-73380401D01*
X108638699Y-72047299D01*
X108634932Y-72028362D01*
X108627584Y-72017366D01*
X108627453Y-72015371D01*
X108629116Y-72014259D01*
X108630358Y-72014592D01*
G37*
G36*
X107130358Y-72014592D02*
G01*
X107131424Y-72015304D01*
X107197788Y-72036085D01*
X107268589Y-72015295D01*
X107269642Y-72014592D01*
X107271638Y-72014461D01*
X107272749Y-72016125D01*
X107272416Y-72017366D01*
X107265068Y-72028362D01*
X107261301Y-72047299D01*
X107261301Y-73380401D01*
X107265068Y-73399338D01*
X107272416Y-73410334D01*
X107272547Y-73412329D01*
X107270884Y-73413441D01*
X107269642Y-73413108D01*
X107268576Y-73412396D01*
X107202212Y-73391615D01*
X107131411Y-73412405D01*
X107130358Y-73413108D01*
X107128362Y-73413239D01*
X107127251Y-73411575D01*
X107127584Y-73410334D01*
X107134932Y-73399338D01*
X107138699Y-73380401D01*
X107138699Y-72047299D01*
X107134932Y-72028362D01*
X107127584Y-72017366D01*
X107127453Y-72015371D01*
X107129116Y-72014259D01*
X107130358Y-72014592D01*
G37*
G36*
X107630361Y-72014593D02*
G01*
X107631426Y-72015304D01*
X107697790Y-72036084D01*
X107768591Y-72015294D01*
X107769640Y-72014593D01*
X107771635Y-72014462D01*
X107772747Y-72016125D01*
X107772414Y-72017367D01*
X107765067Y-72028362D01*
X107761300Y-72047299D01*
X107761300Y-73380401D01*
X107765067Y-73399338D01*
X107772414Y-73410333D01*
X107772545Y-73412329D01*
X107770882Y-73413440D01*
X107769640Y-73413107D01*
X107768577Y-73412397D01*
X107702214Y-73391616D01*
X107631412Y-73412405D01*
X107630361Y-73413107D01*
X107628365Y-73413238D01*
X107627254Y-73411575D01*
X107627587Y-73410333D01*
X107634934Y-73399338D01*
X107638701Y-73380401D01*
X107638701Y-72047299D01*
X107634934Y-72028362D01*
X107627587Y-72017367D01*
X107627456Y-72015371D01*
X107629119Y-72014260D01*
X107630361Y-72014593D01*
G37*
G36*
X108130360Y-72014593D02*
G01*
X108131425Y-72015304D01*
X108197789Y-72036084D01*
X108268590Y-72015294D01*
X108269639Y-72014593D01*
X108271634Y-72014462D01*
X108272746Y-72016125D01*
X108272413Y-72017367D01*
X108265066Y-72028362D01*
X108261299Y-72047299D01*
X108261299Y-73380401D01*
X108265066Y-73399338D01*
X108272413Y-73410333D01*
X108272544Y-73412329D01*
X108270881Y-73413440D01*
X108269639Y-73413107D01*
X108268576Y-73412397D01*
X108202213Y-73391616D01*
X108131411Y-73412405D01*
X108130360Y-73413107D01*
X108128364Y-73413238D01*
X108127253Y-73411575D01*
X108127586Y-73410333D01*
X108134933Y-73399338D01*
X108138700Y-73380401D01*
X108138700Y-72047299D01*
X108134933Y-72028362D01*
X108127586Y-72017367D01*
X108127455Y-72015371D01*
X108129118Y-72014260D01*
X108130360Y-72014593D01*
G37*
M02*
