G04 #@! TF.GenerationSoftware,KiCad,Pcbnew,(6.0.7)*
G04 #@! TF.CreationDate,2022-12-18T06:26:48+05:30*
G04 #@! TF.ProjectId,PowerBoard,506f7765-7242-46f6-9172-642e6b696361,rev?*
G04 #@! TF.SameCoordinates,Original*
G04 #@! TF.FileFunction,Legend,Bot*
G04 #@! TF.FilePolarity,Positive*
%FSLAX46Y46*%
G04 Gerber Fmt 4.6, Leading zero omitted, Abs format (unit mm)*
G04 Created by KiCad (PCBNEW (6.0.7)) date 2022-12-18 06:26:48*
%MOMM*%
%LPD*%
G01*
G04 APERTURE LIST*
%ADD10C,0.300000*%
G04 APERTURE END LIST*
D10*
X107300000Y-26588571D02*
X108300000Y-26588571D01*
X107657142Y-28088571D01*
X109514285Y-26588571D02*
X109228571Y-26588571D01*
X109085714Y-26660000D01*
X109014285Y-26731428D01*
X108871428Y-26945714D01*
X108800000Y-27231428D01*
X108800000Y-27802857D01*
X108871428Y-27945714D01*
X108942857Y-28017142D01*
X109085714Y-28088571D01*
X109371428Y-28088571D01*
X109514285Y-28017142D01*
X109585714Y-27945714D01*
X109657142Y-27802857D01*
X109657142Y-27445714D01*
X109585714Y-27302857D01*
X109514285Y-27231428D01*
X109371428Y-27160000D01*
X109085714Y-27160000D01*
X108942857Y-27231428D01*
X108871428Y-27302857D01*
X108800000Y-27445714D01*
X110300000Y-27945714D02*
X110371428Y-28017142D01*
X110300000Y-28088571D01*
X110228571Y-28017142D01*
X110300000Y-27945714D01*
X110300000Y-28088571D01*
X110942857Y-26731428D02*
X111014285Y-26660000D01*
X111157142Y-26588571D01*
X111514285Y-26588571D01*
X111657142Y-26660000D01*
X111728571Y-26731428D01*
X111800000Y-26874285D01*
X111800000Y-27017142D01*
X111728571Y-27231428D01*
X110871428Y-28088571D01*
X111800000Y-28088571D01*
X112728571Y-26588571D02*
X112871428Y-26588571D01*
X113014285Y-26660000D01*
X113085714Y-26731428D01*
X113157142Y-26874285D01*
X113228571Y-27160000D01*
X113228571Y-27517142D01*
X113157142Y-27802857D01*
X113085714Y-27945714D01*
X113014285Y-28017142D01*
X112871428Y-28088571D01*
X112728571Y-28088571D01*
X112585714Y-28017142D01*
X112514285Y-27945714D01*
X112442857Y-27802857D01*
X112371428Y-27517142D01*
X112371428Y-27160000D01*
X112442857Y-26874285D01*
X112514285Y-26731428D01*
X112585714Y-26660000D01*
X112728571Y-26588571D01*
X114157142Y-26588571D02*
X114300000Y-26588571D01*
X114442857Y-26660000D01*
X114514285Y-26731428D01*
X114585714Y-26874285D01*
X114657142Y-27160000D01*
X114657142Y-27517142D01*
X114585714Y-27802857D01*
X114514285Y-27945714D01*
X114442857Y-28017142D01*
X114300000Y-28088571D01*
X114157142Y-28088571D01*
X114014285Y-28017142D01*
X113942857Y-27945714D01*
X113871428Y-27802857D01*
X113800000Y-27517142D01*
X113800000Y-27160000D01*
X113871428Y-26874285D01*
X113942857Y-26731428D01*
X114014285Y-26660000D01*
X114157142Y-26588571D01*
X115585714Y-26588571D02*
X115728571Y-26588571D01*
X115871428Y-26660000D01*
X115942857Y-26731428D01*
X116014285Y-26874285D01*
X116085714Y-27160000D01*
X116085714Y-27517142D01*
X116014285Y-27802857D01*
X115942857Y-27945714D01*
X115871428Y-28017142D01*
X115728571Y-28088571D01*
X115585714Y-28088571D01*
X115442857Y-28017142D01*
X115371428Y-27945714D01*
X115300000Y-27802857D01*
X115228571Y-27517142D01*
X115228571Y-27160000D01*
X115300000Y-26874285D01*
X115371428Y-26731428D01*
X115442857Y-26660000D01*
X115585714Y-26588571D01*
X117871428Y-28088571D02*
X117871428Y-27088571D01*
X117871428Y-27231428D02*
X117942857Y-27160000D01*
X118085714Y-27088571D01*
X118300000Y-27088571D01*
X118442857Y-27160000D01*
X118514285Y-27302857D01*
X118514285Y-28088571D01*
X118514285Y-27302857D02*
X118585714Y-27160000D01*
X118728571Y-27088571D01*
X118942857Y-27088571D01*
X119085714Y-27160000D01*
X119157142Y-27302857D01*
X119157142Y-28088571D01*
X119871428Y-28088571D02*
X119871428Y-27088571D01*
X119871428Y-27231428D02*
X119942857Y-27160000D01*
X120085714Y-27088571D01*
X120300000Y-27088571D01*
X120442857Y-27160000D01*
X120514285Y-27302857D01*
X120514285Y-28088571D01*
X120514285Y-27302857D02*
X120585714Y-27160000D01*
X120728571Y-27088571D01*
X120942857Y-27088571D01*
X121085714Y-27160000D01*
X121157142Y-27302857D01*
X121157142Y-28088571D01*
X152400000Y-44450000D02*
X152400000Y-28623580D01*
X76200000Y-44450000D02*
X76200000Y-28623580D01*
X152400000Y-29210000D02*
X76200000Y-29210000D01*
X152400000Y-29210000D02*
X76200000Y-29210000D01*
X152400000Y-29210000D02*
X151273496Y-28623579D01*
X152400000Y-29210000D02*
X151273496Y-29796421D01*
X76200000Y-29210000D02*
X77326504Y-29796421D01*
X76200000Y-29210000D02*
X77326504Y-28623579D01*
M02*
