G04 #@! TF.GenerationSoftware,KiCad,Pcbnew,(6.0.7)*
G04 #@! TF.CreationDate,2022-12-18T06:42:31+05:30*
G04 #@! TF.ProjectId,MicrocontrollerPcb,4d696372-6f63-46f6-9e74-726f6c6c6572,rev?*
G04 #@! TF.SameCoordinates,Original*
G04 #@! TF.FileFunction,Soldermask,Bot*
G04 #@! TF.FilePolarity,Negative*
%FSLAX46Y46*%
G04 Gerber Fmt 4.6, Leading zero omitted, Abs format (unit mm)*
G04 Created by KiCad (PCBNEW (6.0.7)) date 2022-12-18 06:42:31*
%MOMM*%
%LPD*%
G01*
G04 APERTURE LIST*
G04 Aperture macros list*
%AMRoundRect*
0 Rectangle with rounded corners*
0 $1 Rounding radius*
0 $2 $3 $4 $5 $6 $7 $8 $9 X,Y pos of 4 corners*
0 Add a 4 corners polygon primitive as box body*
4,1,4,$2,$3,$4,$5,$6,$7,$8,$9,$2,$3,0*
0 Add four circle primitives for the rounded corners*
1,1,$1+$1,$2,$3*
1,1,$1+$1,$4,$5*
1,1,$1+$1,$6,$7*
1,1,$1+$1,$8,$9*
0 Add four rect primitives between the rounded corners*
20,1,$1+$1,$2,$3,$4,$5,0*
20,1,$1+$1,$4,$5,$6,$7,0*
20,1,$1+$1,$6,$7,$8,$9,0*
20,1,$1+$1,$8,$9,$2,$3,0*%
G04 Aperture macros list end*
%ADD10RoundRect,0.051000X-0.850000X0.850000X-0.850000X-0.850000X0.850000X-0.850000X0.850000X0.850000X0*%
%ADD11O,1.802000X1.802000*%
%ADD12C,1.602000*%
%ADD13RoundRect,0.301000X0.450000X-0.325000X0.450000X0.325000X-0.450000X0.325000X-0.450000X-0.325000X0*%
%ADD14O,1.602000X1.202000*%
%ADD15O,1.802000X1.452000*%
%ADD16C,1.752000*%
%ADD17C,1.352000*%
%ADD18C,3.152000*%
%ADD19C,1.707000*%
%ADD20C,1.802000*%
%ADD21C,1.722000*%
%ADD22RoundRect,0.198500X-0.147500X-0.172500X0.147500X-0.172500X0.147500X0.172500X-0.147500X0.172500X0*%
%ADD23RoundRect,0.198500X0.147500X0.172500X-0.147500X0.172500X-0.147500X-0.172500X0.147500X-0.172500X0*%
G04 APERTURE END LIST*
D10*
X206170000Y-106980000D03*
D11*
X206170000Y-109520000D03*
X203630000Y-106980000D03*
X203630000Y-109520000D03*
X201090000Y-106980000D03*
X201090000Y-109520000D03*
X198550000Y-106980000D03*
X198550000Y-109520000D03*
X196010000Y-106980000D03*
X196010000Y-109520000D03*
X193470000Y-106980000D03*
X193470000Y-109520000D03*
X190930000Y-106980000D03*
X190930000Y-109520000D03*
X188390000Y-106980000D03*
X188390000Y-109520000D03*
X185850000Y-106980000D03*
X185850000Y-109520000D03*
X183310000Y-106980000D03*
X183310000Y-109520000D03*
X180770000Y-106980000D03*
X180770000Y-109520000D03*
X178230000Y-106980000D03*
X178230000Y-109520000D03*
D12*
X169850000Y-85760000D03*
X169850000Y-90640000D03*
D13*
X177650000Y-102765000D03*
X177650000Y-100715000D03*
D14*
X150075000Y-72365000D03*
X150075000Y-77205000D03*
D15*
X147075000Y-72055000D03*
X147075000Y-77515000D03*
D12*
X157509857Y-83959115D03*
X162389857Y-83959115D03*
D16*
X200170000Y-92750000D03*
X202670000Y-92750000D03*
X205170000Y-92750000D03*
D17*
X198570000Y-90550000D03*
X198390000Y-83040000D03*
D16*
X204990000Y-85240000D03*
X202490000Y-85240000D03*
X199990000Y-85240000D03*
X199990000Y-70060000D03*
X202490000Y-70060000D03*
X204990000Y-70060000D03*
D17*
X198390000Y-67860000D03*
X198390000Y-75480000D03*
D16*
X204990000Y-77680000D03*
X202490000Y-77680000D03*
X199990000Y-77680000D03*
D18*
X180220000Y-72060000D03*
X187920000Y-72060000D03*
D19*
X190070000Y-79380000D03*
X187070000Y-79380000D03*
X184070000Y-79380000D03*
X181070000Y-79380000D03*
X178070000Y-79380000D03*
X190070000Y-76380000D03*
X187070000Y-76380000D03*
X184070000Y-76380000D03*
X181070000Y-76380000D03*
X178070000Y-76380000D03*
D20*
X170680000Y-109750000D03*
X168140000Y-109750000D03*
X163060000Y-109750000D03*
X165600000Y-109750000D03*
X157980000Y-109750000D03*
X160520000Y-109750000D03*
X160520000Y-96750000D03*
X157980000Y-96750000D03*
X165600000Y-96750000D03*
X163060000Y-96750000D03*
X168140000Y-96750000D03*
X170680000Y-96750000D03*
D17*
X201150000Y-97710000D03*
D16*
X205250000Y-99910000D03*
X202750000Y-99910000D03*
D17*
X164100000Y-93230000D03*
D16*
X155000000Y-91030000D03*
X157500000Y-91030000D03*
X160000000Y-91030000D03*
X162500000Y-91030000D03*
D21*
X151130000Y-104900000D03*
X151130000Y-101900000D03*
D18*
X151130000Y-109220000D03*
D22*
X167255000Y-103410000D03*
X166285000Y-103410000D03*
X177435000Y-104410000D03*
X178405000Y-104410000D03*
D23*
X170830000Y-103590000D03*
X169860000Y-103590000D03*
M02*
