G04 #@! TF.GenerationSoftware,KiCad,Pcbnew,(6.0.7)*
G04 #@! TF.CreationDate,2022-12-18T06:42:30+05:30*
G04 #@! TF.ProjectId,MicrocontrollerPcb,4d696372-6f63-46f6-9e74-726f6c6c6572,rev?*
G04 #@! TF.SameCoordinates,Original*
G04 #@! TF.FileFunction,Copper,L1,Top*
G04 #@! TF.FilePolarity,Positive*
%FSLAX46Y46*%
G04 Gerber Fmt 4.6, Leading zero omitted, Abs format (unit mm)*
G04 Created by KiCad (PCBNEW (6.0.7)) date 2022-12-18 06:42:30*
%MOMM*%
%LPD*%
G01*
G04 APERTURE LIST*
G04 Aperture macros list*
%AMRoundRect*
0 Rectangle with rounded corners*
0 $1 Rounding radius*
0 $2 $3 $4 $5 $6 $7 $8 $9 X,Y pos of 4 corners*
0 Add a 4 corners polygon primitive as box body*
4,1,4,$2,$3,$4,$5,$6,$7,$8,$9,$2,$3,0*
0 Add four circle primitives for the rounded corners*
1,1,$1+$1,$2,$3*
1,1,$1+$1,$4,$5*
1,1,$1+$1,$6,$7*
1,1,$1+$1,$8,$9*
0 Add four rect primitives between the rounded corners*
20,1,$1+$1,$2,$3,$4,$5,0*
20,1,$1+$1,$4,$5,$6,$7,0*
20,1,$1+$1,$6,$7,$8,$9,0*
20,1,$1+$1,$8,$9,$2,$3,0*%
G04 Aperture macros list end*
G04 #@! TA.AperFunction,ComponentPad*
%ADD10R,1.700000X1.700000*%
G04 #@! TD*
G04 #@! TA.AperFunction,ComponentPad*
%ADD11O,1.700000X1.700000*%
G04 #@! TD*
G04 #@! TA.AperFunction,ComponentPad*
%ADD12C,1.500000*%
G04 #@! TD*
G04 #@! TA.AperFunction,SMDPad,CuDef*
%ADD13RoundRect,0.250001X0.462499X0.624999X-0.462499X0.624999X-0.462499X-0.624999X0.462499X-0.624999X0*%
G04 #@! TD*
G04 #@! TA.AperFunction,SMDPad,CuDef*
%ADD14RoundRect,0.237500X-0.287500X-0.237500X0.287500X-0.237500X0.287500X0.237500X-0.287500X0.237500X0*%
G04 #@! TD*
G04 #@! TA.AperFunction,SMDPad,CuDef*
%ADD15RoundRect,0.237500X0.287500X0.237500X-0.287500X0.237500X-0.287500X-0.237500X0.287500X-0.237500X0*%
G04 #@! TD*
G04 #@! TA.AperFunction,SMDPad,CuDef*
%ADD16RoundRect,0.237500X0.237500X-0.287500X0.237500X0.287500X-0.237500X0.287500X-0.237500X-0.287500X0*%
G04 #@! TD*
G04 #@! TA.AperFunction,SMDPad,CuDef*
%ADD17RoundRect,0.250000X0.450000X-0.325000X0.450000X0.325000X-0.450000X0.325000X-0.450000X-0.325000X0*%
G04 #@! TD*
G04 #@! TA.AperFunction,SMDPad,CuDef*
%ADD18RoundRect,0.250000X-0.325000X-0.450000X0.325000X-0.450000X0.325000X0.450000X-0.325000X0.450000X0*%
G04 #@! TD*
G04 #@! TA.AperFunction,SMDPad,CuDef*
%ADD19RoundRect,0.250000X-0.450000X0.325000X-0.450000X-0.325000X0.450000X-0.325000X0.450000X0.325000X0*%
G04 #@! TD*
G04 #@! TA.AperFunction,SMDPad,CuDef*
%ADD20R,2.000000X1.350000*%
G04 #@! TD*
G04 #@! TA.AperFunction,SMDPad,CuDef*
%ADD21R,0.700000X1.825000*%
G04 #@! TD*
G04 #@! TA.AperFunction,SMDPad,CuDef*
%ADD22R,1.500000X2.000000*%
G04 #@! TD*
G04 #@! TA.AperFunction,SMDPad,CuDef*
%ADD23R,1.650000X0.400000*%
G04 #@! TD*
G04 #@! TA.AperFunction,ComponentPad*
%ADD24O,1.500000X1.100000*%
G04 #@! TD*
G04 #@! TA.AperFunction,ComponentPad*
%ADD25O,1.700000X1.350000*%
G04 #@! TD*
G04 #@! TA.AperFunction,SMDPad,CuDef*
%ADD26R,2.500000X1.430000*%
G04 #@! TD*
G04 #@! TA.AperFunction,SMDPad,CuDef*
%ADD27RoundRect,0.250000X0.625000X-0.375000X0.625000X0.375000X-0.625000X0.375000X-0.625000X-0.375000X0*%
G04 #@! TD*
G04 #@! TA.AperFunction,ComponentPad*
%ADD28C,1.650000*%
G04 #@! TD*
G04 #@! TA.AperFunction,ComponentPad*
%ADD29C,1.605000*%
G04 #@! TD*
G04 #@! TA.AperFunction,ComponentPad*
%ADD30C,1.700000*%
G04 #@! TD*
G04 #@! TA.AperFunction,ComponentPad*
%ADD31C,1.620000*%
G04 #@! TD*
G04 #@! TA.AperFunction,ComponentPad*
%ADD32C,3.050000*%
G04 #@! TD*
G04 #@! TA.AperFunction,SMDPad,CuDef*
%ADD33RoundRect,0.249999X1.300001X-1.300001X1.300001X1.300001X-1.300001X1.300001X-1.300001X-1.300001X0*%
G04 #@! TD*
G04 #@! TA.AperFunction,SMDPad,CuDef*
%ADD34RoundRect,0.062500X0.062500X-0.375000X0.062500X0.375000X-0.062500X0.375000X-0.062500X-0.375000X0*%
G04 #@! TD*
G04 #@! TA.AperFunction,SMDPad,CuDef*
%ADD35RoundRect,0.062500X0.375000X-0.062500X0.375000X0.062500X-0.375000X0.062500X-0.375000X-0.062500X0*%
G04 #@! TD*
G04 #@! TA.AperFunction,SMDPad,CuDef*
%ADD36RoundRect,0.075000X-0.075000X0.662500X-0.075000X-0.662500X0.075000X-0.662500X0.075000X0.662500X0*%
G04 #@! TD*
G04 #@! TA.AperFunction,SMDPad,CuDef*
%ADD37RoundRect,0.075000X-0.662500X0.075000X-0.662500X-0.075000X0.662500X-0.075000X0.662500X0.075000X0*%
G04 #@! TD*
G04 #@! TA.AperFunction,SMDPad,CuDef*
%ADD38RoundRect,0.147500X-0.172500X0.147500X-0.172500X-0.147500X0.172500X-0.147500X0.172500X0.147500X0*%
G04 #@! TD*
G04 #@! TA.AperFunction,SMDPad,CuDef*
%ADD39RoundRect,0.147500X-0.147500X-0.172500X0.147500X-0.172500X0.147500X0.172500X-0.147500X0.172500X0*%
G04 #@! TD*
G04 #@! TA.AperFunction,SMDPad,CuDef*
%ADD40RoundRect,0.147500X0.172500X-0.147500X0.172500X0.147500X-0.172500X0.147500X-0.172500X-0.147500X0*%
G04 #@! TD*
G04 #@! TA.AperFunction,SMDPad,CuDef*
%ADD41RoundRect,0.243750X-0.456250X0.243750X-0.456250X-0.243750X0.456250X-0.243750X0.456250X0.243750X0*%
G04 #@! TD*
G04 #@! TA.AperFunction,SMDPad,CuDef*
%ADD42RoundRect,0.250001X-0.624999X0.462499X-0.624999X-0.462499X0.624999X-0.462499X0.624999X0.462499X0*%
G04 #@! TD*
G04 #@! TA.AperFunction,SMDPad,CuDef*
%ADD43RoundRect,0.250001X0.624999X-0.462499X0.624999X0.462499X-0.624999X0.462499X-0.624999X-0.462499X0*%
G04 #@! TD*
G04 #@! TA.AperFunction,ViaPad*
%ADD44C,0.800000*%
G04 #@! TD*
G04 #@! TA.AperFunction,Conductor*
%ADD45C,0.250000*%
G04 #@! TD*
G04 #@! TA.AperFunction,Conductor*
%ADD46C,0.254000*%
G04 #@! TD*
G04 APERTURE END LIST*
D10*
X206170000Y-106980000D03*
D11*
X206170000Y-109520000D03*
X203630000Y-106980000D03*
X203630000Y-109520000D03*
X201090000Y-106980000D03*
X201090000Y-109520000D03*
X198550000Y-106980000D03*
X198550000Y-109520000D03*
X196010000Y-106980000D03*
X196010000Y-109520000D03*
X193470000Y-106980000D03*
X193470000Y-109520000D03*
X190930000Y-106980000D03*
X190930000Y-109520000D03*
X188390000Y-106980000D03*
X188390000Y-109520000D03*
X185850000Y-106980000D03*
X185850000Y-109520000D03*
X183310000Y-106980000D03*
X183310000Y-109520000D03*
X180770000Y-106980000D03*
X180770000Y-109520000D03*
X178230000Y-106980000D03*
X178230000Y-109520000D03*
D12*
X169850000Y-85760000D03*
X169850000Y-90640000D03*
D13*
X149077500Y-81990000D03*
X146102500Y-81990000D03*
D14*
X144780000Y-102870000D03*
X146530000Y-102870000D03*
D15*
X155855000Y-70100000D03*
X157605000Y-70100000D03*
D16*
X196130000Y-88435000D03*
X196130000Y-86685000D03*
D14*
X146535000Y-100180000D03*
X144785000Y-100180000D03*
X144785000Y-97450000D03*
X146535000Y-97450000D03*
X146530000Y-105410000D03*
X144780000Y-105410000D03*
D16*
X145020000Y-87325000D03*
X145020000Y-85575000D03*
D17*
X173660000Y-92215000D03*
X173660000Y-90165000D03*
D18*
X169125000Y-81120000D03*
X167075000Y-81120000D03*
D19*
X153020000Y-83345000D03*
X153020000Y-85395000D03*
D17*
X173790000Y-83555000D03*
X173790000Y-85605000D03*
D20*
X148005000Y-77535000D03*
X148005000Y-72055000D03*
D21*
X148755000Y-71835000D03*
X148755000Y-77785000D03*
D22*
X150055000Y-71935000D03*
X150075000Y-77685000D03*
D23*
X149955000Y-73485000D03*
X149955000Y-74135000D03*
X149955000Y-74785000D03*
X149955000Y-75435000D03*
X149955000Y-76085000D03*
D24*
X150075000Y-72365000D03*
X150075000Y-77205000D03*
D25*
X147075000Y-72055000D03*
X147075000Y-77515000D03*
D26*
X146805000Y-73825000D03*
X146805000Y-75745000D03*
D12*
X157509857Y-83959115D03*
X162389857Y-83959115D03*
D27*
X147300000Y-88330000D03*
X147300000Y-85530000D03*
X163020000Y-68170000D03*
X163020000Y-70970000D03*
X166360000Y-70790000D03*
X166360000Y-67990000D03*
D28*
X200170000Y-92750000D03*
X202670000Y-92750000D03*
X205170000Y-92750000D03*
X204990000Y-85240000D03*
X202490000Y-85240000D03*
X199990000Y-85240000D03*
X199990000Y-70060000D03*
X202490000Y-70060000D03*
X204990000Y-70060000D03*
X204990000Y-77680000D03*
X202490000Y-77680000D03*
X199990000Y-77680000D03*
D29*
X190070000Y-79380000D03*
X187070000Y-79380000D03*
X184070000Y-79380000D03*
X181070000Y-79380000D03*
X178070000Y-79380000D03*
X190070000Y-76380000D03*
X187070000Y-76380000D03*
X184070000Y-76380000D03*
X181070000Y-76380000D03*
X178070000Y-76380000D03*
D30*
X170680000Y-109750000D03*
X168140000Y-109750000D03*
X163060000Y-109750000D03*
X165600000Y-109750000D03*
X157980000Y-109750000D03*
X160520000Y-109750000D03*
X160520000Y-96750000D03*
X157980000Y-96750000D03*
X165600000Y-96750000D03*
X163060000Y-96750000D03*
X168140000Y-96750000D03*
X170680000Y-96750000D03*
D28*
X205250000Y-99910000D03*
X202750000Y-99910000D03*
X155000000Y-91030000D03*
X157500000Y-91030000D03*
X160000000Y-91030000D03*
X162500000Y-91030000D03*
D31*
X151130000Y-104900000D03*
X151130000Y-101900000D03*
D32*
X151130000Y-109220000D03*
D33*
X159330000Y-75320000D03*
D34*
X157580000Y-77757500D03*
X158080000Y-77757500D03*
X158580000Y-77757500D03*
X159080000Y-77757500D03*
X159580000Y-77757500D03*
X160080000Y-77757500D03*
X160580000Y-77757500D03*
X161080000Y-77757500D03*
D35*
X161767500Y-77070000D03*
X161767500Y-76570000D03*
X161767500Y-76070000D03*
X161767500Y-75570000D03*
X161767500Y-75070000D03*
X161767500Y-74570000D03*
X161767500Y-74070000D03*
X161767500Y-73570000D03*
D34*
X161080000Y-72882500D03*
X160580000Y-72882500D03*
X160080000Y-72882500D03*
X159580000Y-72882500D03*
X159080000Y-72882500D03*
X158580000Y-72882500D03*
X158080000Y-72882500D03*
X157580000Y-72882500D03*
D35*
X156892500Y-73570000D03*
X156892500Y-74070000D03*
X156892500Y-74570000D03*
X156892500Y-75070000D03*
X156892500Y-75570000D03*
X156892500Y-76070000D03*
X156892500Y-76570000D03*
X156892500Y-77070000D03*
D36*
X191000000Y-85057500D03*
X190500000Y-85057500D03*
X190000000Y-85057500D03*
X189500000Y-85057500D03*
X189000000Y-85057500D03*
X188500000Y-85057500D03*
X188000000Y-85057500D03*
X187500000Y-85057500D03*
X187000000Y-85057500D03*
X186500000Y-85057500D03*
X186000000Y-85057500D03*
X185500000Y-85057500D03*
X185000000Y-85057500D03*
X184500000Y-85057500D03*
X184000000Y-85057500D03*
X183500000Y-85057500D03*
X183000000Y-85057500D03*
X182500000Y-85057500D03*
X182000000Y-85057500D03*
X181500000Y-85057500D03*
X181000000Y-85057500D03*
X180500000Y-85057500D03*
X180000000Y-85057500D03*
X179500000Y-85057500D03*
X179000000Y-85057500D03*
D37*
X177337500Y-86720000D03*
X177337500Y-87220000D03*
X177337500Y-87720000D03*
X177337500Y-88220000D03*
X177337500Y-88720000D03*
X177337500Y-89220000D03*
X177337500Y-89720000D03*
X177337500Y-90220000D03*
X177337500Y-90720000D03*
X177337500Y-91220000D03*
X177337500Y-91720000D03*
X177337500Y-92220000D03*
X177337500Y-92720000D03*
X177337500Y-93220000D03*
X177337500Y-93720000D03*
X177337500Y-94220000D03*
X177337500Y-94720000D03*
X177337500Y-95220000D03*
X177337500Y-95720000D03*
X177337500Y-96220000D03*
X177337500Y-96720000D03*
X177337500Y-97220000D03*
X177337500Y-97720000D03*
X177337500Y-98220000D03*
X177337500Y-98720000D03*
D36*
X179000000Y-100382500D03*
X179500000Y-100382500D03*
X180000000Y-100382500D03*
X180500000Y-100382500D03*
X181000000Y-100382500D03*
X181500000Y-100382500D03*
X182000000Y-100382500D03*
X182500000Y-100382500D03*
X183000000Y-100382500D03*
X183500000Y-100382500D03*
X184000000Y-100382500D03*
X184500000Y-100382500D03*
X185000000Y-100382500D03*
X185500000Y-100382500D03*
X186000000Y-100382500D03*
X186500000Y-100382500D03*
X187000000Y-100382500D03*
X187500000Y-100382500D03*
X188000000Y-100382500D03*
X188500000Y-100382500D03*
X189000000Y-100382500D03*
X189500000Y-100382500D03*
X190000000Y-100382500D03*
X190500000Y-100382500D03*
X191000000Y-100382500D03*
D37*
X192662500Y-98720000D03*
X192662500Y-98220000D03*
X192662500Y-97720000D03*
X192662500Y-97220000D03*
X192662500Y-96720000D03*
X192662500Y-96220000D03*
X192662500Y-95720000D03*
X192662500Y-95220000D03*
X192662500Y-94720000D03*
X192662500Y-94220000D03*
X192662500Y-93720000D03*
X192662500Y-93220000D03*
X192662500Y-92720000D03*
X192662500Y-92220000D03*
X192662500Y-91720000D03*
X192662500Y-91220000D03*
X192662500Y-90720000D03*
X192662500Y-90220000D03*
X192662500Y-89720000D03*
X192662500Y-89220000D03*
X192662500Y-88720000D03*
X192662500Y-88220000D03*
X192662500Y-87720000D03*
X192662500Y-87220000D03*
X192662500Y-86720000D03*
D38*
X198910000Y-98210000D03*
X198910000Y-97240000D03*
D39*
X158955000Y-80490000D03*
X159925000Y-80490000D03*
D40*
X173320000Y-87305000D03*
X173320000Y-88275000D03*
D16*
X152310000Y-71745000D03*
X152310000Y-73495000D03*
X152480000Y-76940000D03*
X152480000Y-75190000D03*
X154080000Y-72145000D03*
X154080000Y-73895000D03*
D15*
X153615000Y-79170000D03*
X151865000Y-79170000D03*
D41*
X151650000Y-66762500D03*
X151650000Y-68637500D03*
D42*
X159990000Y-68060000D03*
X159990000Y-71035000D03*
X169050000Y-70857500D03*
X169050000Y-67882500D03*
D43*
X149830000Y-88437500D03*
X149830000Y-85462500D03*
D13*
X167592500Y-75770000D03*
X170567500Y-75770000D03*
X169537500Y-73000000D03*
X166562500Y-73000000D03*
D44*
X161110000Y-79310000D03*
X194280000Y-86220000D03*
X156640030Y-78421840D03*
X175399448Y-88650552D03*
X193020000Y-79720000D03*
X192470000Y-103160000D03*
X175340000Y-96430000D03*
X174342870Y-96354269D03*
X158580000Y-76070000D03*
X160420000Y-76100000D03*
X160410000Y-74340000D03*
X158470000Y-74350000D03*
X174850000Y-90810000D03*
X175690000Y-84440000D03*
X175620000Y-86650000D03*
X193010000Y-83470000D03*
X172260000Y-77430000D03*
X189725000Y-83630000D03*
X172610000Y-79670000D03*
X151211729Y-76051668D03*
X155050000Y-75350000D03*
X151354339Y-74883753D03*
X152310000Y-70300000D03*
D45*
X146535000Y-105405000D02*
X146530000Y-105410000D01*
X146535000Y-97450000D02*
X146535000Y-105405000D01*
X150620000Y-105410000D02*
X151130000Y-104900000D01*
X146530000Y-105410000D02*
X150620000Y-105410000D01*
X151575000Y-88547500D02*
X151597500Y-88570000D01*
X150600000Y-88547500D02*
X151575000Y-88547500D01*
X157540000Y-88570000D02*
X160000000Y-91030000D01*
X151597500Y-88570000D02*
X157540000Y-88570000D01*
X150600000Y-89360000D02*
X147070000Y-92890000D01*
X150600000Y-88547500D02*
X150600000Y-89360000D01*
X147070000Y-96915000D02*
X146535000Y-97450000D01*
X147070000Y-92890000D02*
X147070000Y-96915000D01*
X187525000Y-83021410D02*
X187525000Y-81715000D01*
X186500000Y-85057500D02*
X186500000Y-84046410D01*
X186500000Y-84046410D02*
X187525000Y-83021410D01*
X187525000Y-81715000D02*
X188732499Y-80507501D01*
X159080000Y-78440000D02*
X159670000Y-79030000D01*
X159080000Y-77757500D02*
X159080000Y-78440000D01*
X192662500Y-86720000D02*
X193780000Y-86720000D01*
X193780000Y-86720000D02*
X194280000Y-86220000D01*
X156892500Y-77070000D02*
X156892500Y-78169370D01*
X156892500Y-78169370D02*
X156640030Y-78421840D01*
X177337500Y-89220000D02*
X175968896Y-89220000D01*
X175968896Y-89220000D02*
X175399448Y-88650552D01*
X191060000Y-80507501D02*
X191532499Y-80507501D01*
X191060000Y-80507501D02*
X191272499Y-80507501D01*
X188732499Y-80507501D02*
X191060000Y-80507501D01*
X184000000Y-100382500D02*
X184000000Y-103160000D01*
X192480000Y-103160000D02*
X192470000Y-103160000D01*
X193725010Y-96945010D02*
X193725010Y-101914990D01*
X192662500Y-96720000D02*
X193500000Y-96720000D01*
X193500000Y-96720000D02*
X193725010Y-96945010D01*
X193725010Y-101914990D02*
X192480000Y-103160000D01*
X192470000Y-103160000D02*
X184000000Y-103160000D01*
X150592500Y-85580000D02*
X150600000Y-85572500D01*
X149762500Y-85530000D02*
X149830000Y-85462500D01*
X147300000Y-85530000D02*
X149762500Y-85530000D01*
X177337500Y-95720000D02*
X176050000Y-95720000D01*
X176050000Y-95720000D02*
X175340000Y-96430000D01*
X177337500Y-95220000D02*
X175477139Y-95220000D01*
X175477139Y-95220000D02*
X174342870Y-96354269D01*
X144785000Y-102865000D02*
X144780000Y-102870000D01*
X144785000Y-97450000D02*
X144785000Y-102865000D01*
X144780000Y-103445000D02*
X144780000Y-105410000D01*
X144780000Y-102870000D02*
X144780000Y-103445000D01*
X152660000Y-101900000D02*
X151130000Y-101900000D01*
X144780000Y-105985000D02*
X145845000Y-107050000D01*
X144780000Y-105410000D02*
X144780000Y-105985000D01*
X145845000Y-107050000D02*
X151530000Y-107050000D01*
X151530000Y-107050000D02*
X153500000Y-105080000D01*
X153500000Y-105080000D02*
X153500000Y-102740000D01*
X153500000Y-102740000D02*
X152660000Y-101900000D01*
X185975010Y-85032510D02*
X186000000Y-85057500D01*
X185975010Y-83934990D02*
X185975010Y-85032510D01*
X187070000Y-82840000D02*
X185975010Y-83934990D01*
X187070000Y-79380000D02*
X187070000Y-82840000D01*
X198910000Y-96510000D02*
X198910000Y-97240000D01*
X202670000Y-92750000D02*
X198910000Y-96510000D01*
X186000000Y-85895000D02*
X186000000Y-85057500D01*
X186000000Y-85900000D02*
X186000000Y-85895000D01*
X187320000Y-87220000D02*
X186000000Y-85900000D01*
X178175000Y-89720000D02*
X180675000Y-87220000D01*
X177337500Y-89720000D02*
X178175000Y-89720000D01*
X192662500Y-87220000D02*
X187370000Y-87220000D01*
X187370000Y-87220000D02*
X187320000Y-87220000D01*
X184500000Y-88600000D02*
X185880000Y-87220000D01*
X180675000Y-87220000D02*
X185880000Y-87220000D01*
X185880000Y-87220000D02*
X187370000Y-87220000D01*
X146604290Y-89045710D02*
X144785000Y-90865000D01*
X147300000Y-88330000D02*
X146604290Y-89025710D01*
X146604290Y-89025710D02*
X146604290Y-89045710D01*
X144785000Y-90865000D02*
X144785000Y-97450000D01*
X146025000Y-88330000D02*
X145020000Y-87325000D01*
X147300000Y-88330000D02*
X146025000Y-88330000D01*
X152396628Y-86018372D02*
X153020000Y-85395000D01*
X151914990Y-86500010D02*
X152396628Y-86018372D01*
X149129990Y-86500010D02*
X151914990Y-86500010D01*
X147300000Y-88330000D02*
X149129990Y-86500010D01*
X171355000Y-81120000D02*
X173790000Y-83555000D01*
X169125000Y-81120000D02*
X171355000Y-81120000D01*
X165190000Y-88340000D02*
X162500000Y-91030000D01*
X187100000Y-96220000D02*
X184500000Y-93620000D01*
X192662500Y-96220000D02*
X187100000Y-96220000D01*
X184500000Y-100382500D02*
X184500000Y-93620000D01*
X184500000Y-93620000D02*
X184500000Y-88600000D01*
X195595000Y-87220000D02*
X196130000Y-86685000D01*
X192662500Y-87220000D02*
X195595000Y-87220000D01*
X159330000Y-76470000D02*
X159330000Y-76470000D01*
X158580000Y-76070000D02*
X158580000Y-76070000D01*
X158580000Y-77757500D02*
X158580000Y-76070000D01*
X158580000Y-76070000D02*
X159330000Y-75320000D01*
X174205000Y-90165000D02*
X174850000Y-90810000D01*
X173660000Y-90165000D02*
X174205000Y-90165000D01*
X173790000Y-83555000D02*
X174805000Y-83555000D01*
X175290001Y-84040001D02*
X175690000Y-84440000D01*
X174805000Y-83555000D02*
X175290001Y-84040001D01*
X200610000Y-99910000D02*
X202750000Y-99910000D01*
X198910000Y-98210000D02*
X200610000Y-99910000D01*
X194176410Y-88220000D02*
X195740010Y-89783600D01*
X192662500Y-88220000D02*
X194176410Y-88220000D01*
X195740010Y-89783600D02*
X195740010Y-96730010D01*
X197220000Y-98210000D02*
X198910000Y-98210000D01*
X195740010Y-96730010D02*
X197220000Y-98210000D01*
X170005000Y-85605000D02*
X169850000Y-85760000D01*
X173790000Y-85605000D02*
X170005000Y-85605000D01*
X174413372Y-86228372D02*
X173790000Y-85605000D01*
X174413372Y-88689782D02*
X174413372Y-86228372D01*
X177337500Y-90220000D02*
X175943590Y-90220000D01*
X173670912Y-86970832D02*
X174413372Y-86228372D01*
X173654168Y-86970832D02*
X173670912Y-86970832D01*
X173320000Y-87305000D02*
X173654168Y-86970832D01*
X174413372Y-88689782D02*
X175943590Y-90220000D01*
X169850000Y-90640000D02*
X169930000Y-90720000D01*
X171425000Y-92215000D02*
X173660000Y-92215000D01*
X169850000Y-90640000D02*
X171425000Y-92215000D01*
X176500000Y-90720000D02*
X177337500Y-90720000D01*
X175955000Y-90720000D02*
X176500000Y-90720000D01*
X174460000Y-92215000D02*
X175955000Y-90720000D01*
X173660000Y-92215000D02*
X174460000Y-92215000D01*
X173320000Y-88275000D02*
X173654168Y-88609168D01*
X175803190Y-90720000D02*
X175955000Y-90720000D01*
X173692358Y-88609168D02*
X175803190Y-90720000D01*
X173654168Y-88609168D02*
X173692358Y-88609168D01*
X175620000Y-87840000D02*
X175620000Y-86650000D01*
X177337500Y-88720000D02*
X176500000Y-88720000D01*
X176500000Y-88720000D02*
X175620000Y-87840000D01*
X199165001Y-84415001D02*
X199990000Y-85240000D01*
X198011411Y-84415001D02*
X199165001Y-84415001D01*
X195996430Y-82400020D02*
X198011411Y-84415001D01*
X189629980Y-82400020D02*
X195996430Y-82400020D01*
X189000000Y-85057500D02*
X189000000Y-83030000D01*
X189000000Y-83030000D02*
X189629980Y-82400020D01*
X197160000Y-77680000D02*
X199990000Y-77680000D01*
X188500000Y-85057500D02*
X188500000Y-82366410D01*
X188500000Y-82366410D02*
X188916400Y-81950010D01*
X188916400Y-81950010D02*
X194606400Y-81950010D01*
X194606400Y-81950010D02*
X196340010Y-80216400D01*
X196340010Y-80216400D02*
X196340010Y-78499990D01*
X196340010Y-78499990D02*
X197160000Y-77680000D01*
X188000000Y-84220000D02*
X187980000Y-84200000D01*
X188000000Y-84220000D02*
X188000000Y-85057500D01*
X187975010Y-82254990D02*
X187975010Y-84229308D01*
X188730000Y-81500000D02*
X187975010Y-82254990D01*
X199165001Y-70884999D02*
X199155001Y-70884999D01*
X199990000Y-70060000D02*
X199165001Y-70884999D01*
X199155001Y-70884999D02*
X195840000Y-74200000D01*
X195840000Y-74200000D02*
X195840000Y-80010000D01*
X195840000Y-80010000D02*
X194350000Y-81500000D01*
X194350000Y-81500000D02*
X188730000Y-81500000D01*
X177337500Y-86470000D02*
X177337500Y-86720000D01*
X177337500Y-84883910D02*
X177337500Y-86470000D01*
X174430000Y-81976410D02*
X177337500Y-84883910D01*
X174430000Y-78040000D02*
X174430000Y-81976410D01*
X178070000Y-76380000D02*
X176090000Y-76380000D01*
X176090000Y-76380000D02*
X174430000Y-78040000D01*
X179000000Y-84110000D02*
X179000000Y-85057500D01*
X179942499Y-77507501D02*
X175612499Y-77507501D01*
X181070000Y-76380000D02*
X179942499Y-77507501D01*
X175612499Y-77507501D02*
X174910010Y-78209990D01*
X178680000Y-83790000D02*
X179000000Y-84110000D01*
X174910010Y-78209990D02*
X174910010Y-81820010D01*
X174910010Y-81820010D02*
X176880000Y-83790000D01*
X176880000Y-83790000D02*
X178680000Y-83790000D01*
X179500000Y-84220000D02*
X179500000Y-85057500D01*
X179500000Y-83973590D02*
X179500000Y-84220000D01*
X178866401Y-83339991D02*
X179500000Y-83973590D01*
X177066419Y-83339991D02*
X178866401Y-83339991D01*
X182492489Y-77957511D02*
X175798899Y-77957511D01*
X175798899Y-77957511D02*
X175360020Y-78396390D01*
X175360020Y-78396390D02*
X175360020Y-81633610D01*
X175360020Y-81633610D02*
X177066410Y-83340000D01*
X184070000Y-76380000D02*
X182492489Y-77957511D01*
X177066410Y-83340000D02*
X177066419Y-83339991D01*
X183500000Y-84220000D02*
X183500000Y-85057500D01*
X183500000Y-83696410D02*
X183500000Y-84220000D01*
X185197501Y-81998909D02*
X183500000Y-83696410D01*
X187070000Y-76380000D02*
X185197501Y-78252499D01*
X185197501Y-78252499D02*
X185197501Y-81998909D01*
X188942499Y-77507501D02*
X190070000Y-76380000D01*
X186578909Y-77507501D02*
X188942499Y-77507501D01*
X185647511Y-78438899D02*
X186578909Y-77507501D01*
X185647511Y-82185309D02*
X185647511Y-78438899D01*
X184000000Y-85057500D02*
X184000000Y-83832820D01*
X184000000Y-83832820D02*
X185647511Y-82185309D01*
X180000000Y-83837180D02*
X179032820Y-82870000D01*
X180000000Y-85057500D02*
X180000000Y-83837180D01*
X179032820Y-82870000D02*
X178550000Y-82870000D01*
X178070000Y-82390000D02*
X178070000Y-79380000D01*
X178550000Y-82870000D02*
X178070000Y-82390000D01*
X182500000Y-83790000D02*
X182500000Y-85057500D01*
X181070000Y-79380000D02*
X181070000Y-82360000D01*
X181070000Y-82360000D02*
X182500000Y-83790000D01*
X184070000Y-80514906D02*
X184080000Y-80524906D01*
X184070000Y-79380000D02*
X184070000Y-80514906D01*
X184080000Y-80524906D02*
X184080000Y-82480000D01*
X183000000Y-83560000D02*
X183000000Y-85057500D01*
X184080000Y-82480000D02*
X183000000Y-83560000D01*
X172717850Y-95605740D02*
X172717850Y-100507850D01*
X177337500Y-92720000D02*
X175603590Y-92720000D01*
X175603590Y-92720000D02*
X172717850Y-95605740D01*
X177120019Y-104910019D02*
X177640019Y-104910019D01*
X172717850Y-100507850D02*
X177120019Y-104910019D01*
X178230000Y-105500000D02*
X178230000Y-106980000D01*
X177640019Y-104910019D02*
X178230000Y-105500000D01*
X176450010Y-93269990D02*
X175690010Y-93269990D01*
X177337500Y-93220000D02*
X176500000Y-93220000D01*
X176500000Y-93220000D02*
X176450010Y-93269990D01*
X173167860Y-95792140D02*
X173167860Y-100317860D01*
X175690010Y-93269990D02*
X173167860Y-95792140D01*
X177310009Y-104460009D02*
X179920009Y-104460009D01*
X173167860Y-100317860D02*
X177310009Y-104460009D01*
X180770000Y-105310000D02*
X180770000Y-106980000D01*
X179920009Y-104460009D02*
X180770000Y-105310000D01*
X182950000Y-106620000D02*
X183310000Y-106980000D01*
X175904137Y-93720000D02*
X173617869Y-96006268D01*
X177337500Y-93720000D02*
X175904137Y-93720000D01*
X182950000Y-105590000D02*
X182950000Y-106620000D01*
X173617869Y-96006268D02*
X173617869Y-100117869D01*
X173617869Y-100117869D02*
X177510000Y-104010000D01*
X182940000Y-105590000D02*
X182950000Y-105590000D01*
X177510000Y-104010000D02*
X181360000Y-104010000D01*
X181360000Y-104010000D02*
X182940000Y-105590000D01*
X185850000Y-106040000D02*
X185850000Y-106980000D01*
X185210000Y-105400000D02*
X185850000Y-106040000D01*
X183407180Y-105400000D02*
X185210000Y-105400000D01*
X180500000Y-100382500D02*
X180500000Y-102492820D01*
X180500000Y-102492820D02*
X183407180Y-105400000D01*
X188390000Y-105620000D02*
X188390000Y-106980000D01*
X187710000Y-104940000D02*
X188390000Y-105620000D01*
X183583590Y-104940000D02*
X187710000Y-104940000D01*
X181000000Y-100382500D02*
X181000000Y-102356410D01*
X181000000Y-102356410D02*
X183583590Y-104940000D01*
X181500000Y-101220000D02*
X181540000Y-101260000D01*
X181500000Y-100382500D02*
X181500000Y-101220000D01*
X181540000Y-101260000D02*
X181540000Y-102260000D01*
X181540000Y-102260000D02*
X183750000Y-104470000D01*
X183750000Y-104470000D02*
X189930000Y-104470000D01*
X190930000Y-105470000D02*
X190930000Y-106980000D01*
X189930000Y-104470000D02*
X190930000Y-105470000D01*
X194330000Y-92550000D02*
X194330000Y-106120000D01*
X192662500Y-91720000D02*
X193500000Y-91720000D01*
X193500000Y-91720000D02*
X194330000Y-92550000D01*
X194330000Y-106120000D02*
X193470000Y-106980000D01*
X193840000Y-89220000D02*
X192662500Y-89220000D01*
X194800000Y-90180000D02*
X193840000Y-89220000D01*
X196010000Y-106980000D02*
X194800000Y-105770000D01*
X194800000Y-105770000D02*
X194800000Y-90180000D01*
X195290000Y-103720000D02*
X198550000Y-106980000D01*
X195290000Y-89970000D02*
X195290000Y-103720000D01*
X192662500Y-88720000D02*
X194040000Y-88720000D01*
X194040000Y-88720000D02*
X195290000Y-89970000D01*
X155000000Y-93770000D02*
X157980000Y-96750000D01*
X155000000Y-91030000D02*
X155000000Y-93770000D01*
X157500000Y-93730000D02*
X160520000Y-96750000D01*
X157500000Y-91030000D02*
X157500000Y-93730000D01*
X190500000Y-85057500D02*
X190500000Y-84067908D01*
X191097908Y-83470000D02*
X193010000Y-83470000D01*
X190500000Y-84067908D02*
X191097908Y-83470000D01*
X172260000Y-74910000D02*
X172260000Y-77430000D01*
X169537500Y-73000000D02*
X170350000Y-73000000D01*
X170350000Y-73000000D02*
X172260000Y-74910000D01*
X164076790Y-77265710D02*
X164552500Y-76790000D01*
X161963210Y-77265710D02*
X164076790Y-77265710D01*
X161767500Y-77070000D02*
X161963210Y-77265710D01*
X164552500Y-76163910D02*
X164552500Y-76790000D01*
X166562500Y-74153910D02*
X164552500Y-76163910D01*
X166562500Y-73000000D02*
X166562500Y-74153910D01*
X161305000Y-77757500D02*
X162007500Y-78460000D01*
X161080000Y-77757500D02*
X161305000Y-77757500D01*
X166712500Y-74890000D02*
X167592500Y-75770000D01*
X164902500Y-78460000D02*
X162007500Y-78460000D01*
X167592500Y-75770000D02*
X164902500Y-78460000D01*
X190000000Y-85057500D02*
X190000000Y-83905000D01*
X190000000Y-83905000D02*
X189725000Y-83630000D01*
X170567500Y-77627500D02*
X172610000Y-79670000D01*
X170567500Y-75770000D02*
X170567500Y-77627500D01*
X168942500Y-67990000D02*
X169050000Y-67882500D01*
X166360000Y-67990000D02*
X168942500Y-67990000D01*
X162910000Y-68060000D02*
X163020000Y-68170000D01*
X159990000Y-68060000D02*
X162910000Y-68060000D01*
X155855000Y-71788590D02*
X155855000Y-70100000D01*
X155660000Y-71983590D02*
X155855000Y-71788590D01*
X155660000Y-74511410D02*
X155660000Y-71983590D01*
X156892500Y-75070000D02*
X156218590Y-75070000D01*
X156218590Y-75070000D02*
X155660000Y-74511410D01*
X151178397Y-76085000D02*
X151211729Y-76051668D01*
X149955000Y-76085000D02*
X151178397Y-76085000D01*
X155322905Y-74511410D02*
X155660000Y-74511410D01*
X155050000Y-74784315D02*
X155322905Y-74511410D01*
X155050000Y-75350000D02*
X155050000Y-74784315D01*
X155855000Y-70100000D02*
X155855000Y-69308589D01*
X152450000Y-66762500D02*
X151650000Y-66762500D01*
X153308911Y-66762500D02*
X152450000Y-66762500D01*
X155855000Y-69308589D02*
X153308911Y-66762500D01*
X150055000Y-71935000D02*
X150055000Y-71685000D01*
X149765000Y-72055000D02*
X150075000Y-72365000D01*
X147075000Y-72055000D02*
X149765000Y-72055000D01*
X147075000Y-73555000D02*
X146805000Y-73825000D01*
X147075000Y-72055000D02*
X147075000Y-73555000D01*
X146805000Y-73825000D02*
X146805000Y-75745000D01*
X150610000Y-78220000D02*
X150075000Y-77685000D01*
X146805000Y-77245000D02*
X147075000Y-77515000D01*
X146805000Y-75745000D02*
X146805000Y-77245000D01*
X149745000Y-77535000D02*
X150075000Y-77205000D01*
X148005000Y-77535000D02*
X149745000Y-77535000D01*
X151240000Y-79170000D02*
X151865000Y-79170000D01*
X150075000Y-78005000D02*
X151240000Y-79170000D01*
X150075000Y-77205000D02*
X150075000Y-78005000D01*
X150075000Y-70212500D02*
X151650000Y-68637500D01*
X150075000Y-72365000D02*
X150075000Y-70212500D01*
X154080000Y-69350000D02*
X154080000Y-72145000D01*
X151650000Y-68637500D02*
X153367500Y-68637500D01*
X153367500Y-68637500D02*
X154080000Y-69350000D01*
X152865000Y-76420000D02*
X152865000Y-76793590D01*
X153615000Y-78075000D02*
X152480000Y-76940000D01*
X153615000Y-79170000D02*
X153615000Y-78075000D01*
X155005000Y-78075000D02*
X153615000Y-78075000D01*
X155400000Y-77680000D02*
X155005000Y-78075000D01*
X155400000Y-76850000D02*
X155400000Y-77680000D01*
X156130009Y-76119991D02*
X155400000Y-76850000D01*
X156892500Y-76070000D02*
X156842509Y-76119991D01*
X156842509Y-76119991D02*
X156130009Y-76119991D01*
X152710000Y-73895000D02*
X152310000Y-73495000D01*
X154080000Y-73895000D02*
X152710000Y-73895000D01*
X154080000Y-75453002D02*
X154701999Y-76075001D01*
X154080000Y-73895000D02*
X154080000Y-75453002D01*
X156355000Y-75570000D02*
X156892500Y-75570000D01*
X156043590Y-75570000D02*
X156355000Y-75570000D01*
X155538589Y-76075001D02*
X156043590Y-75570000D01*
X154701999Y-76075001D02*
X155538589Y-76075001D01*
X152480000Y-74565000D02*
X152480000Y-75190000D01*
X152260010Y-74345010D02*
X152480000Y-74565000D01*
X151839500Y-74345010D02*
X152260010Y-74345010D01*
X151629490Y-74135000D02*
X151839500Y-74345010D01*
X149955000Y-74135000D02*
X151629490Y-74135000D01*
X149955000Y-74785000D02*
X151255586Y-74785000D01*
X151255586Y-74785000D02*
X151354339Y-74883753D01*
X152310000Y-70300000D02*
X152310000Y-71745000D01*
X159590832Y-80155832D02*
X159925000Y-80490000D01*
X159590832Y-80137600D02*
X159590832Y-80155832D01*
X158080000Y-78626768D02*
X159590832Y-80137600D01*
X158080000Y-77757500D02*
X158080000Y-78626768D01*
X159925000Y-81494258D02*
X162389857Y-83959115D01*
X159925000Y-80490000D02*
X159925000Y-81494258D01*
X165228972Y-81120000D02*
X167075000Y-81120000D01*
X162389857Y-83959115D02*
X165228972Y-81120000D01*
X157580000Y-83888972D02*
X157509857Y-83959115D01*
X156895742Y-83345000D02*
X157509857Y-83959115D01*
X153020000Y-83345000D02*
X156895742Y-83345000D01*
X157509857Y-81935143D02*
X158955000Y-80490000D01*
X157509857Y-83959115D02*
X157509857Y-81935143D01*
X158620832Y-80155832D02*
X158955000Y-80490000D01*
X157384290Y-78919290D02*
X158620832Y-80155832D01*
X157384290Y-77953210D02*
X157384290Y-78919290D01*
X157580000Y-77757500D02*
X157384290Y-77953210D01*
X197067500Y-85057500D02*
X191000000Y-85057500D01*
X197490011Y-85480011D02*
X197067500Y-85057500D01*
X197490011Y-91560011D02*
X197490011Y-85480011D01*
X200170000Y-92750000D02*
X198680000Y-92750000D01*
X198680000Y-92750000D02*
X197490011Y-91560011D01*
X195027820Y-88435000D02*
X196130000Y-88435000D01*
X192662500Y-87720000D02*
X194312820Y-87720000D01*
X194312820Y-87720000D02*
X195027820Y-88435000D01*
X164210000Y-75870000D02*
X164210000Y-75520000D01*
X163510000Y-76570000D02*
X164210000Y-75870000D01*
X161767500Y-76570000D02*
X163510000Y-76570000D01*
X164210000Y-75520000D02*
X165370000Y-74360000D01*
X165550000Y-70790000D02*
X166360000Y-70790000D01*
X165370000Y-71780000D02*
X166360000Y-70790000D01*
X165370000Y-74360000D02*
X165370000Y-71780000D01*
X163760000Y-71710000D02*
X163020000Y-70970000D01*
X163760000Y-75630000D02*
X163760000Y-71710000D01*
X161767500Y-76070000D02*
X163320000Y-76070000D01*
X163320000Y-76070000D02*
X163760000Y-75630000D01*
X156355000Y-74570000D02*
X156892500Y-74570000D01*
X156129990Y-74344990D02*
X156355000Y-74570000D01*
X156129990Y-72150010D02*
X156129990Y-74344990D01*
X157605000Y-70675000D02*
X156129990Y-72150010D01*
X157605000Y-70100000D02*
X157605000Y-70675000D01*
X149615000Y-81920000D02*
X150055000Y-81920000D01*
X150680000Y-81295000D02*
X150055000Y-81920000D01*
X155915020Y-77009980D02*
X156355000Y-76570000D01*
X155915020Y-79454980D02*
X155915020Y-77009980D01*
X155070000Y-80300000D02*
X155915020Y-79454980D01*
X151610000Y-80365000D02*
X151610000Y-80300000D01*
X151610000Y-80300000D02*
X155070000Y-80300000D01*
X156355000Y-76570000D02*
X156892500Y-76570000D01*
X150055000Y-81920000D02*
X151610000Y-80365000D01*
X150055000Y-83715000D02*
X150055000Y-81920000D01*
X149500000Y-84270000D02*
X150055000Y-83715000D01*
X145020000Y-85575000D02*
X146325000Y-84270000D01*
X146325000Y-84270000D02*
X149500000Y-84270000D01*
X154880010Y-70483600D02*
X154880010Y-70600000D01*
X153734990Y-67824990D02*
X154880010Y-68970010D01*
X148915010Y-67824990D02*
X153734990Y-67824990D01*
X144884290Y-71855710D02*
X148915010Y-67824990D01*
X154880010Y-68970010D02*
X154880010Y-70600000D01*
X145605000Y-81920000D02*
X144884290Y-81199290D01*
X144884290Y-81199290D02*
X144884290Y-71855710D01*
X150840002Y-73485000D02*
X149955000Y-73485000D01*
X151150010Y-73174992D02*
X150840002Y-73485000D01*
X151150010Y-69929990D02*
X151150010Y-73174992D01*
X151629990Y-69450010D02*
X151150010Y-69929990D01*
X152610010Y-69450010D02*
X151629990Y-69450010D01*
X154880010Y-72665500D02*
X154550500Y-72995010D01*
X154880010Y-70600000D02*
X154880010Y-72665500D01*
X154550500Y-72995010D02*
X153609500Y-72995010D01*
X153609500Y-72995010D02*
X153279990Y-72665500D01*
X153279990Y-72665500D02*
X153279990Y-70119990D01*
X153279990Y-70119990D02*
X152610010Y-69450010D01*
D46*
X208153000Y-111050000D02*
X171422014Y-111050000D01*
X171521185Y-111008922D01*
X171938922Y-110591185D01*
X172165000Y-110045385D01*
X172165000Y-109454615D01*
X171938922Y-108908815D01*
X171521185Y-108491078D01*
X170975385Y-108265000D01*
X170384615Y-108265000D01*
X169838815Y-108491078D01*
X169421078Y-108908815D01*
X169410000Y-108935560D01*
X169398922Y-108908815D01*
X168981185Y-108491078D01*
X168435385Y-108265000D01*
X167844615Y-108265000D01*
X167298815Y-108491078D01*
X166881078Y-108908815D01*
X166870000Y-108935560D01*
X166858922Y-108908815D01*
X166441185Y-108491078D01*
X165895385Y-108265000D01*
X165304615Y-108265000D01*
X164758815Y-108491078D01*
X164341078Y-108908815D01*
X164330000Y-108935560D01*
X164318922Y-108908815D01*
X163901185Y-108491078D01*
X163355385Y-108265000D01*
X162764615Y-108265000D01*
X162218815Y-108491078D01*
X161801078Y-108908815D01*
X161781845Y-108955247D01*
X161563958Y-108885647D01*
X160699605Y-109750000D01*
X161563958Y-110614353D01*
X161781845Y-110544753D01*
X161801078Y-110591185D01*
X162218815Y-111008922D01*
X162317986Y-111050000D01*
X161292634Y-111050000D01*
X161304080Y-111045259D01*
X161384353Y-110793958D01*
X160520000Y-109929605D01*
X159655647Y-110793958D01*
X159735920Y-111045259D01*
X159748989Y-111050000D01*
X158722014Y-111050000D01*
X158821185Y-111008922D01*
X159238922Y-110591185D01*
X159258155Y-110544753D01*
X159476042Y-110614353D01*
X160340395Y-109750000D01*
X159476042Y-108885647D01*
X159258155Y-108955247D01*
X159238922Y-108908815D01*
X159036149Y-108706042D01*
X159655647Y-108706042D01*
X160520000Y-109570395D01*
X161384353Y-108706042D01*
X161304080Y-108454741D01*
X160748721Y-108253282D01*
X160158542Y-108279685D01*
X159735920Y-108454741D01*
X159655647Y-108706042D01*
X159036149Y-108706042D01*
X158821185Y-108491078D01*
X158275385Y-108265000D01*
X157684615Y-108265000D01*
X157138815Y-108491078D01*
X156721078Y-108908815D01*
X156495000Y-109454615D01*
X156495000Y-110045385D01*
X156721078Y-110591185D01*
X157138815Y-111008922D01*
X157237986Y-111050000D01*
X152354702Y-111050000D01*
X152961160Y-110443542D01*
X153290000Y-109649651D01*
X153290000Y-108790349D01*
X152961160Y-107996458D01*
X152353542Y-107388840D01*
X152291613Y-107363188D01*
X153984473Y-105670329D01*
X154047929Y-105627929D01*
X154133409Y-105499999D01*
X154215904Y-105376538D01*
X154240068Y-105255055D01*
X154260000Y-105154852D01*
X154260000Y-105154848D01*
X154274888Y-105080000D01*
X154260000Y-105005152D01*
X154260000Y-102814846D01*
X154274888Y-102739999D01*
X154260000Y-102665152D01*
X154260000Y-102665148D01*
X154215904Y-102443463D01*
X154157737Y-102356410D01*
X154090329Y-102255526D01*
X154090327Y-102255524D01*
X154047929Y-102192071D01*
X153984475Y-102149673D01*
X153250331Y-101415529D01*
X153207929Y-101352071D01*
X152956537Y-101184096D01*
X152734852Y-101140000D01*
X152734847Y-101140000D01*
X152660000Y-101125112D01*
X152585153Y-101140000D01*
X152379255Y-101140000D01*
X152355012Y-101081473D01*
X151948527Y-100674988D01*
X151417428Y-100455000D01*
X150842572Y-100455000D01*
X150311473Y-100674988D01*
X149904988Y-101081473D01*
X149685000Y-101612572D01*
X149685000Y-102187428D01*
X149904988Y-102718527D01*
X150311473Y-103125012D01*
X150842572Y-103345000D01*
X151417428Y-103345000D01*
X151948527Y-103125012D01*
X152355012Y-102718527D01*
X152369280Y-102684081D01*
X152740001Y-103054803D01*
X152740000Y-104765198D01*
X152577885Y-104927313D01*
X152559886Y-104544945D01*
X152392144Y-104139980D01*
X152144988Y-104064617D01*
X151309605Y-104900000D01*
X151323748Y-104914143D01*
X151144143Y-105093748D01*
X151130000Y-105079605D01*
X150294617Y-105914988D01*
X150369980Y-106162144D01*
X150725018Y-106290000D01*
X147548026Y-106290000D01*
X147593327Y-106244699D01*
X147690000Y-106011310D01*
X147690000Y-105695750D01*
X147531250Y-105537000D01*
X146657000Y-105537000D01*
X146657000Y-105557000D01*
X146403000Y-105557000D01*
X146403000Y-105537000D01*
X146383000Y-105537000D01*
X146383000Y-105283000D01*
X146403000Y-105283000D01*
X146403000Y-104458750D01*
X146657000Y-104458750D01*
X146657000Y-105283000D01*
X147531250Y-105283000D01*
X147690000Y-105124250D01*
X147690000Y-104808690D01*
X147637041Y-104680834D01*
X149673084Y-104680834D01*
X149700114Y-105255055D01*
X149867856Y-105660020D01*
X150115012Y-105735383D01*
X150950395Y-104900000D01*
X150115012Y-104064617D01*
X149867856Y-104139980D01*
X149673084Y-104680834D01*
X147637041Y-104680834D01*
X147593327Y-104575301D01*
X147414698Y-104396673D01*
X147181309Y-104300000D01*
X146815750Y-104300000D01*
X146657000Y-104458750D01*
X146403000Y-104458750D01*
X146244250Y-104300000D01*
X145878691Y-104300000D01*
X145645302Y-104396673D01*
X145574540Y-104467435D01*
X145540000Y-104444356D01*
X145540000Y-103835644D01*
X145574540Y-103812565D01*
X145645302Y-103883327D01*
X145878691Y-103980000D01*
X146244250Y-103980000D01*
X146403000Y-103821250D01*
X146403000Y-102997000D01*
X146657000Y-102997000D01*
X146657000Y-103821250D01*
X146815750Y-103980000D01*
X147181309Y-103980000D01*
X147410630Y-103885012D01*
X150294617Y-103885012D01*
X151130000Y-104720395D01*
X151965383Y-103885012D01*
X151890020Y-103637856D01*
X151349166Y-103443084D01*
X150774945Y-103470114D01*
X150369980Y-103637856D01*
X150294617Y-103885012D01*
X147410630Y-103885012D01*
X147414698Y-103883327D01*
X147593327Y-103704699D01*
X147690000Y-103471310D01*
X147690000Y-103155750D01*
X147531250Y-102997000D01*
X146657000Y-102997000D01*
X146403000Y-102997000D01*
X146383000Y-102997000D01*
X146383000Y-102743000D01*
X146403000Y-102743000D01*
X146403000Y-101918750D01*
X146657000Y-101918750D01*
X146657000Y-102743000D01*
X147531250Y-102743000D01*
X147690000Y-102584250D01*
X147690000Y-102268690D01*
X147593327Y-102035301D01*
X147414698Y-101856673D01*
X147181309Y-101760000D01*
X146815750Y-101760000D01*
X146657000Y-101918750D01*
X146403000Y-101918750D01*
X146244250Y-101760000D01*
X145878691Y-101760000D01*
X145645302Y-101856673D01*
X145574540Y-101927435D01*
X145545000Y-101907697D01*
X145545000Y-101145644D01*
X145579540Y-101122565D01*
X145650302Y-101193327D01*
X145883691Y-101290000D01*
X146249250Y-101290000D01*
X146408000Y-101131250D01*
X146408000Y-100307000D01*
X146662000Y-100307000D01*
X146662000Y-101131250D01*
X146820750Y-101290000D01*
X147186309Y-101290000D01*
X147419698Y-101193327D01*
X147598327Y-101014699D01*
X147695000Y-100781310D01*
X147695000Y-100465750D01*
X147536250Y-100307000D01*
X146662000Y-100307000D01*
X146408000Y-100307000D01*
X146388000Y-100307000D01*
X146388000Y-100053000D01*
X146408000Y-100053000D01*
X146408000Y-99228750D01*
X146662000Y-99228750D01*
X146662000Y-100053000D01*
X147536250Y-100053000D01*
X147695000Y-99894250D01*
X147695000Y-99578690D01*
X147598327Y-99345301D01*
X147419698Y-99166673D01*
X147186309Y-99070000D01*
X146820750Y-99070000D01*
X146662000Y-99228750D01*
X146408000Y-99228750D01*
X146249250Y-99070000D01*
X145883691Y-99070000D01*
X145650302Y-99166673D01*
X145579540Y-99237435D01*
X145545000Y-99214356D01*
X145545000Y-98415644D01*
X145579540Y-98392565D01*
X145650302Y-98463327D01*
X145883691Y-98560000D01*
X146249250Y-98560000D01*
X146408000Y-98401250D01*
X146408000Y-97577000D01*
X146662000Y-97577000D01*
X146662000Y-98401250D01*
X146820750Y-98560000D01*
X147186309Y-98560000D01*
X147419698Y-98463327D01*
X147598327Y-98284699D01*
X147695000Y-98051310D01*
X147695000Y-97735750D01*
X147536250Y-97577000D01*
X146662000Y-97577000D01*
X146408000Y-97577000D01*
X146388000Y-97577000D01*
X146388000Y-97323000D01*
X146408000Y-97323000D01*
X146408000Y-96498750D01*
X146662000Y-96498750D01*
X146662000Y-97323000D01*
X147536250Y-97323000D01*
X147695000Y-97164250D01*
X147695000Y-96848690D01*
X147598327Y-96615301D01*
X147419698Y-96436673D01*
X147186309Y-96340000D01*
X146820750Y-96340000D01*
X146662000Y-96498750D01*
X146408000Y-96498750D01*
X146249250Y-96340000D01*
X145883691Y-96340000D01*
X145650302Y-96436673D01*
X145579540Y-96507435D01*
X145545000Y-96484356D01*
X145545000Y-91179801D01*
X147088763Y-89636039D01*
X147139047Y-89602440D01*
X147925000Y-89602440D01*
X148268435Y-89534126D01*
X148392464Y-89451253D01*
X148416673Y-89509698D01*
X148595301Y-89688327D01*
X148828690Y-89785000D01*
X149544250Y-89785000D01*
X149703000Y-89626250D01*
X149703000Y-88564500D01*
X149957000Y-88564500D01*
X149957000Y-89626250D01*
X150115750Y-89785000D01*
X150831310Y-89785000D01*
X151064699Y-89688327D01*
X151243327Y-89509698D01*
X151340000Y-89276309D01*
X151340000Y-88723250D01*
X151181250Y-88564500D01*
X149957000Y-88564500D01*
X149703000Y-88564500D01*
X149683000Y-88564500D01*
X149683000Y-88310500D01*
X149703000Y-88310500D01*
X149703000Y-88290500D01*
X149957000Y-88290500D01*
X149957000Y-88310500D01*
X151181250Y-88310500D01*
X151340000Y-88151750D01*
X151340000Y-87598691D01*
X151243327Y-87365302D01*
X151138036Y-87260010D01*
X151840143Y-87260010D01*
X151914990Y-87274898D01*
X151989837Y-87260010D01*
X151989842Y-87260010D01*
X152211527Y-87215914D01*
X152462919Y-87047939D01*
X152505321Y-86984480D01*
X152872361Y-86617440D01*
X153470001Y-86617440D01*
X153543000Y-86602920D01*
X153543000Y-87630000D01*
X153552667Y-87678601D01*
X153580197Y-87719803D01*
X153621399Y-87747333D01*
X153670000Y-87757000D01*
X164698197Y-87757000D01*
X162857436Y-89597762D01*
X162790412Y-89570000D01*
X162209588Y-89570000D01*
X161672976Y-89792272D01*
X161262272Y-90202976D01*
X161242392Y-90250970D01*
X161025853Y-90183752D01*
X160179605Y-91030000D01*
X161025853Y-91876248D01*
X161242392Y-91809030D01*
X161262272Y-91857024D01*
X161672976Y-92267728D01*
X162209588Y-92490000D01*
X162790412Y-92490000D01*
X163247367Y-92300723D01*
X163031823Y-92516267D01*
X162840000Y-92979370D01*
X162840000Y-93480630D01*
X163031823Y-93943733D01*
X163386267Y-94298177D01*
X163849370Y-94490000D01*
X164350630Y-94490000D01*
X164813733Y-94298177D01*
X165168177Y-93943733D01*
X165360000Y-93480630D01*
X165360000Y-92979370D01*
X165168177Y-92516267D01*
X164813733Y-92161823D01*
X164350630Y-91970000D01*
X163849370Y-91970000D01*
X163465924Y-92128828D01*
X163737728Y-91857024D01*
X163960000Y-91320412D01*
X163960000Y-90739588D01*
X163932238Y-90672564D01*
X165780329Y-88824474D01*
X165905903Y-88636538D01*
X165964888Y-88340001D01*
X165905903Y-88043464D01*
X165737928Y-87792072D01*
X165685439Y-87757000D01*
X166243000Y-87757000D01*
X166243000Y-94615000D01*
X166252667Y-94663601D01*
X166280197Y-94704803D01*
X166321399Y-94732333D01*
X166370000Y-94742000D01*
X172506789Y-94742000D01*
X172233380Y-95015409D01*
X172169921Y-95057811D01*
X172001946Y-95309204D01*
X171957850Y-95530889D01*
X171957850Y-95530893D01*
X171942962Y-95605740D01*
X171957850Y-95680587D01*
X171957850Y-95954511D01*
X171938922Y-95908815D01*
X171521185Y-95491078D01*
X170975385Y-95265000D01*
X170384615Y-95265000D01*
X169838815Y-95491078D01*
X169421078Y-95908815D01*
X169410000Y-95935560D01*
X169398922Y-95908815D01*
X168981185Y-95491078D01*
X168435385Y-95265000D01*
X167844615Y-95265000D01*
X167298815Y-95491078D01*
X166881078Y-95908815D01*
X166870000Y-95935560D01*
X166858922Y-95908815D01*
X166441185Y-95491078D01*
X165895385Y-95265000D01*
X165304615Y-95265000D01*
X164758815Y-95491078D01*
X164341078Y-95908815D01*
X164330000Y-95935560D01*
X164318922Y-95908815D01*
X163901185Y-95491078D01*
X163355385Y-95265000D01*
X162764615Y-95265000D01*
X162218815Y-95491078D01*
X161801078Y-95908815D01*
X161790000Y-95935560D01*
X161778922Y-95908815D01*
X161361185Y-95491078D01*
X160815385Y-95265000D01*
X160224615Y-95265000D01*
X160143430Y-95298628D01*
X158260000Y-93415199D01*
X158260000Y-92295490D01*
X158327024Y-92267728D01*
X158538899Y-92055853D01*
X159153752Y-92055853D01*
X159230956Y-92304563D01*
X159777250Y-92501843D01*
X160357456Y-92475048D01*
X160769044Y-92304563D01*
X160846248Y-92055853D01*
X160000000Y-91209605D01*
X159153752Y-92055853D01*
X158538899Y-92055853D01*
X158737728Y-91857024D01*
X158757608Y-91809030D01*
X158974147Y-91876248D01*
X159820395Y-91030000D01*
X158974147Y-90183752D01*
X158757608Y-90250970D01*
X158737728Y-90202976D01*
X158538899Y-90004147D01*
X159153752Y-90004147D01*
X160000000Y-90850395D01*
X160846248Y-90004147D01*
X160769044Y-89755437D01*
X160222750Y-89558157D01*
X159642544Y-89584952D01*
X159230956Y-89755437D01*
X159153752Y-90004147D01*
X158538899Y-90004147D01*
X158327024Y-89792272D01*
X157790412Y-89570000D01*
X157209588Y-89570000D01*
X156672976Y-89792272D01*
X156262272Y-90202976D01*
X156250000Y-90232603D01*
X156237728Y-90202976D01*
X155827024Y-89792272D01*
X155290412Y-89570000D01*
X154709588Y-89570000D01*
X154172976Y-89792272D01*
X153762272Y-90202976D01*
X153540000Y-90739588D01*
X153540000Y-91320412D01*
X153762272Y-91857024D01*
X154172976Y-92267728D01*
X154240000Y-92295490D01*
X154240001Y-93695148D01*
X154225112Y-93770000D01*
X154240001Y-93844852D01*
X154284097Y-94066537D01*
X154452072Y-94317929D01*
X154515528Y-94360329D01*
X156528628Y-96373430D01*
X156495000Y-96454615D01*
X156495000Y-97045385D01*
X156721078Y-97591185D01*
X157138815Y-98008922D01*
X157684615Y-98235000D01*
X158275385Y-98235000D01*
X158821185Y-98008922D01*
X159238922Y-97591185D01*
X159250000Y-97564440D01*
X159261078Y-97591185D01*
X159678815Y-98008922D01*
X160224615Y-98235000D01*
X160815385Y-98235000D01*
X161361185Y-98008922D01*
X161778922Y-97591185D01*
X161790000Y-97564440D01*
X161801078Y-97591185D01*
X162218815Y-98008922D01*
X162764615Y-98235000D01*
X163355385Y-98235000D01*
X163901185Y-98008922D01*
X164318922Y-97591185D01*
X164330000Y-97564440D01*
X164341078Y-97591185D01*
X164758815Y-98008922D01*
X165304615Y-98235000D01*
X165895385Y-98235000D01*
X166441185Y-98008922D01*
X166858922Y-97591185D01*
X166870000Y-97564440D01*
X166881078Y-97591185D01*
X167298815Y-98008922D01*
X167844615Y-98235000D01*
X168435385Y-98235000D01*
X168981185Y-98008922D01*
X169398922Y-97591185D01*
X169410000Y-97564440D01*
X169421078Y-97591185D01*
X169838815Y-98008922D01*
X170384615Y-98235000D01*
X170975385Y-98235000D01*
X171521185Y-98008922D01*
X171938922Y-97591185D01*
X171957850Y-97545488D01*
X171957851Y-100432998D01*
X171942962Y-100507850D01*
X172001947Y-100804387D01*
X172086166Y-100930429D01*
X172169922Y-101055779D01*
X172233378Y-101098179D01*
X176529689Y-105394491D01*
X176572090Y-105457948D01*
X176823482Y-105625923D01*
X177045167Y-105670019D01*
X177045171Y-105670019D01*
X177120018Y-105684907D01*
X177194865Y-105670019D01*
X177325218Y-105670019D01*
X177402274Y-105747075D01*
X177159375Y-105909375D01*
X176831161Y-106400582D01*
X176715908Y-106980000D01*
X176831161Y-107559418D01*
X177159375Y-108050625D01*
X177457761Y-108250000D01*
X177159375Y-108449375D01*
X176831161Y-108940582D01*
X176715908Y-109520000D01*
X176831161Y-110099418D01*
X177159375Y-110590625D01*
X177650582Y-110918839D01*
X178083744Y-111005000D01*
X178376256Y-111005000D01*
X178809418Y-110918839D01*
X179300625Y-110590625D01*
X179500000Y-110292239D01*
X179699375Y-110590625D01*
X180190582Y-110918839D01*
X180623744Y-111005000D01*
X180916256Y-111005000D01*
X181349418Y-110918839D01*
X181840625Y-110590625D01*
X182040000Y-110292239D01*
X182239375Y-110590625D01*
X182730582Y-110918839D01*
X183163744Y-111005000D01*
X183456256Y-111005000D01*
X183889418Y-110918839D01*
X184380625Y-110590625D01*
X184580000Y-110292239D01*
X184779375Y-110590625D01*
X185270582Y-110918839D01*
X185703744Y-111005000D01*
X185996256Y-111005000D01*
X186429418Y-110918839D01*
X186920625Y-110590625D01*
X187120000Y-110292239D01*
X187319375Y-110590625D01*
X187810582Y-110918839D01*
X188243744Y-111005000D01*
X188536256Y-111005000D01*
X188969418Y-110918839D01*
X189460625Y-110590625D01*
X189660000Y-110292239D01*
X189859375Y-110590625D01*
X190350582Y-110918839D01*
X190783744Y-111005000D01*
X191076256Y-111005000D01*
X191509418Y-110918839D01*
X192000625Y-110590625D01*
X192200000Y-110292239D01*
X192399375Y-110590625D01*
X192890582Y-110918839D01*
X193323744Y-111005000D01*
X193616256Y-111005000D01*
X194049418Y-110918839D01*
X194540625Y-110590625D01*
X194740000Y-110292239D01*
X194939375Y-110590625D01*
X195430582Y-110918839D01*
X195863744Y-111005000D01*
X196156256Y-111005000D01*
X196589418Y-110918839D01*
X197080625Y-110590625D01*
X197280000Y-110292239D01*
X197479375Y-110590625D01*
X197970582Y-110918839D01*
X198403744Y-111005000D01*
X198696256Y-111005000D01*
X199129418Y-110918839D01*
X199620625Y-110590625D01*
X199820000Y-110292239D01*
X200019375Y-110590625D01*
X200510582Y-110918839D01*
X200943744Y-111005000D01*
X201236256Y-111005000D01*
X201669418Y-110918839D01*
X202160625Y-110590625D01*
X202360000Y-110292239D01*
X202559375Y-110590625D01*
X203050582Y-110918839D01*
X203483744Y-111005000D01*
X203776256Y-111005000D01*
X204209418Y-110918839D01*
X204700625Y-110590625D01*
X204900000Y-110292239D01*
X205099375Y-110590625D01*
X205590582Y-110918839D01*
X206023744Y-111005000D01*
X206316256Y-111005000D01*
X206749418Y-110918839D01*
X207240625Y-110590625D01*
X207568839Y-110099418D01*
X207684092Y-109520000D01*
X207568839Y-108940582D01*
X207240625Y-108449375D01*
X207218968Y-108434904D01*
X207379699Y-108368327D01*
X207558327Y-108189698D01*
X207655000Y-107956309D01*
X207655000Y-107265750D01*
X207496250Y-107107000D01*
X206297000Y-107107000D01*
X206297000Y-107127000D01*
X206043000Y-107127000D01*
X206043000Y-107107000D01*
X203757000Y-107107000D01*
X203757000Y-107127000D01*
X203503000Y-107127000D01*
X203503000Y-107107000D01*
X201217000Y-107107000D01*
X201217000Y-107127000D01*
X200963000Y-107127000D01*
X200963000Y-107107000D01*
X200943000Y-107107000D01*
X200943000Y-106853000D01*
X200963000Y-106853000D01*
X200963000Y-105659845D01*
X201217000Y-105659845D01*
X201217000Y-106853000D01*
X203503000Y-106853000D01*
X203503000Y-105659845D01*
X203757000Y-105659845D01*
X203757000Y-106853000D01*
X206043000Y-106853000D01*
X206043000Y-105653750D01*
X206297000Y-105653750D01*
X206297000Y-106853000D01*
X207496250Y-106853000D01*
X207655000Y-106694250D01*
X207655000Y-106003691D01*
X207558327Y-105770302D01*
X207379699Y-105591673D01*
X207146310Y-105495000D01*
X206455750Y-105495000D01*
X206297000Y-105653750D01*
X206043000Y-105653750D01*
X205884250Y-105495000D01*
X205193690Y-105495000D01*
X204960301Y-105591673D01*
X204781673Y-105770302D01*
X204694864Y-105979878D01*
X204396924Y-105708355D01*
X203986890Y-105538524D01*
X203757000Y-105659845D01*
X203503000Y-105659845D01*
X203273110Y-105538524D01*
X202863076Y-105708355D01*
X202434817Y-106098642D01*
X202360000Y-106257954D01*
X202285183Y-106098642D01*
X201856924Y-105708355D01*
X201446890Y-105538524D01*
X201217000Y-105659845D01*
X200963000Y-105659845D01*
X200733110Y-105538524D01*
X200323076Y-105708355D01*
X199894817Y-106098642D01*
X199833843Y-106228478D01*
X199620625Y-105909375D01*
X199129418Y-105581161D01*
X198696256Y-105495000D01*
X198403744Y-105495000D01*
X198183592Y-105538791D01*
X196050000Y-103405199D01*
X196050000Y-98114802D01*
X196629670Y-98694472D01*
X196672071Y-98757929D01*
X196923463Y-98925904D01*
X197145148Y-98970000D01*
X197145153Y-98970000D01*
X197220000Y-98984888D01*
X197294847Y-98970000D01*
X198250811Y-98970000D01*
X198433290Y-99091929D01*
X198737500Y-99152440D01*
X198777639Y-99152440D01*
X200019671Y-100394473D01*
X200062071Y-100457929D01*
X200313463Y-100625904D01*
X200535148Y-100670000D01*
X200535152Y-100670000D01*
X200609999Y-100684888D01*
X200684846Y-100670000D01*
X201484510Y-100670000D01*
X201512272Y-100737024D01*
X201922976Y-101147728D01*
X202459588Y-101370000D01*
X203040412Y-101370000D01*
X203577024Y-101147728D01*
X203788899Y-100935853D01*
X204403752Y-100935853D01*
X204480956Y-101184563D01*
X205027250Y-101381843D01*
X205607456Y-101355048D01*
X206019044Y-101184563D01*
X206096248Y-100935853D01*
X205250000Y-100089605D01*
X204403752Y-100935853D01*
X203788899Y-100935853D01*
X203987728Y-100737024D01*
X204007608Y-100689030D01*
X204224147Y-100756248D01*
X205070395Y-99910000D01*
X205429605Y-99910000D01*
X206275853Y-100756248D01*
X206524563Y-100679044D01*
X206721843Y-100132750D01*
X206695048Y-99552544D01*
X206524563Y-99140956D01*
X206275853Y-99063752D01*
X205429605Y-99910000D01*
X205070395Y-99910000D01*
X204224147Y-99063752D01*
X204007608Y-99130970D01*
X203987728Y-99082976D01*
X203788899Y-98884147D01*
X204403752Y-98884147D01*
X205250000Y-99730395D01*
X206096248Y-98884147D01*
X206019044Y-98635437D01*
X205472750Y-98438157D01*
X204892544Y-98464952D01*
X204480956Y-98635437D01*
X204403752Y-98884147D01*
X203788899Y-98884147D01*
X203577024Y-98672272D01*
X203040412Y-98450000D01*
X202459588Y-98450000D01*
X202002633Y-98639277D01*
X202218177Y-98423733D01*
X202410000Y-97960630D01*
X202410000Y-97459370D01*
X202218177Y-96996267D01*
X201863733Y-96641823D01*
X201400630Y-96450000D01*
X200899370Y-96450000D01*
X200436267Y-96641823D01*
X200081823Y-96996267D01*
X199890000Y-97459370D01*
X199890000Y-97960630D01*
X199999296Y-98224495D01*
X199877440Y-98102639D01*
X199877440Y-98062500D01*
X199816929Y-97758290D01*
X199794685Y-97725000D01*
X199816929Y-97691710D01*
X199877440Y-97387500D01*
X199877440Y-97092500D01*
X199816929Y-96788290D01*
X199772702Y-96722099D01*
X202312564Y-94182238D01*
X202379588Y-94210000D01*
X202960412Y-94210000D01*
X203497024Y-93987728D01*
X203708899Y-93775853D01*
X204323752Y-93775853D01*
X204400956Y-94024563D01*
X204947250Y-94221843D01*
X205527456Y-94195048D01*
X205939044Y-94024563D01*
X206016248Y-93775853D01*
X205170000Y-92929605D01*
X204323752Y-93775853D01*
X203708899Y-93775853D01*
X203907728Y-93577024D01*
X203927608Y-93529030D01*
X204144147Y-93596248D01*
X204990395Y-92750000D01*
X205349605Y-92750000D01*
X206195853Y-93596248D01*
X206444563Y-93519044D01*
X206641843Y-92972750D01*
X206615048Y-92392544D01*
X206444563Y-91980956D01*
X206195853Y-91903752D01*
X205349605Y-92750000D01*
X204990395Y-92750000D01*
X204144147Y-91903752D01*
X203927608Y-91970970D01*
X203907728Y-91922976D01*
X203708899Y-91724147D01*
X204323752Y-91724147D01*
X205170000Y-92570395D01*
X206016248Y-91724147D01*
X205939044Y-91475437D01*
X205392750Y-91278157D01*
X204812544Y-91304952D01*
X204400956Y-91475437D01*
X204323752Y-91724147D01*
X203708899Y-91724147D01*
X203497024Y-91512272D01*
X202960412Y-91290000D01*
X202379588Y-91290000D01*
X201842976Y-91512272D01*
X201432272Y-91922976D01*
X201420000Y-91952603D01*
X201407728Y-91922976D01*
X200997024Y-91512272D01*
X200460412Y-91290000D01*
X199879588Y-91290000D01*
X199422633Y-91479277D01*
X199638177Y-91263733D01*
X199830000Y-90800630D01*
X199830000Y-90299370D01*
X199638177Y-89836267D01*
X199283733Y-89481823D01*
X198820630Y-89290000D01*
X198319370Y-89290000D01*
X198250011Y-89318729D01*
X198250011Y-85554859D01*
X198264899Y-85480011D01*
X198250011Y-85405163D01*
X198250011Y-85405159D01*
X198205915Y-85183474D01*
X198205915Y-85183473D01*
X198200254Y-85175001D01*
X198530000Y-85175001D01*
X198530000Y-85530412D01*
X198752272Y-86067024D01*
X199162976Y-86477728D01*
X199699588Y-86700000D01*
X200280412Y-86700000D01*
X200817024Y-86477728D01*
X201227728Y-86067024D01*
X201240000Y-86037397D01*
X201252272Y-86067024D01*
X201662976Y-86477728D01*
X202199588Y-86700000D01*
X202780412Y-86700000D01*
X203317024Y-86477728D01*
X203528899Y-86265853D01*
X204143752Y-86265853D01*
X204220956Y-86514563D01*
X204767250Y-86711843D01*
X205347456Y-86685048D01*
X205759044Y-86514563D01*
X205836248Y-86265853D01*
X204990000Y-85419605D01*
X204143752Y-86265853D01*
X203528899Y-86265853D01*
X203727728Y-86067024D01*
X203747608Y-86019030D01*
X203964147Y-86086248D01*
X204810395Y-85240000D01*
X205169605Y-85240000D01*
X206015853Y-86086248D01*
X206264563Y-86009044D01*
X206461843Y-85462750D01*
X206435048Y-84882544D01*
X206264563Y-84470956D01*
X206015853Y-84393752D01*
X205169605Y-85240000D01*
X204810395Y-85240000D01*
X203964147Y-84393752D01*
X203747608Y-84460970D01*
X203727728Y-84412976D01*
X203528899Y-84214147D01*
X204143752Y-84214147D01*
X204990000Y-85060395D01*
X205836248Y-84214147D01*
X205759044Y-83965437D01*
X205212750Y-83768157D01*
X204632544Y-83794952D01*
X204220956Y-83965437D01*
X204143752Y-84214147D01*
X203528899Y-84214147D01*
X203317024Y-84002272D01*
X202780412Y-83780000D01*
X202199588Y-83780000D01*
X201662976Y-84002272D01*
X201252272Y-84412976D01*
X201240000Y-84442603D01*
X201227728Y-84412976D01*
X200817024Y-84002272D01*
X200280412Y-83780000D01*
X199699588Y-83780000D01*
X199627380Y-83809909D01*
X199476631Y-83709182D01*
X199650000Y-83290630D01*
X199650000Y-82789370D01*
X199458177Y-82326267D01*
X199103733Y-81971823D01*
X198640630Y-81780000D01*
X198139370Y-81780000D01*
X197676267Y-81971823D01*
X197321823Y-82326267D01*
X197226825Y-82555613D01*
X196586761Y-81915550D01*
X196544359Y-81852091D01*
X196292967Y-81684116D01*
X196071282Y-81640020D01*
X196071277Y-81640020D01*
X196004479Y-81626733D01*
X196824483Y-80806729D01*
X196887939Y-80764329D01*
X196991753Y-80608961D01*
X197055914Y-80512938D01*
X197069450Y-80444888D01*
X197100010Y-80291252D01*
X197100010Y-80291248D01*
X197114898Y-80216400D01*
X197100010Y-80141552D01*
X197100010Y-78814791D01*
X197474802Y-78440000D01*
X198724510Y-78440000D01*
X198752272Y-78507024D01*
X199162976Y-78917728D01*
X199699588Y-79140000D01*
X200280412Y-79140000D01*
X200817024Y-78917728D01*
X201227728Y-78507024D01*
X201240000Y-78477397D01*
X201252272Y-78507024D01*
X201662976Y-78917728D01*
X202199588Y-79140000D01*
X202780412Y-79140000D01*
X203317024Y-78917728D01*
X203528899Y-78705853D01*
X204143752Y-78705853D01*
X204220956Y-78954563D01*
X204767250Y-79151843D01*
X205347456Y-79125048D01*
X205759044Y-78954563D01*
X205836248Y-78705853D01*
X204990000Y-77859605D01*
X204143752Y-78705853D01*
X203528899Y-78705853D01*
X203727728Y-78507024D01*
X203747608Y-78459030D01*
X203964147Y-78526248D01*
X204810395Y-77680000D01*
X205169605Y-77680000D01*
X206015853Y-78526248D01*
X206264563Y-78449044D01*
X206461843Y-77902750D01*
X206435048Y-77322544D01*
X206264563Y-76910956D01*
X206015853Y-76833752D01*
X205169605Y-77680000D01*
X204810395Y-77680000D01*
X203964147Y-76833752D01*
X203747608Y-76900970D01*
X203727728Y-76852976D01*
X203528899Y-76654147D01*
X204143752Y-76654147D01*
X204990000Y-77500395D01*
X205836248Y-76654147D01*
X205759044Y-76405437D01*
X205212750Y-76208157D01*
X204632544Y-76234952D01*
X204220956Y-76405437D01*
X204143752Y-76654147D01*
X203528899Y-76654147D01*
X203317024Y-76442272D01*
X202780412Y-76220000D01*
X202199588Y-76220000D01*
X201662976Y-76442272D01*
X201252272Y-76852976D01*
X201240000Y-76882603D01*
X201227728Y-76852976D01*
X200817024Y-76442272D01*
X200280412Y-76220000D01*
X199699588Y-76220000D01*
X199242633Y-76409277D01*
X199458177Y-76193733D01*
X199650000Y-75730630D01*
X199650000Y-75229370D01*
X199458177Y-74766267D01*
X199103733Y-74411823D01*
X198640630Y-74220000D01*
X198139370Y-74220000D01*
X197676267Y-74411823D01*
X197321823Y-74766267D01*
X197130000Y-75229370D01*
X197130000Y-75730630D01*
X197321823Y-76193733D01*
X197676267Y-76548177D01*
X198139370Y-76740000D01*
X198640630Y-76740000D01*
X199024076Y-76581172D01*
X198752272Y-76852976D01*
X198724510Y-76920000D01*
X197234847Y-76920000D01*
X197160000Y-76905112D01*
X197085153Y-76920000D01*
X197085148Y-76920000D01*
X196863463Y-76964096D01*
X196612071Y-77132071D01*
X196600000Y-77150137D01*
X196600000Y-74514801D01*
X199619340Y-71495463D01*
X199627380Y-71490091D01*
X199699588Y-71520000D01*
X200280412Y-71520000D01*
X200817024Y-71297728D01*
X201227728Y-70887024D01*
X201240000Y-70857397D01*
X201252272Y-70887024D01*
X201662976Y-71297728D01*
X202199588Y-71520000D01*
X202780412Y-71520000D01*
X203317024Y-71297728D01*
X203528899Y-71085853D01*
X204143752Y-71085853D01*
X204220956Y-71334563D01*
X204767250Y-71531843D01*
X205347456Y-71505048D01*
X205759044Y-71334563D01*
X205836248Y-71085853D01*
X204990000Y-70239605D01*
X204143752Y-71085853D01*
X203528899Y-71085853D01*
X203727728Y-70887024D01*
X203747608Y-70839030D01*
X203964147Y-70906248D01*
X204810395Y-70060000D01*
X205169605Y-70060000D01*
X206015853Y-70906248D01*
X206264563Y-70829044D01*
X206461843Y-70282750D01*
X206435048Y-69702544D01*
X206264563Y-69290956D01*
X206015853Y-69213752D01*
X205169605Y-70060000D01*
X204810395Y-70060000D01*
X203964147Y-69213752D01*
X203747608Y-69280970D01*
X203727728Y-69232976D01*
X203528899Y-69034147D01*
X204143752Y-69034147D01*
X204990000Y-69880395D01*
X205836248Y-69034147D01*
X205759044Y-68785437D01*
X205212750Y-68588157D01*
X204632544Y-68614952D01*
X204220956Y-68785437D01*
X204143752Y-69034147D01*
X203528899Y-69034147D01*
X203317024Y-68822272D01*
X202780412Y-68600000D01*
X202199588Y-68600000D01*
X201662976Y-68822272D01*
X201252272Y-69232976D01*
X201240000Y-69262603D01*
X201227728Y-69232976D01*
X200817024Y-68822272D01*
X200280412Y-68600000D01*
X199699588Y-68600000D01*
X199242633Y-68789277D01*
X199458177Y-68573733D01*
X199650000Y-68110630D01*
X199650000Y-67609370D01*
X199458177Y-67146267D01*
X199103733Y-66791823D01*
X198640630Y-66600000D01*
X198139370Y-66600000D01*
X197676267Y-66791823D01*
X197321823Y-67146267D01*
X197130000Y-67609370D01*
X197130000Y-68110630D01*
X197321823Y-68573733D01*
X197676267Y-68928177D01*
X198139370Y-69120000D01*
X198640630Y-69120000D01*
X199024076Y-68961172D01*
X198752272Y-69232976D01*
X198530000Y-69769588D01*
X198530000Y-70350412D01*
X198554833Y-70410364D01*
X195355530Y-73609669D01*
X195292071Y-73652071D01*
X195124096Y-73903464D01*
X195080000Y-74125149D01*
X195080000Y-74125153D01*
X195065112Y-74200000D01*
X195080000Y-74274847D01*
X195080001Y-79695197D01*
X194035199Y-80740000D01*
X190543037Y-80740000D01*
X190884278Y-80598653D01*
X191288653Y-80194278D01*
X191507500Y-79665936D01*
X191507500Y-79094064D01*
X191288653Y-78565722D01*
X190884278Y-78161347D01*
X190355936Y-77942500D01*
X189784064Y-77942500D01*
X189456178Y-78078315D01*
X189490428Y-78055430D01*
X189532830Y-77991971D01*
X189729785Y-77795017D01*
X189784064Y-77817500D01*
X190355936Y-77817500D01*
X190884278Y-77598653D01*
X191288653Y-77194278D01*
X191507500Y-76665936D01*
X191507500Y-76094064D01*
X191288653Y-75565722D01*
X190884278Y-75161347D01*
X190355936Y-74942500D01*
X189784064Y-74942500D01*
X189255722Y-75161347D01*
X188851347Y-75565722D01*
X188632500Y-76094064D01*
X188632500Y-76665936D01*
X188654983Y-76720215D01*
X188627698Y-76747501D01*
X188473715Y-76747501D01*
X188507500Y-76665936D01*
X188507500Y-76094064D01*
X188288653Y-75565722D01*
X187884278Y-75161347D01*
X187355936Y-74942500D01*
X186784064Y-74942500D01*
X186255722Y-75161347D01*
X185851347Y-75565722D01*
X185632500Y-76094064D01*
X185632500Y-76665936D01*
X185654983Y-76720215D01*
X185364832Y-77010366D01*
X185507500Y-76665936D01*
X185507500Y-76094064D01*
X185288653Y-75565722D01*
X184884278Y-75161347D01*
X184355936Y-74942500D01*
X183784064Y-74942500D01*
X183255722Y-75161347D01*
X182851347Y-75565722D01*
X182632500Y-76094064D01*
X182632500Y-76665936D01*
X182654983Y-76720215D01*
X182364832Y-77010367D01*
X182507500Y-76665936D01*
X182507500Y-76094064D01*
X182288653Y-75565722D01*
X181884278Y-75161347D01*
X181355936Y-74942500D01*
X180784064Y-74942500D01*
X180255722Y-75161347D01*
X179851347Y-75565722D01*
X179632500Y-76094064D01*
X179632500Y-76665936D01*
X179654983Y-76720215D01*
X179627698Y-76747501D01*
X179473715Y-76747501D01*
X179507500Y-76665936D01*
X179507500Y-76094064D01*
X179288653Y-75565722D01*
X178884278Y-75161347D01*
X178355936Y-74942500D01*
X177784064Y-74942500D01*
X177255722Y-75161347D01*
X176851347Y-75565722D01*
X176828864Y-75620000D01*
X176164848Y-75620000D01*
X176090000Y-75605112D01*
X176015152Y-75620000D01*
X176015148Y-75620000D01*
X175793463Y-75664096D01*
X175542071Y-75832071D01*
X175499671Y-75895527D01*
X173945530Y-77449669D01*
X173882071Y-77492071D01*
X173714096Y-77743464D01*
X173670000Y-77965149D01*
X173670000Y-77965153D01*
X173655112Y-78040000D01*
X173670000Y-78114847D01*
X173670001Y-81901558D01*
X173655112Y-81976410D01*
X173714097Y-82272947D01*
X173753929Y-82332560D01*
X173642362Y-82332560D01*
X173482000Y-82172198D01*
X173482000Y-81915000D01*
X173472333Y-81866399D01*
X173444803Y-81825197D01*
X173403601Y-81797667D01*
X173355000Y-81788000D01*
X173097801Y-81788000D01*
X171945331Y-80635530D01*
X171902929Y-80572071D01*
X171651537Y-80404096D01*
X171429852Y-80360000D01*
X171429847Y-80360000D01*
X171355000Y-80345112D01*
X171280153Y-80360000D01*
X170285778Y-80360000D01*
X170279127Y-80326564D01*
X170084586Y-80035414D01*
X169793436Y-79840873D01*
X169450001Y-79772560D01*
X168799999Y-79772560D01*
X168456564Y-79840873D01*
X168165414Y-80035414D01*
X168100000Y-80133313D01*
X168034586Y-80035414D01*
X167743436Y-79840873D01*
X167400001Y-79772560D01*
X166749999Y-79772560D01*
X166406564Y-79840873D01*
X166115414Y-80035414D01*
X165920873Y-80326564D01*
X165914222Y-80360000D01*
X165303819Y-80360000D01*
X165228972Y-80345112D01*
X165154125Y-80360000D01*
X165154120Y-80360000D01*
X164932435Y-80404096D01*
X164761966Y-80518000D01*
X160867440Y-80518000D01*
X160867440Y-80317500D01*
X160806929Y-80013290D01*
X160634607Y-79755393D01*
X160376710Y-79583071D01*
X160072500Y-79522560D01*
X160050594Y-79522560D01*
X159350206Y-78822173D01*
X159371425Y-78813384D01*
X159517500Y-78842440D01*
X159642500Y-78842440D01*
X159830000Y-78805144D01*
X160017500Y-78842440D01*
X160142500Y-78842440D01*
X160330000Y-78805144D01*
X160517500Y-78842440D01*
X160642500Y-78842440D01*
X160830000Y-78805144D01*
X161017500Y-78842440D01*
X161142500Y-78842440D01*
X161286496Y-78813797D01*
X161417171Y-78944473D01*
X161459571Y-79007929D01*
X161710963Y-79175904D01*
X161932648Y-79220000D01*
X161932652Y-79220000D01*
X162007499Y-79234888D01*
X162082346Y-79220000D01*
X164827653Y-79220000D01*
X164902500Y-79234888D01*
X164977347Y-79220000D01*
X164977352Y-79220000D01*
X165199037Y-79175904D01*
X165450429Y-79007929D01*
X165492831Y-78944470D01*
X167144862Y-77292440D01*
X168055000Y-77292440D01*
X168398435Y-77224126D01*
X168689586Y-77029586D01*
X168884126Y-76738435D01*
X168952440Y-76395000D01*
X168952440Y-75145000D01*
X168884126Y-74801565D01*
X168689586Y-74510414D01*
X168398435Y-74315874D01*
X168055000Y-74247560D01*
X167667621Y-74247560D01*
X167854126Y-73968435D01*
X167922440Y-73625000D01*
X167922440Y-72375000D01*
X167874252Y-72132745D01*
X168048690Y-72205000D01*
X168211375Y-72205000D01*
X168177560Y-72375000D01*
X168177560Y-73625000D01*
X168245874Y-73968435D01*
X168440414Y-74259586D01*
X168731565Y-74454126D01*
X169075000Y-74522440D01*
X169462379Y-74522440D01*
X169275874Y-74801565D01*
X169207560Y-75145000D01*
X169207560Y-76395000D01*
X169275874Y-76738435D01*
X169470414Y-77029586D01*
X169761565Y-77224126D01*
X169807501Y-77233263D01*
X169807501Y-77552648D01*
X169792612Y-77627500D01*
X169807501Y-77702352D01*
X169824617Y-77788399D01*
X169851597Y-77924037D01*
X169972733Y-78105329D01*
X170019572Y-78175429D01*
X170083028Y-78217829D01*
X171575000Y-79709802D01*
X171575000Y-79875874D01*
X171732569Y-80256280D01*
X172023720Y-80547431D01*
X172404126Y-80705000D01*
X172815874Y-80705000D01*
X173196280Y-80547431D01*
X173487431Y-80256280D01*
X173645000Y-79875874D01*
X173645000Y-79464126D01*
X173487431Y-79083720D01*
X173196280Y-78792569D01*
X172815874Y-78635000D01*
X172649802Y-78635000D01*
X172475722Y-78460921D01*
X172846280Y-78307431D01*
X173137431Y-78016280D01*
X173295000Y-77635874D01*
X173295000Y-77224126D01*
X173137431Y-76843720D01*
X173020000Y-76726289D01*
X173020000Y-74984847D01*
X173034888Y-74910000D01*
X173020000Y-74835153D01*
X173020000Y-74835148D01*
X172975904Y-74613463D01*
X172807929Y-74362071D01*
X172744473Y-74319671D01*
X170940331Y-72515530D01*
X170897929Y-72452071D01*
X170897440Y-72451744D01*
X170897440Y-72375000D01*
X170829126Y-72031565D01*
X170634586Y-71740414D01*
X170560000Y-71690577D01*
X170560000Y-71630349D01*
X178060000Y-71630349D01*
X178060000Y-72489651D01*
X178388840Y-73283542D01*
X178996458Y-73891160D01*
X179790349Y-74220000D01*
X180649651Y-74220000D01*
X181443542Y-73891160D01*
X182051160Y-73283542D01*
X182380000Y-72489651D01*
X182380000Y-71630349D01*
X185760000Y-71630349D01*
X185760000Y-72489651D01*
X186088840Y-73283542D01*
X186696458Y-73891160D01*
X187490349Y-74220000D01*
X188349651Y-74220000D01*
X189143542Y-73891160D01*
X189751160Y-73283542D01*
X190080000Y-72489651D01*
X190080000Y-71630349D01*
X189751160Y-70836458D01*
X189143542Y-70228840D01*
X188349651Y-69900000D01*
X187490349Y-69900000D01*
X186696458Y-70228840D01*
X186088840Y-70836458D01*
X185760000Y-71630349D01*
X182380000Y-71630349D01*
X182051160Y-70836458D01*
X181443542Y-70228840D01*
X180649651Y-69900000D01*
X179790349Y-69900000D01*
X178996458Y-70228840D01*
X178388840Y-70836458D01*
X178060000Y-71630349D01*
X170560000Y-71630349D01*
X170560000Y-71143250D01*
X170401250Y-70984500D01*
X169177000Y-70984500D01*
X169177000Y-71004500D01*
X168923000Y-71004500D01*
X168923000Y-70984500D01*
X168903000Y-70984500D01*
X168903000Y-70730500D01*
X168923000Y-70730500D01*
X168923000Y-69668750D01*
X169177000Y-69668750D01*
X169177000Y-70730500D01*
X170401250Y-70730500D01*
X170560000Y-70571750D01*
X170560000Y-70018691D01*
X170463327Y-69785302D01*
X170284699Y-69606673D01*
X170051310Y-69510000D01*
X169335750Y-69510000D01*
X169177000Y-69668750D01*
X168923000Y-69668750D01*
X168764250Y-69510000D01*
X168048690Y-69510000D01*
X167815301Y-69606673D01*
X167636673Y-69785302D01*
X167631384Y-69798071D01*
X167619586Y-69780414D01*
X167328435Y-69585874D01*
X166985000Y-69517560D01*
X165735000Y-69517560D01*
X165391565Y-69585874D01*
X165100414Y-69780414D01*
X164905874Y-70071565D01*
X164837560Y-70415000D01*
X164837560Y-70488279D01*
X164834096Y-70493463D01*
X164775111Y-70790000D01*
X164834096Y-71086537D01*
X164837560Y-71091721D01*
X164837560Y-71165000D01*
X164847519Y-71215068D01*
X164822072Y-71232071D01*
X164779672Y-71295527D01*
X164779671Y-71295528D01*
X164654097Y-71483463D01*
X164595112Y-71780000D01*
X164610001Y-71854852D01*
X164610000Y-74045198D01*
X164520000Y-74135198D01*
X164520000Y-71784846D01*
X164534888Y-71709999D01*
X164520000Y-71635152D01*
X164520000Y-71635148D01*
X164502363Y-71546480D01*
X164542440Y-71345000D01*
X164542440Y-70595000D01*
X164474126Y-70251565D01*
X164279586Y-69960414D01*
X163988435Y-69765874D01*
X163645000Y-69697560D01*
X162395000Y-69697560D01*
X162051565Y-69765874D01*
X161760414Y-69960414D01*
X161565874Y-70251565D01*
X161500000Y-70582733D01*
X161500000Y-70196191D01*
X161403327Y-69962802D01*
X161224699Y-69784173D01*
X160991310Y-69687500D01*
X160275750Y-69687500D01*
X160117000Y-69846250D01*
X160117000Y-70908000D01*
X160137000Y-70908000D01*
X160137000Y-71162000D01*
X160117000Y-71162000D01*
X160117000Y-71182000D01*
X159863000Y-71182000D01*
X159863000Y-71162000D01*
X158638750Y-71162000D01*
X158480000Y-71320750D01*
X158480000Y-71805019D01*
X158330000Y-71834856D01*
X158142500Y-71797560D01*
X158017500Y-71797560D01*
X157830000Y-71834856D01*
X157642500Y-71797560D01*
X157557242Y-71797560D01*
X158089473Y-71265329D01*
X158152929Y-71222929D01*
X158193225Y-71162622D01*
X158231152Y-71155078D01*
X158518247Y-70963247D01*
X158588643Y-70857893D01*
X158638750Y-70908000D01*
X159863000Y-70908000D01*
X159863000Y-69846250D01*
X159704250Y-69687500D01*
X158988690Y-69687500D01*
X158761361Y-69781663D01*
X158710078Y-69523848D01*
X158518247Y-69236753D01*
X158231152Y-69044922D01*
X157892500Y-68977560D01*
X157317500Y-68977560D01*
X156978848Y-69044922D01*
X156730000Y-69211197D01*
X156592202Y-69119123D01*
X156570904Y-69012052D01*
X156402929Y-68760660D01*
X156339473Y-68718260D01*
X155218713Y-67597500D01*
X158467560Y-67597500D01*
X158467560Y-68522500D01*
X158535874Y-68865935D01*
X158730414Y-69157086D01*
X159021565Y-69351626D01*
X159365000Y-69419940D01*
X160615000Y-69419940D01*
X160958435Y-69351626D01*
X161249586Y-69157086D01*
X161444126Y-68865935D01*
X161453263Y-68820000D01*
X161552261Y-68820000D01*
X161565874Y-68888435D01*
X161760414Y-69179586D01*
X162051565Y-69374126D01*
X162395000Y-69442440D01*
X163645000Y-69442440D01*
X163988435Y-69374126D01*
X164279586Y-69179586D01*
X164474126Y-68888435D01*
X164542440Y-68545000D01*
X164542440Y-67795000D01*
X164506636Y-67615000D01*
X164837560Y-67615000D01*
X164837560Y-68365000D01*
X164905874Y-68708435D01*
X165100414Y-68999586D01*
X165391565Y-69194126D01*
X165735000Y-69262440D01*
X166985000Y-69262440D01*
X167328435Y-69194126D01*
X167619586Y-68999586D01*
X167711682Y-68861754D01*
X167790414Y-68979586D01*
X168081565Y-69174126D01*
X168425000Y-69242440D01*
X169675000Y-69242440D01*
X170018435Y-69174126D01*
X170309586Y-68979586D01*
X170504126Y-68688435D01*
X170572440Y-68345000D01*
X170572440Y-67420000D01*
X170504126Y-67076565D01*
X170309586Y-66785414D01*
X170018435Y-66590874D01*
X169675000Y-66522560D01*
X168425000Y-66522560D01*
X168081565Y-66590874D01*
X167790414Y-66785414D01*
X167639853Y-67010746D01*
X167619586Y-66980414D01*
X167328435Y-66785874D01*
X166985000Y-66717560D01*
X165735000Y-66717560D01*
X165391565Y-66785874D01*
X165100414Y-66980414D01*
X164905874Y-67271565D01*
X164837560Y-67615000D01*
X164506636Y-67615000D01*
X164474126Y-67451565D01*
X164279586Y-67160414D01*
X163988435Y-66965874D01*
X163645000Y-66897560D01*
X162395000Y-66897560D01*
X162051565Y-66965874D01*
X161760414Y-67160414D01*
X161667146Y-67300000D01*
X161453263Y-67300000D01*
X161444126Y-67254065D01*
X161249586Y-66962914D01*
X160958435Y-66768374D01*
X160615000Y-66700060D01*
X159365000Y-66700060D01*
X159021565Y-66768374D01*
X158730414Y-66962914D01*
X158535874Y-67254065D01*
X158467560Y-67597500D01*
X155218713Y-67597500D01*
X153899242Y-66278030D01*
X153856840Y-66214571D01*
X153785645Y-66167000D01*
X208153000Y-66167000D01*
X208153000Y-111050000D01*
X208153000Y-111050000D02*
X208153000Y-66167000D01*
G04 #@! TA.AperFunction,Conductor*
G36*
X208153000Y-111050000D02*
G01*
X171422014Y-111050000D01*
X171521185Y-111008922D01*
X171938922Y-110591185D01*
X172165000Y-110045385D01*
X172165000Y-109454615D01*
X171938922Y-108908815D01*
X171521185Y-108491078D01*
X170975385Y-108265000D01*
X170384615Y-108265000D01*
X169838815Y-108491078D01*
X169421078Y-108908815D01*
X169410000Y-108935560D01*
X169398922Y-108908815D01*
X168981185Y-108491078D01*
X168435385Y-108265000D01*
X167844615Y-108265000D01*
X167298815Y-108491078D01*
X166881078Y-108908815D01*
X166870000Y-108935560D01*
X166858922Y-108908815D01*
X166441185Y-108491078D01*
X165895385Y-108265000D01*
X165304615Y-108265000D01*
X164758815Y-108491078D01*
X164341078Y-108908815D01*
X164330000Y-108935560D01*
X164318922Y-108908815D01*
X163901185Y-108491078D01*
X163355385Y-108265000D01*
X162764615Y-108265000D01*
X162218815Y-108491078D01*
X161801078Y-108908815D01*
X161781845Y-108955247D01*
X161563958Y-108885647D01*
X160699605Y-109750000D01*
X161563958Y-110614353D01*
X161781845Y-110544753D01*
X161801078Y-110591185D01*
X162218815Y-111008922D01*
X162317986Y-111050000D01*
X161292634Y-111050000D01*
X161304080Y-111045259D01*
X161384353Y-110793958D01*
X160520000Y-109929605D01*
X159655647Y-110793958D01*
X159735920Y-111045259D01*
X159748989Y-111050000D01*
X158722014Y-111050000D01*
X158821185Y-111008922D01*
X159238922Y-110591185D01*
X159258155Y-110544753D01*
X159476042Y-110614353D01*
X160340395Y-109750000D01*
X159476042Y-108885647D01*
X159258155Y-108955247D01*
X159238922Y-108908815D01*
X159036149Y-108706042D01*
X159655647Y-108706042D01*
X160520000Y-109570395D01*
X161384353Y-108706042D01*
X161304080Y-108454741D01*
X160748721Y-108253282D01*
X160158542Y-108279685D01*
X159735920Y-108454741D01*
X159655647Y-108706042D01*
X159036149Y-108706042D01*
X158821185Y-108491078D01*
X158275385Y-108265000D01*
X157684615Y-108265000D01*
X157138815Y-108491078D01*
X156721078Y-108908815D01*
X156495000Y-109454615D01*
X156495000Y-110045385D01*
X156721078Y-110591185D01*
X157138815Y-111008922D01*
X157237986Y-111050000D01*
X152354702Y-111050000D01*
X152961160Y-110443542D01*
X153290000Y-109649651D01*
X153290000Y-108790349D01*
X152961160Y-107996458D01*
X152353542Y-107388840D01*
X152291613Y-107363188D01*
X153984473Y-105670329D01*
X154047929Y-105627929D01*
X154133409Y-105499999D01*
X154215904Y-105376538D01*
X154240068Y-105255055D01*
X154260000Y-105154852D01*
X154260000Y-105154848D01*
X154274888Y-105080000D01*
X154260000Y-105005152D01*
X154260000Y-102814846D01*
X154274888Y-102739999D01*
X154260000Y-102665152D01*
X154260000Y-102665148D01*
X154215904Y-102443463D01*
X154157737Y-102356410D01*
X154090329Y-102255526D01*
X154090327Y-102255524D01*
X154047929Y-102192071D01*
X153984475Y-102149673D01*
X153250331Y-101415529D01*
X153207929Y-101352071D01*
X152956537Y-101184096D01*
X152734852Y-101140000D01*
X152734847Y-101140000D01*
X152660000Y-101125112D01*
X152585153Y-101140000D01*
X152379255Y-101140000D01*
X152355012Y-101081473D01*
X151948527Y-100674988D01*
X151417428Y-100455000D01*
X150842572Y-100455000D01*
X150311473Y-100674988D01*
X149904988Y-101081473D01*
X149685000Y-101612572D01*
X149685000Y-102187428D01*
X149904988Y-102718527D01*
X150311473Y-103125012D01*
X150842572Y-103345000D01*
X151417428Y-103345000D01*
X151948527Y-103125012D01*
X152355012Y-102718527D01*
X152369280Y-102684081D01*
X152740001Y-103054803D01*
X152740000Y-104765198D01*
X152577885Y-104927313D01*
X152559886Y-104544945D01*
X152392144Y-104139980D01*
X152144988Y-104064617D01*
X151309605Y-104900000D01*
X151323748Y-104914143D01*
X151144143Y-105093748D01*
X151130000Y-105079605D01*
X150294617Y-105914988D01*
X150369980Y-106162144D01*
X150725018Y-106290000D01*
X147548026Y-106290000D01*
X147593327Y-106244699D01*
X147690000Y-106011310D01*
X147690000Y-105695750D01*
X147531250Y-105537000D01*
X146657000Y-105537000D01*
X146657000Y-105557000D01*
X146403000Y-105557000D01*
X146403000Y-105537000D01*
X146383000Y-105537000D01*
X146383000Y-105283000D01*
X146403000Y-105283000D01*
X146403000Y-104458750D01*
X146657000Y-104458750D01*
X146657000Y-105283000D01*
X147531250Y-105283000D01*
X147690000Y-105124250D01*
X147690000Y-104808690D01*
X147637041Y-104680834D01*
X149673084Y-104680834D01*
X149700114Y-105255055D01*
X149867856Y-105660020D01*
X150115012Y-105735383D01*
X150950395Y-104900000D01*
X150115012Y-104064617D01*
X149867856Y-104139980D01*
X149673084Y-104680834D01*
X147637041Y-104680834D01*
X147593327Y-104575301D01*
X147414698Y-104396673D01*
X147181309Y-104300000D01*
X146815750Y-104300000D01*
X146657000Y-104458750D01*
X146403000Y-104458750D01*
X146244250Y-104300000D01*
X145878691Y-104300000D01*
X145645302Y-104396673D01*
X145574540Y-104467435D01*
X145540000Y-104444356D01*
X145540000Y-103835644D01*
X145574540Y-103812565D01*
X145645302Y-103883327D01*
X145878691Y-103980000D01*
X146244250Y-103980000D01*
X146403000Y-103821250D01*
X146403000Y-102997000D01*
X146657000Y-102997000D01*
X146657000Y-103821250D01*
X146815750Y-103980000D01*
X147181309Y-103980000D01*
X147410630Y-103885012D01*
X150294617Y-103885012D01*
X151130000Y-104720395D01*
X151965383Y-103885012D01*
X151890020Y-103637856D01*
X151349166Y-103443084D01*
X150774945Y-103470114D01*
X150369980Y-103637856D01*
X150294617Y-103885012D01*
X147410630Y-103885012D01*
X147414698Y-103883327D01*
X147593327Y-103704699D01*
X147690000Y-103471310D01*
X147690000Y-103155750D01*
X147531250Y-102997000D01*
X146657000Y-102997000D01*
X146403000Y-102997000D01*
X146383000Y-102997000D01*
X146383000Y-102743000D01*
X146403000Y-102743000D01*
X146403000Y-101918750D01*
X146657000Y-101918750D01*
X146657000Y-102743000D01*
X147531250Y-102743000D01*
X147690000Y-102584250D01*
X147690000Y-102268690D01*
X147593327Y-102035301D01*
X147414698Y-101856673D01*
X147181309Y-101760000D01*
X146815750Y-101760000D01*
X146657000Y-101918750D01*
X146403000Y-101918750D01*
X146244250Y-101760000D01*
X145878691Y-101760000D01*
X145645302Y-101856673D01*
X145574540Y-101927435D01*
X145545000Y-101907697D01*
X145545000Y-101145644D01*
X145579540Y-101122565D01*
X145650302Y-101193327D01*
X145883691Y-101290000D01*
X146249250Y-101290000D01*
X146408000Y-101131250D01*
X146408000Y-100307000D01*
X146662000Y-100307000D01*
X146662000Y-101131250D01*
X146820750Y-101290000D01*
X147186309Y-101290000D01*
X147419698Y-101193327D01*
X147598327Y-101014699D01*
X147695000Y-100781310D01*
X147695000Y-100465750D01*
X147536250Y-100307000D01*
X146662000Y-100307000D01*
X146408000Y-100307000D01*
X146388000Y-100307000D01*
X146388000Y-100053000D01*
X146408000Y-100053000D01*
X146408000Y-99228750D01*
X146662000Y-99228750D01*
X146662000Y-100053000D01*
X147536250Y-100053000D01*
X147695000Y-99894250D01*
X147695000Y-99578690D01*
X147598327Y-99345301D01*
X147419698Y-99166673D01*
X147186309Y-99070000D01*
X146820750Y-99070000D01*
X146662000Y-99228750D01*
X146408000Y-99228750D01*
X146249250Y-99070000D01*
X145883691Y-99070000D01*
X145650302Y-99166673D01*
X145579540Y-99237435D01*
X145545000Y-99214356D01*
X145545000Y-98415644D01*
X145579540Y-98392565D01*
X145650302Y-98463327D01*
X145883691Y-98560000D01*
X146249250Y-98560000D01*
X146408000Y-98401250D01*
X146408000Y-97577000D01*
X146662000Y-97577000D01*
X146662000Y-98401250D01*
X146820750Y-98560000D01*
X147186309Y-98560000D01*
X147419698Y-98463327D01*
X147598327Y-98284699D01*
X147695000Y-98051310D01*
X147695000Y-97735750D01*
X147536250Y-97577000D01*
X146662000Y-97577000D01*
X146408000Y-97577000D01*
X146388000Y-97577000D01*
X146388000Y-97323000D01*
X146408000Y-97323000D01*
X146408000Y-96498750D01*
X146662000Y-96498750D01*
X146662000Y-97323000D01*
X147536250Y-97323000D01*
X147695000Y-97164250D01*
X147695000Y-96848690D01*
X147598327Y-96615301D01*
X147419698Y-96436673D01*
X147186309Y-96340000D01*
X146820750Y-96340000D01*
X146662000Y-96498750D01*
X146408000Y-96498750D01*
X146249250Y-96340000D01*
X145883691Y-96340000D01*
X145650302Y-96436673D01*
X145579540Y-96507435D01*
X145545000Y-96484356D01*
X145545000Y-91179801D01*
X147088763Y-89636039D01*
X147139047Y-89602440D01*
X147925000Y-89602440D01*
X148268435Y-89534126D01*
X148392464Y-89451253D01*
X148416673Y-89509698D01*
X148595301Y-89688327D01*
X148828690Y-89785000D01*
X149544250Y-89785000D01*
X149703000Y-89626250D01*
X149703000Y-88564500D01*
X149957000Y-88564500D01*
X149957000Y-89626250D01*
X150115750Y-89785000D01*
X150831310Y-89785000D01*
X151064699Y-89688327D01*
X151243327Y-89509698D01*
X151340000Y-89276309D01*
X151340000Y-88723250D01*
X151181250Y-88564500D01*
X149957000Y-88564500D01*
X149703000Y-88564500D01*
X149683000Y-88564500D01*
X149683000Y-88310500D01*
X149703000Y-88310500D01*
X149703000Y-88290500D01*
X149957000Y-88290500D01*
X149957000Y-88310500D01*
X151181250Y-88310500D01*
X151340000Y-88151750D01*
X151340000Y-87598691D01*
X151243327Y-87365302D01*
X151138036Y-87260010D01*
X151840143Y-87260010D01*
X151914990Y-87274898D01*
X151989837Y-87260010D01*
X151989842Y-87260010D01*
X152211527Y-87215914D01*
X152462919Y-87047939D01*
X152505321Y-86984480D01*
X152872361Y-86617440D01*
X153470001Y-86617440D01*
X153543000Y-86602920D01*
X153543000Y-87630000D01*
X153552667Y-87678601D01*
X153580197Y-87719803D01*
X153621399Y-87747333D01*
X153670000Y-87757000D01*
X164698197Y-87757000D01*
X162857436Y-89597762D01*
X162790412Y-89570000D01*
X162209588Y-89570000D01*
X161672976Y-89792272D01*
X161262272Y-90202976D01*
X161242392Y-90250970D01*
X161025853Y-90183752D01*
X160179605Y-91030000D01*
X161025853Y-91876248D01*
X161242392Y-91809030D01*
X161262272Y-91857024D01*
X161672976Y-92267728D01*
X162209588Y-92490000D01*
X162790412Y-92490000D01*
X163247367Y-92300723D01*
X163031823Y-92516267D01*
X162840000Y-92979370D01*
X162840000Y-93480630D01*
X163031823Y-93943733D01*
X163386267Y-94298177D01*
X163849370Y-94490000D01*
X164350630Y-94490000D01*
X164813733Y-94298177D01*
X165168177Y-93943733D01*
X165360000Y-93480630D01*
X165360000Y-92979370D01*
X165168177Y-92516267D01*
X164813733Y-92161823D01*
X164350630Y-91970000D01*
X163849370Y-91970000D01*
X163465924Y-92128828D01*
X163737728Y-91857024D01*
X163960000Y-91320412D01*
X163960000Y-90739588D01*
X163932238Y-90672564D01*
X165780329Y-88824474D01*
X165905903Y-88636538D01*
X165964888Y-88340001D01*
X165905903Y-88043464D01*
X165737928Y-87792072D01*
X165685439Y-87757000D01*
X166243000Y-87757000D01*
X166243000Y-94615000D01*
X166252667Y-94663601D01*
X166280197Y-94704803D01*
X166321399Y-94732333D01*
X166370000Y-94742000D01*
X172506789Y-94742000D01*
X172233380Y-95015409D01*
X172169921Y-95057811D01*
X172001946Y-95309204D01*
X171957850Y-95530889D01*
X171957850Y-95530893D01*
X171942962Y-95605740D01*
X171957850Y-95680587D01*
X171957850Y-95954511D01*
X171938922Y-95908815D01*
X171521185Y-95491078D01*
X170975385Y-95265000D01*
X170384615Y-95265000D01*
X169838815Y-95491078D01*
X169421078Y-95908815D01*
X169410000Y-95935560D01*
X169398922Y-95908815D01*
X168981185Y-95491078D01*
X168435385Y-95265000D01*
X167844615Y-95265000D01*
X167298815Y-95491078D01*
X166881078Y-95908815D01*
X166870000Y-95935560D01*
X166858922Y-95908815D01*
X166441185Y-95491078D01*
X165895385Y-95265000D01*
X165304615Y-95265000D01*
X164758815Y-95491078D01*
X164341078Y-95908815D01*
X164330000Y-95935560D01*
X164318922Y-95908815D01*
X163901185Y-95491078D01*
X163355385Y-95265000D01*
X162764615Y-95265000D01*
X162218815Y-95491078D01*
X161801078Y-95908815D01*
X161790000Y-95935560D01*
X161778922Y-95908815D01*
X161361185Y-95491078D01*
X160815385Y-95265000D01*
X160224615Y-95265000D01*
X160143430Y-95298628D01*
X158260000Y-93415199D01*
X158260000Y-92295490D01*
X158327024Y-92267728D01*
X158538899Y-92055853D01*
X159153752Y-92055853D01*
X159230956Y-92304563D01*
X159777250Y-92501843D01*
X160357456Y-92475048D01*
X160769044Y-92304563D01*
X160846248Y-92055853D01*
X160000000Y-91209605D01*
X159153752Y-92055853D01*
X158538899Y-92055853D01*
X158737728Y-91857024D01*
X158757608Y-91809030D01*
X158974147Y-91876248D01*
X159820395Y-91030000D01*
X158974147Y-90183752D01*
X158757608Y-90250970D01*
X158737728Y-90202976D01*
X158538899Y-90004147D01*
X159153752Y-90004147D01*
X160000000Y-90850395D01*
X160846248Y-90004147D01*
X160769044Y-89755437D01*
X160222750Y-89558157D01*
X159642544Y-89584952D01*
X159230956Y-89755437D01*
X159153752Y-90004147D01*
X158538899Y-90004147D01*
X158327024Y-89792272D01*
X157790412Y-89570000D01*
X157209588Y-89570000D01*
X156672976Y-89792272D01*
X156262272Y-90202976D01*
X156250000Y-90232603D01*
X156237728Y-90202976D01*
X155827024Y-89792272D01*
X155290412Y-89570000D01*
X154709588Y-89570000D01*
X154172976Y-89792272D01*
X153762272Y-90202976D01*
X153540000Y-90739588D01*
X153540000Y-91320412D01*
X153762272Y-91857024D01*
X154172976Y-92267728D01*
X154240000Y-92295490D01*
X154240001Y-93695148D01*
X154225112Y-93770000D01*
X154240001Y-93844852D01*
X154284097Y-94066537D01*
X154452072Y-94317929D01*
X154515528Y-94360329D01*
X156528628Y-96373430D01*
X156495000Y-96454615D01*
X156495000Y-97045385D01*
X156721078Y-97591185D01*
X157138815Y-98008922D01*
X157684615Y-98235000D01*
X158275385Y-98235000D01*
X158821185Y-98008922D01*
X159238922Y-97591185D01*
X159250000Y-97564440D01*
X159261078Y-97591185D01*
X159678815Y-98008922D01*
X160224615Y-98235000D01*
X160815385Y-98235000D01*
X161361185Y-98008922D01*
X161778922Y-97591185D01*
X161790000Y-97564440D01*
X161801078Y-97591185D01*
X162218815Y-98008922D01*
X162764615Y-98235000D01*
X163355385Y-98235000D01*
X163901185Y-98008922D01*
X164318922Y-97591185D01*
X164330000Y-97564440D01*
X164341078Y-97591185D01*
X164758815Y-98008922D01*
X165304615Y-98235000D01*
X165895385Y-98235000D01*
X166441185Y-98008922D01*
X166858922Y-97591185D01*
X166870000Y-97564440D01*
X166881078Y-97591185D01*
X167298815Y-98008922D01*
X167844615Y-98235000D01*
X168435385Y-98235000D01*
X168981185Y-98008922D01*
X169398922Y-97591185D01*
X169410000Y-97564440D01*
X169421078Y-97591185D01*
X169838815Y-98008922D01*
X170384615Y-98235000D01*
X170975385Y-98235000D01*
X171521185Y-98008922D01*
X171938922Y-97591185D01*
X171957850Y-97545488D01*
X171957851Y-100432998D01*
X171942962Y-100507850D01*
X172001947Y-100804387D01*
X172086166Y-100930429D01*
X172169922Y-101055779D01*
X172233378Y-101098179D01*
X176529689Y-105394491D01*
X176572090Y-105457948D01*
X176823482Y-105625923D01*
X177045167Y-105670019D01*
X177045171Y-105670019D01*
X177120018Y-105684907D01*
X177194865Y-105670019D01*
X177325218Y-105670019D01*
X177402274Y-105747075D01*
X177159375Y-105909375D01*
X176831161Y-106400582D01*
X176715908Y-106980000D01*
X176831161Y-107559418D01*
X177159375Y-108050625D01*
X177457761Y-108250000D01*
X177159375Y-108449375D01*
X176831161Y-108940582D01*
X176715908Y-109520000D01*
X176831161Y-110099418D01*
X177159375Y-110590625D01*
X177650582Y-110918839D01*
X178083744Y-111005000D01*
X178376256Y-111005000D01*
X178809418Y-110918839D01*
X179300625Y-110590625D01*
X179500000Y-110292239D01*
X179699375Y-110590625D01*
X180190582Y-110918839D01*
X180623744Y-111005000D01*
X180916256Y-111005000D01*
X181349418Y-110918839D01*
X181840625Y-110590625D01*
X182040000Y-110292239D01*
X182239375Y-110590625D01*
X182730582Y-110918839D01*
X183163744Y-111005000D01*
X183456256Y-111005000D01*
X183889418Y-110918839D01*
X184380625Y-110590625D01*
X184580000Y-110292239D01*
X184779375Y-110590625D01*
X185270582Y-110918839D01*
X185703744Y-111005000D01*
X185996256Y-111005000D01*
X186429418Y-110918839D01*
X186920625Y-110590625D01*
X187120000Y-110292239D01*
X187319375Y-110590625D01*
X187810582Y-110918839D01*
X188243744Y-111005000D01*
X188536256Y-111005000D01*
X188969418Y-110918839D01*
X189460625Y-110590625D01*
X189660000Y-110292239D01*
X189859375Y-110590625D01*
X190350582Y-110918839D01*
X190783744Y-111005000D01*
X191076256Y-111005000D01*
X191509418Y-110918839D01*
X192000625Y-110590625D01*
X192200000Y-110292239D01*
X192399375Y-110590625D01*
X192890582Y-110918839D01*
X193323744Y-111005000D01*
X193616256Y-111005000D01*
X194049418Y-110918839D01*
X194540625Y-110590625D01*
X194740000Y-110292239D01*
X194939375Y-110590625D01*
X195430582Y-110918839D01*
X195863744Y-111005000D01*
X196156256Y-111005000D01*
X196589418Y-110918839D01*
X197080625Y-110590625D01*
X197280000Y-110292239D01*
X197479375Y-110590625D01*
X197970582Y-110918839D01*
X198403744Y-111005000D01*
X198696256Y-111005000D01*
X199129418Y-110918839D01*
X199620625Y-110590625D01*
X199820000Y-110292239D01*
X200019375Y-110590625D01*
X200510582Y-110918839D01*
X200943744Y-111005000D01*
X201236256Y-111005000D01*
X201669418Y-110918839D01*
X202160625Y-110590625D01*
X202360000Y-110292239D01*
X202559375Y-110590625D01*
X203050582Y-110918839D01*
X203483744Y-111005000D01*
X203776256Y-111005000D01*
X204209418Y-110918839D01*
X204700625Y-110590625D01*
X204900000Y-110292239D01*
X205099375Y-110590625D01*
X205590582Y-110918839D01*
X206023744Y-111005000D01*
X206316256Y-111005000D01*
X206749418Y-110918839D01*
X207240625Y-110590625D01*
X207568839Y-110099418D01*
X207684092Y-109520000D01*
X207568839Y-108940582D01*
X207240625Y-108449375D01*
X207218968Y-108434904D01*
X207379699Y-108368327D01*
X207558327Y-108189698D01*
X207655000Y-107956309D01*
X207655000Y-107265750D01*
X207496250Y-107107000D01*
X206297000Y-107107000D01*
X206297000Y-107127000D01*
X206043000Y-107127000D01*
X206043000Y-107107000D01*
X203757000Y-107107000D01*
X203757000Y-107127000D01*
X203503000Y-107127000D01*
X203503000Y-107107000D01*
X201217000Y-107107000D01*
X201217000Y-107127000D01*
X200963000Y-107127000D01*
X200963000Y-107107000D01*
X200943000Y-107107000D01*
X200943000Y-106853000D01*
X200963000Y-106853000D01*
X200963000Y-105659845D01*
X201217000Y-105659845D01*
X201217000Y-106853000D01*
X203503000Y-106853000D01*
X203503000Y-105659845D01*
X203757000Y-105659845D01*
X203757000Y-106853000D01*
X206043000Y-106853000D01*
X206043000Y-105653750D01*
X206297000Y-105653750D01*
X206297000Y-106853000D01*
X207496250Y-106853000D01*
X207655000Y-106694250D01*
X207655000Y-106003691D01*
X207558327Y-105770302D01*
X207379699Y-105591673D01*
X207146310Y-105495000D01*
X206455750Y-105495000D01*
X206297000Y-105653750D01*
X206043000Y-105653750D01*
X205884250Y-105495000D01*
X205193690Y-105495000D01*
X204960301Y-105591673D01*
X204781673Y-105770302D01*
X204694864Y-105979878D01*
X204396924Y-105708355D01*
X203986890Y-105538524D01*
X203757000Y-105659845D01*
X203503000Y-105659845D01*
X203273110Y-105538524D01*
X202863076Y-105708355D01*
X202434817Y-106098642D01*
X202360000Y-106257954D01*
X202285183Y-106098642D01*
X201856924Y-105708355D01*
X201446890Y-105538524D01*
X201217000Y-105659845D01*
X200963000Y-105659845D01*
X200733110Y-105538524D01*
X200323076Y-105708355D01*
X199894817Y-106098642D01*
X199833843Y-106228478D01*
X199620625Y-105909375D01*
X199129418Y-105581161D01*
X198696256Y-105495000D01*
X198403744Y-105495000D01*
X198183592Y-105538791D01*
X196050000Y-103405199D01*
X196050000Y-98114802D01*
X196629670Y-98694472D01*
X196672071Y-98757929D01*
X196923463Y-98925904D01*
X197145148Y-98970000D01*
X197145153Y-98970000D01*
X197220000Y-98984888D01*
X197294847Y-98970000D01*
X198250811Y-98970000D01*
X198433290Y-99091929D01*
X198737500Y-99152440D01*
X198777639Y-99152440D01*
X200019671Y-100394473D01*
X200062071Y-100457929D01*
X200313463Y-100625904D01*
X200535148Y-100670000D01*
X200535152Y-100670000D01*
X200609999Y-100684888D01*
X200684846Y-100670000D01*
X201484510Y-100670000D01*
X201512272Y-100737024D01*
X201922976Y-101147728D01*
X202459588Y-101370000D01*
X203040412Y-101370000D01*
X203577024Y-101147728D01*
X203788899Y-100935853D01*
X204403752Y-100935853D01*
X204480956Y-101184563D01*
X205027250Y-101381843D01*
X205607456Y-101355048D01*
X206019044Y-101184563D01*
X206096248Y-100935853D01*
X205250000Y-100089605D01*
X204403752Y-100935853D01*
X203788899Y-100935853D01*
X203987728Y-100737024D01*
X204007608Y-100689030D01*
X204224147Y-100756248D01*
X205070395Y-99910000D01*
X205429605Y-99910000D01*
X206275853Y-100756248D01*
X206524563Y-100679044D01*
X206721843Y-100132750D01*
X206695048Y-99552544D01*
X206524563Y-99140956D01*
X206275853Y-99063752D01*
X205429605Y-99910000D01*
X205070395Y-99910000D01*
X204224147Y-99063752D01*
X204007608Y-99130970D01*
X203987728Y-99082976D01*
X203788899Y-98884147D01*
X204403752Y-98884147D01*
X205250000Y-99730395D01*
X206096248Y-98884147D01*
X206019044Y-98635437D01*
X205472750Y-98438157D01*
X204892544Y-98464952D01*
X204480956Y-98635437D01*
X204403752Y-98884147D01*
X203788899Y-98884147D01*
X203577024Y-98672272D01*
X203040412Y-98450000D01*
X202459588Y-98450000D01*
X202002633Y-98639277D01*
X202218177Y-98423733D01*
X202410000Y-97960630D01*
X202410000Y-97459370D01*
X202218177Y-96996267D01*
X201863733Y-96641823D01*
X201400630Y-96450000D01*
X200899370Y-96450000D01*
X200436267Y-96641823D01*
X200081823Y-96996267D01*
X199890000Y-97459370D01*
X199890000Y-97960630D01*
X199999296Y-98224495D01*
X199877440Y-98102639D01*
X199877440Y-98062500D01*
X199816929Y-97758290D01*
X199794685Y-97725000D01*
X199816929Y-97691710D01*
X199877440Y-97387500D01*
X199877440Y-97092500D01*
X199816929Y-96788290D01*
X199772702Y-96722099D01*
X202312564Y-94182238D01*
X202379588Y-94210000D01*
X202960412Y-94210000D01*
X203497024Y-93987728D01*
X203708899Y-93775853D01*
X204323752Y-93775853D01*
X204400956Y-94024563D01*
X204947250Y-94221843D01*
X205527456Y-94195048D01*
X205939044Y-94024563D01*
X206016248Y-93775853D01*
X205170000Y-92929605D01*
X204323752Y-93775853D01*
X203708899Y-93775853D01*
X203907728Y-93577024D01*
X203927608Y-93529030D01*
X204144147Y-93596248D01*
X204990395Y-92750000D01*
X205349605Y-92750000D01*
X206195853Y-93596248D01*
X206444563Y-93519044D01*
X206641843Y-92972750D01*
X206615048Y-92392544D01*
X206444563Y-91980956D01*
X206195853Y-91903752D01*
X205349605Y-92750000D01*
X204990395Y-92750000D01*
X204144147Y-91903752D01*
X203927608Y-91970970D01*
X203907728Y-91922976D01*
X203708899Y-91724147D01*
X204323752Y-91724147D01*
X205170000Y-92570395D01*
X206016248Y-91724147D01*
X205939044Y-91475437D01*
X205392750Y-91278157D01*
X204812544Y-91304952D01*
X204400956Y-91475437D01*
X204323752Y-91724147D01*
X203708899Y-91724147D01*
X203497024Y-91512272D01*
X202960412Y-91290000D01*
X202379588Y-91290000D01*
X201842976Y-91512272D01*
X201432272Y-91922976D01*
X201420000Y-91952603D01*
X201407728Y-91922976D01*
X200997024Y-91512272D01*
X200460412Y-91290000D01*
X199879588Y-91290000D01*
X199422633Y-91479277D01*
X199638177Y-91263733D01*
X199830000Y-90800630D01*
X199830000Y-90299370D01*
X199638177Y-89836267D01*
X199283733Y-89481823D01*
X198820630Y-89290000D01*
X198319370Y-89290000D01*
X198250011Y-89318729D01*
X198250011Y-85554859D01*
X198264899Y-85480011D01*
X198250011Y-85405163D01*
X198250011Y-85405159D01*
X198205915Y-85183474D01*
X198205915Y-85183473D01*
X198200254Y-85175001D01*
X198530000Y-85175001D01*
X198530000Y-85530412D01*
X198752272Y-86067024D01*
X199162976Y-86477728D01*
X199699588Y-86700000D01*
X200280412Y-86700000D01*
X200817024Y-86477728D01*
X201227728Y-86067024D01*
X201240000Y-86037397D01*
X201252272Y-86067024D01*
X201662976Y-86477728D01*
X202199588Y-86700000D01*
X202780412Y-86700000D01*
X203317024Y-86477728D01*
X203528899Y-86265853D01*
X204143752Y-86265853D01*
X204220956Y-86514563D01*
X204767250Y-86711843D01*
X205347456Y-86685048D01*
X205759044Y-86514563D01*
X205836248Y-86265853D01*
X204990000Y-85419605D01*
X204143752Y-86265853D01*
X203528899Y-86265853D01*
X203727728Y-86067024D01*
X203747608Y-86019030D01*
X203964147Y-86086248D01*
X204810395Y-85240000D01*
X205169605Y-85240000D01*
X206015853Y-86086248D01*
X206264563Y-86009044D01*
X206461843Y-85462750D01*
X206435048Y-84882544D01*
X206264563Y-84470956D01*
X206015853Y-84393752D01*
X205169605Y-85240000D01*
X204810395Y-85240000D01*
X203964147Y-84393752D01*
X203747608Y-84460970D01*
X203727728Y-84412976D01*
X203528899Y-84214147D01*
X204143752Y-84214147D01*
X204990000Y-85060395D01*
X205836248Y-84214147D01*
X205759044Y-83965437D01*
X205212750Y-83768157D01*
X204632544Y-83794952D01*
X204220956Y-83965437D01*
X204143752Y-84214147D01*
X203528899Y-84214147D01*
X203317024Y-84002272D01*
X202780412Y-83780000D01*
X202199588Y-83780000D01*
X201662976Y-84002272D01*
X201252272Y-84412976D01*
X201240000Y-84442603D01*
X201227728Y-84412976D01*
X200817024Y-84002272D01*
X200280412Y-83780000D01*
X199699588Y-83780000D01*
X199627380Y-83809909D01*
X199476631Y-83709182D01*
X199650000Y-83290630D01*
X199650000Y-82789370D01*
X199458177Y-82326267D01*
X199103733Y-81971823D01*
X198640630Y-81780000D01*
X198139370Y-81780000D01*
X197676267Y-81971823D01*
X197321823Y-82326267D01*
X197226825Y-82555613D01*
X196586761Y-81915550D01*
X196544359Y-81852091D01*
X196292967Y-81684116D01*
X196071282Y-81640020D01*
X196071277Y-81640020D01*
X196004479Y-81626733D01*
X196824483Y-80806729D01*
X196887939Y-80764329D01*
X196991753Y-80608961D01*
X197055914Y-80512938D01*
X197069450Y-80444888D01*
X197100010Y-80291252D01*
X197100010Y-80291248D01*
X197114898Y-80216400D01*
X197100010Y-80141552D01*
X197100010Y-78814791D01*
X197474802Y-78440000D01*
X198724510Y-78440000D01*
X198752272Y-78507024D01*
X199162976Y-78917728D01*
X199699588Y-79140000D01*
X200280412Y-79140000D01*
X200817024Y-78917728D01*
X201227728Y-78507024D01*
X201240000Y-78477397D01*
X201252272Y-78507024D01*
X201662976Y-78917728D01*
X202199588Y-79140000D01*
X202780412Y-79140000D01*
X203317024Y-78917728D01*
X203528899Y-78705853D01*
X204143752Y-78705853D01*
X204220956Y-78954563D01*
X204767250Y-79151843D01*
X205347456Y-79125048D01*
X205759044Y-78954563D01*
X205836248Y-78705853D01*
X204990000Y-77859605D01*
X204143752Y-78705853D01*
X203528899Y-78705853D01*
X203727728Y-78507024D01*
X203747608Y-78459030D01*
X203964147Y-78526248D01*
X204810395Y-77680000D01*
X205169605Y-77680000D01*
X206015853Y-78526248D01*
X206264563Y-78449044D01*
X206461843Y-77902750D01*
X206435048Y-77322544D01*
X206264563Y-76910956D01*
X206015853Y-76833752D01*
X205169605Y-77680000D01*
X204810395Y-77680000D01*
X203964147Y-76833752D01*
X203747608Y-76900970D01*
X203727728Y-76852976D01*
X203528899Y-76654147D01*
X204143752Y-76654147D01*
X204990000Y-77500395D01*
X205836248Y-76654147D01*
X205759044Y-76405437D01*
X205212750Y-76208157D01*
X204632544Y-76234952D01*
X204220956Y-76405437D01*
X204143752Y-76654147D01*
X203528899Y-76654147D01*
X203317024Y-76442272D01*
X202780412Y-76220000D01*
X202199588Y-76220000D01*
X201662976Y-76442272D01*
X201252272Y-76852976D01*
X201240000Y-76882603D01*
X201227728Y-76852976D01*
X200817024Y-76442272D01*
X200280412Y-76220000D01*
X199699588Y-76220000D01*
X199242633Y-76409277D01*
X199458177Y-76193733D01*
X199650000Y-75730630D01*
X199650000Y-75229370D01*
X199458177Y-74766267D01*
X199103733Y-74411823D01*
X198640630Y-74220000D01*
X198139370Y-74220000D01*
X197676267Y-74411823D01*
X197321823Y-74766267D01*
X197130000Y-75229370D01*
X197130000Y-75730630D01*
X197321823Y-76193733D01*
X197676267Y-76548177D01*
X198139370Y-76740000D01*
X198640630Y-76740000D01*
X199024076Y-76581172D01*
X198752272Y-76852976D01*
X198724510Y-76920000D01*
X197234847Y-76920000D01*
X197160000Y-76905112D01*
X197085153Y-76920000D01*
X197085148Y-76920000D01*
X196863463Y-76964096D01*
X196612071Y-77132071D01*
X196600000Y-77150137D01*
X196600000Y-74514801D01*
X199619340Y-71495463D01*
X199627380Y-71490091D01*
X199699588Y-71520000D01*
X200280412Y-71520000D01*
X200817024Y-71297728D01*
X201227728Y-70887024D01*
X201240000Y-70857397D01*
X201252272Y-70887024D01*
X201662976Y-71297728D01*
X202199588Y-71520000D01*
X202780412Y-71520000D01*
X203317024Y-71297728D01*
X203528899Y-71085853D01*
X204143752Y-71085853D01*
X204220956Y-71334563D01*
X204767250Y-71531843D01*
X205347456Y-71505048D01*
X205759044Y-71334563D01*
X205836248Y-71085853D01*
X204990000Y-70239605D01*
X204143752Y-71085853D01*
X203528899Y-71085853D01*
X203727728Y-70887024D01*
X203747608Y-70839030D01*
X203964147Y-70906248D01*
X204810395Y-70060000D01*
X205169605Y-70060000D01*
X206015853Y-70906248D01*
X206264563Y-70829044D01*
X206461843Y-70282750D01*
X206435048Y-69702544D01*
X206264563Y-69290956D01*
X206015853Y-69213752D01*
X205169605Y-70060000D01*
X204810395Y-70060000D01*
X203964147Y-69213752D01*
X203747608Y-69280970D01*
X203727728Y-69232976D01*
X203528899Y-69034147D01*
X204143752Y-69034147D01*
X204990000Y-69880395D01*
X205836248Y-69034147D01*
X205759044Y-68785437D01*
X205212750Y-68588157D01*
X204632544Y-68614952D01*
X204220956Y-68785437D01*
X204143752Y-69034147D01*
X203528899Y-69034147D01*
X203317024Y-68822272D01*
X202780412Y-68600000D01*
X202199588Y-68600000D01*
X201662976Y-68822272D01*
X201252272Y-69232976D01*
X201240000Y-69262603D01*
X201227728Y-69232976D01*
X200817024Y-68822272D01*
X200280412Y-68600000D01*
X199699588Y-68600000D01*
X199242633Y-68789277D01*
X199458177Y-68573733D01*
X199650000Y-68110630D01*
X199650000Y-67609370D01*
X199458177Y-67146267D01*
X199103733Y-66791823D01*
X198640630Y-66600000D01*
X198139370Y-66600000D01*
X197676267Y-66791823D01*
X197321823Y-67146267D01*
X197130000Y-67609370D01*
X197130000Y-68110630D01*
X197321823Y-68573733D01*
X197676267Y-68928177D01*
X198139370Y-69120000D01*
X198640630Y-69120000D01*
X199024076Y-68961172D01*
X198752272Y-69232976D01*
X198530000Y-69769588D01*
X198530000Y-70350412D01*
X198554833Y-70410364D01*
X195355530Y-73609669D01*
X195292071Y-73652071D01*
X195124096Y-73903464D01*
X195080000Y-74125149D01*
X195080000Y-74125153D01*
X195065112Y-74200000D01*
X195080000Y-74274847D01*
X195080001Y-79695197D01*
X194035199Y-80740000D01*
X190543037Y-80740000D01*
X190884278Y-80598653D01*
X191288653Y-80194278D01*
X191507500Y-79665936D01*
X191507500Y-79094064D01*
X191288653Y-78565722D01*
X190884278Y-78161347D01*
X190355936Y-77942500D01*
X189784064Y-77942500D01*
X189456178Y-78078315D01*
X189490428Y-78055430D01*
X189532830Y-77991971D01*
X189729785Y-77795017D01*
X189784064Y-77817500D01*
X190355936Y-77817500D01*
X190884278Y-77598653D01*
X191288653Y-77194278D01*
X191507500Y-76665936D01*
X191507500Y-76094064D01*
X191288653Y-75565722D01*
X190884278Y-75161347D01*
X190355936Y-74942500D01*
X189784064Y-74942500D01*
X189255722Y-75161347D01*
X188851347Y-75565722D01*
X188632500Y-76094064D01*
X188632500Y-76665936D01*
X188654983Y-76720215D01*
X188627698Y-76747501D01*
X188473715Y-76747501D01*
X188507500Y-76665936D01*
X188507500Y-76094064D01*
X188288653Y-75565722D01*
X187884278Y-75161347D01*
X187355936Y-74942500D01*
X186784064Y-74942500D01*
X186255722Y-75161347D01*
X185851347Y-75565722D01*
X185632500Y-76094064D01*
X185632500Y-76665936D01*
X185654983Y-76720215D01*
X185364832Y-77010366D01*
X185507500Y-76665936D01*
X185507500Y-76094064D01*
X185288653Y-75565722D01*
X184884278Y-75161347D01*
X184355936Y-74942500D01*
X183784064Y-74942500D01*
X183255722Y-75161347D01*
X182851347Y-75565722D01*
X182632500Y-76094064D01*
X182632500Y-76665936D01*
X182654983Y-76720215D01*
X182364832Y-77010367D01*
X182507500Y-76665936D01*
X182507500Y-76094064D01*
X182288653Y-75565722D01*
X181884278Y-75161347D01*
X181355936Y-74942500D01*
X180784064Y-74942500D01*
X180255722Y-75161347D01*
X179851347Y-75565722D01*
X179632500Y-76094064D01*
X179632500Y-76665936D01*
X179654983Y-76720215D01*
X179627698Y-76747501D01*
X179473715Y-76747501D01*
X179507500Y-76665936D01*
X179507500Y-76094064D01*
X179288653Y-75565722D01*
X178884278Y-75161347D01*
X178355936Y-74942500D01*
X177784064Y-74942500D01*
X177255722Y-75161347D01*
X176851347Y-75565722D01*
X176828864Y-75620000D01*
X176164848Y-75620000D01*
X176090000Y-75605112D01*
X176015152Y-75620000D01*
X176015148Y-75620000D01*
X175793463Y-75664096D01*
X175542071Y-75832071D01*
X175499671Y-75895527D01*
X173945530Y-77449669D01*
X173882071Y-77492071D01*
X173714096Y-77743464D01*
X173670000Y-77965149D01*
X173670000Y-77965153D01*
X173655112Y-78040000D01*
X173670000Y-78114847D01*
X173670001Y-81901558D01*
X173655112Y-81976410D01*
X173714097Y-82272947D01*
X173753929Y-82332560D01*
X173642362Y-82332560D01*
X173482000Y-82172198D01*
X173482000Y-81915000D01*
X173472333Y-81866399D01*
X173444803Y-81825197D01*
X173403601Y-81797667D01*
X173355000Y-81788000D01*
X173097801Y-81788000D01*
X171945331Y-80635530D01*
X171902929Y-80572071D01*
X171651537Y-80404096D01*
X171429852Y-80360000D01*
X171429847Y-80360000D01*
X171355000Y-80345112D01*
X171280153Y-80360000D01*
X170285778Y-80360000D01*
X170279127Y-80326564D01*
X170084586Y-80035414D01*
X169793436Y-79840873D01*
X169450001Y-79772560D01*
X168799999Y-79772560D01*
X168456564Y-79840873D01*
X168165414Y-80035414D01*
X168100000Y-80133313D01*
X168034586Y-80035414D01*
X167743436Y-79840873D01*
X167400001Y-79772560D01*
X166749999Y-79772560D01*
X166406564Y-79840873D01*
X166115414Y-80035414D01*
X165920873Y-80326564D01*
X165914222Y-80360000D01*
X165303819Y-80360000D01*
X165228972Y-80345112D01*
X165154125Y-80360000D01*
X165154120Y-80360000D01*
X164932435Y-80404096D01*
X164761966Y-80518000D01*
X160867440Y-80518000D01*
X160867440Y-80317500D01*
X160806929Y-80013290D01*
X160634607Y-79755393D01*
X160376710Y-79583071D01*
X160072500Y-79522560D01*
X160050594Y-79522560D01*
X159350206Y-78822173D01*
X159371425Y-78813384D01*
X159517500Y-78842440D01*
X159642500Y-78842440D01*
X159830000Y-78805144D01*
X160017500Y-78842440D01*
X160142500Y-78842440D01*
X160330000Y-78805144D01*
X160517500Y-78842440D01*
X160642500Y-78842440D01*
X160830000Y-78805144D01*
X161017500Y-78842440D01*
X161142500Y-78842440D01*
X161286496Y-78813797D01*
X161417171Y-78944473D01*
X161459571Y-79007929D01*
X161710963Y-79175904D01*
X161932648Y-79220000D01*
X161932652Y-79220000D01*
X162007499Y-79234888D01*
X162082346Y-79220000D01*
X164827653Y-79220000D01*
X164902500Y-79234888D01*
X164977347Y-79220000D01*
X164977352Y-79220000D01*
X165199037Y-79175904D01*
X165450429Y-79007929D01*
X165492831Y-78944470D01*
X167144862Y-77292440D01*
X168055000Y-77292440D01*
X168398435Y-77224126D01*
X168689586Y-77029586D01*
X168884126Y-76738435D01*
X168952440Y-76395000D01*
X168952440Y-75145000D01*
X168884126Y-74801565D01*
X168689586Y-74510414D01*
X168398435Y-74315874D01*
X168055000Y-74247560D01*
X167667621Y-74247560D01*
X167854126Y-73968435D01*
X167922440Y-73625000D01*
X167922440Y-72375000D01*
X167874252Y-72132745D01*
X168048690Y-72205000D01*
X168211375Y-72205000D01*
X168177560Y-72375000D01*
X168177560Y-73625000D01*
X168245874Y-73968435D01*
X168440414Y-74259586D01*
X168731565Y-74454126D01*
X169075000Y-74522440D01*
X169462379Y-74522440D01*
X169275874Y-74801565D01*
X169207560Y-75145000D01*
X169207560Y-76395000D01*
X169275874Y-76738435D01*
X169470414Y-77029586D01*
X169761565Y-77224126D01*
X169807501Y-77233263D01*
X169807501Y-77552648D01*
X169792612Y-77627500D01*
X169807501Y-77702352D01*
X169824617Y-77788399D01*
X169851597Y-77924037D01*
X169972733Y-78105329D01*
X170019572Y-78175429D01*
X170083028Y-78217829D01*
X171575000Y-79709802D01*
X171575000Y-79875874D01*
X171732569Y-80256280D01*
X172023720Y-80547431D01*
X172404126Y-80705000D01*
X172815874Y-80705000D01*
X173196280Y-80547431D01*
X173487431Y-80256280D01*
X173645000Y-79875874D01*
X173645000Y-79464126D01*
X173487431Y-79083720D01*
X173196280Y-78792569D01*
X172815874Y-78635000D01*
X172649802Y-78635000D01*
X172475722Y-78460921D01*
X172846280Y-78307431D01*
X173137431Y-78016280D01*
X173295000Y-77635874D01*
X173295000Y-77224126D01*
X173137431Y-76843720D01*
X173020000Y-76726289D01*
X173020000Y-74984847D01*
X173034888Y-74910000D01*
X173020000Y-74835153D01*
X173020000Y-74835148D01*
X172975904Y-74613463D01*
X172807929Y-74362071D01*
X172744473Y-74319671D01*
X170940331Y-72515530D01*
X170897929Y-72452071D01*
X170897440Y-72451744D01*
X170897440Y-72375000D01*
X170829126Y-72031565D01*
X170634586Y-71740414D01*
X170560000Y-71690577D01*
X170560000Y-71630349D01*
X178060000Y-71630349D01*
X178060000Y-72489651D01*
X178388840Y-73283542D01*
X178996458Y-73891160D01*
X179790349Y-74220000D01*
X180649651Y-74220000D01*
X181443542Y-73891160D01*
X182051160Y-73283542D01*
X182380000Y-72489651D01*
X182380000Y-71630349D01*
X185760000Y-71630349D01*
X185760000Y-72489651D01*
X186088840Y-73283542D01*
X186696458Y-73891160D01*
X187490349Y-74220000D01*
X188349651Y-74220000D01*
X189143542Y-73891160D01*
X189751160Y-73283542D01*
X190080000Y-72489651D01*
X190080000Y-71630349D01*
X189751160Y-70836458D01*
X189143542Y-70228840D01*
X188349651Y-69900000D01*
X187490349Y-69900000D01*
X186696458Y-70228840D01*
X186088840Y-70836458D01*
X185760000Y-71630349D01*
X182380000Y-71630349D01*
X182051160Y-70836458D01*
X181443542Y-70228840D01*
X180649651Y-69900000D01*
X179790349Y-69900000D01*
X178996458Y-70228840D01*
X178388840Y-70836458D01*
X178060000Y-71630349D01*
X170560000Y-71630349D01*
X170560000Y-71143250D01*
X170401250Y-70984500D01*
X169177000Y-70984500D01*
X169177000Y-71004500D01*
X168923000Y-71004500D01*
X168923000Y-70984500D01*
X168903000Y-70984500D01*
X168903000Y-70730500D01*
X168923000Y-70730500D01*
X168923000Y-69668750D01*
X169177000Y-69668750D01*
X169177000Y-70730500D01*
X170401250Y-70730500D01*
X170560000Y-70571750D01*
X170560000Y-70018691D01*
X170463327Y-69785302D01*
X170284699Y-69606673D01*
X170051310Y-69510000D01*
X169335750Y-69510000D01*
X169177000Y-69668750D01*
X168923000Y-69668750D01*
X168764250Y-69510000D01*
X168048690Y-69510000D01*
X167815301Y-69606673D01*
X167636673Y-69785302D01*
X167631384Y-69798071D01*
X167619586Y-69780414D01*
X167328435Y-69585874D01*
X166985000Y-69517560D01*
X165735000Y-69517560D01*
X165391565Y-69585874D01*
X165100414Y-69780414D01*
X164905874Y-70071565D01*
X164837560Y-70415000D01*
X164837560Y-70488279D01*
X164834096Y-70493463D01*
X164775111Y-70790000D01*
X164834096Y-71086537D01*
X164837560Y-71091721D01*
X164837560Y-71165000D01*
X164847519Y-71215068D01*
X164822072Y-71232071D01*
X164779672Y-71295527D01*
X164779671Y-71295528D01*
X164654097Y-71483463D01*
X164595112Y-71780000D01*
X164610001Y-71854852D01*
X164610000Y-74045198D01*
X164520000Y-74135198D01*
X164520000Y-71784846D01*
X164534888Y-71709999D01*
X164520000Y-71635152D01*
X164520000Y-71635148D01*
X164502363Y-71546480D01*
X164542440Y-71345000D01*
X164542440Y-70595000D01*
X164474126Y-70251565D01*
X164279586Y-69960414D01*
X163988435Y-69765874D01*
X163645000Y-69697560D01*
X162395000Y-69697560D01*
X162051565Y-69765874D01*
X161760414Y-69960414D01*
X161565874Y-70251565D01*
X161500000Y-70582733D01*
X161500000Y-70196191D01*
X161403327Y-69962802D01*
X161224699Y-69784173D01*
X160991310Y-69687500D01*
X160275750Y-69687500D01*
X160117000Y-69846250D01*
X160117000Y-70908000D01*
X160137000Y-70908000D01*
X160137000Y-71162000D01*
X160117000Y-71162000D01*
X160117000Y-71182000D01*
X159863000Y-71182000D01*
X159863000Y-71162000D01*
X158638750Y-71162000D01*
X158480000Y-71320750D01*
X158480000Y-71805019D01*
X158330000Y-71834856D01*
X158142500Y-71797560D01*
X158017500Y-71797560D01*
X157830000Y-71834856D01*
X157642500Y-71797560D01*
X157557242Y-71797560D01*
X158089473Y-71265329D01*
X158152929Y-71222929D01*
X158193225Y-71162622D01*
X158231152Y-71155078D01*
X158518247Y-70963247D01*
X158588643Y-70857893D01*
X158638750Y-70908000D01*
X159863000Y-70908000D01*
X159863000Y-69846250D01*
X159704250Y-69687500D01*
X158988690Y-69687500D01*
X158761361Y-69781663D01*
X158710078Y-69523848D01*
X158518247Y-69236753D01*
X158231152Y-69044922D01*
X157892500Y-68977560D01*
X157317500Y-68977560D01*
X156978848Y-69044922D01*
X156730000Y-69211197D01*
X156592202Y-69119123D01*
X156570904Y-69012052D01*
X156402929Y-68760660D01*
X156339473Y-68718260D01*
X155218713Y-67597500D01*
X158467560Y-67597500D01*
X158467560Y-68522500D01*
X158535874Y-68865935D01*
X158730414Y-69157086D01*
X159021565Y-69351626D01*
X159365000Y-69419940D01*
X160615000Y-69419940D01*
X160958435Y-69351626D01*
X161249586Y-69157086D01*
X161444126Y-68865935D01*
X161453263Y-68820000D01*
X161552261Y-68820000D01*
X161565874Y-68888435D01*
X161760414Y-69179586D01*
X162051565Y-69374126D01*
X162395000Y-69442440D01*
X163645000Y-69442440D01*
X163988435Y-69374126D01*
X164279586Y-69179586D01*
X164474126Y-68888435D01*
X164542440Y-68545000D01*
X164542440Y-67795000D01*
X164506636Y-67615000D01*
X164837560Y-67615000D01*
X164837560Y-68365000D01*
X164905874Y-68708435D01*
X165100414Y-68999586D01*
X165391565Y-69194126D01*
X165735000Y-69262440D01*
X166985000Y-69262440D01*
X167328435Y-69194126D01*
X167619586Y-68999586D01*
X167711682Y-68861754D01*
X167790414Y-68979586D01*
X168081565Y-69174126D01*
X168425000Y-69242440D01*
X169675000Y-69242440D01*
X170018435Y-69174126D01*
X170309586Y-68979586D01*
X170504126Y-68688435D01*
X170572440Y-68345000D01*
X170572440Y-67420000D01*
X170504126Y-67076565D01*
X170309586Y-66785414D01*
X170018435Y-66590874D01*
X169675000Y-66522560D01*
X168425000Y-66522560D01*
X168081565Y-66590874D01*
X167790414Y-66785414D01*
X167639853Y-67010746D01*
X167619586Y-66980414D01*
X167328435Y-66785874D01*
X166985000Y-66717560D01*
X165735000Y-66717560D01*
X165391565Y-66785874D01*
X165100414Y-66980414D01*
X164905874Y-67271565D01*
X164837560Y-67615000D01*
X164506636Y-67615000D01*
X164474126Y-67451565D01*
X164279586Y-67160414D01*
X163988435Y-66965874D01*
X163645000Y-66897560D01*
X162395000Y-66897560D01*
X162051565Y-66965874D01*
X161760414Y-67160414D01*
X161667146Y-67300000D01*
X161453263Y-67300000D01*
X161444126Y-67254065D01*
X161249586Y-66962914D01*
X160958435Y-66768374D01*
X160615000Y-66700060D01*
X159365000Y-66700060D01*
X159021565Y-66768374D01*
X158730414Y-66962914D01*
X158535874Y-67254065D01*
X158467560Y-67597500D01*
X155218713Y-67597500D01*
X153899242Y-66278030D01*
X153856840Y-66214571D01*
X153785645Y-66167000D01*
X208153000Y-66167000D01*
X208153000Y-111050000D01*
G37*
G04 #@! TD.AperFunction*
X192000000Y-99517440D02*
X193325000Y-99517440D01*
X193570001Y-99468707D01*
X193570001Y-105495000D01*
X193323744Y-105495000D01*
X192890582Y-105581161D01*
X192399375Y-105909375D01*
X192200000Y-106207761D01*
X192000625Y-105909375D01*
X191690000Y-105701822D01*
X191690000Y-105544848D01*
X191704888Y-105470000D01*
X191690000Y-105395152D01*
X191690000Y-105395148D01*
X191645904Y-105173463D01*
X191477929Y-104922071D01*
X191414473Y-104879671D01*
X190520331Y-103985530D01*
X190477929Y-103922071D01*
X190226537Y-103754096D01*
X190004852Y-103710000D01*
X190004847Y-103710000D01*
X189930000Y-103695112D01*
X189855153Y-103710000D01*
X184064802Y-103710000D01*
X182300000Y-101945199D01*
X182300000Y-101742576D01*
X182425000Y-101767440D01*
X182575000Y-101767440D01*
X182750000Y-101732631D01*
X182925000Y-101767440D01*
X183075000Y-101767440D01*
X183250000Y-101732631D01*
X183425000Y-101767440D01*
X183575000Y-101767440D01*
X183695741Y-101743423D01*
X183723690Y-101755000D01*
X183766250Y-101755000D01*
X183798209Y-101723041D01*
X183851466Y-101712448D01*
X184000000Y-101613200D01*
X184148534Y-101712448D01*
X184201791Y-101723041D01*
X184233750Y-101755000D01*
X184276310Y-101755000D01*
X184304259Y-101743423D01*
X184425000Y-101767440D01*
X184575000Y-101767440D01*
X184750000Y-101732631D01*
X184925000Y-101767440D01*
X185075000Y-101767440D01*
X185250000Y-101732631D01*
X185425000Y-101767440D01*
X185575000Y-101767440D01*
X185750000Y-101732631D01*
X185925000Y-101767440D01*
X186075000Y-101767440D01*
X186250000Y-101732631D01*
X186425000Y-101767440D01*
X186575000Y-101767440D01*
X186750000Y-101732631D01*
X186925000Y-101767440D01*
X187075000Y-101767440D01*
X187250000Y-101732631D01*
X187425000Y-101767440D01*
X187575000Y-101767440D01*
X187750000Y-101732631D01*
X187925000Y-101767440D01*
X188075000Y-101767440D01*
X188250000Y-101732631D01*
X188425000Y-101767440D01*
X188575000Y-101767440D01*
X188750000Y-101732631D01*
X188925000Y-101767440D01*
X189075000Y-101767440D01*
X189250000Y-101732631D01*
X189425000Y-101767440D01*
X189575000Y-101767440D01*
X189750000Y-101732631D01*
X189925000Y-101767440D01*
X190075000Y-101767440D01*
X190250000Y-101732631D01*
X190425000Y-101767440D01*
X190575000Y-101767440D01*
X190750000Y-101732631D01*
X190925000Y-101767440D01*
X191075000Y-101767440D01*
X191351466Y-101712448D01*
X191585842Y-101555842D01*
X191742448Y-101321466D01*
X191797440Y-101045000D01*
X191797440Y-99720000D01*
X191747144Y-99467144D01*
X192000000Y-99517440D01*
X192000000Y-99517440D02*
X191747144Y-99467144D01*
G04 #@! TA.AperFunction,Conductor*
G36*
X192000000Y-99517440D02*
G01*
X193325000Y-99517440D01*
X193570001Y-99468707D01*
X193570001Y-105495000D01*
X193323744Y-105495000D01*
X192890582Y-105581161D01*
X192399375Y-105909375D01*
X192200000Y-106207761D01*
X192000625Y-105909375D01*
X191690000Y-105701822D01*
X191690000Y-105544848D01*
X191704888Y-105470000D01*
X191690000Y-105395152D01*
X191690000Y-105395148D01*
X191645904Y-105173463D01*
X191477929Y-104922071D01*
X191414473Y-104879671D01*
X190520331Y-103985530D01*
X190477929Y-103922071D01*
X190226537Y-103754096D01*
X190004852Y-103710000D01*
X190004847Y-103710000D01*
X189930000Y-103695112D01*
X189855153Y-103710000D01*
X184064802Y-103710000D01*
X182300000Y-101945199D01*
X182300000Y-101742576D01*
X182425000Y-101767440D01*
X182575000Y-101767440D01*
X182750000Y-101732631D01*
X182925000Y-101767440D01*
X183075000Y-101767440D01*
X183250000Y-101732631D01*
X183425000Y-101767440D01*
X183575000Y-101767440D01*
X183695741Y-101743423D01*
X183723690Y-101755000D01*
X183766250Y-101755000D01*
X183798209Y-101723041D01*
X183851466Y-101712448D01*
X184000000Y-101613200D01*
X184148534Y-101712448D01*
X184201791Y-101723041D01*
X184233750Y-101755000D01*
X184276310Y-101755000D01*
X184304259Y-101743423D01*
X184425000Y-101767440D01*
X184575000Y-101767440D01*
X184750000Y-101732631D01*
X184925000Y-101767440D01*
X185075000Y-101767440D01*
X185250000Y-101732631D01*
X185425000Y-101767440D01*
X185575000Y-101767440D01*
X185750000Y-101732631D01*
X185925000Y-101767440D01*
X186075000Y-101767440D01*
X186250000Y-101732631D01*
X186425000Y-101767440D01*
X186575000Y-101767440D01*
X186750000Y-101732631D01*
X186925000Y-101767440D01*
X187075000Y-101767440D01*
X187250000Y-101732631D01*
X187425000Y-101767440D01*
X187575000Y-101767440D01*
X187750000Y-101732631D01*
X187925000Y-101767440D01*
X188075000Y-101767440D01*
X188250000Y-101732631D01*
X188425000Y-101767440D01*
X188575000Y-101767440D01*
X188750000Y-101732631D01*
X188925000Y-101767440D01*
X189075000Y-101767440D01*
X189250000Y-101732631D01*
X189425000Y-101767440D01*
X189575000Y-101767440D01*
X189750000Y-101732631D01*
X189925000Y-101767440D01*
X190075000Y-101767440D01*
X190250000Y-101732631D01*
X190425000Y-101767440D01*
X190575000Y-101767440D01*
X190750000Y-101732631D01*
X190925000Y-101767440D01*
X191075000Y-101767440D01*
X191351466Y-101712448D01*
X191585842Y-101555842D01*
X191742448Y-101321466D01*
X191797440Y-101045000D01*
X191797440Y-99720000D01*
X191747144Y-99467144D01*
X192000000Y-99517440D01*
G37*
G04 #@! TD.AperFunction*
X195074922Y-86058848D02*
X195007560Y-86397500D01*
X195007560Y-86460000D01*
X194035000Y-86460000D01*
X194035000Y-86443691D01*
X193938327Y-86210302D01*
X193759699Y-86031673D01*
X193526310Y-85935000D01*
X192948250Y-85935000D01*
X192789500Y-86093750D01*
X192789500Y-86422560D01*
X192535500Y-86422560D01*
X192535500Y-86093750D01*
X192376750Y-85935000D01*
X191798690Y-85935000D01*
X191750722Y-85954869D01*
X191778046Y-85817500D01*
X195236186Y-85817500D01*
X195074922Y-86058848D01*
X195074922Y-86058848D02*
X195236186Y-85817500D01*
G04 #@! TA.AperFunction,Conductor*
G36*
X195074922Y-86058848D02*
G01*
X195007560Y-86397500D01*
X195007560Y-86460000D01*
X194035000Y-86460000D01*
X194035000Y-86443691D01*
X193938327Y-86210302D01*
X193759699Y-86031673D01*
X193526310Y-85935000D01*
X192948250Y-85935000D01*
X192789500Y-86093750D01*
X192789500Y-86422560D01*
X192535500Y-86422560D01*
X192535500Y-86093750D01*
X192376750Y-85935000D01*
X191798690Y-85935000D01*
X191750722Y-85954869D01*
X191778046Y-85817500D01*
X195236186Y-85817500D01*
X195074922Y-86058848D01*
G37*
G04 #@! TD.AperFunction*
X188851347Y-78565722D02*
X188632500Y-79094064D01*
X188632500Y-79665936D01*
X188851347Y-80194278D01*
X189255722Y-80598653D01*
X189596963Y-80740000D01*
X188804846Y-80740000D01*
X188729999Y-80725112D01*
X188655152Y-80740000D01*
X188655148Y-80740000D01*
X188433463Y-80784096D01*
X188182071Y-80952071D01*
X188139671Y-81015527D01*
X187830000Y-81325198D01*
X187830000Y-80621136D01*
X187884278Y-80598653D01*
X188288653Y-80194278D01*
X188507500Y-79665936D01*
X188507500Y-79094064D01*
X188288653Y-78565722D01*
X187990432Y-78267501D01*
X188867652Y-78267501D01*
X188942499Y-78282389D01*
X189017346Y-78267501D01*
X189017351Y-78267501D01*
X189182398Y-78234671D01*
X188851347Y-78565722D01*
X188851347Y-78565722D02*
X189182398Y-78234671D01*
G04 #@! TA.AperFunction,Conductor*
G36*
X188851347Y-78565722D02*
G01*
X188632500Y-79094064D01*
X188632500Y-79665936D01*
X188851347Y-80194278D01*
X189255722Y-80598653D01*
X189596963Y-80740000D01*
X188804846Y-80740000D01*
X188729999Y-80725112D01*
X188655152Y-80740000D01*
X188655148Y-80740000D01*
X188433463Y-80784096D01*
X188182071Y-80952071D01*
X188139671Y-81015527D01*
X187830000Y-81325198D01*
X187830000Y-80621136D01*
X187884278Y-80598653D01*
X188288653Y-80194278D01*
X188507500Y-79665936D01*
X188507500Y-79094064D01*
X188288653Y-78565722D01*
X187990432Y-78267501D01*
X188867652Y-78267501D01*
X188942499Y-78282389D01*
X189017346Y-78267501D01*
X189017351Y-78267501D01*
X189182398Y-78234671D01*
X188851347Y-78565722D01*
G37*
G04 #@! TD.AperFunction*
M02*
