G04 #@! TF.GenerationSoftware,KiCad,Pcbnew,(6.0.7)*
G04 #@! TF.CreationDate,2022-12-18T06:42:30+05:30*
G04 #@! TF.ProjectId,MicrocontrollerPcb,4d696372-6f63-46f6-9e74-726f6c6c6572,rev?*
G04 #@! TF.SameCoordinates,Original*
G04 #@! TF.FileFunction,Paste,Top*
G04 #@! TF.FilePolarity,Positive*
%FSLAX46Y46*%
G04 Gerber Fmt 4.6, Leading zero omitted, Abs format (unit mm)*
G04 Created by KiCad (PCBNEW (6.0.7)) date 2022-12-18 06:42:30*
%MOMM*%
%LPD*%
G01*
G04 APERTURE LIST*
G04 Aperture macros list*
%AMRoundRect*
0 Rectangle with rounded corners*
0 $1 Rounding radius*
0 $2 $3 $4 $5 $6 $7 $8 $9 X,Y pos of 4 corners*
0 Add a 4 corners polygon primitive as box body*
4,1,4,$2,$3,$4,$5,$6,$7,$8,$9,$2,$3,0*
0 Add four circle primitives for the rounded corners*
1,1,$1+$1,$2,$3*
1,1,$1+$1,$4,$5*
1,1,$1+$1,$6,$7*
1,1,$1+$1,$8,$9*
0 Add four rect primitives between the rounded corners*
20,1,$1+$1,$2,$3,$4,$5,0*
20,1,$1+$1,$4,$5,$6,$7,0*
20,1,$1+$1,$6,$7,$8,$9,0*
20,1,$1+$1,$8,$9,$2,$3,0*%
G04 Aperture macros list end*
%ADD10RoundRect,0.250001X0.462499X0.624999X-0.462499X0.624999X-0.462499X-0.624999X0.462499X-0.624999X0*%
%ADD11RoundRect,0.237500X-0.287500X-0.237500X0.287500X-0.237500X0.287500X0.237500X-0.287500X0.237500X0*%
%ADD12RoundRect,0.237500X0.287500X0.237500X-0.287500X0.237500X-0.287500X-0.237500X0.287500X-0.237500X0*%
%ADD13RoundRect,0.237500X0.237500X-0.287500X0.237500X0.287500X-0.237500X0.287500X-0.237500X-0.287500X0*%
%ADD14RoundRect,0.250000X0.450000X-0.325000X0.450000X0.325000X-0.450000X0.325000X-0.450000X-0.325000X0*%
%ADD15RoundRect,0.250000X-0.325000X-0.450000X0.325000X-0.450000X0.325000X0.450000X-0.325000X0.450000X0*%
%ADD16RoundRect,0.250000X-0.450000X0.325000X-0.450000X-0.325000X0.450000X-0.325000X0.450000X0.325000X0*%
%ADD17R,2.000000X1.350000*%
%ADD18R,0.700000X1.825000*%
%ADD19R,1.500000X2.000000*%
%ADD20R,1.650000X0.400000*%
%ADD21R,2.500000X1.430000*%
%ADD22RoundRect,0.250000X0.625000X-0.375000X0.625000X0.375000X-0.625000X0.375000X-0.625000X-0.375000X0*%
%ADD23RoundRect,0.207500X0.207500X-0.207500X0.207500X0.207500X-0.207500X0.207500X-0.207500X-0.207500X0*%
%ADD24RoundRect,0.062500X0.062500X-0.375000X0.062500X0.375000X-0.062500X0.375000X-0.062500X-0.375000X0*%
%ADD25RoundRect,0.062500X0.375000X-0.062500X0.375000X0.062500X-0.375000X0.062500X-0.375000X-0.062500X0*%
%ADD26RoundRect,0.075000X-0.075000X0.662500X-0.075000X-0.662500X0.075000X-0.662500X0.075000X0.662500X0*%
%ADD27RoundRect,0.075000X-0.662500X0.075000X-0.662500X-0.075000X0.662500X-0.075000X0.662500X0.075000X0*%
%ADD28RoundRect,0.147500X-0.172500X0.147500X-0.172500X-0.147500X0.172500X-0.147500X0.172500X0.147500X0*%
%ADD29RoundRect,0.147500X-0.147500X-0.172500X0.147500X-0.172500X0.147500X0.172500X-0.147500X0.172500X0*%
%ADD30RoundRect,0.147500X0.172500X-0.147500X0.172500X0.147500X-0.172500X0.147500X-0.172500X-0.147500X0*%
%ADD31RoundRect,0.243750X-0.456250X0.243750X-0.456250X-0.243750X0.456250X-0.243750X0.456250X0.243750X0*%
%ADD32RoundRect,0.250001X-0.624999X0.462499X-0.624999X-0.462499X0.624999X-0.462499X0.624999X0.462499X0*%
%ADD33RoundRect,0.250001X0.624999X-0.462499X0.624999X0.462499X-0.624999X0.462499X-0.624999X-0.462499X0*%
G04 APERTURE END LIST*
D10*
X149077500Y-81990000D03*
X146102500Y-81990000D03*
D11*
X144780000Y-102870000D03*
X146530000Y-102870000D03*
D12*
X155855000Y-70100000D03*
X157605000Y-70100000D03*
D13*
X196130000Y-88435000D03*
X196130000Y-86685000D03*
D11*
X146535000Y-100180000D03*
X144785000Y-100180000D03*
X144785000Y-97450000D03*
X146535000Y-97450000D03*
X146530000Y-105410000D03*
X144780000Y-105410000D03*
D13*
X145020000Y-87325000D03*
X145020000Y-85575000D03*
D14*
X173660000Y-92215000D03*
X173660000Y-90165000D03*
D15*
X169125000Y-81120000D03*
X167075000Y-81120000D03*
D16*
X153020000Y-83345000D03*
X153020000Y-85395000D03*
D14*
X173790000Y-83555000D03*
X173790000Y-85605000D03*
D17*
X148005000Y-77535000D03*
X148005000Y-72055000D03*
D18*
X148755000Y-71835000D03*
X148755000Y-77785000D03*
D19*
X150055000Y-71935000D03*
X150075000Y-77685000D03*
D20*
X149955000Y-73485000D03*
X149955000Y-74135000D03*
X149955000Y-74785000D03*
X149955000Y-75435000D03*
X149955000Y-76085000D03*
D21*
X146805000Y-73825000D03*
X146805000Y-75745000D03*
D22*
X147300000Y-88330000D03*
X147300000Y-85530000D03*
X163020000Y-68170000D03*
X163020000Y-70970000D03*
X166360000Y-70790000D03*
X166360000Y-67990000D03*
D23*
X158300000Y-76350000D03*
X159330000Y-76350000D03*
X160360000Y-76350000D03*
X158300000Y-75320000D03*
X159330000Y-75320000D03*
X160360000Y-75320000D03*
X158300000Y-74290000D03*
X159330000Y-74290000D03*
X160360000Y-74290000D03*
D24*
X157580000Y-77757500D03*
X158080000Y-77757500D03*
X158580000Y-77757500D03*
X159080000Y-77757500D03*
X159580000Y-77757500D03*
X160080000Y-77757500D03*
X160580000Y-77757500D03*
X161080000Y-77757500D03*
D25*
X161767500Y-77070000D03*
X161767500Y-76570000D03*
X161767500Y-76070000D03*
X161767500Y-75570000D03*
X161767500Y-75070000D03*
X161767500Y-74570000D03*
X161767500Y-74070000D03*
X161767500Y-73570000D03*
D24*
X161080000Y-72882500D03*
X160580000Y-72882500D03*
X160080000Y-72882500D03*
X159580000Y-72882500D03*
X159080000Y-72882500D03*
X158580000Y-72882500D03*
X158080000Y-72882500D03*
X157580000Y-72882500D03*
D25*
X156892500Y-73570000D03*
X156892500Y-74070000D03*
X156892500Y-74570000D03*
X156892500Y-75070000D03*
X156892500Y-75570000D03*
X156892500Y-76070000D03*
X156892500Y-76570000D03*
X156892500Y-77070000D03*
D26*
X191000000Y-85057500D03*
X190500000Y-85057500D03*
X190000000Y-85057500D03*
X189500000Y-85057500D03*
X189000000Y-85057500D03*
X188500000Y-85057500D03*
X188000000Y-85057500D03*
X187500000Y-85057500D03*
X187000000Y-85057500D03*
X186500000Y-85057500D03*
X186000000Y-85057500D03*
X185500000Y-85057500D03*
X185000000Y-85057500D03*
X184500000Y-85057500D03*
X184000000Y-85057500D03*
X183500000Y-85057500D03*
X183000000Y-85057500D03*
X182500000Y-85057500D03*
X182000000Y-85057500D03*
X181500000Y-85057500D03*
X181000000Y-85057500D03*
X180500000Y-85057500D03*
X180000000Y-85057500D03*
X179500000Y-85057500D03*
X179000000Y-85057500D03*
D27*
X177337500Y-86720000D03*
X177337500Y-87220000D03*
X177337500Y-87720000D03*
X177337500Y-88220000D03*
X177337500Y-88720000D03*
X177337500Y-89220000D03*
X177337500Y-89720000D03*
X177337500Y-90220000D03*
X177337500Y-90720000D03*
X177337500Y-91220000D03*
X177337500Y-91720000D03*
X177337500Y-92220000D03*
X177337500Y-92720000D03*
X177337500Y-93220000D03*
X177337500Y-93720000D03*
X177337500Y-94220000D03*
X177337500Y-94720000D03*
X177337500Y-95220000D03*
X177337500Y-95720000D03*
X177337500Y-96220000D03*
X177337500Y-96720000D03*
X177337500Y-97220000D03*
X177337500Y-97720000D03*
X177337500Y-98220000D03*
X177337500Y-98720000D03*
D26*
X179000000Y-100382500D03*
X179500000Y-100382500D03*
X180000000Y-100382500D03*
X180500000Y-100382500D03*
X181000000Y-100382500D03*
X181500000Y-100382500D03*
X182000000Y-100382500D03*
X182500000Y-100382500D03*
X183000000Y-100382500D03*
X183500000Y-100382500D03*
X184000000Y-100382500D03*
X184500000Y-100382500D03*
X185000000Y-100382500D03*
X185500000Y-100382500D03*
X186000000Y-100382500D03*
X186500000Y-100382500D03*
X187000000Y-100382500D03*
X187500000Y-100382500D03*
X188000000Y-100382500D03*
X188500000Y-100382500D03*
X189000000Y-100382500D03*
X189500000Y-100382500D03*
X190000000Y-100382500D03*
X190500000Y-100382500D03*
X191000000Y-100382500D03*
D27*
X192662500Y-98720000D03*
X192662500Y-98220000D03*
X192662500Y-97720000D03*
X192662500Y-97220000D03*
X192662500Y-96720000D03*
X192662500Y-96220000D03*
X192662500Y-95720000D03*
X192662500Y-95220000D03*
X192662500Y-94720000D03*
X192662500Y-94220000D03*
X192662500Y-93720000D03*
X192662500Y-93220000D03*
X192662500Y-92720000D03*
X192662500Y-92220000D03*
X192662500Y-91720000D03*
X192662500Y-91220000D03*
X192662500Y-90720000D03*
X192662500Y-90220000D03*
X192662500Y-89720000D03*
X192662500Y-89220000D03*
X192662500Y-88720000D03*
X192662500Y-88220000D03*
X192662500Y-87720000D03*
X192662500Y-87220000D03*
X192662500Y-86720000D03*
D28*
X198910000Y-98210000D03*
X198910000Y-97240000D03*
D29*
X158955000Y-80490000D03*
X159925000Y-80490000D03*
D30*
X173320000Y-87305000D03*
X173320000Y-88275000D03*
D13*
X152310000Y-71745000D03*
X152310000Y-73495000D03*
X152480000Y-76940000D03*
X152480000Y-75190000D03*
X154080000Y-72145000D03*
X154080000Y-73895000D03*
D12*
X153615000Y-79170000D03*
X151865000Y-79170000D03*
D31*
X151650000Y-66762500D03*
X151650000Y-68637500D03*
D32*
X159990000Y-68060000D03*
X159990000Y-71035000D03*
X169050000Y-70857500D03*
X169050000Y-67882500D03*
D33*
X149830000Y-88437500D03*
X149830000Y-85462500D03*
D10*
X167592500Y-75770000D03*
X170567500Y-75770000D03*
X169537500Y-73000000D03*
X166562500Y-73000000D03*
M02*
