M48
; DRILL file {KiCad (6.0.7)} date Sun Dec 18 06:42:39 2022
; FORMAT={-:-/ absolute / metric / decimal}
; #@! TF.CreationDate,2022-12-18T06:42:39+05:30
; #@! TF.GenerationSoftware,Kicad,Pcbnew,(6.0.7)
; #@! TF.FileFunction,Plated,1,2,PTH
FMAT,2
METRIC
; #@! TA.AperFunction,Plated,PTH,ViaDrill
T1C0.400
; #@! TA.AperFunction,Plated,PTH,ComponentDrill
T2C0.650
; #@! TA.AperFunction,Plated,PTH,ComponentDrill
T3C0.700
; #@! TA.AperFunction,Plated,PTH,ComponentDrill
T4C0.800
; #@! TA.AperFunction,Plated,PTH,ComponentDrill
T5C1.000
; #@! TA.AperFunction,Plated,PTH,ComponentDrill
T6C1.070
; #@! TA.AperFunction,Plated,PTH,ComponentDrill
T7C1.100
; #@! TA.AperFunction,Plated,PTH,ComponentDrill
T8C3.050
%
G90
G05
T1
X151.212Y-76.052
X151.354Y-74.884
X152.31Y-70.3
X155.05Y-75.35
X156.64Y-78.422
X158.47Y-74.35
X158.58Y-76.07
X160.41Y-74.34
X160.42Y-76.1
X161.11Y-79.31
X172.26Y-77.43
X172.61Y-79.67
X174.343Y-96.354
X174.85Y-90.81
X175.34Y-96.43
X175.399Y-88.651
X175.62Y-86.65
X175.69Y-84.44
X189.725Y-83.63
X192.47Y-103.16
X193.01Y-83.47
X193.02Y-79.72
X194.28Y-86.22
T4
X157.51Y-83.959
X162.39Y-83.959
X169.85Y-85.76
X169.85Y-90.64
T5
X157.98Y-96.75
X157.98Y-109.75
X160.52Y-96.75
X160.52Y-109.75
X163.06Y-96.75
X163.06Y-109.75
X165.6Y-96.75
X165.6Y-109.75
X168.14Y-96.75
X168.14Y-109.75
X170.68Y-96.75
X170.68Y-109.75
X178.23Y-106.98
X178.23Y-109.52
X180.77Y-106.98
X180.77Y-109.52
X183.31Y-106.98
X183.31Y-109.52
X185.85Y-106.98
X185.85Y-109.52
X188.39Y-106.98
X188.39Y-109.52
X190.93Y-106.98
X190.93Y-109.52
X193.47Y-106.98
X193.47Y-109.52
X196.01Y-106.98
X196.01Y-109.52
X198.55Y-106.98
X198.55Y-109.52
X201.09Y-106.98
X201.09Y-109.52
X203.63Y-106.98
X203.63Y-109.52
X206.17Y-106.98
X206.17Y-109.52
T6
X151.13Y-101.9
X151.13Y-104.9
X178.07Y-76.38
X178.07Y-79.38
X181.07Y-76.38
X181.07Y-79.38
X184.07Y-76.38
X184.07Y-79.38
X187.07Y-76.38
X187.07Y-79.38
X190.07Y-76.38
X190.07Y-79.38
T7
X155.0Y-91.03
X157.5Y-91.03
X160.0Y-91.03
X162.5Y-91.03
X199.99Y-70.06
X199.99Y-77.68
X199.99Y-85.24
X200.17Y-92.75
X202.49Y-70.06
X202.49Y-77.68
X202.49Y-85.24
X202.67Y-92.75
X202.75Y-99.91
X204.99Y-70.06
X204.99Y-77.68
X204.99Y-85.24
X205.17Y-92.75
X205.25Y-99.91
T8
X151.13Y-109.22
T2
G00X149.875Y-72.365
M15
G01X150.275Y-72.365
M16
G05
G00X149.875Y-77.205
M15
G01X150.275Y-77.205
M16
G05
T3
G00X146.825Y-72.055
M15
G01X147.325Y-72.055
M16
G05
G00X146.825Y-77.515
M15
G01X147.325Y-77.515
M16
G05
T0
M30
